<?xml version="1.0" encoding="utf-8"?>
<!-- Generator: Adobe Illustrator 18.0.0, SVG Export Plug-In . SVG Version: 6.00 Build 0)  -->
<!DOCTYPE svg PUBLIC "-//W3C//DTD SVG 1.1//EN" "http://www.w3.org/Graphics/SVG/1.1/DTD/svg11.dtd">
<svg version="1.1" id="Layer_1" xmlns="http://www.w3.org/2000/svg" xmlns:xlink="http://www.w3.org/1999/xlink" x="0px" y="0px"
	 viewBox="0 0 499 451" enable-background="new 0 0 499 451" xml:space="preserve">
<path fill="#080808" d="M257,19.1c1.1-0.7,2.2-1.6,3.2-2.4c3.1,1.9,0.8,5.5-1.8,6.7c-4.3,2.3-7.3,6-10.7,9.3c-3.1,2.8-4.3,7-7,10
	c-4.6,4.4-6,10.9-8.4,16.6c-3.1,6.9-1.5,14.7-3.2,21.8c0.7,5.6,1.9,11.1,2.1,16.8c2.3,5.4,4,11,5.3,16.8c2.5,5.4,4.5,11.2,7.8,16.3
	c2.9,4.6,4.5,9.8,7.8,14.2c3.7,5.1,6.4,10.8,10.3,15.7c4.2,4.5,9,8.4,12.5,13.5c5.6,4.4,11.4,9,18.4,11c2.3-0.5,4.6-1.2,6.9-0.2
	c3.4-3.3-1.9-6.1-2.7-9.3c-1.9-8.1-5.1-16.1-3.9-24.6c2.1-8.9,3.7-18,7.5-26.4c5.5-8.6,12.9-15.8,19.1-23.9
	c4.7-3.3,9.4-6.7,14.6-9.4c4.2-5.6,9.9-9.5,15.1-13.9c5.6-5.1,11.9-9.4,18-14c5.7-4.4,12.5-6.9,18.7-10.3c5-2.8,10.7-3.8,15.8-6.2
	c6.1-2.8,12.9-3.5,19.3-5.6c3.6-0.5,7.1-1.3,10.5-2.6c1.3,1.6,0.6,3.3-0.1,4.9c-8,1.1-15.6,3.7-23.4,5.5c-5.5,2.3-11.1,4.3-16.8,6.3
	c-7.9,4-16.2,7.4-23.3,12.7c-5.5,4.2-11.3,8-16.3,12.7c-2.5,1.7-4.8,3.7-6.6,6.2c2.8-0.7,5.4-1.8,8.2-2.4c-0.4-1.3-1.1-2.9,0.4-3.7
	c12.1,2,24.8,2.2,35.9,8c0.9-0.8,1.8-1.5,2.8-2.3c3.6,1.7,6.6,4.4,10.2,6c2.9,1.7,3.3,5.4,4.6,8.3c1,3.6,4,6.1,5.8,9.2
	c3.3,5.8,6.1,11.9,7.6,18.4c1.2,3.7,0.3,7.7,1.5,11.5c0.4,5.5,0.3,11,0,16.5c-1.4,4.2-0.1,8.8-2.1,12.9c-2.4,4.9-4.7,9.9-7.4,14.6
	c-3.2,2.8-5.9,6.1-9,9c-5.1,3.3-9.9,7.2-15.6,9.4c-6.8,1.9-13.7,3.1-20.7,4.3c-5.9,0.1-11.8,0.2-17.7-0.1
	c-8.6-2.1-17.1-4.6-25.8-6.2c-4.8-1.8-9-4.7-13.1-7.7c-0.9,1.1-1.9,2.1-2.8,3.2c-1.5-0.3-3-0.6-4.5-1.1c0.1-2.8,0.1-5.7-0.1-8.5
	c-4.4,6.8-9.6,13.1-13,20.5c-2.4,5-5.3,9.8-6.9,15.1c-1.1,3.5-2.3,7-3.5,10.5c-1.8,4.6-4.2,9.3-3.7,14.5c0.5,5.3,2.3,10.6,2,16
	c-0.2,6.5,2.9,12.4,4.5,18.6c1.1,2.6,2.3,5.2,3,8c2.4,3.7,5.1,7.4,6.5,11.6c0.4,1.7-0.5,4.3-2.6,3.7c-1.9-2.7-2.9-5.8-4.6-8.5
	c-4.2-5.9-5.9-13-8.3-19.7c-2.2-4.9-2.3-10.3-2.4-15.6c-1.4-7.1-2.6-14.4-1.5-21.7c2.7-7.7,5.5-15.3,8-23
	c4.4-9.6,9.2-19.2,15.8-27.5c-2.4,0-4.7,0.1-7.1-0.1c-7.7-2.3-14-7.7-19.9-13.1c-3.3-4.9-8-8.7-12-13c-3.8-4.9-6.6-10.6-10.3-15.7
	c-3.1-4.2-4.7-9.2-7.4-13.6c-3.6-5.4-5.9-11.6-8.4-17.6c-1.1-5.5-3-10.8-5-16c0-8.3-3.8-16.6-1.3-24.9c0.2-5.4,0.2-11,1.8-16.2
	c2.4-5.3,3.8-11,7.1-15.8c3-2.9,4.9-6.5,7-10C246.7,28,251.1,22.6,257,19.1 M344.2,87.2C344.9,87.9,344.9,87.9,344.2,87.2
	 M357.1,88.1c-6.1,2.3-12.5,3.8-18.5,6.5c-4.4,1.9-5.7,6.8-7.8,10.6c7.7-4.5,15-9.9,23.3-13.2c5-0.8,10,1,14.1,3.7
	c2.7,2.1,2.5,6,3,9.1c1.7,6.7,4.4,13.2,9.2,18.4c-1,0.9-2.5,2.9-4,1.6c-3.7-3.8-6.6-8.4-7.6-13.7c-3.5-1.1-6.2-4.1-9.6-5.2
	c-2.7,2.7-4.9,6-7.8,8.6c-1.4,2.7-2.7,5.6-5.5,7.2c3.9,1.1,7.9,2.2,11.8,3.4c1.4-5.5,5.7-9.7,9.1-14c0.1,0.3,0.2,0.9,0.2,1.2
	c-3,3-5.4,6.6-7.7,10.2c-1,1,0.2,2.3,0.6,3.3c2.5-1.1,5.3-0.6,7.9-1c2.3-0.5,4.6-1.3,6.9-0.6c1.1,0.5,2.1,2.4,0.6,3.1
	c-4.8,2.1-10.4,1.3-15.4,2.7c-4.2-1.1-8.5-1.7-12.4-3.6c-1.3-0.8-2.8-0.1-4.1,0.2c-1.9-1.9-4.2-3.3-6.8-4.1c-2.4-2-4.8-3.9-6.8-6.3
	c-1.2-1.4-1.4-3.8-3.3-4.6c-3.9,12.7-10.9,24.4-13.3,37.5c-2.1,5.1-2.6,10.7-3.9,16.1c-0.5,4,0.4,8.2-1.4,12c1.9-1,3.7-2.2,5.4-3.6
	c0.9,0.9,2.1,1.8,2,3.2c-1.7,2.5-4.6,3.9-7.2,5.4c0,0.6,0,1.9,0,2.5c5.6,4.7,11.6,9.1,18.4,11.9c8.7,1.6,17.2,4.1,25.8,6.2
	c11.9,1.1,23.7-1.2,35.1-4.5c8.4-4.1,16.4-9.4,22.3-16.7c2.8-5.9,6.4-11.5,8.2-17.8c-0.2-5.4,1.6-10.5,1.1-15.8
	c0.4-4.7-1.3-9.2-1.1-13.9c-1.4-8.4-4.9-16.3-9.4-23.4c-0.5,5.5-5.8,8.8-10.6,10.3c-4.4,0.1-9.3,0.9-13.3-1.3
	c-1.7-1.7-4.2-2.9-4.7-5.4c-0.8-3-3-6.4-1.2-9.5c1.7-2.6,0.9-5.9,2.6-8.4c1.2-1.6,3.1-2.5,4.8-3.5c-0.3-0.5-1-1.4-1.3-1.8
	c-0.9,0.8-1.9,1.6-2.8,2.4c-2.2-1.7-4.2-3.6-7-4.2C369.2,87.6,362.8,85.6,357.1,88.1 M388.3,96.4c-5.1,1.1-3.6,7.4-5.8,10.9
	c0.5,2.3,1,4.8,2.3,6.9c2.9,3.7,8,2.8,12.1,2.7c2.9-1.2,6.3-2.7,7.1-6c0.3-1.6,2-3.7,0.4-5.1c-2.8-2.9-5.7-5.8-8.6-8.6
	C393.4,96.1,390.7,96.9,388.3,96.4 M309.8,119.8c-8.3,9.2-9.6,21.9-12.6,33.4c-0.8,4.6,1.5,9,2.1,13.5c1.2,4,1.8,8.3,4.6,11.6
	c-0.1-3.5,1.3-6.8,1.1-10.3c-0.3-5.3,1.6-10.4,2.4-15.6c2.4-6,2.8-12.5,5.6-18.4c4.8-11.2,8.2-23.2,15.2-33.3
	C320.3,105,315.9,113.5,309.8,119.8 M331.8,109.5c0.3,2.9,2,5.2,4.2,7c3.4-2.9,5.1-7.2,9-9.5c1.6-1,2.3-3.1,4.3-3.3
	c-1.7,3.5-5.9,4.5-7.9,7.7c-1.4,2.1-3.2,4-4.9,5.8c2.6,1.5,5.3,3.8,8.3,3.8c3.8-1.5,4.4-6.3,7.3-8.8c2-2.2,5.8-4.7,3.7-8
	c-3.4-0.7-6.6-2.1-9.8-3.5C341.7,104.1,336.9,107.1,331.8,109.5z"/>
<path fill="#080808" d="M293.6,46c5.4-2.1,11.4-2.3,17.2-1.7c3.3,1,6.8,0.6,10.1,1c6.2,1,11.4,4.7,17.3,6.8c3.4-2,6.1-5.7,10.3-6.2
	c-3.3,2-6.4,4.5-9.7,6.6c2.9,2.8,6.6,4.6,9.8,7.1c2.1,2.7,4.2,5.4,6.9,7.6c-3.8-0.9-5.1-4.8-7.7-7.3c-2.8,3.2-7,4.7-9.9,7.8
	c-3.1,2.9-5.2,6.7-8.5,9.5c-4.1,3.8-7.7,8.1-11.3,12.3c0.2,0.7,0.5,1.3,0.7,2c-0.4,0-1.2,0.1-1.7,0.2c-4.6,4.4-6.1,10.8-9.7,15.9
	c-1.5,2.2-1.5,5.1-3.4,7c0.7-3.2,1.8-6.3,3.8-8.9c3-5.1,4.8-11,9.4-15c-3-1.7-5.2-4.4-8.3-6.1c-3.9,6.2-9.6,11.5-11.4,18.8
	c-0.6,2.8-1.9,5.7-1.2,8.6c0.5,1.9,1.2,3.7,1.7,5.5c-3.2-3.3-3.3-8.4-1.8-12.5c1.5-8.1,7.8-13.8,11.9-20.7c-2.4-0.5-4.6-1.6-6.9-2.5
	c-0.1,1.4-0.1,2.8-0.2,4.3l-1,0c-0.1-4.2,1.9-7.9,3.5-11.6c2.4-3,5.7-5.6,7-9.3c-3.5-3.3-8.2-5-12.4-7.2c-8.1-3.8-17.2-3-25.9-2.9
	l0-0.9c8.2,0,16.7-0.7,24.5,2.4c5,2.3,10,4.8,14.6,7.9c4.6-4.1,8.4-9.9,14.6-11.7l0.3,1c-6.1,1.3-9.5,7-13.9,10.7
	c0.1,0.9,0.3,1.9,0.4,2.8c-0.3-0.3-1-0.8-1.4-1.1c-3.2,5-8.5,8.6-9.4,14.9c3.7,1.8,8,2.3,11,5.3c1.6,1.1,3.5,4.3,5.5,2.1
	c3-4.3,6.7-8,10.6-11.6c3.2-2.9,5.3-6.7,8.5-9.6c3-3,6.9-4.9,10.1-7.8c-3.1-1.8-5.8-4.2-9.1-5.5c-7.2,4.3-12.1,11.4-18.4,16.7
	c3.5-5.3,8.8-9.2,13-13.8c1.2-1.7,4.6-2,4.3-4.4c-3.1-1.3-6.4-2.4-9.3-4c-4.2-2.3-9-2.4-13.7-2.5c-3.3-0.7-6.7-1.1-10-0.9
	C300.4,44.7,297.1,46.3,293.6,46z"/>
<path fill="#080808" d="M359.8,50.8c3.9-2.8,8.9-3.4,13.6-3.8c-3.4,2.1-7.7,1.2-11.1,3.3c-4.3,2.5-8.7,5.1-12.7,8.1
	C352,54.7,356.4,53.2,359.8,50.8z"/>
<path fill="#080808" d="M0,53.7c2.4,2.5,5.3,4.3,8.2,6.2c32.7,23,65.5,45.8,98.2,68.8c6.5,4.4,12.7,9.2,19.4,13.3
	c3.1,1.1,5.1,3.8,7.6,5.7c19.3,13.3,38.4,27,57.7,40.3c2.1,1.6,3.2,4.1,5.2,5.8c2.7,1.8,5.9,2.8,9,3.6c-0.6,2.2-2.1,3.9-3.6,5.6
	c0.9-0.2,1.8-0.5,2.8-0.7c5,5.1,11.6,8.6,16.1,14.3c0.6,1.4,1.1,2.9,1.3,4.4c-0.6,2-2,3.6-3.2,5.2c-5.5,0.5-9.1-4.5-14.3-5.5
	c-4.1-0.9-7.5-3.3-11.4-4.9c-2.5,1.6-3.8,4.4-5.7,6.7c-15.4,20.3-30.4,40.9-46,61c-15.4,20.6-30.9,41.2-46.4,61.9
	c5.8,3.1,7.7,10.1,12.8,14c4.2,3,6,7.9,9.2,11.8c4.7,7.2,8.1,15.1,12.6,22.5c1.4,7.4,4.5,14.4,6.3,21.7c2.4,6.4,3.1,13.1,4,19.8
	c0.6,5.4-1,10.7-1.2,16h-0.8c0.2-5.4,1.8-10.6,1.2-16c-0.9-6.7-1.6-13.4-4-19.8c-3.4-11.6-6.9-23.4-13.5-33.7
	c-1.7-4.8-4.8-8.9-7.8-12.9c-1.4,1.4-2.5,3.8-4.8,3.5c-8-0.2-14.3-5.9-19.6-11.3c-3.3-3.8-7.7-6.7-12.3-8.7
	c-25.8-20.7-51.3-41.7-77-62.5v-3.9c23.9,19.9,48.3,39.3,72.3,59.1c1.9,1.6,4.1,2.9,6.1,4.2c37.9-52.1,75.9-104.2,113.9-156.2
	c-15.3-11.3-31.2-22.1-46.9-32.9c1.1,2,2.5,3.8,3.7,5.7c-3.5-2.5-5.2-6.6-8.5-9.2C93.8,123.4,46.8,90.7,0,57.7V53.7 M81,350.5
	c1.6,0.7,2.9,1.8,4.2,2.8c34.3-46,69.1-91.7,103.5-137.6c1.1-1.1,1.1-2.8,2.2-3.8c4-3.6,6.7-8.4,10.2-12.6c-2.5-1-4.9-2.2-7.2-3.5
	C156.3,247.4,118.5,298.9,81,350.5 M200.2,205c-1.2,2.3-2.9,4.3-4.6,6.1c1.5,1.7,3.2,3.2,5.5,3.8c5.7,1.5,10.8,4.6,15.8,7.5
	c0-1.3,0-2.7,0-4C212,213.2,205.9,209.3,200.2,205 M89,353.7c5.5,6.2,11.6,13.2,20.3,14.5c-0.5-3.8-5-4.6-6.9-7.5
	c-2.8-4.4-7.9-7.1-9.2-12.5C91.4,349.8,90,351.6,89,353.7z"/>
<path fill="#080808" d="M207.2,67.2c1.1-3.4,1.6-7.5,4.8-9.7c-2.7,4.4-3.9,9.5-5,14.4c-0.6,6.8,0.8,13.5,2.2,20.2
	c3.3-2.9,5.9-6.8,10.2-8.3c-0.1,1.7-1.6,2.1-2.9,2.6c-2.8,2-4.9,4.8-7.5,6.9c0.8,3.1,1.5,6.2,2.6,9.1c1.5-1,2.8-2.4,4.7-2.7
	c-1.3,1.2-2.9,2.3-4.1,3.5c0.6,4.1,2.6,8,4.2,11.8c1.3-2,2.7-4,4.8-5.4c-1.3,2.1-3,4-4.3,6.1c5.3,14.3,14.8,26.4,22.3,39.5
	c-5.3-6.1-8.9-13.4-13.4-20.1c-5.2-7.3-8.1-15.8-12.1-23.8c-1-2.3-1.6-4.7-2.4-7c-3.5,3.9-8.2,6.4-11.5,10.4
	c1.7,3.3,3.5,6.5,5.3,9.7c-2.9-2.3-4.1-5.9-5.7-9c-3.9,2.7-7.8,5.6-10.5,9.5c0.4,2.3,2.6,3.9,3.3,6.3c-1.8-1.5-3-3.7-4.5-5.4
	c-0.9,0.9-1.9,1.7-2.9,2.5c0.7-1.2,1.6-2.3,2.4-3.5c-0.4-2.2-1.7-4-2.5-6c-4.8,3.4-9.3,7.3-14.1,10.7c-5.6,3.8-9.3,9.8-14.9,13.7
	c3.8-4.7,8.4-8.7,12.6-12.9c5.6-4.1,11-8.4,16.6-12.6c0.4-1.9-0.8-3.7-1.1-5.6l1-0.1c0.1,0.7,0.2,2.2,0.3,2.9
	c0.4,0.3,1.1,0.9,1.4,1.2c7.2-7.8,15.5-14.6,21.8-23.2C206.9,84.5,204.4,75.7,207.2,67.2 M205.9,97.1c-2.5,3.8-6.5,6.3-9.1,10
	c-0.1,2.6,2,4.6,2.3,7.1c-1.8-1.7-2.5-4.1-3.6-6.3c-3.1,3.6-6.9,6.5-9.8,10.2c-0.2,2.3,1.4,4.2,2.4,6.1c2.6-2.3,4.8-5.1,7.7-7.1
	c3.3-2.1,5.4-5.5,8.5-7.8c2.6-1.7,4.7-4,6.8-6.2c-1.3-2.8-2.2-5.7-2.6-8.8C207.6,95.1,206.6,96,205.9,97.1z"/>
<path fill="#080808" d="M312.5,67.2c2.7,0.6,4.7,2.5,7.3,3.4c2.5,1.9,4.8,4.2,6.5,6.8c-2.4-1.6-4.3-3.7-6.4-5.7
	c-3.7,3.5-7.3,7.1-10.5,11.1c1.4-4.7,6.1-7.2,9.1-10.9C316.6,70.1,314.5,68.8,312.5,67.2z"/>
<path fill="#080808" d="M239.6,86.2c6.6-5.1,14.9-6.3,22.6-9c8.3-0.4,16.5,0.1,24.8-0.2c4.7-0.3,9.5,1.4,13.2,4.1
	c-3.9-0.6-7.1-3.4-11.2-3.2c-7.7,0.1-15.4,0.1-23.1,0c-5.1-0.3-9.6,2.6-14.4,3.5C247.2,82.2,243.8,85.2,239.6,86.2z"/>
<path fill="#080808" d="M40.6,79.8c10.3,6,19.9,13.2,29.9,19.6c11.6,8.1,22.9,16.6,34.6,24.5c3.1,2.5,6.5,4.5,9.3,7.3
	c-3.8-1.6-6.6-4.7-10-6.9c-7.2-4.7-13.9-9.9-21-14.7c-12.1-9.2-25.1-17.2-37.6-25.8C44.1,82.5,41.9,81.7,40.6,79.8z"/>
<path fill="#080808" d="M118.8,84.2c0.1-4.2,4.9-3.5,7.8-2.8c5,2.4,10.3,4.7,14.1,8.8c3.7,3.9,8,7.3,10.4,12.2
	c-6-6.4-11.5-14.1-19.8-17.8c-3.1-1.9-6.6-3.2-10.3-2.8C120.3,82.6,119.5,83.4,118.8,84.2z"/>
<path fill="#080808" d="M193.8,95.3c-0.8-3.2-1.5-6.9,1.1-9.5c-0.3,2-1.3,4-1,6.1c1.2,4.4,0.8,9.1,2.2,13.5l-1,0.3
	C194.5,102.2,194.1,98.8,193.8,95.3z"/>
<path fill="#080808" d="M384.7,107c1-2.2,4.4-4.7,6.1-1.7c1,2.4-2.8,2.8-4,4.1C386,108.6,385.4,107.8,384.7,107z"/>
<path fill="#080808" d="M206.1,125.2c3.2-2.6,5.7-6.1,9.1-8.5c-2.5,3.8-6.3,6.6-9.3,9.9c3,2.8,6.7,5.7,7.4,10.1
	c-2.1-3.6-4.7-6.8-7.6-9.7c-1.7,1-3.4,2.2-5.1,3.1C202.1,128.1,204.3,126.8,206.1,125.2z"/>
<path fill="#080808" d="M213.6,136.7c3.9,0.5,5.5,4.7,7.5,7.6C218.3,142.2,216.9,138.6,213.6,136.7z"/>
<path fill="#080808" d="M239.6,155.4c3.4,4.7,7.5,9,10.5,13.9c-3.9-3.4-6.6-7.9-9.9-11.8C240.1,157,239.8,155.9,239.6,155.4z"/>
<path fill="#080808" d="M318,213.1c7.4-0.4,14.5,1.9,21.8,3.2c11,2,22.1,3.2,33.2,4.8c2.4,0,4.7,2.3,3.9,4.8
	c-1.3,5.3-2.6,10.6-4.3,15.8c-1.4,4.4-1.9,9-3.7,13.3c-2.6,5-2.9,10.7-5.2,15.8c-1.1,4.1-3.5,7.7-4.1,12
	c-2.4,11.2-7.2,21.7-8.5,33.1c-2.6-1-4.9,0-7.1,1.3c-1.3-2.7-1.7-6.2-4.4-7.9c-2.1-0.9-4.4-1.4-6.6-1.4c-5.8,0-11.5-0.3-17.2,0.9
	c-7.4,0.2-15.2-0.4-22,3.1c-3.5,2.6-7-1.8-10.6-1.8c-3.5,1.1-7.3,0.7-10.9,1.3c-7.3,1.5-14.7,0.1-22,0.9c-0.3,0.3-0.9,0.9-1.2,1.2
	c-0.6,5-0.4,10,1.1,14.8c6.9,0.2,13.7-0.2,20.5-1.2c0.5-1.5,1.1-2.9,1.7-4.4c2,0.6,3.4,2.1,4.9,3.4c11,0.9,21.8-2,32.8-2
	c4.3-0.5,8.6-1.2,13-0.9c6.8,0.3,13.2-2.3,20-2c3.4,0.2,6.4-1.7,9.6-2c0.6,0.8,1.2,1.7,1.8,2.6c-2,1.1-4.2,2-6.4,2.6
	c-1.4,4.2-1,8.6-1.9,12.9c-0.8,5.1,0.2,10.2-0.7,15.3c-0.9,4.8-0.4,9.6-0.5,14.5c0.3,5.8-1.3,11.5-2.7,17.1c0,1.3,0.3,2.7,0.4,4
	c1.3,9.6-2.8,19.3,0.1,28.7c-2.3,1-4.5,2.4-6.8,3.4c-3.8-2-5.2-6.4-5.9-10.4c-0.6-5.7-1.1-11.4-2-17c-0.4-6.9,0-13.9-0.1-20.8
	c-0.1-3.2,1.9-5.9,2-9c0.3-7-0.5-14.1,0.8-21.1c0.1-5,0.6-10,1.4-15c-5,0.1-10-0.3-15,0.3c-5.1,1.1-10.4,0.2-15.6,1.4
	c-5.6,0.2-11.2,1.5-16.8,1.3c0.1,8.7-0.1,17.4,0.1,26.2c2.1,11.5,0.5,23.4,0.9,35c0.5,4.5-2.3,8.7-1.2,13.2
	c-1.3-0.2-2.6-0.4-3.9-0.6c-1-3.3-4.3-5.9-3.7-9.6c0.3-6.4-1.8-12.6-2-19c0-4.5-1.3-8.8-1.9-13.1c-0.4-5.2,0.5-10.4-0.3-15.6
	c-1.1-5.1-0.6-10.4-0.7-15.6c-3.4,0.4-6.6,1.3-10,1.2c-4.1,0-8.4-0.4-12.3,1.1c0.1,3.1,0.1,6.3,0.7,9.4c1.2,12.3,2.4,24.7,5.5,36.6
	c2,11.7,4.4,23.3,8.6,34.4c3.5,8.9,6.8,17.9,12,26c2.5,3.5,3.6,7.9,5.8,11.6h-4.6c-4.1-6.3-8.1-12.7-11.3-19.5
	c-1.9-7.8-5.4-15.1-8-22.7c-0.3,0.5-0.8,1.6-1,2.1c-1.8-5-2.8-10.2-4-15.3c-0.8-3.1,0.8-6.3-0.6-9.4c-1.7-10-4.7-19.8-5-30
	c-0.6-7.7-2.1-15.4-1.7-23.2c-1.4-0.1-2.8-0.2-4.3-0.3c-0.7,10.8,2.2,21.4,2.3,32.2c0.8,5.4,1.9,10.8,2.7,16.3
	c0.3,4-0.2,8.2,0.8,12.2c0.9,4.7,1.7,10.4-1.7,14.3c-3.5-5.2-5.3-11.2-7.7-16.9c-1.7-3.9-2.7-8-4-12c-3.4-7.4-3.6-15.7-5.4-23.5
	c-1.3-4.8-0.2-9.9-1.3-14.7c-0.6-2.8-0.4-5.7,0.2-8.5c-2.4-0.3-4.8-0.9-7.2-1.3c-1.9-2.6-3.4-5.4-4.9-8.2c-0.8-1.7-3-3-2.4-5.1
	c5.3-5.5,13.4-6.4,20.6-7.6c3.9-0.9,7.9-0.6,11.9-0.8c-0.8-1-1.1-3.2-2.7-3c-10.6,0.1-21-3.3-31.6-1.9c-2.2,3.1-1.8,7.4-4.2,10.5
	c0.6-3,1.7-6,2.3-9c-2.5,0.3-4.8,1.5-6.3,3.4c-3,4-5.8,8.3-6.9,13.2c-1.8,7.1-4.6,14.4-3.2,21.8c-0.2,4.8,0,10.6-4,13.9
	c-5.3,8.6-1.3,19-3.6,28.3c-1.2,6.3,1,12.5,3,18.4c1.2,2.8,0.3,5.9,1.3,8.7c1,3.6,4.1,6.2,5.4,9.7c0.3,1.5-1.3,2.4-2,3.5
	c-5.1-4.6-8.4-11.5-8.4-18.4c-0.2-2.3-2.4-4-2.5-6.4c-1.7-8.2-1.7-16.7-0.4-25c0.7-5.8-1-12,1.5-17.5c2.6-6.1,1.7-13,3.8-19.2
	c1.3-3.6,2.2-7.3,2.7-11.1c-1.9-4.9-4.7-9.4-6.9-14.2c-2.2-5.3-6.6-9.1-10-13.5c-2.1,3-3.6,6.3-6,9.1c1.2-3.5,3.4-6.6,5.4-9.7
	c-4.4-3.3-8.6-6.8-12.8-10.3c-1.4-1.3-4.1-1.6-4.5-3.7c3.8-1.4,5.1-5.4,7.1-8.5c3.3-6,7.8-11.3,10.5-17.6
	c3.4-5.9,6.4-12.3,11.3-17.1c-4.5,7.1-9.3,14.1-12.8,21.8c-4.7,7.5-9.6,14.8-13.8,22.6c5.1,4,10,8.3,15.2,12.2
	c1.2-1.9,2.3-3.9,3.6-5.7c-0.7,2.3-1.7,4.4-2.6,6.5c2.6,3.2,5.3,6.4,7.9,9.6c3.2,5.3,5.3,11.1,8.6,16.4c2.1-4.7,2.4-10.1,5.3-14.4
	c1.7-2.6,3.3-5.4,5.4-7.6c2.8-2,6.2-2.8,9.3-3.9c-0.2-6.6,0.1-13.2-0.1-19.8c-1.5-12-6.7-25.2-18.4-30.4c-0.5,1.3-1.1,2.5-1.7,3.7
	c0.2-1.4,0.4-2.8,0.6-4.3c1.4,0.2,3.1-0.1,4.1,1.1c3.2,2.9,7.1,5.1,9,9c2.7,4,4.8,8.5,5.7,13.3c2.8,8.6,1.1,17.7,1.7,26.6
	c6.1,0.1,12.3-0.6,18.3,0.6c5.5,0.6,10.9,1.9,16.5,1.4c0.9-4.7,1.8-9.8,5.5-13c3.2,0.1,6.6-0.2,9.6,1.2
	c10.2,4.4,17.6,13.8,28.3,17.3c4.6-0.4,9.2-1.6,13.7-2.6c1.9-11.2,3.9-22.4,4.3-33.8c0.7-7.4,3-14.6,3-22.1c0-4.1,1.8-7.9,2-12
	C312.7,228.8,315,220.7,318,213.1 M321.3,216.9c-1.7,4.9-3.6,9.9-4.3,15.1c-1.1,5.4-1,10.9-2.8,16.2c0.2,7.2-1.5,14.3-2.6,21.4
	c-1.2,3.9,0.1,8-1.1,11.8c-0.8,7.5-1.3,15.2-3.5,22.5c4.4,2.7,9.4-0.3,14.1,0c6.9,0.3,14-0.9,20.7,1.3c2.6,1.8,4.3,4.6,6.1,7.1
	c0.9-12.1,7-23,8.6-35c2.2-3.9,3-8.2,4.7-12.3c1.3-3.3,1.4-6.9,2.9-10.1c3-5.5,3.1-11.9,5.4-17.6c1.6-4,1.6-8.5,3.5-12.4
	c-14.8-1.6-29.7-3.5-44.3-6.6C326.3,217.5,323.8,216.8,321.3,216.9 M252.9,293.3c-1.3,3.1-2.4,6.4-3.1,9.7c4.5,0.2,9.1-0.5,13.5,0.8
	c4.1,0.2,8.1,1.7,12.2,1.2c-5.2-3.6-9.9-8-15.6-10.9C257.6,292.9,255.2,294,252.9,293.3 M249,307l0,1c3.7,0,7.3,0,11,0l0-1
	C256.3,307,252.7,307,249,307 M219.9,317.4c0.1,3.9,0.9,9.6,5.7,10c5,0.7,11.4,3.8,15.4-0.6c1.4,1.4,3,2.5,5.1,2.4
	c-2-5.2-0.8-10.8-1.2-16.1C236.4,312.8,228,314.9,219.9,317.4 M336,326.2c0,2.5,0.3,5-0.4,7.4c-1.4,4.4,0.2,9.2-1.4,13.6
	c-0.9,7.9,0.8,16-1.1,23.9c-0.2,6,0.2,12-1,17.9c0.8,4.6,1.1,9.3,1.9,14c-0.3,4.4,0.3,8.8,2.9,12.5c0.3-3.6-0.5-7.4,0.7-10.9
	c0.5-1.4,0.5-2.8,0-4.1c-1.1-3-0.6-6.3-0.7-9.5c-0.1-8.2,4.5-15.7,4-24c0.2-6-0.7-12.2,0.9-18.1c0.4-4.6-0.3-9.2,0.3-13.7
	c1-3.3,0.8-6.9,0.8-10.3C340.5,324.9,338.2,325.2,336,326.2 M275.9,331.1c0.1,4.1-0.5,8.3,0.6,12.3c1,5.3-0.3,10.9,0.8,16.2
	c2.4,3.4,1.6,7.5,1.7,11.4c-0.3,7.1,2.3,14,2.1,21.1h1c0.1-8.4,0.4-16.8-0.8-25.1c-0.4-12.4,0-24.9-0.2-37.3
	C279.3,329.8,277.6,330.5,275.9,331.1 M233.5,333.2c-0.9,1.3-1.8,2.6-2.7,3.8c2.2,4.9,0.3,10.4,1.7,15.4c1.1,4.1,1.2,8.4,2.6,12.5
	c2.7,8.5,3.9,17.5,7.8,25.6c0-7.1-1.5-14.2-2.2-21.2c-1.1-3.4-0.4-7.1-1.6-10.5c-0.5-4,0.3-8.1-0.9-12c-0.4-4.6-0.1-9.3-0.1-14
	C236.6,333,234.9,332.5,233.5,333.2 M190,347c-0.1,3.2-1.4,6.2-1,9.4c1-1,2.2-2,2.1-3.6c0.9-4.1,1.3-8.3,0.8-12.5
	C190.9,342.5,190.1,344.7,190,347z"/>
<path fill="#080808" d="M216.5,227.5c1.6-1.6,1.6,1.1,0.7,1.9C215.9,231.1,215.2,228,216.5,227.5z"/>
<path fill="#080808" d="M218.7,228.4c2.2,2.5,2.8,6,3.6,9.1c1.3,4.5-0.1,9.4,1.2,13.9c0.7,2.6,0.5,5.3-0.2,7.9
	c-1.3,7.5-1.8,15.1-2.6,22.7l-0.9-0.1c1.1-8.4,1.4-16.8,3.1-25.1c0.6-4.3-1.5-8.5-0.9-12.9C222.6,238.6,220.2,233.5,218.7,228.4z"/>
<path fill="#080808" d="M191.5,266.3c0.4-0.2,1.3-0.5,1.7-0.6c-2.9,4.7-6.7,8.9-8.4,14.2c-2,5.2-4.9,9.9-7.9,14.5
	c0.2-2.8,2.4-4.8,3.6-7.2c1.4-2.7,2.8-5.3,3.8-8.2C185.7,274.4,189.3,270.7,191.5,266.3z"/>
<path fill="#080808" d="M142.1,314c5.3-8,8.2-17.4,14-25.1c-0.1,2.4-2,4.1-3.1,6.1c-3.1,5.6-5.6,11.6-8.8,17.1
	c-4.2,6.4-6.4,14.1-11,20.3C135.6,326.1,139.1,320.1,142.1,314z"/>
<path fill="#080808" d="M138.7,323.8c10.2,7.3,18.4,16.9,25.2,27.3c2.5,4.2,3.7,8.9,5.6,13.4c1.3,7.4,3.3,14.8,2.3,22.3
	c-1.3,3.6,0.3,7.7-1.8,11.1c-1.6,3.1-1.8,6.8-4.1,9.5c0.9-4,2.6-7.8,4-11.6c0.2-3.1-0.2-6.2,0.9-9.1c1.2-10.8-1.5-21.7-5.7-31.7
	c-2.8-6.7-8-12.1-12.4-17.8c-3.1-3.3-6.1-6.6-9.9-9.2C141.3,326.9,139.8,325.5,138.7,323.8z"/>
</svg>
