<?xml version="1.0" encoding="utf-8"?>
<!-- Generator: Adobe Illustrator 16.0.0, SVG Export Plug-In . SVG Version: 6.00 Build 0)  -->
<!DOCTYPE svg PUBLIC "-//W3C//DTD SVG 1.1//EN" "http://www.w3.org/Graphics/SVG/1.1/DTD/svg11.dtd">
<svg version="1.1" id="Layer_1" xmlns="http://www.w3.org/2000/svg" xmlns:xlink="http://www.w3.org/1999/xlink" x="0px" y="0px"
	 width="527px" height="604px" viewBox="0 0 527 604" enable-background="new 0 0 527 604" xml:space="preserve">
<g id="_x23_000000ff">
	<path d="M315.04,7.06c1.479-1.71,3.94-1.31,5.96-1.54c4.35-0.05,8.6-1.54,12.98-1.08c5.079,0.51,9.96,2.2,15.02,2.83
		c4.77,0.5,9.56,0.13,14.34,0.1c3.76,5.51,11.03,3.83,16.73,4.36c5.35,0.56,10.72,0.68,16.09,0.98l0.67,0.57
		c3.06,0.33,6.51-0.2,9.15,1.77c4.329,2.87,8.729,6.32,14.13,6.68c4.59,0.84,9.59,0.42,13.68,3.04c4.3,1.93,6.37,6.58,10.42,8.86
		c2.58,1.47,5.271,2.75,7.86,4.21c5.05,4.9,12.689,4.04,18.3,7.86c4.689,2.75,9.54,5.99,12.25,10.83
		c2.149,6.45,6.79,11.55,10.55,17.08c1.33,3.01,1.67,6.35,2.57,9.5c2.979,8.01,8.229,14.93,11.25,22.91
		c0.64,3.73,1.56,7.59,0.7,11.35c3.109,4.64,6.329,9.82,5.88,15.64c-0.141,4.11,1.649,7.94,2.05,11.97c0.1,7-0.67,14.04,0.21,21.02
		c2.18,9.93,0.189,20.12-1.51,29.96c3.46,3.88,3.91,9.23,5.949,13.83c0.521,3.78-1.029,8.16,1.271,11.51
		c-0.74,8.27-2.21,16.46-3.16,24.72c-0.3,2.83-2.38,5.1-2.649,7.94c-0.75,6.09-1.681,12.15-2.461,18.23
		c-0.229-2.89-0.739-5.75-1.17-8.61c1.051-5.41,0.28-11.47,3.28-16.29c0.83-4.52,1.79-9.16,1.26-13.76
		c-1.729-5.13-2.859-10.43-3.96-15.73c-0.489-3.36-0.14-6.82-1.27-10.08c-1.65-1.97-2.92-4.28-4.87-5.96
		c-4.33-1.61-9.06-1-13.53-1.89c-3.58-1.05-7.109,1.41-8.71,4.52c-2.64,4.61-7.149,7.67-10.189,11.98
		c-0.91,0.37-1.841,0.72-2.74,1.09c1.149-6.38,7.97-9.13,10.76-14.6c1.58-3.28,5.07-5.83,8.8-5.53c5.21,0.18,10.34,1.39,15.57,1.29
		c2.99,1.96,5.3,4.74,6.99,7.86c1.77,2.85,1.109,6.38,1.33,9.56c1.479,4.33,1.63,8.99,3.37,13.25c0.47-3.03,0.51-6.14-0.2-9.14
		c-0.771-3.28-0.101-6.67-0.66-9.97c-0.59-2.52-1.48-4.95-2.07-7.47c-2.22-4.52-5.56-8.39-8.95-12.06
		c-0.85,0.15-2.54,0.44-3.39,0.59c-4.78-1.77-9.9-2.01-14.92-2.51c-7.8,3.14-12.48,10.46-17.32,16.9
		c-9.96,8.48-21.729,15.65-28.55,27.19c-1.689,2.6-3.16,5.35-4.979,7.87c-6.811-0.22-13.29-2.58-20-3.47
		c0.659-6.11,2.449-12.12,2.1-18.3c-0.05-6.99-1.39-13.93-2.74-20.76c-6.02-14.95-15.16-28.75-27.069-39.67
		c-1.48-1.02-1.811-2.66-1.87-4.33c1.729-7.06,1.6-14.41,3.109-21.51c0.761-3.56,1.41-7.15,1.971-10.75
		c-3.011-2.15-6.051-4.37-9.66-5.39c-6.53-1.9-10.82-7.51-14.971-12.51c-6.449-6.99-16.97-9.09-26-6.88
		c-6.01,0.38-11.96,1.37-17.97,1.75c-3.31,0.59-6.67,0.68-9.979,1.25c-6.11-0.21-11.541,2.53-16.91,5.07
		c-6.71,3.15-13.58,5.92-20.471,8.64c-1.739,0.95-3.649,0.22-5.459,0c-2.48,2.2-5.99,1.85-9.021,2.58
		c-7.61,1.65-15.4,0.47-23.1,0.93c-3.37,0.11-6.22,2.15-8.88,4.01c-3.93,2.93-8.18,5.64-11.13,9.64c-2.44,3.45-4.05,7.38-6.29,10.95
		c-1.09,3.69-3.4,7.1-3.51,11.02c-2.64-1.52-5.33-2.94-8.04-4.33c0.02-0.82,0.04-1.64,0.07-2.46c-1.33,1.12-3.45,3.69-5.07,1.63
		c-0.25-2.35,3.14-3.08,4.51-4.67c-0.1-0.62-0.3-1.86-0.4-2.49c-2.33,0.91-4.74,2.63-7.24,1.12c1.74-1.95,3.54-3.84,5.36-5.73
		c-0.49-0.41-0.96-0.82-1.44-1.23c-1.86,1.46-3.85,2.75-6.06,3.61c0.15-3.31,1.24-6.44,2.67-9.39c0.62-0.18,1.24-0.38,1.85-0.59
		c-0.76-1-1.56-1.96-2.31-2.95c-1,1.05-2,2.29-3.52,2.54c-2.07-0.97-0.71-3.08-0.32-4.61c-1.7,0.51-3.41,1.03-5.12,1.5
		c0.66-3.97,1.8-7.85,2.18-11.86c0.23-3.55-0.58-7.2,0.56-10.66c1.84-6.42,1.01-13.44,3.98-19.55c1.29,1.78,2.36,3.72,3.2,5.75
		c0.65-0.05,1.3-0.1,1.96-0.15c0.06-3.14,0.17-6.28,0.48-9.4c1.91-0.43,3.85-0.64,5.79-0.86c0.12-1.59,0.23-3.19,0.35-4.78
		c2.23-0.1,4.45-0.11,6.69-0.1c0.03-1.5,0.06-3,0.1-4.51c0.43-0.05,1.28-0.16,1.7-0.21c2.41,0.82,4.88,1.45,7.35,2.06
		c-0.07-0.36-0.21-1.08-0.29-1.44c-1.01-1.19-1.97-2.42-2.88-3.68c3.21,0.08,6.38,0.55,9.55,0.97c-0.66-2.97-1.41-5.92-1.89-8.93
		c2.73,0.45,5.47,0.88,8.23,1.14c0.48-1.42,1-2.82,1.42-4.26l-0.59-0.63c-1.56-1.55-3-3.24-4.04-5.18c2.54-0.25,5.09-0.26,7.64-0.22
		c-0.63-1.78-1.25-3.56-1.76-5.37c3.12,0.18,5.99,1.43,8.82,2.63c0.35-2.77-1-5.06-2.74-7.07c3.29-1.35,6.83-1.85,10.34-2.26
		c0.15-1.85,0.26-3.7,0.55-5.53c2.65,0.07,5.27,0.57,7.92,0.75c3.34-1.95,7.08-3.55,9.21-6.98c1.609-0.01,3.22-0.01,4.83-0.03
		c2.109-2.63,4.379-5.34,7.52-6.77c2.74-1.13,5.7-1.51,8.59-2.08c6.4-1.03,12.65-2.94,19.141-3.4
		C310.82,11.08,313.05,9.18,315.04,7.06z"/>
	<path d="M73,359.43c15.95,0.021,31.89,0.01,47.84,0.01c0.02,4.061,0.01,8.131,0.01,12.19c-11.23-0.01-22.47-0.01-33.7,0
		c0.03,5.22,0.03,10.431-0.01,15.649c9.73,0.08,19.46-0.119,29.19,0.111c-0.06,4.02-0.04,8.029-0.03,12.05
		c-9.71,0.069-19.43,0.02-29.14,0.029c0.03,9.8-0.05,19.61,0.04,29.42c-4.8,0.28-9.64,0.5-14.42-0.14
		C73.04,405.65,72.6,382.529,73,359.43z"/>
	<path d="M132.52,359.45c15.96-0.021,31.92-0.021,47.87,0c-0.01,4.05-0.02,8.1,0.02,12.149c-11.28,0.07-22.56-0.01-33.84,0.041
		c0.01,5.219,0,10.43,0,15.649c9.72-0.021,19.44,0.03,29.16,0c-0.02,4.04-0.05,8.08,0.04,12.13c-9.73,0.14-19.47-0.01-29.21,0.08
		c0.03,9.85-0.01,19.7,0.02,29.55c-4.7,0.08-9.41,0.21-14.1-0.17C132.59,405.74,132.5,382.59,132.52,359.45z"/>
	<path d="M7.82,359.439c10.05,0.031,20.11-0.069,30.17,0.051c5.29,0.25,11.13,0.48,15.41,4.029c12.1,8.94,10.39,31.221-3.9,37.11
		c-8.81,3.5-18.53,1.65-27.74,2.51c0.04,8.65,0.01,17.301,0.01,25.95c-4.65,0.05-9.29,0.021-13.94,0.03
		C7.78,405.89,7.81,382.67,7.82,359.439 M21.77,371.65c0,6.35,0.03,12.709-0.01,19.06c6.35-0.21,12.95,0.86,19.12-0.989
		c5.71-1.621,7.74-9.24,4.43-13.861c-2.07-3.01-5.88-4.119-9.36-4.199C31.23,371.57,26.5,371.641,21.77,371.65z"/>
	<path d="M255.19,386.51c0.47,0.061,1.41,0.17,1.88,0.221c2.1,3.959,4.75,7.609,6.56,11.72c-1.12-0.04-2.73,0.68-3.21-0.811
		C258.6,393.99,255.25,390.77,255.19,386.51z"/>
</g>
<g id="_x23_030303ff">
	<path fill="#030303" d="M197.79,152.08c0.91-1.28,1.86-2.53,2.85-3.74l0.62,0.29c2.71,1.39,5.4,2.81,8.04,4.33
		c0.17,1.09,0.32,2.19,0.47,3.29c-1.49,0.93-2.98,1.86-4.48,2.77c0.25,0.7,0.74,2.12,0.99,2.83c-1.39,2.19-2.01,4.69-2.16,7.26
		l-0.35,0.71c-0.38,3.76-1.13,7.46-1.95,11.15c-0.39,2.95-0.93,5.88-1.35,8.83c0.86,1.49,1.67,3.02,2.46,4.56
		c8.5-5.94,15.95-13.41,24.95-18.6c6.14-0.64,11.91-2.9,17.84-4.41c-0.45,3.66-3.42,6.12-4.95,9.31c-0.89,3.04-1.06,6.25-1.4,9.4
		c-4.39,4.03-8.75,8.1-13.09,12.19c-2.27,2.28-5.45,3.32-7.82,5.48c-0.84,2.01,0.13,4.53,2.06,5.53c5.37,2.7,11.39,4.16,16.26,7.81
		c3.97,2.94,8.12,5.85,11.15,9.81c2.15,2.97,1.73,6.81,1.08,10.2c-0.32,2.63-0.58,5.27-0.93,7.9c-0.74,2.61-1.01,5.9-3.59,7.43
		c-4.88,2.63-10.46,3.39-15.59,5.4c-2.38,0.83-4.63,2.02-7.08,2.64c-3.01-0.04-5.95-0.85-8.93-1.12c-2.75-2.39-5.72-4.52-8.3-7.09
		c-0.16-2.65,0.09-5.3,0.08-7.95c-5.15,2.71-4.86,9.17-3.15,13.92c0.85-0.65,1.69-1.3,2.53-1.95c2.1-0.12,3.17,0.88,2.96,3.02
		c-1.01,0.09-2.02,0.19-3.02,0.29c-0.66,0.34-1.98,1-2.64,1.33c0.05,0.96,0.15,2.87,0.2,3.83c2.88-1.19,5.91-1.96,9.01-2.33
		c0.07,0.95,0.15,1.91,0.22,2.88c-2.69,0.29-5.34,0.83-7.97,1.47c-0.56,1.19-1.12,2.38-1.65,3.58c-0.42-0.02-1.26-0.04-1.68-0.06
		c0.05,2.53-0.79,4.9-2.43,6.83c-2.99,3.75-4.63,8.3-6.04,12.82c-1.7,5.55-3.28,11.23-3.42,17.061c0.43,3.439,1.7,6.699,2.5,10.06
		c1.89,6.06,4.24,11.979,5.71,18.16c2.2,4.96,4.19,10,6.06,15.09c1.84,0.89,3.86,1.69,4.83,3.649c-0.93-0.549-2.79-1.66-3.72-2.209
		c1.14,8.1,6.53,14.699,10.17,21.83c1.77-0.011,3.54-0.09,5.31-0.08c-1.17,0.52-2.35,1.02-3.54,1.49
		c5.63,10.559,11.76,20.85,18.06,31.01c1.29,4.229,3.51,8.05,5.23,12.1c2.32,10.63-3.24,21.689,0.5,32.18
		c1.5,4.061,1.99,8.66,4.8,12.13c5.44,5.95,12.46,10.08,19.75,13.37c0.56,0.84,1.12,1.681,1.68,2.54
		c4.7,0.44,9.44,0.41,14.141-0.109c6.699-0.91,13.209-2.79,19.8-4.221c6.08-2.25,12.71-3.91,17.62-8.39
		c5.029-4.37,10.99-7.97,14.08-14.13c0.609,0.04,1.819,0.12,2.43,0.17c-1.68,5.5-6.36,9.29-10.78,12.62
		c-3.479,2.58-6.47,5.91-10.45,7.74c-6.06,2.479-12.149,5.039-18.68,6.01c-7.57,2.12-15.39,3.229-23.24,3.56
		c3.26,2.96,5.67,6.71,9.041,9.561c2.989,2.359,4.369,6.04,6.5,9.1c-0.031,0.48-0.101,1.45-0.131,1.94
		c-0.39,0.08-1.16,0.239-1.539,0.319c-2.24-3.18-3.73-6.95-6.801-9.46c-3.109-2.56-5.3-5.99-8.07-8.88
		c-2.31-2.43-5.59-3.59-7.93-5.97c-2.07-1.92-4.68-3.07-7.25-4.141c-0.7,0.891-1.41,1.79-2.11,2.69c0.02,0.38,0.04,1.14,0.05,1.521
		c1.23,0.439,2.46,0.899,3.69,1.369c1.09,6.57,3.75,12.771,4.43,19.42c0.39,3.051,1.2,6.03,2.05,8.99
		c1.05,2.811,2.21,5.63,4.15,7.98c5.09,6.63,9.881,13.5,15.03,20.09c10.34,13.24,19.41,27.729,32.45,38.59
		c7.34,6.94,16.81,11.22,26.62,13.28c12.489,2.64,25.319,2.109,37.97,3.319c10.37,0.65,20.72-0.31,31.04-1.109
		c5.61-0.65,11.29-0.91,16.76-2.41c4.141-1.16,7.94-3.26,12.101-4.35c4.97-1.4,9.029-4.74,13.649-6.91
		c3.78-1.67,6.94-4.38,10.04-7.04c1.391,0.859,2.78,1.72,4.17,2.59c-3.84,2.46-7.31,5.55-11.52,7.41
		c-3.99,1.77-8.03,3.439-12.04,5.18c-5.34,2.29-11.24,3.18-16.28,6.17c-3.939,2.2-8.3,3.54-12.13,5.931
		c-1.19-0.171-2.38-0.33-3.56-0.48c2.3-1.22,4.529-2.57,6.739-3.95c-10.649,1.061-21.34,1.59-32.029,1.94
		c-10.29-0.54-20.591-1.181-30.881-1.811c-9.63-0.899-19.479-2.13-28.29-6.39c-9.21-4.1-16.529-11.28-23.41-18.46
		c-9.689-10.08-18.069-21.28-27.069-31.95c-4.351-4.51-7.351-10.05-11.06-15.04c-3.701-4.47-3.9-10.51-6.221-15.64
		c-0.6-3.67-1.16-7.34-1.77-11c-1.83-4.95-1.76-11.32-6.97-14.181c-5.35,8.061-12.27,14.87-17.89,22.73
		c-3.73,5.05-6.14,10.92-9.72,16.08c-0.59,0-1.78,0.02-2.38,0.03c-15.33,12.81-30.81,25.54-44.64,40.01
		c-12.91,13.5-26.07,26.82-37.8,41.38h-3.4c12.95-16.18,27.51-30.95,41.95-45.78c13.96-14.38,29.55-27.029,44.92-39.859
		c3.13-2.49,4.16-6.561,6.53-9.65c3.81-5.15,7.19-10.66,11.65-15.29c3.7-3.79,6.2-8.53,9.86-12.36c-0.39-1.1-0.77-2.199-1.14-3.3
		c1.13,0.24,2.26,0.48,3.4,0.73c0.02-0.601,0.06-1.79,0.08-2.391c-3.09-2.529-6.4-4.85-9.13-7.79c-3.4-4.02-3.87-9.5-5.75-14.25
		c-0.63-2.659-1.52-5.35-1.06-8.109c0.84-5.59,0.43-11.29,1.5-16.851c0.8-3.279-0.47-6.479-2.01-9.319
		c-2.51-4.3-4.03-9.09-6.67-13.33c-5.28-8.92-10.32-18.04-16.38-26.46c-5.5,4.93-11.3,9.529-16.71,14.56
		c-2.17,1.97-4.09,4.24-6.53,5.891c6.58-8.271,15.32-14.46,23.19-21.421c-3.71-5.33-6.39-11.24-9.56-16.879
		c-0.5-1.91-0.97-3.82-1.38-5.73c-1.72-0.301-3.45-0.59-5.16-0.881c1.3-0.239,2.62-0.469,3.93-0.689
		c-0.97-2.97-1.9-5.949-3.17-8.811c-3.15-6.869-4.73-14.299-7.3-21.379c-1.48-5.08-3.79-10.17-3.19-15.58
		c0.24-7.7,2.84-15,5.41-22.16c1.46-3.85,4.05-7.11,5.67-10.88c0.97-5.97,1.45-12.04,1.14-18.09c-2.19-4.3-5.23-8.12-8.16-11.95
		c-0.02-2.92,0.7-5.92,0.03-8.8c-2.48-5.81-4.91-11.89-4.88-18.3c2.65-9.03,10.28-15.19,15.13-22.97c0.03-0.95,0.02-1.9-0.03-2.85
		c-2.32-2.2-1.98-5.46-2.1-8.36c-0.46,0.94-0.9,1.89-1.34,2.84c-0.46,0.04-1.4,0.13-1.86,0.17c-0.18-4.63,0.19-9.31-0.69-13.89
		c-1.09,0.81-2.18,1.6-3.27,2.4c-0.08-1.66,0.01-3.36,1.3-4.57c2.29-2.46,3.09-5.77,3.27-9.05c-1.2-0.53-2.4-1.05-3.6-1.56
		c0.41-1.33,0.84-2.66,1.3-3.97C194.99,156.17,196.54,154.19,197.79,152.08 M206.99,224.14c-4.56,1.74-7.45,5.95-9.95,9.92
		c-1,2-1.99,4-2.88,6.06c-1.04,0.32-1.63,0.98-1.76,1.98c-1.07,4.11,3.23,6.71,4.51,10.24c0.36,0.11,1.09,0.33,1.46,0.44
		c0.67-2.48,1.74-4.93,3.83-6.53c3.85-3.24,7.55-6.67,12.08-8.98c0.81-0.56,1.61-1.13,2.42-1.69c9.58-4.89,20.13-0.5,30.2-0.79
		c-0.78-2.8-2.96-4.76-5.11-6.53c-3.93-3.21-7.92-6.46-12.62-8.49c-3.14-1.02-5.97-2.88-9.23-3.56
		C214.99,217.64,211.67,222.1,206.99,224.14 M221.98,244.77c-4.08,2.81-7.67,6.31-11.94,8.85c-0.93-0.44-1.84-0.9-2.74-1.37
		c-1.05,4.03,3.56,5.37,5.79,7.75c2.99,1.55,6.6,1.54,9.91,1.5c1.62-0.92,3.33-1.66,5.08-2.3c2.59-0.77,5.18-1.55,7.77-2.33
		c2.02-0.66,4.03-1.34,6.05-2c0.83-0.7,1.66-1.41,2.49-2.12c0.59-2.62,1.23-5.24,1.4-7.92c-4.62-0.24-9.13-1.48-13.77-1.37
		C228.67,243.52,224.96,242.8,221.98,244.77 M212.39,245.41c-0.03,1.02-0.04,2.05-0.05,3.08c0.52-0.07,1.57-0.21,2.09-0.28
		c-0.04-0.85-0.08-1.7-0.11-2.54C213.83,245.61,212.87,245.48,212.39,245.41z"/>
	<path fill="#030303" d="M511.92,264.67l0.18-1.09c0.431,2.86,0.94,5.72,1.17,8.61c-0.819,3.99-0.359,8.36-2.359,12.03
		c-4.99,8.08-10.601,15.77-16.72,23.03c-1.091,0.92-0.681,2.41-0.82,3.65c-0.061,3.1-0.72,6.149-1.15,9.22
		c-0.91,2.25-1.66,4.55-2.52,6.819c-0.12,0.551-0.34,1.66-0.46,2.211c-4.36,9.619-5.59,20.189-8.66,30.22
		c-1,4.22-1.17,8.68-3.24,12.59c-2.13,2.64-3.42,5.851-5.66,8.42c-0.449,0.17-1.359,0.5-1.819,0.67
		c-0.511,0.181-1.551,0.55-2.07,0.729c-0.71,5.391-1.271,10.781-1.53,16.211c-2.05,16.3-2.66,32.84-1.43,49.229
		c0.45,0.101,1.33,0.29,1.78,0.391c0.25-2.15-0.75-5.41,2.489-5.301c0.2,2.23,0.391,4.471,0.61,6.71
		c0.57,2.311,0.97,4.65,1.49,6.971c0.12,2.38,0.31,4.76,0.29,7.16c-0.65,1.05-1.29,2.109-1.92,3.18
		c-0.721-5.43-1.25-10.88-2.2-16.271c-1.23,0.69-2.45,1.391-3.68,2.08c-0.771-3.35-1.271-6.739-1.921-10.109
		c-0.859-12.71,0.65-25.37,1.051-38.061c1.06-6.8,2.22-13.69,1.71-20.6c1.71-5.94,1.27-12.25,2.81-18.22
		c1.55-5.601,2.41-11.36,3.8-17c1.801-12.2,7.03-23.461,11.67-34.75c-2.67,0.39-5.329,0.859-7.869,1.75
		c-3.521,0.67-7.07,1.279-10.66,1.34c-1.141,5.779-0.521,11.73-1.55,17.539c-0.2,3.65-1.721,7.341-0.681,10.98
		c1.38,5.18,0.51,10.58-0.18,15.79c-1.55,12.41-3.271,24.79-4.73,37.21c-0.689,4.36-1.26,8.73-1.81,13.11
		c-3.73,7.68-10.84,12.649-15.88,19.34c-4.22,4.85-9.62,8.49-13.92,13.24c-2.61,3.49-5.221,7.01-7.49,10.729
		c-1.53,2.53-1.14,6.67-4.72,7.4c0.14-7.771,5.72-13.58,9.92-19.561c5.47-5.869,12.17-10.56,17.05-17.02
		c4.77-5.56,11.96-10.28,12.72-18.19c1.96-14.999,4.021-29.989,5.9-45.01c0.43-2.39,0.67-4.81,0.939-7.22
		c0.36-1.87,0.62-3.75,0.881-5.63c-0.28-0.021-0.841-0.05-1.12-0.07c-0.11,1.32-0.221,2.64-0.311,3.96c-1.05,2.131-0.63,6-3.85,5.9
		c0.59-6.461,2.77-12.61,3.63-19.02c1.18-9.181,2.64-18.361,2.68-27.641c6.73,3.22,13.48-1.18,20.34-1.17
		c4.631-1.45,9.2-3.92,12.11-7.92c4.3-5.74,8.82-11.31,12.49-17.49C511.56,279.84,510.13,271.66,511.92,264.67z"/>
</g>
<g id="_x23_101010ff">
	<path fill="#101010" d="M265.17,154.77c4.13-1.35,8.51-1.26,12.75-2.08c5.471-0.05,10.83-1.53,16.301-1.13
		c-0.211,0.66-0.641,1.98-0.861,2.65c-3.439,0.22-6.899,0.27-10.289,0.9c-5.53,0.53-11.2,0.85-16.51,2.41
		C265.84,156.74,265.4,155.8,265.17,154.77z"/>
	<path fill="#101010" d="M241.07,154.13c1.38-0.42,2.79-0.65,4.21-0.86c0.45,0.66,0.9,1.31,1.36,1.96c-1.5,0.73-3.06,1.31-4.7,1.66
		c-4.41,1.57-8.33,4.3-12.94,5.32c-4.45,1.36-8.14,4.27-11.81,7.01c-2.48,1.11-1.66,4.05-2,6.22c-0.91,0.1-1.82,0.2-2.73,0.3
		c0.2-2.4-0.14-5,1.14-7.15c3.5-2.97,7.31-5.6,11.3-7.87C230.46,158.96,235.82,156.67,241.07,154.13z"/>
	<path fill="#101010" d="M476.01,229.31c4.61,1.58,7.601,5.98,12.271,7.58c0.08,0.49,0.229,1.46,0.31,1.95
		c-2.04-0.02-4-0.5-5.78-1.47c-2.029-1.72-4.06-3.41-6.1-5.1c-1.28,5.69-2.8,11.48-6.07,16.4c-0.699,0.32-1.42,0.61-2.14,0.86
		c-0.2-4.65,3.87-8.07,4.14-12.65C472.87,234.02,474.07,231.43,476.01,229.31z"/>
</g>
<g id="_x23_0e0e0eff">
	<path fill="#0E0E0E" d="M261.13,162.29c2.87-1.26,5.86-2.25,8.75-3.5c3.78-0.24,7.92-1.03,11.351,1.11
		c-5.94,0.2-11.98,0.92-17.201,4.01c-0.529,0.27-1.579,0.81-2.109,1.08c-1.62,0.3-3.27,0.5-4.89,0.76c-4.28,2.2-9.41-0.22-13.9-0.72
		c3.02-3.92,8.36,0.62,12.32-1.47C257.28,162.92,259.19,162.53,261.13,162.29z"/>
	<path fill="#0E0E0E" d="M251.69,180.9c1.06-2.96,3.13-5.47,5.3-7.7c0.35,0.46,1.05,1.39,1.4,1.85c-1.23,1.86-2.52,3.69-3.73,5.57
		c-3.08,7.88,0.04,16.37,0.84,24.39c-0.46,0.37-1.4,1.1-1.87,1.46c-1.19-2.97-1-6.22-1.7-9.3c-0.33-2.03-0.53-4.09-1.21-6.04
		C251.34,187.75,251.42,184.31,251.69,180.9z"/>
</g>
<g id="_x23_8f8f8fff">
	<path fill="#8F8F8F" d="M243.12,162.83c4.1-0.9,8.23,0.42,12.33,0.73c-3.96,2.09-9.3-2.45-12.32,1.47
		C243.13,164.48,243.12,163.38,243.12,162.83z"/>
</g>
<g id="_x23_010101ff">
	<path fill="#010101" d="M272.49,171.71c3.33-1.67,6.789-3.36,10.59-3.49c5.18-0.17,10.279,0.96,15.41,1.55
		c3.75,1.56,6.439,4.7,9.189,7.56c2.19,2.42,5.351,3.46,8.101,5.08c7.04,1.55,14.359,1.43,21.38,3.09c0.5,0.32,1.5,0.97,2,1.29
		c5.47,4.33,11.62,7.65,17.149,11.89c4.21,3.41,1.69,8.99,0.631,13.28c-1.16,1.82-2.811,3.2-4.591,4.38
		c-1.159-0.07-2.31-0.12-3.46-0.15c-2.52-1.31-4.13-3.76-6.449-5.33c-2.431-1.47-5.03-2.61-7.53-3.94c-2.66-0.3-5.32-0.47-7.97-0.8
		c-2.32-0.58-4.721-0.69-7.091-0.93c-5.55-1.15-11.38-0.33-16.81-2.21c-1.21-1.15-2.479-2.22-3.771-3.25
		c-2.649-2.08-5.25-4.36-8.52-5.38c-0.88-0.57-1.76-1.14-2.62-1.73c-2.979-0.99-6.12-1.2-9.22-1.46c-1.67-0.37-3.36-0.62-5.04-0.86
		c-1.94-0.89-3.979-1.51-6.021-2.08c-1.789-0.7-3.619-1.24-5.45-1.78l0.13-0.9l-1.1-0.16c0.24-1.57,0.56-3.12,1.03-4.63
		C266.32,178.35,269.34,174.92,272.49,171.71 M294.37,171.5c0.05,1.07,0.11,2.15,0.19,3.22c2.299,0.06,2.14-1.72,2.069-3.31
		C296.07,171.43,294.939,171.48,294.37,171.5 M297.2,173.51c0.36,0.72,1.079,2.16,1.44,2.88c0.449-0.04,1.369-0.13,1.83-0.17
		c0.049-0.95,0.1-1.9,0.159-2.85C299.48,173.41,298.34,173.45,297.2,173.51 M306.44,181.33c-0.011,0.58-0.03,1.73-0.04,2.31
		c0.58,0.01,1.72,0.02,2.3,0.02c0-0.56-0.01-1.7-0.01-2.27C308.13,181.38,307,181.35,306.44,181.33 M353.73,204.69
		c-0.101,1.63-0.2,3.27-0.271,4.91c0.96-0.04,1.93-0.08,2.91-0.13c0.07-1.69,0.13-3.38,0.14-5.06
		C355.58,204.49,354.65,204.59,353.73,204.69 M349.2,211.68c0.439,1.22-0.26,3.78,2.229,2.84c0.141-0.97,0.25-1.94,0.351-2.92
		C351.13,211.62,349.85,211.66,349.2,211.68z"/>
	<path fill="#010101" d="M218.84,318.41c0.8,0.061,1.61,0.119,2.43,0.189c-0.02,0.351-0.06,1.041-0.07,1.381
		c-1.21,1.209-2.39,2.459-3.57,3.689c-1.4,1.311-3.02,2.48-3.93,4.21c-0.7,2.351-1.03,4.79-1.56,7.181
		c-0.87,1.549-0.55,3.279,0.16,4.83c0.35,2.719,0.5,5.459,0.47,8.209c0.59,2.03,1.21,4.051,1.92,6.051
		c0.68,1.32,1.35,2.64,2.04,3.97c2.33,2.94,4.19,6.2,6.22,9.351c0.29-0.041,0.86-0.111,1.14-0.15c-0.32-4.28,2.12-8.211,5.82-10.271
		c5.17-3.31,11.42-3.909,16.99-6.22c2.51-1.17,5.28-1.43,7.98-1.84c7.99-1.6,16.06-2.74,24.08-4.1
		c6.71-0.65,13.42-1.771,20.19-1.061c5.93,1.09,11.93,1.949,17.739,3.6c4.261,1.17,7.45,4.4,11.301,6.4
		c2.109,1.58,4.319,2.99,6.54,4.41c1.439,1.6,2.93,3.15,4.489,4.64c1.13,2.591,2.37,5.21,2.471,8.101
		c-0.73-0.11-2.21-0.34-2.94-0.461c-0.28-0.91-0.55-1.819-0.84-2.72c-0.34,1.91-0.811,3.81-2.021,5.39c-1.5-3-1.52-7.539-5.47-8.479
		c-1.51-0.11-2.99-0.44-4.43-0.89c-8.681,2.6-17.21,5.63-25.83,8.41c-6.36,1.93-12.66,4.069-19.02,6.01
		c-7.761,2-15.291,4.939-23.241,6.119c-7.32,1.011-14.7-0.049-22.04,0.131c4.3,1.34,8.25,3.52,12.32,5.4
		c3.14,1.369,4.6,4.729,7.03,6.949c1.54,2.05,2.78,4.351,2.59,7c-0.95-0.149-1.88-0.3-2.82-0.46c-1.37-3.77-4.48-6.479-6.99-9.489
		c-5.28-3.131-11.27-5.021-16.4-8.42c-4.04-2.601-5.58-7.33-7.49-11.451c-3.29-5.939-7.97-11-11.01-17.1
		c-0.7-1.689-1.4-3.37-2.14-5.029c-0.61-3.061-0.68-6.181-0.57-9.271l-0.76-0.16c-0.32-3.479-0.48-7.021,0.43-10.431
		c0.36-1.659,0.26-3.459,1.12-4.959C212.83,323.45,216.7,321.68,218.84,318.41 M262.01,351.07c-9.65,2.1-19.55,3.64-28.69,7.52
		c-4.13,1.74-6.22,5.881-8.02,9.71c0.71,0.511,1.42,1.021,2.14,1.54c1.5-2,2.92-4.05,4.56-5.939c5.31-1.82,10.74,0.42,16.09,0.649
		c5.5-1.92,11.2-3.13,16.811-4.71c2.709-0.68,5.42-1.4,8.22-1.619c3.149-1.561,6.71-1.65,9.96-2.9c2.57-0.99,5.24-1.74,7.949-2.28
		c2.931-0.58,5.83-1.771,8.871-1.49c6.619,0.96,13.199,2.16,19.68,3.851c0.51-2.48-1.42-3.121-3.34-3.621
		c-7.9-2.51-15.92-5.039-24.29-5.079C281.859,347.25,271.92,349.16,262.01,351.07 M273.939,362.05
		c-2.649,0.54-5.239,1.31-7.799,2.16c-3.911,0.13-7.771,0.94-11.291,2.69c-1.91,0.619-3.92,0.75-5.9,0.93
		c-3.66,0.38-7.63,1.75-11.1-0.051c-1.31-0.18-2.61-0.34-3.91-0.469c-0.7,0.85-1.42,1.68-2.16,2.5c-0.96,1.279-1.8,2.649-2.42,4.129
		c0.84,1.49,1.65,3.011,2.46,4.521c5.68,1.11,11.4,2.37,17.22,2.229c7.67,0.271,15.12-1.899,22.41-4.01
		c16.59-5.229,33.29-10.34,49.109-17.65c-0.06-0.789-0.14-1.569-0.229-2.35c-4.38,0.74-9.14,1.36-13.24-0.8
		c-2.449-1.34-5.29-1.479-8.01-1.12C290.58,356.75,282.029,358.71,273.939,362.05z"/>
	<path fill="#010101" d="M373.67,376.471c0.88-1.631,1.35-4.461,3.91-3.941c-1.13,5.861-4.35,11.021-6.42,16.57
		c-2.82,5.961-4.59,12.511-8.351,17.971c-0.29-0.5-0.869-1.5-1.159-2C365.35,395.42,369.82,386.061,373.67,376.471z"/>
</g>
<g id="_x23_292929ff">
	<path fill="#292929" d="M240.43,186.61c0.72,0.03,2.14,0.09,2.85,0.12c0.82,6.73,5.61,12.63,4.23,19.66
		c-0.67,0.07-2.02,0.2-2.69,0.27C245.76,199.49,240.91,193.56,240.43,186.61z"/>
</g>
<g id="_x23_040404ff">
	<path fill="#040404" d="M359.67,204.55c0.89-0.03,2.67-0.09,3.55-0.12c0.41,1.09,0.82,2.17,1.25,3.25c1.15-0.01,2.3-0.01,3.45,0
		c1.061,1.4,2.25,2.72,3.51,3.95c-0.05,0.42-0.149,1.26-0.21,1.68c-0.42,0.04-1.27,0.12-1.689,0.16
		c-1.601-1.65-3.21-3.58-5.761-3.23C361.5,209.08,360.19,207,359.67,204.55z"/>
	<path fill="#040404" d="M322.54,379.641c0.86-0.871,1.729-1.73,2.62-2.58c1.84,2.189,0.439,4.85-0.101,7.239
		c-0.899,0.2-1.8,0.4-2.689,0.61C322.34,383.141,322.41,381.391,322.54,379.641z"/>
	<path fill="#040404" d="M235.63,391.35c3.79,2.24,7.31,4.9,10.9,7.44c-0.01,0.49-0.04,1.47-0.05,1.96
		c-4.48-0.75-7.56-4.59-11.34-6.82C235.26,393.279,235.51,391.99,235.63,391.35z"/>
	<path fill="#040404" d="M265.15,391.17c3.689-0.5,4.47,3.859,5.47,6.521C266.971,398.26,266.029,393.83,265.15,391.17z"/>
</g>
<g id="_x23_050505ff">
	<path fill="#050505" d="M361.05,215.63c1.141-0.13,2.29-0.24,3.45-0.33c0.05,0.49,0.17,1.47,0.22,1.96c-0.97,0.49-1.93,1-2.88,1.52
		c-3.77,5.29-10.59,6.38-16.32,8.41c-3.75,0.97-7.17,3.01-11.039,3.54c-0.08,0.7-0.24,2.1-0.32,2.8
		c-7.12,0.06-14.21-1.81-21.32-0.73c-4.649,0.85-9.369,1.52-13.72,3.51c-1.841,0.7-3.75,1.24-5.729,1.32
		c0.17-2.04,0.859-3.97,1.459-5.91c2.541-3.06,5.021-6.77,9.24-7.52c4.53-1.91,9.22,0.43,13.851,0.28
		c-0.87-0.63-1.761-1.25-2.631-1.86c-0.569-0.11-1.729-0.34-2.31-0.45c-3.45-1.68-7.561-2.35-11.1-0.57
		c-4.721,1.21-6.311,6.28-9.7,9.21c-0.56-0.62-1.12-1.22-1.671-1.82c2.23-2.66,4.211-5.51,6.431-8.17c1.37-0.57,2.72-1.16,4.08-1.75
		c1.94-0.65,3.91-1.21,5.96-1.42c1.36,0.37,2.75,0.71,4.15,1.02c1.25,0.42,2.529,0.8,3.819,1.18c2.08,1.07,4.21,2.05,6.41,2.86
		l-0.05,0.81c2.7,1.53,5.86,1.76,8.88,2.1c1.54,0.78,3.021,1.72,4.69,2.21c1.85-0.08,3.5-1.02,5.18-1.69
		c1.3-0.46,2.59-0.9,3.89-1.36c0.521-0.13,1.57-0.4,2.101-0.53c1.01-0.41,2.04-0.78,3.08-1.12
		C353.79,222.01,358.32,219.67,361.05,215.63 M309.44,227.63c0.119,0.4,0.359,1.19,0.479,1.59c0.36,0.04,1.07,0.12,1.43,0.17
		c0.08-0.46,0.24-1.37,0.32-1.82C311.11,227.58,309.99,227.61,309.44,227.63z"/>
</g>
<g id="_x23_0b0b0bff">
	<path fill="#0B0B0B" d="M247.91,218.37c0.61-0.03,1.82-0.09,2.43-0.12c1.79,3.34,2.91,6.96,3.93,10.6
		c0.21,1.44,0.42,2.87,0.67,4.31c0.51,2.26,0.64,4.57,0.98,6.86c1.28,6.87-2.43,13.49-3.77,20.14c-0.47,1.26-0.93,2.51-1.42,3.77
		c-0.12,0.55-0.36,1.64-0.47,2.19c-2.34,5.99-4.2,12.18-7.09,17.96c-1.8,3.79-4.33,7.15-6.48,10.73c-1.17,3.58-1.6,7.38-1.17,11.12
		c0.88,1.03,1.18,2.35,1.49,3.631c-0.57,0.049-1.7,0.14-2.27,0.189c-0.71-1.27-1.42-2.54-2.21-3.75c-0.03-1.891,0.11-3.78,0.8-5.54
		c-0.35-0.04-1.06-0.11-1.42-0.15c-0.59,0.95-1.21,1.88-1.86,2.81c-1.38,3.159-0.55,6.819-1.29,10.17
		c0.86,1.489,2.01,2.78,3.06,4.16c0.59,0.09,1.77,0.28,2.37,0.38c1.06,0.24,2.13,0.46,3.2,0.689c0.08-0.529,0.22-1.59,0.29-2.119
		c-0.64-0.021-1.91-0.061-2.55-0.08c0.13-0.69,0.39-2.09,0.52-2.791c3.26,0.271,7.82,1.861,7.98,5.73
		c-1.78,0.29-4.38-0.369-4.61,2.18c-2.65-0.489-5.32-0.869-8-1.14c-1.97-2.229-4.28-4.25-5.43-7.05c1.51-3.721,0.14-7.971,2-11.55
		c1.15-1.32,2.25-2.68,3.31-4.07c0.6-0.1,1.8-0.29,2.4-0.38c0.91-5.54,5.31-9.4,7.44-14.42c1.2-2.56,2.31-5.17,3.45-7.75
		c0.15-0.54,0.45-1.62,0.6-2.16c0.4-0.99,0.78-1.98,1.15-2.98c1.02-3.26,2.51-6.38,3.05-9.77c-7.13,1.79-11.35,8.63-16,13.8
		c-3.58,4.48-7.49,8.79-10.21,13.87c-2.03,2.43-3.84,5.04-5,8c-1.78,4.66-3.49,9.34-5.1,14.061c-0.63,2.729,0.87,7.899-3.42,7.859
		c0.16-3.65,0.45-7.3,1.47-10.82c0.42-1.029,0.82-2.08,1.18-3.119c0.96-2.67,1.92-5.32,2.89-7.98c0.45-0.9,0.89-1.79,1.33-2.69
		c0.84-2.48,2.53-4.47,4.06-6.53c4.15-6.78,9.35-12.82,14.49-18.85c2.94-4.39,7.44-7.27,11.73-10.16c1.58-0.15,3.18-0.01,4.77,0
		c0.83-5.5,1.99-10.98,2.28-16.53c-0.84-4.66-1.34-9.39-2.47-14C250.18,224.09,248.59,221.39,247.91,218.37z"/>
	<path fill="#0B0B0B" d="M305.82,285.8c1.029-0.12,2.069-0.13,3.12-0.14c1.279,0.54,2.579,1.04,3.899,1.52
		c1.03,0.31,2.07,0.64,3.09,1.01c2.431,1.91,4.82,3.88,7.45,5.52c4.17,4.8,8.64,9.34,12.42,14.47c2.63,3.711,5.41,7.32,8.09,10.99
		c2.4,3.29,3.45,7.301,5.341,10.87c0.18,0.979,0.359,1.97,0.539,2.97c0.65,1.94,0.98,3.961,1.41,5.961
		c0.561,4.989,1.771,9.979,1.08,15.029c-0.95,5.96-0.64,12.05-1.81,17.98c-1.96,3.74-2.38,8.67-6.17,11.16
		c-3.57,2.439-8.37,1.51-11.79-0.681c-0.061-0.521-0.181-1.58-0.24-2.11c4.01,0.53,9.17,3.24,12.15-0.97
		c2.819-5.34,3.739-11.53,4.54-17.46c0.529-6.22,1.31-12.68-0.051-18.84c-0.449-4.43-0.68-9.1-3.189-12.95
		c-0.12-0.56-0.36-1.69-0.48-2.25c-0.489-0.89-0.97-1.78-1.46-2.67c-0.439-1.13-0.91-2.239-1.37-3.351
		c-5.17-6.859-9.81-14.149-15.779-20.369c-5.13-6.22-11.74-12.38-20.16-13.17C306.16,287.5,305.67,286.71,305.82,285.8z"/>
</g>
<g id="_x23_131313ff">
	<path fill="#131313" d="M271.37,222.43c1.18-0.46,2.38-0.88,3.601-1.24c-0.24,1.34-0.311,2.81-1.301,3.86
		c-0.3,0.96-0.6,1.92-0.891,2.89c-0.079,0.8-0.219,2.39-0.289,3.19c1.56,2.04,1.4,4.75,1.96,7.16c-0.86,0.01-1.71,0.02-2.56,0.04
		c-0.65-1.82-1.4-3.6-2.341-5.29C269.92,229.47,270.57,225.93,271.37,222.43z"/>
</g>
<g id="_x23_161616ff">
	<path fill="#161616" d="M362.12,227.25c2.86-1.7,6.34-0.41,9.479-0.66c0,0.91,0.011,1.82,0.03,2.74c-5.1-0.74-9.85,0.89-14.46,2.89
		c-5.1,0.09-10.09,1.44-15.2,1.33c-0.47-0.44-1.41-1.31-1.87-1.75c3.471-1.59,7.32-1.28,11.021-1.67
		C354.86,229.53,358.78,229.25,362.12,227.25z"/>
</g>
<g id="_x23_999999ff">
	<path fill="#999999" d="M337.5,236.66c5.16-0.71,10.41-0.02,15.47-1.55c4.04,0.46,8.431-0.41,12.271,0.95
		c-3.62-0.25-7.271-0.45-10.891-0.04c-5.479,1.06-11.01,1.33-16.569,1.52c1.38,2.17,4.1,1.42,6.22,1.55
		c4.02,0.1,7.96-0.79,11.78-1.96c0.84,0.4,1.72,0.77,2.62,1.07c-6.681,0.48-13.431,3.18-20.12,1.45
		C337.11,239.21,337.82,237.59,337.5,236.66z"/>
</g>
<g id="_x23_060606ff">
	<path fill="#060606" d="M337.78,237.54c5.56-0.19,11.09-0.46,16.569-1.52l1.431,1.11c-3.82,1.17-7.761,2.06-11.78,1.96
		C341.88,238.96,339.16,239.71,337.78,237.54z"/>
	<path fill="#060606" d="M285.63,288.93c1.07-0.48,2.12-1.02,3.2-1.47c4.21-0.08,8.5,0.53,12.26,2.53c0.34,0.43,1.02,1.28,1.36,1.71
		c0.42,0.99,0.899,1.96,1.29,2.98c0.84,4.87,0.289,9.91-1.87,14.38c-2.96,2.449-6.32,5.01-10.229,5.449c0-0.65,0.01-1.96,0.02-2.609
		c3.63-1.48,7.84-3.131,9.449-7.041c0.92-2.81,0.841-5.929-0.149-8.709c-0.5-1.45-0.83-3.01-1.83-4.22
		c-1.819-1.27-3.83-2.52-6.101-2.67c-2.829-0.11-5.189,1.69-7.549,2.99C285.52,291.42,285.59,289.76,285.63,288.93z"/>
	<path fill="#060606" d="M471.49,463.15c0.17-0.29,0.529-0.86,0.71-1.15c0.08,2.44,0.18,4.87,0.29,7.32
		c4.83,5.8,9.46,11.859,13.26,18.39c2.83,7.8,6.47,15.38,11.56,21.98c4.011,5.069,10.051,7.92,14.61,12.43
		c4.85,4.74,10.17,8.95,15.08,13.62v3.46c-6.27-5.49-12.37-11.181-18.89-16.37c-4.17-4.12-9.4-7.061-13.07-11.68
		c-5.25-6.801-8.93-14.65-11.9-22.67c-3-4.761-6.55-9.16-9.819-13.74c1.41,8.569,4.01,16.89,5.529,25.45
		c1.131,6.369,2.96,12.6,5.19,18.67c0.85,1.68-0.13,3.449-0.45,5.13c-2.02,7.47-1.41,15.46-4.18,22.74
		c-1.87,4.949-2.57,10.289-4.88,15.09c-1.87,3.569-1.12,8.62-5.37,10.55c-0.26,0.3-0.8,0.89-1.061,1.189
		c-0.319-0.56-0.97-1.659-1.29-2.21c-0.92-0.13-1.819-0.25-2.72-0.359c2.73-3.01,6.13-5.601,7.71-9.471
		c2.54-5.25,3.23-11.14,5.47-16.51c1.221-7.56,3.341-15.229,2.061-22.92c-2.09-3.43-3.57-7.189-4.6-11.06
		c-0.461-3.65-1.48-7.311-0.75-11c0.59-2.41-0.37-4.73-1-7.011c-1.021-3.21-0.551-6.619-0.771-9.92
		c-0.54-2.369-0.88-4.76-1.37-7.119c-0.37-3.23-1.01-6.41-1.27-9.65C470.2,465.26,470.84,464.2,471.49,463.15 M477.41,511.13
		c-1.061,1.38,1.28,3.26,2.32,1.771C480.8,511.47,478.46,509.59,477.41,511.13z"/>
</g>
<g id="_x23_303030ff">
	<path fill="#303030" d="M354.35,236.02c3.62-0.41,7.271-0.21,10.891,0.04l0.26,0.02c-0.13,0.53-0.37,1.6-0.49,2.14
		c-2.2,0.06-4.42,0.3-6.609-0.02c-0.9-0.3-1.78-0.67-2.62-1.07L354.35,236.02z"/>
	<path fill="#303030" d="M185.78,412.58c0.42,0.93,0.81,1.87,1.2,2.83c1.51-1.021,3.07-2.18,5.01-1.97
		c-2.32,2.1-6.12,3.109-6.53,6.699c-0.8,3.61-4.05,6.9-7.92,6.78c-0.05-0.76-0.14-2.3-0.18-3.06c-1.66,2-3.13,4.279-5.44,5.62
		c2.26-5.431,7.73-8,12.08-11.45C185.8,416.84,185.18,414.37,185.78,412.58 M179.14,422.8c0.12,1.05,0.25,2.11,0.39,3.17
		c2.15-1.739,4.48-3.54,5-6.45C182.7,420.55,180.93,421.69,179.14,422.8z"/>
	<path fill="#303030" d="M56.85,436.23c3.33-1.15,6.55-3,10.16-2.961c-5.75,2.73-11.81,5.261-18.22,5.75l-0.72,0.57
		c-0.13,0.641-0.39,1.92-0.52,2.561c2.85,0.029,5.72,0.21,8.56-0.04c1.63-1,2.31-2.931,3.34-4.431c0.28,0.221,0.83,0.66,1.1,0.88
		c-0.86,1.49-1.7,3-2.52,4.521c-3.76,0.33-7.54,0.31-11.32,0.29c-0.21-1.89-0.37-3.79-0.55-5.68
		C49.77,437.73,53.52,437.8,56.85,436.23z"/>
	<path fill="#303030" d="M150.59,439.82c2.8-0.271,5.62-0.301,8.43-0.45c-0.95,0.63-1.96,1.16-2.98,1.66
		c-3.92,3.81-8.44,8.77-14.5,7.45c0.06-1.351,0.14-2.7,0.21-4.03C144.62,442.79,147.33,440.69,150.59,439.82 M143.6,444.78
		c-0.24,0.62-0.73,1.87-0.97,2.489c0.92,0.051,2.78,0.141,3.7,0.181c2.82-1.84,5.51-3.88,7.96-6.19
		C150.23,440.37,146.8,442.65,143.6,444.78z"/>
	<path fill="#303030" d="M56.21,488.97c0.04,0.721,0.45,1.521-0.1,2.181c-2.13,5.069-5.91,9.26-7.64,14.52
		c-1.62,3.78-5.03,6.33-7.78,9.26c-0.5-1.66-1.04-3.569,0.06-5.109c2.96-4.36,5.81-8.931,9.85-12.391
		C53.35,495.26,54.25,491.73,56.21,488.97 M41.05,511.83c4.05-1.521,6.71-5.811,6.96-10.07C45.23,504.77,43.02,508.26,41.05,511.83z
		"/>
</g>
<g id="_x23_090909ff">
	<path fill="#090909" d="M500.96,236.46l2.14-0.12c0.48,3.4,1.971,6.68,1.67,10.17c-0.31,3.93-0.789,7.89-1.89,11.69
		c-0.16,0.48-0.479,1.45-0.64,1.93c-0.87,1.55-1.66,3.14-2.48,4.72c-1.72,3.46-4.16,6.47-6.6,9.44c-0.34,0.04-1.021,0.14-1.36,0.19
		c-0.42-0.38-1.26-1.15-1.67-1.53c0.51-0.44,1.55-1.3,2.061-1.73c1.02-1.33,2.05-2.67,3.06-4.01c0.5-0.81,1.01-1.62,1.53-2.43
		c0.239-0.49,0.729-1.46,0.979-1.94c2.88-4.56,3.62-9.87,4.16-15.12C502.94,243.93,501.11,240.23,500.96,236.46z"/>
</g>
<g id="_x23_0d0d0dff">
	<path fill="#0D0D0D" d="M506.74,235.09c0.93,1.29,1.83,2.62,2.689,3.98c0.08,0.33,0.24,1,0.32,1.33
		c-0.17,8.76-2.5,17.32-3.97,25.92c-0.59,2.35-2.41,4-4.221,5.46c-0.079,0.61-0.229,1.85-0.31,2.46c-1.28-0.02-2.55-0.03-3.82-0.05
		c0.11-1.76,1.15-3.14,2.301-4.38c1.329-1.04,2.5-2.27,3.43-3.68c0.31-1.05,0.67-2.09,1.09-3.1c0.19-0.91,0.38-1.81,0.57-2.72
		c0.989-5.46,1.71-10.97,2.46-16.47C507.9,240.82,504.95,238.03,506.74,235.09z"/>
	<path fill="#0D0D0D" d="M323.17,246.28c4.22-1.4,7.54-4.61,11.63-6.13c-0.069,1.02-0.189,2.04-0.359,3.06
		c-5,4.05-11.391,5.51-17.16,8.06c-3.67,0.78-7.44,1.75-11.15,0.63c-1.67-0.31-3.34-0.55-4.96-1.04c-1.76-0.57-3.5-1.13-5.27-1.64
		c-1.23-1.91-3.33-6.48,0.33-6.93c0.399,1.37,0.77,2.77,1.33,4.1c1.379,0.74,2.85,1.31,4.279,1.98c4.07,0.72,8.2,1.6,12.36,0.92
		c2.27-0.73,4.52-1.55,6.649-2.63C321.43,246.56,322.59,246.38,323.17,246.28z"/>
</g>
<g id="_x23_888888ff">
	<path fill="#888888" d="M509.75,240.4l1.03-0.15c-0.261,6.37-1.7,12.6-2.62,18.89c-0.521,2.45-0.49,5.28-2.38,7.18
		C507.25,257.72,509.58,249.16,509.75,240.4z"/>
</g>
<g id="_x23_0c0c0cff">
	<path fill="#0C0C0C" d="M464.98,250.36c1.25,0.76,1.779,2,1.93,3.42c1.51,2.26,3.53,4.33,4.07,7.1
		c1.739,6.02-0.511,12.16-0.74,18.23c-0.641,1.51-1.29,3.03-1.95,4.54c1.17,0.12,2.36-0.1,3.11-1.11
		c2.89-3.02,6.649-4.89,10.17-7.05c0.979,0.07,1.96,0.15,2.939,0.24c-0.04,0.84-0.09,1.68-0.13,2.53c-0.64,0.09-1.92,0.26-2.56,0.35
		c-3.71,1.85-6.98,4.39-10.03,7.17c-0.92,0.42-1.82,0.85-2.72,1.28c-1.23,0.29-2.49,0.46-3.73,0.61c0-1.59,0.28-3.12,0.84-4.6
		c0.69-2.7,1.101-5.48,2.011-8.12c0.229-4.71,0.859-9.44,0.21-14.15c-1.53-2.25-3.12-4.47-4.75-6.65c0.02-0.35,0.06-1.06,0.09-1.41
		C464.05,252.14,464.67,250.96,464.98,250.36z"/>
	<path fill="#0C0C0C" d="M375.62,316.18c2.45,0.561,2.02,2.99,2.33,4.86c0.74,3.61,0.27,7.34,1.12,10.931
		c-0.71,2.989-0.41,6.069-0.19,9.1c1.11,3.609-0.399,7.25-0.6,10.88c-1.03,4.72-0.19,9.89-2.761,14.2
		c-3.42,5.68-5.229,12.129-8.43,17.93c-0.76,1.93-1.439,3.9-2.189,5.84c-0.83,2.73-1.801,5.43-3.07,7.99
		c-0.14,0.54-0.42,1.62-0.561,2.149c-2.17,5.471-5.52,10.41-7.079,16.131c-1.16,2.52-2.25,5.079-3.49,7.56
		c-0.58,1.09-1.17,2.19-1.74,3.3c-0.16,0.51-0.49,1.54-0.66,2.061c-1.59,2.659-3.13,5.37-4.34,8.229
		c-0.78,0.021-1.55,0.03-2.32,0.061c-0.029-0.44-0.08-1.32-0.109-1.75c1.609-2.79,2.83-5.79,4.529-8.53
		c0.341-1.26,0.721-2.5,1.5-3.561c3.511-5.38,4.75-11.84,7.891-17.409c1.58-2.9,2.71-6.011,3.87-9.101
		c0.59-1.36,1.199-2.72,1.819-4.069c0.78-3.03,1.891-5.961,3.011-8.881c1.43-3.449,3.279-6.709,4.71-10.17
		c1.029-4.289,4.05-7.67,5.449-11.789c1.181-5.271,0.86-10.721,1.841-16.011c0.63-3.68,0.02-7.399,0.13-11.101
		C376.49,328.73,374.61,322.46,375.62,316.18z"/>
</g>
<g id="_x23_989898ff">
	<path fill="#989898" d="M288.83,287.46c3.83-1.76,9.38-0.69,12.26,2.53C297.33,287.99,293.04,287.38,288.83,287.46z"/>
</g>
<g id="_x23_909090ff">
	<path fill="#909090" d="M285.88,293.52c-1.479-1.36-1.55-3.12-0.25-4.59c-0.04,0.83-0.11,2.49-0.149,3.32
		c2.359-1.3,4.72-3.1,7.549-2.99c2.271,0.15,4.281,1.4,6.101,2.67c-2.34-0.51-4.58-1.51-6.97-1.75
		C289.67,290.31,287.82,292.21,285.88,293.52z"/>
</g>
<g id="_x23_8d8d8dff">
	<path fill="#8D8D8D" d="M303.74,294.68c1.72,1.66,1.25,4.25,1.27,6.4c-0.24,2.859-0.43,6.3-3.14,7.98
		C304.029,304.59,304.58,299.55,303.74,294.68z"/>
</g>
<g id="_x23_080808ff">
	<path fill="#080808" d="M357.98,340.15c0.1-3.34-2.471-6.601-1.341-9.82l1.471,0.4c2.21,4.06,2.479,8.72,3.01,13.22
		c-2.4,16.69-3.9,33.54-6.95,50.13c-0.75,2.34-1.24,4.75-1.76,7.15c-1.51,2.89-2.94,5.819-4.59,8.63
		c-0.95,2.35-1.99,4.659-3.021,6.989c-0.52,0.78-1.04,1.561-1.55,2.351c-1.6,1.43-3.1,2.96-4.44,4.64
		c-2.989,2.97-6.79,5.18-8.859,8.99c-0.5,1.34-1.76,1.59-3.01,1.7c-0.061-0.42-0.19-1.261-0.261-1.681
		c3.99-7.569,12.62-11.069,16.521-18.72c0.51-1.439,1.09-2.85,1.62-4.28c1.75-3.29,3.62-6.52,5.09-9.939
		c0.42-1.601,0.84-3.2,1.34-4.77c2.49-13.94,3.72-28.08,5.88-42.07c0.271-2.37,0.32-4.801,1.19-7.051
		C358.44,344.05,358.35,342.08,357.98,340.15z"/>
</g>
<g id="_x23_535353ff">
	<path fill="#535353" d="M132.32,338.74c2.11-0.44,4.24-0.85,6.36-1.25c0.2,0.51,0.59,1.529,0.78,2.039
		c-1.7,0.171-4.06-0.639-4.89,1.461c3.81,1.55,7.9,2.24,12,1.619c-2.28-1.119-4.61-2.209-7.14-2.59c0.6-0.52,1.22-1.029,1.84-1.539
		c3.87,2.56,8.53,3.859,13.15,2.93c-3.43,4.14-9.27,2.811-13.97,2.85C137.51,343.109,132.53,342.75,132.32,338.74z"/>
	<path fill="#535353" d="M107.94,352.939c0.7-2.51,4.05-4.489,6.36-2.779C112.18,351.09,110.08,352.07,107.94,352.939z"/>
	<path fill="#535353" d="M161.39,378.439c0.63,0.08,1.9,0.24,2.54,0.32c-2.95,1.881-5.98,3.62-9.07,5.24
		C155.84,381.061,159.1,380.109,161.39,378.439z"/>
	<path fill="#535353" d="M216.46,413.55c2.93-2.37,5.42-6.3,9.65-5.96c0.1,0.4,0.3,1.2,0.4,1.601c-1.08-0.021-2.15-0.021-3.23-0.021
		c-7.08,6.29-13.9,12.85-20.79,19.35c-7.3,7.66-12.48,17.45-21.15,23.721c1.39-3.11,4.1-5.26,6.32-7.74
		c4.93-5.4,8.92-11.6,13.91-16.95C206.65,423.01,211.25,417.96,216.46,413.55z"/>
	<path fill="#535353" d="M110.88,420.84c3.38-3.43,6.95-7.92,12.29-7.64c-2.38,1.7-5.35,2.49-7.42,4.63
		c-2.21,2.1-4.28,4.35-6.57,6.37c-4.07,3.72-9.47,5.649-13.35,9.62c-4.26,4.149-8.04,9.21-14.03,10.93
		c0.61-2.26,3.22-2.66,4.83-3.98c4.31-3.34,7.42-8.039,12.03-11.02C102.84,426.94,107.44,424.61,110.88,420.84z"/>
</g>
<g id="_x23_020202ff">
	<path fill="#020202" d="M314.57,376.93c0.08-1.56,0.56-3.99,2.819-3.51c-0.04,1.54-0.1,3.09-0.189,4.65
		c-0.641,2.56-0.811,5.199-1.22,7.81c-0.261,1.101-0.521,2.2-0.771,3.31c-0.47,0.031-1.41,0.11-1.87,0.15
		C312.93,385.15,314.17,381.061,314.57,376.93z"/>
</g>
<g id="_x23_919191ff">
	<path fill="#919191" d="M239.32,406.23c1.15-0.03,2.31-0.051,3.46-0.061c2,8.08,4.48,16.61,3.3,24.93
		c-0.53,0.051-1.6,0.15-2.13,0.2c-2-2.71-1.14-6.26-1.68-9.359C241.36,416.69,240.31,411.47,239.32,406.23 M240.17,406.37
		c1.92,8.08,3.02,16.29,3.99,24.52l1.4-0.84c0.27-6.78-1.32-13.38-2.56-19.99C242.52,408.56,242.46,406.22,240.17,406.37z"/>
</g>
<g id="_x23_121212ff">
	<path fill="#121212" d="M240.17,406.37c2.29-0.15,2.35,2.189,2.83,3.689c1.24,6.61,2.83,13.21,2.56,19.99l-1.4,0.84
		C243.19,422.66,242.09,414.45,240.17,406.37z"/>
</g>
<g id="_x23_858585ff">
	<path fill="#858585" d="M201.55,475.49c1.06-0.01,2.11-0.01,3.17,0c0.16,4.149,0.21,8.35-0.63,12.45
		c-1.58,0.989-3.23,1.89-5.02,2.47C198.15,485.2,199.89,480.32,201.55,475.49 M201.25,488.21c2.15-2.84,1.83-6.51,1.67-9.85
		C200.9,481.27,200.67,484.8,201.25,488.21z"/>
</g>
<g id="_x23_393939ff">
	<path fill="#393939" d="M461.59,573.45c0.851-0.8,1.68-1.62,2.5-2.46c0.9,0.109,1.8,0.229,2.72,0.359
		c0.32,0.551,0.971,1.65,1.29,2.21c-0.75,0.851-1.51,1.69-2.34,2.48C464.37,575.17,462.98,574.31,461.59,573.45z"/>
</g>
</svg>
