<?xml version="1.0" encoding="utf-8"?>
<!-- Generator: Adobe Illustrator 16.0.0, SVG Export Plug-In . SVG Version: 6.00 Build 0)  -->
<!DOCTYPE svg PUBLIC "-//W3C//DTD SVG 1.1//EN" "http://www.w3.org/Graphics/SVG/1.1/DTD/svg11.dtd">
<svg version="1.1" id="Layer_1" xmlns="http://www.w3.org/2000/svg" xmlns:xlink="http://www.w3.org/1999/xlink" x="0px" y="0px"
	 width="589px" height="620px" viewBox="0 0 589 620" enable-background="new 0 0 589 620" xml:space="preserve">
<g id="_x23_000000ff">
	<path d="M282.41,1.37c1.99-1.21,4.52-0.73,6.71-0.47c0.43,1.73-0.05,4.02,1.83,5.01c4.1,3,8.45,5.69,11.96,9.42
		c5.18-2.13,10.75-2.99,16.22-4.04c6.08-0.42,11.86-2.66,17.98-2.87c9.569-1.36,19.25-0.87,28.89-0.93
		c4.98-0.11,9.9,0.74,14.84,1.23c5.55,0.63,10.8,2.63,16.26,3.69c6.33,1.1,12.181,3.85,18.08,6.28
		c11.061,4.67,20.71,12.17,28.75,21.01c4.24-4.27,10.12-7.07,16.16-7.31c4.65,2.29,5.54,9.84,0.86,12.55
		c-3.33,1.41-8.92,0.78-9.97,5.17c1.21,3.59,4.59,6.04,6.869,9.01c7.19,9.28,14.681,18.39,20.79,28.45
		c3.511,5.97,7.551,11.7,9.94,18.26c1.52,4.24,3.76,8.17,5.229,12.43c1.19,4.63,2.32,9.29,3.5,13.93c0.7,3.22,0.75,6.56,1.57,9.77
		c0.89,3.22,0.24,6.6,0.84,9.86c0.37,2.04,0.761,4.09,0.74,6.18c0.03,8.99,0.25,17.99-0.21,26.97c-0.16,3.73-1.22,7.33-1.52,11.05
		c-0.301,2.81-0.261,5.69-1.011,8.44c-1.3,6.89-1.87,13.97-4.26,20.6c-0.93,2.63-1.04,5.46-1.89,8.12
		c-4.23,12.37-7.771,25.05-13.88,36.68c-2.21,4.14-3.841,8.57-6.29,12.58c-5.82,9.33-11.471,18.86-18.881,27.04
		c-11,12.709-24.199,24.35-40.359,29.831c-4.521,1.91-9.51,2.02-14.15,3.5c-5.95,1.35-12.1,0.5-18.109,1.16
		c-13.96,0.979-27.92-0.551-41.891-0.301c-3.17,0.07-6.439-0.32-9.479,0.74c-0.69,1.939,0.85,3.67,1.359,5.46
		c4.851,16.25,14.931,30.45,26.48,42.67c2.83,3.45,6.47,6.12,9.28,9.58c3.6,4.47,8.26,7.93,11.729,12.52
		c2.88,3.721,8.26,7.011,6.83,12.471c-0.62,1.27-1.54,2.449-2.93,2.899c-5.62-8.12-9.09-17.56-14.811-25.569
		c-6.859-0.721-13.79,0.06-20.68-0.33c-1.13-3.271-2.79-6.301-4.78-9.12c-7.1-12.16-15.16-23.74-22.05-36.02l-0.61,0.289
		c0.021,5.33,1.87,10.45,2.011,15.78c0.38,10.149,2.68,20.08,4.27,30.05c0.351,8.07,3.36,15.74,3.98,23.8
		c1.72,7.13,3.18,14.341,4.34,21.591c1.51,5.119,2.58,10.359,3.53,15.619c2.119,7.601,2.97,15.511,5.63,22.99
		c1.18,6.53,3.31,12.82,4.83,19.271c1.979,5.22,3.13,10.699,4.369,16.13c0.931,3.2,2.23,6.3,2.87,9.59
		c0.82,4.24,2.58,8.22,3.511,12.43c0.5,2.25,1,4.53,1.92,6.67c2.029,4.61,2.59,9.681,4.14,14.45c2.03,6.44,3.73,12.99,6.02,19.34
		c2.79,10.83,6.49,21.41,9.62,32.141c-3.79,0.31-7.62,0.489-11.399,0.04c-1.19-0.141-2.4-0.94-2.42-2.221
		c-2.2-10.88-6.03-21.33-8.86-32.05c-1.19-5.93-3.72-11.45-4.95-17.36c-2.39-7.199-3.97-14.64-6.63-21.739
		c-3.41-13.19-7.66-26.16-11.35-39.271c-1.141-6.34-3.721-12.31-4.71-18.67c-1.561-4.97-2.771-10.02-4.29-15
		c-1.08-6.06-2.4-12.08-4.221-17.95c-1.63-9.399-3.63-18.71-5.43-28.069c-1.38-8.351-2.42-16.771-4.3-25.021
		c-1.28-6.2-0.69-12.649-2.43-18.76c-0.49-6.41-0.61-12.87-1.65-19.22c-1.1-6.631-1.15-13.37-1.42-20.061
		c-4.49-0.41-8.74-2.039-13.23-2.42c-3.55-0.29-6.7-2.17-10.22-2.65c-3.15-0.5-6.34-0.949-9.35-2.049
		c-3.12-1.19-6.53-1.341-9.63-2.591c-3.82-1.579-8.07-1.569-11.9-3.09c-3.67-1.94-7.42,0.83-10.83,2.09
		c-6.38,3.04-13.31,4.671-19.72,7.64c-3.49,1.711-7.45,2-10.97,3.621c-3.91,1.85-8.28,2.26-12.28,3.83
		c-3.82,1.619-7.94,2.299-11.75,3.949c-6.26,1.52-12.27,3.93-18.55,5.36c-2.01,0.5-3.81,1.569-5.79,2.18
		c-7.25,1.521-14.08,4.479-21.15,6.64c-4.5,1.25-8.57,3.59-13.01,4.99c-1.91,0.41-3.2,1.91-4.33,3.381
		c-3.48,4.529-6.83,9.149-10.1,13.819c-3.49,5.05-6.27,10.53-9.62,15.66c-3.28,0.08-6.57-0.12-9.85,0.18
		c-0.7,6.44,0.03,12.95-0.39,19.42c-2.47,6.511-5.64,12.75-7.99,19.32c-1.64,4.31-2.83,8.79-4.76,13c-1.83,4.1-1.75,9.35-5.6,12.28
		c-3.22,3.43-6.87,6.449-9.82,10.13c-3.58,4.66-7.07,9.51-9.22,15.01c-4.37,7.46-6.1,16.2-6.99,24.69
		c5.56-0.67,11.16-0.601,16.74-0.261c2.23,0.11,4.25,1.15,6.33,1.851c12.85,3.779,23.55,14.46,27.19,27.37
		c0.53,3.199,1.49,6.67,0.73,9.859c-3.76,0.12-7.15-1.87-10.05-4.05c-7.54-5.63-11.55-14.71-19.11-20.29
		c-3.9-2.5-8.39-4.53-13.12-4.29c-2.92,0.19-6.19-0.62-8.89,0.75c-0.79,1.83,0.12,3.94,0.61,5.76c1.89,4.601,3.23,9.46,5.96,13.66
		c4.87,8.76,10.94,16.79,15.67,25.62c1.77,4.57,3.86,9.33,3.14,14.351c-1.68,0.449-3.19-0.591-4.71-1.101
		c-7.27-2.81-13.03-8.75-16.62-15.57c-4.28-6.92-6.35-14.859-9.44-22.319c-2.17-4.09-2.99-8.79-5.59-12.681
		c-0.96-1.22-1.02-3.29-2.62-3.84c-1.41,3.3-3.76,6.221-4.22,9.88c-1.35,4.49-1.9,9.431-0.24,13.931
		c1.95,9.62,7.61,17.91,10.66,27.16c0.9,3.579,1.62,7.319,1,11.01c-0.42,0.189-1.25,0.58-1.67,0.77c-3.95-1.56-7.8-3.83-10.18-7.45
		c-5.15-7.539-8-16.31-11.31-24.739c-1.12-2.12-1.72-4.761-3.54-6.37c-1.74,2.6-3.16,5.62-3.14,8.81
		c-0.17,5.34,0.34,10.66,0.66,15.98c0.26,3.99,1.16,8.109-0.12,12.03c-0.6,2.81-3.51,5.34-6.39,5.14
		c-4.48-10.74-6.18-22.7-4.35-34.22c2.22-10.69,7.02-20.841,13.94-29.29c6.12-9.07,13.94-16.86,19.96-26.011
		c2.99-4.119,5.96-8.3,7.89-13.04c5.73-10.76,9.02-22.569,13.96-33.68c1.72-3.54,2.58-7.439,4.62-10.82
		c1.32-2.239,2.43-4.579,3.65-6.869c4.49,0.22,9.02,0.59,13.49-0.011c0.2-4.63,1.25-9.699-0.83-14.04
		c1.68-4.14,4.53-8.659,3.24-13.229c0.11-0.141,0.34-0.43,0.46-0.57c0.25-0.28,0.76-0.85,1.01-1.13c0.65-6.1,0.87-12.59,4.11-17.99
		c1.38-2.35,2.63-4.79,4.22-7.01c4.99-6.22,9.78-12.75,16.27-17.521c4.8-4.27,10.23-7.709,15.54-11.299
		c10.36-6.181,21.53-10.801,32.7-15.311c7.16-2.09,14.25-4.43,21.21-7.109c7.46-1.49,14.77-3.65,22.3-4.851
		c5.65-0.899,10.81-3.47,16.12-5.46c5.57-2.84,10.6-6.85,14.4-11.85c0.61-0.66,1.32-2.141,0.01-2.531
		c-15.7-9.159-29.37-21.289-42.54-33.689c-15.7-16.71-30.41-34.98-39.04-56.44c-2.13-5.69-4.76-11.25-5.6-17.32
		c-3.59-10.55-2.83-21.86-2.79-32.83c1.53-9.44,0.94-19.14,3.23-28.49c1.05-3.8,0.28-8.12,2.51-11.56
		c3.22-5.41,6.15-11.01,9.98-16.04c9.21-14.4,20.9-27.04,33.46-38.56c15.59-13.36,32.61-25.08,50.72-34.75
		c6.29-3.71,13.01-6.6,19.28-10.33c10.49-4.8,20.36-10.8,30.45-16.36c-4.68-1.6-9.51-5.51-9.4-10.89
		C279.91,5.58,281.19,3.36,282.41,1.37 M353.71,18.82c0.75,1.76,1.68,3.43,2.35,5.22c1.07,1.38-0.479,3.4-2.01,3.24
		c-3.03,0.2-6-0.51-9.02-0.54c-3.78,0.07-8.311-1.04-10.94,2.44c6.67,0.63,13.21,2.66,19.101,5.88c4.93,2.47,9.47,5.87,14.859,7.32
		c2.21,0.73,4.55,1.42,6.88,0.86c3.61-1.25,6.17-4.25,9.48-6.02c2.22-1.23,4.939-2.61,7.49-1.57c1.529,2.17,3.159,4.57,3.52,7.24
		c-4.05,6.04-9.479,11.13-15.57,15.07c-2.84,2.11-6.52,1.44-9.81,1.37c-3.021-0.85-4.13-4.16-6.771-5.47
		c-1.609,7.41-6.579,13.53-12.42,18.12c-5.659,3.93-12,6.93-18.75,8.41c-2.699,0.55-5.22,1.86-8,1.94
		c-7.989,0.22-15.939,1.84-23.949,0.97c-7.13-0.99-14.45-1.19-21.291-3.67c-10.78-2.52-21.31-6.75-30.13-13.55
		c-3.06-2.32-5.05-5.69-7.83-8.29c-2.31,0.12-3.8,2.3-5.61,3.49c-16.46,11.79-33.71,22.62-48.73,36.27
		c-4.57,4.76-9.69,9.05-13.45,14.52c-5.9,7.57-10.09,16.31-13.74,25.14c-3.79,8.56-6.54,17.6-7.87,26.88
		c-2.07,8.49-1.16,17.29-1.36,25.93c-0.22,4.52,1.7,8.72,2.48,13.1c1.1,5.28,3.58,10.1,5.39,15.14c4.61,10.21,10.02,20.13,16.9,29
		c9.57,13.71,21.4,25.66,33.72,36.88c9.06,8.15,18.94,15.3,28.88,22.3c5.47,3.15,10.49,7.26,16.52,9.31
		c9.32-5.36,19.53-9.1,29.82-12.17c6.44-2.73,13.13-4.89,19.3-8.22c2-0.97,3.609-2.78,5.84-3.23c1.71,1.99,2.01,4.7,3.06,7.03
		c1.61,3.5,1.9,7.39,3.25,10.98c1.32,6.86,2.7,13.91,6.22,20.049c13.75,1.94,27.65,0.951,41.48,1.211
		c4.39,0.289,8.62-1.25,13.01-1.08c2.721,0.1,5.271-1.1,7.99-1.09c5.69-0.19,10.98-2.42,16.5-3.53
		c9.85-3.091,19.48-7.21,27.83-13.351c14.03-10.18,25.81-23.27,35.22-37.78c5.48-9.28,10.3-19.04,13.07-29.49
		c1.85-4.85,2.17-10.09,3.82-14.99c1.1-3.24,1.159-6.72,2.04-10.01c1.119-3.91,1.109-8.03,2.239-11.93
		c0.92-2.99,0.73-6.13,0.82-9.22c0.04-2.68,1.2-5.22,1.05-7.92c-0.18-7.68,1.271-15.35,0.36-23.02
		c-0.771-5.76,0.13-11.61-1.04-17.33c-1.15-4.86-1.01-9.91-2.3-14.74c-0.87-4.81-2.811-9.34-3.851-14.11
		c-1.149-4.08-3.18-7.83-4.67-11.79c-0.75-1.54-1.34-4.24-3.64-3.68c-4.4,1.3-8.82,2.96-13.48,2.93
		c-6.31,0.41-12.8,1.14-18.979-0.64c-3.181-0.99-6.601-1.15-9.601-2.67c-3.189-1.58-6.37-3.17-9.43-4.94
		c-12.33-8.46-20.28-22.35-23.16-36.85c-0.35-3.08-0.41-6.2-0.84-9.28c0.17-0.36,0.5-1.08,0.67-1.45c5.98-3.01,12.8-4.32,18.44-8.09
		c2.8-2.13,5.09-5.05,6.3-8.37l-0.28-0.92c-5.46-3.9-12.25-5.21-18.32-7.89c-4.35-1.52-8.829-2.63-13.21-4.04
		c-5.859-1.99-12.149-2.07-18.05-3.9c-2.52-0.78-5.22-0.33-7.75-1.05C360.48,18.36,357.05,18.66,353.71,18.82 M295.01,32.83
		c-8.84,1.83-17.38,5.98-23.64,12.57c-0.09,0.3-0.28,0.9-0.37,1.2c6.33,0.06,12.67-0.1,19,0.01c9.63,1.01,19.33,0.32,29,0.55
		c6.13,0.26,12.18-1.28,17.96-3.21l-0.13-0.88c-7.63-4.04-15.76-7.29-24.23-9.04C306.99,31.91,300.87,32.53,295.01,32.83
		 M434.46,54.64c-4.88,0.53-9.93,1.73-13.57,5.25c-1.069,1.17-2.8,2.48-2.33,4.28c2.771,0.22,5.61-0.2,8.32,0.54
		c5.16,1.96,9.63,5.32,14.58,7.71c3.78,1.73,9.07,2.42,12.06-1.11c-3.109-2.84-6.21-5.72-8.899-8.97c-1.87-2.32-2.41-5.36-3.94-7.87
		C438.77,53.44,436.47,54.4,434.46,54.64 M281.61,56.93c-5.75,1.6-12,1.45-17.46,3.95c4.78,4.16,11.5,4.6,17.37,6.35
		c4.86,0.15,9.59,1.6,14.48,1.33c6.75-0.02,13.61,0.31,20.2-1.52c2.77-0.89,6.08-0.84,8.25-3.04c-2.13-3.07-5.99-4.68-9.55-5.51
		c-3.931-0.92-7.78-2.49-11.881-2.3C295.891,56.39,288.67,55.67,281.61,56.93 M414.73,74.46c-0.521,3.52,1.409,6.65,3.329,9.4
		c5.591,6.28,14.311,9.44,22.62,8.83c-1.239-1.47-2.97-2.77-3.26-4.8c-0.21-1.94-0.08-3.89-0.229-5.84
		c-3.011-0.49-6.131-0.47-9.011-1.59C423.51,78.89,419.35,76.16,414.73,74.46 M292.95,312.7c-0.66,1.729-0.66,3.85-2.01,5.239
		c-4.89,2.761-10.91-0.75-15.72,2.19c-0.84,0.71-2.48,1.649-1.75,2.96c6.28,2.9,13.02,4.53,19.69,6.26
		c2.811,0.66,5.73,0.49,8.59,0.371c-1.029-4.49-1.67-9.061-2.46-13.601C298.84,313.29,295.49,311.99,292.95,312.7z"/>
	<path d="M310.3,101.39c9.88-0.49,19.8-0.05,29.7-0.21c7.48-0.33,14.7,2.07,22.14,2.31c16.28,3.28,32.431,7.83,47.44,15.04
		c15.88,8,31.05,18.64,41.1,33.57c5.12,7.1,8.811,15.26,10.75,23.79c1.04,3.4,1.99,7.06,1.17,10.62
		c-3.569-0.98-7.09-2.19-10.529-3.53c-9.19-5.12-14.511-15.65-14.34-26.03c0.35-2.93-2.44-4.63-4.091-6.6
		c-12.92-14.46-31.159-22.89-49.51-28.11c-6.43-1.25-12.6-3.65-19.16-4.24c-4.739-0.21-9.319-1.53-14.04-1.88
		c-5.27-0.73-10.6-0.33-15.87-0.85c-6.699-0.54-13.38,0.38-20.079,0.38c-9.23,0.07-18.301,2.13-27.081,4.84
		c-2.44,0.83-4.85,1.81-7.4,2.27c-3.87,0.68-7.51,2.49-11.5,2.51c-3.94,0.09-8.31,0.41-11.7-2c1.98-3.53,4.64-6.69,7.84-9.16
		c5.17-3.35,10.65-6.54,16.76-7.76c3.45-0.7,6.7-2.18,10.2-2.69c2.01-0.3,4.07-0.18,6.06-0.65
		C302.141,102,306.3,102.36,310.3,101.39z"/>
	<path d="M246.79,110.59c1.77-1.07,3.15,1.3,4.19,2.4c4.85,7.3,4.73,16.53,8.73,24.23c-4.3,0.5-7.5,4.31-11.87,4.18
		c-4.46-5.76-4.21-13.56-3.88-20.46C244.6,117.45,244.81,113.65,246.79,110.59z"/>
	<path d="M351.55,127.81c5.41-1.09,10.96-0.28,16.28,0.92c5.81,1.02,11.32,3.18,16.78,5.34c5.899,1.67,11.47,4.43,17.56,5.45
		c2.09,0.36,4.16,0.86,6.23,1.37c3.3,0.85,6.75,0.13,10.1,0.57c1.64,3.07,2.69,6.49,2.81,9.97c-5.55,2.06-11.51,1.86-17.319,1.68
		c-11.09-2-22.101-4.83-32.5-9.27c-10.87-3.34-21.971-6.84-33.48-6.32C340.59,132.3,346.03,129.08,351.55,127.81z"/>
	<path d="M393.27,443.72l0.79-0.08c9.83,10.73,20.011,21.36,32.32,29.301c0.15,0.609,0.45,1.84,0.601,2.449
		c1.039,0.181,2.09,0.33,3.149,0.44c11.55,7.5,23.71,14.09,36.34,19.61c13.15,6.569,27.04,11.489,40.67,16.949
		c5.95,2.011,11.54,4.94,17.57,6.7c7.78,3.43,15.82,6.21,23.57,9.69c8.62,3.08,16.689,7.489,25.17,10.91
		c0.21,2.069-0.271,4.18,0.08,6.26c0.55,3.359,1.859,6.54,2.52,9.89c1.13,5.62,3.96,10.7,5.34,16.25
		c1.07,4.03,3.851,7.58,3.761,11.91c0.02,4.69,0.06,9.39-0.03,14.09c0.17,3.49-5.22,5.37-7.61,3.37
		c-4.09-6.83-2.75-15.51-6.83-22.29c-0.39-0.04-1.16-0.12-1.54-0.16c-2.85,3.61-1.729,8.57-3.64,12.55
		c-0.9,1.54-2.12,2.95-3.61,3.95c-1.85,0.3-3.739,0.311-5.6,0.26c-0.2-4.26-0.08-8.52-0.08-12.779c-0.01-3.71,1.13-7.311,1.1-11.021
		c0.091-6.06,0.421-12.71-3.319-17.89l-0.75,0.1c-2.98,7.61-1.37,15.86-2.061,23.78c-0.77,5.3-1.91,11.59-7.1,14.33
		c-1.9-0.78-3.03-2.65-4.3-4.14c-3.391-4.29-2.971-10.091-2.99-15.23c2-4.42,1.75-9.42,3.71-13.84c0.92-2.34,1.83-4.68,2.53-7.09
		c1.17-4.05,3.18-7.88,3.6-12.12l-0.52-0.75c-13.141-5.32-26.28-10.75-39.92-14.64c-10.101-3.131-19.771-7.521-30.04-10.07
		c-12.341-4.58-24.631-9.311-36.57-14.84c-5.93-3.391-11.96-6.63-17.5-10.641c-8.09-4.68-14.33-11.75-20.57-18.54
		c-3.55-4.51-7.12-9-10.729-13.46C390.55,452.41,389.97,447.36,393.27,443.72z"/>
</g>
<g id="_x23_ff2400ff">
	<path fill="#FF2400" d="M199.16,403.09c10.99-1.77,22.5,0.23,32.22,5.65c0.34,5.63,0.3,11.3,0.1,16.939l-0.44,0.65l-1,0.13
		c-6.83-4.76-14.1-10.95-23.01-9.93c-5.5,0.96-11.43,3.31-14.32,8.399c-1.88,3.391-3.64,7.08-3.46,11.07
		c0.17,5.04-0.87,10.43,1.47,15.14c1.39,3.08,3.24,6.08,5.92,8.21c5.26,3.601,12.1,4.79,18.26,3.17
		c4.15-1.409,8.16-3.369,11.53-6.21c1.48-1.079,3.07-3,5.11-2.06c-0.07,5.6,0.43,11.29-0.26,16.84c-6.77,2.9-13.78,5.94-21.27,5.91
		c-5.41,0.03-11.01,0.42-16.16-1.56c-7.4-2.341-14.9-6.44-18.68-13.521c-3.45-6.38-5.73-13.61-5.29-20.92
		c-0.74-9.82,2.35-19.92,8.69-27.48C183.9,407.72,191.49,404.4,199.16,403.09z"/>
	<path fill="#FF2400" d="M30.27,404.28c17.09-0.11,34.2-0.24,51.28,0.06c0.17,4.33-0.26,8.69,0.49,13
		c-0.12,0.141-0.35,0.43-0.46,0.57c-10.83,0.56-21.68-0.09-32.5,0.34c-0.43,4.32-0.37,8.7-0.05,13.04c4.31,0.4,8.64,0.14,12.97,0.18
		c5.44-0.069,10.91,0.261,16.34-0.33c2.08,4.341,1.03,9.41,0.83,14.04c-4.47,0.601-9,0.23-13.49,0.011
		c-5.55-0.49-11.14-0.5-16.7-0.221c-0.36,10.061,0.1,20.15-0.17,30.221c-6.18,0.31-12.42,0.39-18.59-0.03
		C30.15,451.53,30.04,427.9,30.27,404.28z"/>
	<path fill="#FF2400" d="M93.05,404.3c3.28-0.3,6.57-0.1,9.85-0.18c2.88,0.02,5.77-0.101,8.64,0.22c0.1,15.55,0.01,31.11,0.01,46.66
		c0.02,3.06,1.11,6.09,2.75,8.65c3.14,2.859,7.43,4.34,11.68,4.01c4.67,0.04,9.59-2.62,11.24-7.16c0.89-3.08,1.03-6.32,1.11-9.5
		c0.1-14.23-0.11-28.46,0.08-42.68c6.03-0.221,12.09-0.29,18.12,0.02c0.13,14.88-0.04,29.771,0.07,44.66
		c0.77,8.51-2.84,17.73-10,22.65c-4.35,2.93-9.6,3.96-14.59,5.25c-4.69,0.22-9.41,0.229-14.1-0.021c-4.22-0.84-8.54-1.67-12.41-3.61
		c-5.69-3.56-10.54-9.039-11.75-15.819c-1.64-11.17-0.59-22.49-1.09-33.73C93.08,417.25,92.35,410.74,93.05,404.3z"/>
	<path fill="#FF2400" d="M245.14,404.26c5.95-0.13,11.91-0.16,17.86,0c0.57,10.55-0.15,21.141,0.31,31.7
		c8.69-10.25,16.73-21.09,25.18-31.54c7.13-0.54,14.32-0.12,21.479-0.229c-8.85,11.21-18.55,21.75-27.42,32.93
		c0.84,1.82,2.19,3.33,3.42,4.899c8.38,11.07,16.93,22.011,25.16,33.19c-7.04,0.33-14.11,0.2-21.15,0.12
		c-1.51,0.229-2.18-1.44-3.05-2.311c-5.61-7.64-11.42-15.119-16.99-22.779c-0.91-0.84-1.38-2.61-2.82-2.57
		c-1.7,1.771-3.92,3.68-3.87,6.37c-0.3,7.06,0.2,14.13-0.17,21.19c-6,0.25-12.02,0.289-18.01,0.01c-0.29-18.74-0.11-37.5-0.15-56.24
		C245.04,414.08,244.74,409.16,245.14,404.26z"/>
	<path fill="#FF2400" d="M345.79,404.11c6.89,0.39,13.82-0.391,20.68,0.33c5.721,8.01,9.19,17.449,14.811,25.569
		c1.39-0.45,2.31-1.63,2.93-2.899c3.61-7.78,7.99-15.16,11.91-22.78c6.89-0.3,13.82-0.16,20.729-0.09
		c-0.479,1.29-1.189,2.46-1.909,3.62c-7.341,11.88-14.32,23.989-21.671,35.859c-3.3,3.641-2.72,8.69-2.489,13.21
		c-0.24,6.141,0.12,12.301-0.221,18.44c-6.069,0.06-12.149,0.04-18.229,0.03c-0.521-1.42-0.46-2.94-0.49-4.41
		c0.021-7.021,0.101-14.03,0.04-21.04c0.12-1.41-0.49-2.67-1.21-3.811c-5.21-8.29-10.01-16.84-15.28-25.1
		c-2.64-4.96-5.39-9.88-8.59-14.5C346.36,405.77,346.02,404.96,345.79,404.11z"/>
	<path fill="#FF2400" d="M426.84,404.23c17-0.061,34.01-0.11,51,0.02c0.32,4.56,0.33,9.16,0.01,13.73
		c-10.96,0.43-21.949-0.091-32.92,0.22c-0.31,3.979-0.33,7.99,0,11.97c10.23,0.61,20.5-0.02,30.75,0.26
		c0.32,4.561,0.21,9.141,0.101,13.7c-10.19,0.54-20.431-0.06-30.63,0.24c-0.79,5.76-0.37,11.689-0.24,17.51
		c10.97,0.34,21.979-0.25,32.939,0.26c0.33,4.351,0.28,8.73,0.061,13.091c-10.3,0.35-20.61,0.05-30.91,0.149
		c-5.63,0.13-11.29-0.399-16.87,0.45c-1.06-0.11-2.11-0.26-3.149-0.44c-0.15-0.609-0.45-1.84-0.601-2.449
		c0.41-19.311,0.07-38.631,0.18-57.94C426.67,411.41,426.25,407.79,426.84,404.23z"/>
	<path fill="#FF2400" d="M511.79,404.49c6.97-0.57,14.03-0.37,21.03-0.12c2.43,3.39,3.22,7.61,4.67,11.46
		c3.67,9.52,6.939,19.2,10.689,28.7c3.261,10.39,7.931,20.29,11.011,30.739c-6.061,0.19-12.141,0.23-18.19,0l-0.68-0.409
		c-2.101-4.431-2.83-9.521-5.391-13.69c-8.29-0.5-16.649-0.439-24.939-0.08c-3.23,4.16-3.21,10.07-6.05,14.41
		c-6.011-0.21-12.04,0.09-18.04-0.29C494.22,451.54,503.16,428.06,511.79,404.49 M521.75,424.4c-2.04,8.029-6.12,15.399-7.71,23.569
		c5.53,0.141,11.16,0.53,16.66-0.25c-1.891-8.189-6.03-15.66-7.87-23.87C522.56,423.99,522.02,424.26,521.75,424.4z"/>
	<path fill="#FF2400" d="M569.77,456.8c5.91-0.359,11.841-0.189,17.75-0.069c0.32,6.18,0.311,12.369,0.011,18.55
		c-5.92,0.1-11.851,0.34-17.761-0.05C569.45,469.1,569.45,462.93,569.77,456.8z"/>
</g>
<g id="_x23_593f3bff">
	<path fill="#593F3B" d="M346.8,406.54c3.2,4.62,5.95,9.54,8.59,14.5c-3.1-1-5.569-3.69-6.52-6.78
		C347.99,411.74,346.89,409.24,346.8,406.54z"/>
</g>
<g id="_x23_ffccc4ff">
	<path fill="#FFCCC4" d="M587.52,456.73c0.37,0.01,1.11,0.02,1.48,0.02v18.51c-0.37,0.01-1.1,0.01-1.47,0.021
		C587.83,469.1,587.84,462.91,587.52,456.73z"/>
</g>
</svg>
