<?xml version="1.0" encoding="utf-8"?>
<!-- Generator: Adobe Illustrator 16.0.0, SVG Export Plug-In . SVG Version: 6.00 Build 0)  -->
<!DOCTYPE svg PUBLIC "-//W3C//DTD SVG 1.1//EN" "http://www.w3.org/Graphics/SVG/1.1/DTD/svg11.dtd">
<svg version="1.1" id="Layer_1" xmlns="http://www.w3.org/2000/svg" xmlns:xlink="http://www.w3.org/1999/xlink" x="0px" y="0px"
	 width="344px" height="342px" viewBox="0 0 344 342" enable-background="new 0 0 344 342" xml:space="preserve">
<path fill="#080808" d="M121.6,9.92c18.94-3.33,38.23-3.65,57.4-3.05c6.891,0.6,13.91,0.63,20.57,2.72
	c7.979,2.3,15.109,7.04,20.959,12.87c7.24,8.2,16.531,14.16,24.621,21.46c18.949,15.08,33.09,35.76,41.32,58.46
	c4.27,11.49,8.629,23.21,8.859,35.63c0.279,4.67-0.6,9.28-0.78,13.93c-0.38,12.71-3.53,25.33-9.06,36.781
	c-3.79,7.84-7.2,15.869-11.11,23.659c-7.489,14.7-19.72,26.851-34.28,34.57c-3.22,1.659-6.42,3.37-9.529,5.229
	c1.97,2.78,3.92,5.61,5.25,8.771c5.76,13.149,10.09,26.979,12.34,41.18c0.79,5.63,1.199,11.31,2.17,16.91
	c-0.25,1.931-0.68,3.84-0.92,5.78c-1.16-0.051-2.33-0.1-3.49-0.131c-0.47-9.489-0.1-19.119-2.35-28.41
	c-3.48-14.299-9.16-28.039-16.61-40.729c-4.931,4.38-10.62,10.78-17.95,8.82c5.83-2.71,12.23-4.899,16.16-10.341
	c-8.55,2.191-17.189,4.281-26.07,4.431c0.32,4.61,0.721,9.21,1.26,13.8c0.351,4.471,1.051,8.9,1.19,13.391
	c-1.54-0.041-3.06-0.131-4.59-0.271c-1.979-15.04-3.17-30.19-3.649-45.36c-1.15-12.869-1.561-25.91,0.129-38.75
	c0.301-2.34,0.32-4.979,1.98-6.84c2.88-3.66,6.21-6.949,8.91-10.76c-3.12-0.109-6.24-0.07-9.359-0.22
	c1.069-4.31,4.439-7.61,5.299-12c0.461-2.62,0.67-5.35,0.121-7.97c-1.681-3.1-7.24-3.18-8.961-0.05
	c-2.539,4.15-4.039,8.89-4.81,13.66c-0.94,13.99-2.56,27.91-3.13,41.92c-0.45,9.34-1.86,18.61-2.17,27.95
	c-1.11,13.53-0.881,27.11-1.58,40.649c-1.19,0.011-2.381,0.011-3.561,0.031c0.051-6.17,0.09-12.33,0.19-18.49
	c0.101-3.86,0.14-7.73,0.229-11.59c-4.029-0.311-8.05-0.82-12.08-1.101c0.1,4.16,0.37,8.31,0.68,12.46
	c0.26,6.49,0.36,12.971,0.63,19.46c-1.28-0.03-2.55-0.04-3.83-0.04c-0.62-7.77-0.33-15.59-1.06-23.359
	c-0.57-6.65-0.64-13.32-0.46-19.98c0.27-10.721-0.11-21.46,0.78-32.15c0.33-6.41-0.1-13.1,2.44-19.16
	c3.13-7.239,6.21-14.5,9.069-21.85c1.57-3.9,1.23-8.79-1.7-11.97c-0.8-1.27-2.51-1.89-3.77-0.88c-6.93,5.46-5.7,16.949-13.4,21.57
	c-4.98-2.59-10.4-4.75-16.15-3.881c7.2,3.91,12.07,10.771,15.77,17.87c2.39,4.49,0.84,9.64,1.13,14.45
	c0.46,11.59-1.56,23.05-2.33,34.58c-1.21,14.77-4.14,29.32-6.03,44c-1.31,0.01-2.62,0.02-3.93,0.04c1.1-6.46,2.06-12.95,3.24-19.39
	c0.81-4.601,1.4-9.23,2.19-13.83c-5.3-1.34-10.61-3.11-16.15-2.801c2.86,5.32,9.02,6.9,13.12,10.92
	c-3.06-0.459-6.03-1.41-8.75-2.859c-2.89-1.92-4.87-4.83-6.84-7.61c-0.89,0.479-1.78,0.979-2.67,1.49c-1.62,0.94-3.2,1.94-4.69,3.08
	c-8,6.649-14.48,15.08-18.91,24.489c-6.38,13.781-10.07,28.641-12.31,43.611c-1.17,0-2.33,0-3.49,0
	c2.32-19.341,6.63-39.271,18.27-55.33c5.18-7.931,12.33-14.201,19.28-20.511c-5.29-3.021-10.55-6.17-16.21-8.45
	c-5.3-2.709-9.9-6.64-13.96-10.959c-1.96-2.111-4.89-2.941-6.87-5.031c-4.44-5.52-9.96-10.06-14.21-15.76
	c0.55-0.82,1.1-1.64,1.65-2.459c-0.48,0.469-1.42,1.42-1.89,1.889c-5.24-7.719-9.56-16.17-11.86-25.25
	c-4.61-16.639-6.08-33.929-6.75-51.119c-0.53-22.2,0.36-44.53,4.32-66.42c1.31-8.17,8.21-13.37,12.77-19.72
	c6.81-9.37,15.14-17.59,24.41-24.52C103.68,15.65,112.37,11.63,121.6,9.92 M145.34,11.24c-7.34,0.33-14.71,0.84-21.91,2.4
	c-17.73,4.07-33.63,14.9-44.47,29.44c7.1-1.83,14.42-2.43,21.71-3c6.45-1.13,13.02-1.59,19.33-3.43c6.22-1.63,13.14-2.98,17.57-8.07
	c1.9-2.22,4-4.27,6.68-5.53c0.46,1.26,0.91,2.54,1.35,3.81c2.85-1.67,5.81-3.15,8.86-4.42c0.03,0.81,0.08,2.43,0.11,3.24
	c1.93-1.67,4.38-1.13,6.69-0.86c0.29,2.9-0.27,5.77-1.93,8.19c-6.34,2.26-12.34,5.44-18.46,8.23c-5.07,0.64-9.91,2.63-15.09,2.74
	c9.28,5.01,18.31,11.08,24.31,19.95c5.47,7.59,8.36,16.65,10,25.78c0.65,7.03,0.39,14.13-0.96,21.06
	c-1.69,7.83-5.1,15.91-11.86,20.65c-2.48,1.99-6.77,2.12-7.46,5.76c5.2-3.4,10.68-6.86,13.98-12.3c2.75-3.41,5.07-8.11,9.75-8.99
	c-1.99,5.5-5.64,10.18-8.23,15.39c3.18-0.11,6.91,1.05,9.32-1.69c6.56-5.67,15.771-6.04,23.96-4.95c-0.05-0.88-0.16-2.63-0.22-3.51
	l0.62-0.44c0.789,0.19,2.359,0.57,3.14,0.76c-0.54,1.36-1.14,2.7-1.729,4.05c2.149,0.54,4.35,0.93,6.58,0.7
	c-1.15-2.86-2.75-5.5-4.42-8.07c-0.98-2.07-1.23-4.35-1.69-6.56c1.81-0.24,3.61,0.02,5.26,0.81c-3.46-4.89-6.26-10.19-9.069-15.47
	c0.67,3.51,1.91,6.96,1.569,10.59c-0.68,0.33-2.021,0.97-2.7,1.3c-1.59-5.23-2.89-10.58-5.229-15.54c-1.11-2.75-2.74-5.29-3.53-8.16
	c0.27-0.47,0.801-1.4,1.07-1.87c2.6,0.48,4.05,3.07,6.06,4.56c-1.7-9.21,0.03-18.75,3.15-27.48c2.97-7.95,10.229-13.01,17.55-16.6
	c-2.609-0.79-5.29-1.28-8.029-1.12c-5.611,0.19-11.32-0.84-16.421-3.19c-5.021-3.68-7.81-9.74-9.06-15.68
	c-0.57-2.11,0.43-4.05,1.369-5.86c1.641,2.57,3.301,5.15,4.44,7.99c0.38-1.92,0.88-3.81,1.36-5.71c0.67,1.16,1.33,2.33,1.99,3.51
	c1.039-0.02,2.08-0.03,3.119-0.05c2.951,5.06,7.15,9.4,12.201,12.39c1.459,0.83,3,2.01,4.779,1.43c3.99-0.36,8.07-1.69,12.04-0.49
	c7.79,2.01,15.51,4.29,23.351,6.05c-3.451-3.62-7.561-6.49-11.141-9.97c-4.439-4.24-8.641-8.72-13.13-12.9
	c-6.79-6.28-16.149-9.15-25.25-9.44c-2.5-0.43-5.05-0.44-7.58-0.48C167.8,10.18,156.53,9.96,145.34,11.24 M98.41,46.69
	c-5.89,1.05-11.82,2.67-16.96,5.81c-3.7,3.2-5.75,7.9-7.48,12.37c-2.97,9.41-4.83,19.81-1.34,29.34c1.97,5.15,4.53,10.82,9.72,13.41
	c8.89,5.8,18.02,11.45,28.1,14.95c9.53,3.25,20.14,3.81,29.77,0.73c10.07-4.91,17.3-15.98,16.62-27.33
	c0.13-6.44-2.58-12.4-4.4-18.45c-3.33-9.02-8.78-17.63-16.6-23.37C124.51,48.06,111.26,44.83,98.41,46.69 M197.029,51
	c-6.949,9.33-11.059,21.36-9.189,33.03c1.07,7.22,5.21,13.37,8.54,19.71c2.5,4.73,5.39,9.23,8.03,13.88
	c6.67-3.34,15.16-2.67,21.1,1.89c2.87,2.26,4.91,5.89,8.49,7.07c3.63-0.64,5.8-4.15,7.471-7.15c2.59-4.9,7.949-8.25,13.539-8.08
	c3.54-0.33,6.311,2.19,9.27,3.71c1.9-5.48,3.441-11.18,3.471-17.01c0.17-6.81,0.21-13.75-1.73-20.34
	c-2.85-10.49-9.93-20-19.649-25.04c-6.86-2.3-14.06-3.43-21.07-5.18c-5.05-1.36-10.21,0.14-15.329-0.03
	C205.529,47.52,200.17,47.25,197.029,51 M67.62,58.62c-4.75,12.41-7.68,25.48-8.88,38.69c-0.61,14.22-1.85,28.48-0.52,42.7
	c0.48,11.77,3.01,23.34,5.8,34.75c1.67,7.08,1.06,15.23,6.31,20.95c0.16,1.74,2.69,2.511,3.82,3.771
	c1.54-10.291,1.13-20.74,2.32-31.07c-0.06-4.55,1.55-9.49-0.61-13.73c-0.57-5.99-0.73-12.18,1.64-17.84
	c0.89-1.57,1.74-3.17,2.57-4.78c-3.55-1.36-7.12-2.66-10.66-4.07c-0.07-3.13-0.52-6.47,1.25-9.25c-2.06-3.49-6.02-6.51-5.39-10.95
	c4.96,1.53,7.07,7.19,11.74,9.18c1.18-0.28,2.21-1,2.86-2.03c-0.61-1.26-1.52-2.35-2.36-3.47c-6.24-8.17-10.67-18.03-10.88-28.44
	c-0.38-10.69,3.36-21.17,9.39-29.9C73.17,54.79,68.67,55.02,67.62,58.62 M269.3,76.91c0.729,3.5,1.13,7.13,2.41,10.49
	c1.74,2.6,3.86,4.99,4.97,7.96c5.6,13.84,8.75,28.7,9.1,43.64c1.061,11.38,0.541,22.83,0.891,34.24
	c3.03-10.12,4.221-20.72,4.67-31.25c0.45-12.54-3.79-24.57-8.18-36.12C279.15,95.94,274.85,86.08,269.3,76.91 M271.8,96.72
	c-0.47,7.69,0.54,16.47-4.829,22.79c-2.24,0.97-3.531-1.29-5.041-2.48c-3.05-2.99-8.289-4.72-12.07-2.09
	c-4.069,3.4-6.869,8.05-9.17,12.76c4.17-0.56,8.32-1.52,12.561-1.24c-1.811,2.45-4.55,4.02-7.63,4.06
	c-4.899,0.16-10.61,0.93-14.591-2.6c-3.52-3.22-6.829-7.05-11.549-8.51c-4.17-1.66-8.73-0.81-12.84,0.54
	c2.279,4.59,5.909,8.52,10.289,11.18c2.82,1.53,7.36,2.02,7.59,6.05c-0.1,7.09,0.201,14.73,4.681,20.63
	c4.34,5.5,6.42,12.34,7.67,19.129c2.54,16.57-0.3,34.23-9.591,48.36c-4.979,7.41-8.649,16.729-5.799,25.66
	c8.22-2.28,16.149-6.03,22.899-11.28c0.04-9.82,0.74-19.65,0.091-29.459c-0.961-6.611-2.631-13.341-1.111-20.011
	c0.32-4.28,2.961-8.319,2.021-12.67c-1.86-6.46-5.771-12.06-8.63-18.08c-2.26-8.6-0.561-18.36-5.38-26.23
	c4.87,0.2,9.75,0.06,14.62,0.18c2.869,0.01,5.89,0.44,8.59-0.83c1.52-0.4,3.12-1.63,4.71-0.79c3.71,1.7,7.19,3.97,10.2,6.73
	c2.68,2.33,3.27,5.99,4.83,9.01c1.35,2.86,3.6,5.16,5.18,7.88c0.49,2.35,0.061,4.77-0.15,7.14c-3.17-5.21-3.99-11.47-7.109-16.7
	c-1.78-2.94-4.44-5.21-7.27-7.12c1.529,3.53,4.039,6.72,4.52,10.63c0.65,4.81,1.35,9.63,2.84,14.26c2.25,6.8,1.51,14.46-1.91,20.739
	c-2.88,5.301-5.57,10.701-7.699,16.341c-1.841,4.56-0.781,9.55-1.361,14.31c-0.469,3.43-1.02,6.87-1.029,10.35
	c5.09-5.069,9.02-11.1,12.97-17.06c6.091-9.62,10.38-20.75,10.31-32.271c0.091-12.719,0.511-25.5-1.029-38.149
	C281.279,123.78,279.25,109.05,271.8,96.72 M85.19,113.1c0.68,1.47,1.34,2.94,1.97,4.44c-2.08,0.15-4.18,0.03-6.23,0.43
	c-1.12,1.38-1.89,2.99-2.76,4.52c-1.88,0.01-3.75-0.03-5.61,0.21c-0.13,1.49-0.69,3.72,1.18,4.34c3.05,1.55,6.75,1.89,9.1,4.63
	c-1.78,4.82-4.81,9.56-4.25,14.9c0.49,4.12,1.05,8.26,0.85,12.43c-0.65,11.34-1.55,22.65-2.2,33.99c-0.27,2.619-0.93,5.26-0.49,7.9
	c1.21,1.479,2.63,2.76,4.01,4.069C83,194.09,84.49,183.05,85.3,172c-1.21-8.16,1.08-16.32,3.88-23.92c1.24-3.55,3.49-6.7,4.45-10.34
	c0.12-3-0.48-6.01,0-9.01c1.74,2.11,2.93,4.72,5.1,6.46c3.42,1.47,6.7-0.67,9.61-2.27c-0.89,3.75-1.25,7.65-0.53,11.47
	c1.16,5.83,1.89,11.99,5.33,17.02c2-8.63-2.35-17.41,0.39-25.98c0.72,1.02,1.47,2.03,2.25,3.01c1.37,0.64,2.97,0.06,4.39-0.11
	c0.69-1.44,1.12-2.99,1.62-4.51c4.3,0.89,5.12,5.81,6.32,9.34c2.55,7.27,1.07,15.22-1.77,22.17c-4.61,10.48-8.94,21.109-12.17,32.1
	c-3.31,9.16-4.78,19.131-2.96,28.771c0.78,4.069,1.31,8.43,3.64,11.96c2.59,2.369,6.22,3.01,9.52,3.8
	c0.69-5.36-2.79-9.851-3.76-14.899c-0.83-9.44,0.62-19.49,6.01-27.471c3.6-5.561,5.53-12.08,6.12-18.64
	c1.01-9.52,5.73-18.3,5.85-27.96c0.75-7.46-3.04-14.89-0.3-22.23c0.85-1.41,1.72-2.8,2.6-4.19c1.51-0.09,3.06,0.04,4.54-0.32
	c2.52-2.11,4.45-4.81,6.43-7.4c-4.72,3.74-9.66,7.46-15.64,8.88C118.11,131.14,99.5,124,85.19,113.1 M197.12,114.78
	c0.68,4.55,3.25,8.56,6.97,11.24C202.061,122.1,199.8,118.28,197.12,114.78 M174.17,128.45c0.15,0.45,0.439,1.36,0.58,1.81
	c0.471,0.12,1.41,0.36,1.88,0.48c0.06-0.62,0.181-1.85,0.24-2.46C176.189,128.32,174.85,128.4,174.17,128.45 M180.07,128.14
	c0.14,0.6,0.439,1.79,0.58,2.38c0.479,0.06,1.43,0.17,1.91,0.23c0.039-0.6,0.129-1.81,0.17-2.42
	C182.07,128.29,180.73,128.19,180.07,128.14 M184.08,128.58c0.47,1.56,0.99,3.11,1.51,4.66c1.891-0.78,2.051-2.78,2.36-4.54
	C186.66,128.65,185.37,128.61,184.08,128.58 M187.65,137.67c-1.24,1.72,2.06,1.67,3,2.48c2.31,0.9,4.56,1.95,6.83,2.96
	c-0.09,0.68-0.28,2.04-0.381,2.72c-3.899-0.07-7.51-1.66-11.26-2.49c1.87,4.2,6.82,3.6,10.27,5.56c0.74,1.11,1.221,2.44,0.111,3.5
	c-3.57,0.62-7.091-0.36-9.621-2.99c-5.33-5.01-13.09-7.7-20.32-6.2c-3.38,0.63-5.15,3.8-6.26,6.74c-0.86,0.08-2.59,0.23-3.45,0.3
	c-0.08-5.44,4.39-9.32,9.25-10.78c3.46-0.19,6.95-0.17,10.39-0.76c-6.24-1.74-12.6-4.59-19.18-3.88
	c-4.94,3.35-10.75,4.65-16.47,6.07c0.01,0.89,0.03,2.66,0.04,3.55c1.58,7.55,0.46,15.61-2.91,22.54c-0.86,1.79-1.43,3.69-1.89,5.619
	c5.96,0.24,12.01,0.781,17.53,3.221c2.65-5.62,5.04-11.35,7.57-17.02c0.72-1.84,2.35-3.43,4.41-3.47c2.92-0.3,6.49-0.73,8.67,1.7
	c2.68,2.51,3.33,6.36,2.64,9.84c-2.25,11.57-6.3,22.71-11.09,33.45c-0.95,17.35-0.77,34.79-1.12,52.18
	c1.81,0.24,3.61,0.59,5.43,0.66c2.28,0.301,4.57,0.439,6.86,0.58c0.909-8.67,0.44-17.42,1.35-26.09
	c1.021-14.32,1.181-28.689,2.979-42.939c1.641-7.48,3.361-15.071,6.681-22c2.92-5.74,11.37-7.03,15.67-2.18
	c2.42,6.09,0.41,12.649-1.351,18.62c2.25,0.52,4.48,1.119,6.73,1.689c-1.05,3.69-2.81,7.11-4.199,10.67
	c-2.641,3.601-5.931,6.92-8,10.82c0.029,9.28,0.689,18.54,0.989,27.82c-0.021,8.09,0.78,16.16,0.91,24.25
	c6.62-1.189,13.29-2.09,19.92-3.221c-1.989-9.109,1.53-18.219,6.16-25.939c4.08-7.54,6.69-15.75,9.01-23.96
	c1.88-6.31,1.28-13.021-0.05-19.37c-1.109-5.85,0.12-12.21-2.79-17.63c-1.38-2.83-4.41-4.34-5.96-7.05
	c-1.439-3.9,0.49-8.16-0.68-12.12c-0.7-2.91-2.5-5.47-4.69-7.47c-1.72-1.55-4.26-1.06-6.33-1.74c-4.14-0.68-7.771-2.93-10.979-5.54
	c-1.021-0.78-2.051-1.55-3.07-2.32C196.471,132.55,192.391,135.77,187.65,137.67 M189.45,129.07c-1.14,1.42,1.239,3.32,2.2,1.61
	C192.891,129.25,190.42,127.43,189.45,129.07 M169.49,130.22c-0.01,0.39-0.02,1.17-0.02,1.56
	C172.21,134.09,172.22,127.53,169.49,130.22 M237.141,136.48c0.289,1.09,0.58,2.17,0.889,3.25c0.431,4.1,0.341,8.23-0.109,12.32
	c0.95,7.66,4.68,14.68,9.01,20.96c2.771,3.82,2.25,8.99,0.24,13.02c-2.46,5.211-1.98,11.121-1.16,16.65
	c1.36,11.721,1.381,23.521,1.44,35.311c0.21-0.26,0.649-0.79,0.87-1.061l0.039-0.689c4.931-6.57,10.051-13.721,10.771-22.17
	c0.601-4.1-0.69-8.37,0.61-12.37c3.49-8.37,7.64-16.479,10.82-24.97c0.539-6.55-1.44-13-1.951-19.51
	c-0.379-8.78-6.659-15.82-12.76-21.51C249.63,134.93,243.37,136.2,237.141,136.48 M96.61,140.34c-1.49,4.03-3.53,7.82-5.69,11.52
	c-5.45,8.85-2.15,19.64-3.99,29.361c-0.48,8.899-3.53,17.609-2.5,26.569c3.41,7.91,9.41,14.33,15.48,20.31
	c3.46,2.92,7.29,5.36,11.02,7.91c-1.05-6.65-3.65-13.15-2.49-20.01c2.59-15.279,6.93-30.29,13.09-44.53
	c2.37-5.22,4-10.76,4.76-16.44c0.39-5.04,1.24-10.84-2.67-14.8c-2.84-0.04-5.62,0.6-8.33,1.38c0.17,6.13,1.53,12.17,1.46,18.31
	c0.01,2.88-2.51,6.11-5.49,4.14c-3.94-1.75-2.55-6.26-2.85-9.63c-0.91-2.52-2.25-4.87-3.55-7.2c-0.23-3.18-0.36-6.36-0.34-9.54
	C101.82,138.11,97.87,137.2,96.61,140.34 M134.78,180.529c-0.08,1.451-0.03,2.9,0.16,4.341c-0.79,8.05-6.23,14.59-8.99,22.01
	c-2.12,6.091-4.82,12.81-2.39,19.22c1.73,5.41,1.94,11.36,3.87,16.61c6.58,3.431,14.01,4.819,21.01,7.181
	c0.39-5.291,1.08-10.561,1.13-15.871c0.14-8.209,1.2-16.41,0.75-24.629C152.68,197.58,144.9,185.98,134.78,180.529z"/>
<path fill="#080808" d="M195.57,27.7c3.869,0.72,7.67,1.77,11.49,2.74c5.569,1.6,12.68,0.65,16.51,5.89
	c-7.61-1.54-14.91-4.69-22.771-4.79C198.65,30.89,196.971,29.41,195.57,27.7z"/>
<path fill="#080808" d="M208.279,27.01c1.33,0.32,2.66,0.65,3.98,1c-1.22,0.73-2.449,1.44-3.71,2.11
	C208.48,29.34,208.35,27.79,208.279,27.01z"/>
<path fill="#080808" d="M108.26,35.49c3.62-1.72,5.77-5.53,9.68-6.74c-0.18,1.33-0.4,2.65-0.66,3.97c1.26-0.01,2.52-0.01,3.78,0.01
	c0.07,3.99-3.94,2.66-6.1,1.41c-3.91,2.65-8.3,4.6-13.01,5.21c-1.8,0.47-3.53-0.06-4.91-1.27
	C100.86,37.67,104.92,37.67,108.26,35.49z"/>
<path fill="#080808" d="M143.2,41.39c1.16,0.08,2.33,0.16,3.5,0.25c1.24,1.41,2.48,2.82,3.64,4.3
	C147.6,45.06,145.04,43.64,143.2,41.39z"/>
<path fill="#080808" d="M139.87,44.55c0.79,0,2.36,0,3.15,0.01c12.37,7.06,20.77,19.88,24.13,33.56c0.88,2.43-0.63,4.76-2.6,6.07
	c-3.18-9.62-6.13-19.86-13.46-27.28c-2.84-3.26-7.09-4.77-10.1-7.8C140.27,47.7,140.24,46.06,139.87,44.55z"/>
<path fill="#080808" d="M215.37,49.51c6.21-0.9,12.76-0.3,18.319,2.8c11.871,6.26,21.301,17.49,23.98,30.78
	c0.71,7.54-2.59,15.4-8.3,20.32c-12.81,8.18-30.16,7.17-42.67-1.13c-7.271-5.39-10.979-14.47-11.931-23.26
	c-0.479-6.51,1.57-12.99,4.601-18.69C202.641,54.44,208.99,50.98,215.37,49.51 M214.5,53.66c-13.65,5.43-20.01,23.76-12.84,36.54
	c4.939,7.81,13.279,13.54,22.52,14.69c7.49,0.99,15.811,0.1,21.84-4.86c5.32-4.22,8.28-11.18,8.051-17.87
	c-2.61-8.48-8.66-15.32-14.11-22.13C233.23,54.11,223.27,50.56,214.5,53.66z"/>
<path fill="#080808" d="M116.44,53.64c8.16-2.69,17.85,1.47,22.12,8.85c4.31,8.02,9.93,15.99,10.06,25.46
	c0.64,8.02-1.89,16.38-7.38,22.34c-2.44,2.77-6.34,3.04-9.71,3.8c-11.42,1.79-23.65,0.03-33.6-5.98
	C90.62,102,86.7,92.76,84.17,83.79c-1.07-3.08-0.63-6.62,1.38-9.21C93.4,64.67,104.32,57.26,116.44,53.64 M114.41,57.71
	c-4.14,0.91-7.52,3.57-11.15,5.59c-5.37,3.03-10.33,7.02-13.75,12.21c-1.72,2.48-1.38,5.69-1.34,8.55
	c0.19,6.16,3.99,11.41,7.88,15.89c6.96,7.83,17.62,11.83,28,11.38c7.64-0.05,15.73-4,19.04-11.16c2.87-6.22,1.53-13.33-0.57-19.57
	c-2.13-6.14-3.52-13.03-8.43-17.69C129.08,57.74,121.25,56.56,114.41,57.71z"/>
<path fill="#080808" d="M215.49,63.68c5.449-1.99,12.039-1.35,16.789,2.04c4.861,5.73,6.91,14.42,3.921,21.45
	c-6.479,4.65-15.24,4.85-22.57,2.2c-5.42-2-9.05-7.69-9.069-13.4C205.439,70.22,210.24,65.71,215.49,63.68 M215.3,67.34
	c-2.771,0.69-0.11,4.72,1.99,2.92C217.87,68.47,217.561,66.8,215.3,67.34 M221.439,69.49c-6.02,2.74-5.52,13.07,0.84,15.13
	c1.66,0.27,3.421,0.22,5.031-0.32c4.779-2.72,5.34-10.23,1.279-13.81C226.79,68.57,223.77,69.13,221.439,69.49 M210.07,80.52
	c1.27,0.01,2.539,0.01,3.81,0c1.399-2.73,1.82-8.61-2.75-7.83C208.08,74.07,209.17,78.05,210.07,80.52z"/>
<path fill="#080808" d="M107.3,72.23c5.77-0.91,12,1.16,15.41,6.05c3.47,4.14,3.64,9.97,2.51,15.01c-1.5,3.97-5.14,7.03-9.23,8.05
	c-8.59,1.21-18.65-4.18-19.65-13.42C94.66,80.86,100.02,72.89,107.3,72.23 M104.51,74.43c-0.21,1.08-0.39,2.17-0.52,3.27
	c1.32,0.02,2.64,0.01,3.96-0.01c-0.13-1.08-0.3-2.15-0.5-3.21C106.47,74.36,105.49,74.34,104.51,74.43 M99.61,80.48
	c-0.86,2.69-0.68,5.48,0.01,8.18c1.25,0.02,2.5,0.03,3.75,0.01c0.57-2.78,0.65-5.66-0.23-8.38
	C101.96,80.35,100.78,80.41,99.61,80.48 M111.43,80.46c-2.73,1.04-5.12,3.58-5.63,6.53c0.28,2.82,1.19,6.46,4.39,7.18
	c3.13,0.59,6.62-0.83,8.21-3.64c1.09-2.3,1.2-4.98,0.68-7.43C118.42,79.69,114.04,80.08,111.43,80.46z"/>
<path fill="#080808" d="M166.16,92.1c0.26-0.31,0.78-0.94,1.04-1.26c2.43,6.31,1.2,13.21-1.8,19.08c-0.28-0.59-0.86-1.76-1.14-2.34
	C164.38,102.37,165.73,97.28,166.16,92.1z"/>
<path fill="#0ACAF6" d="M271.8,96.72c7.45,12.33,9.479,27.06,10.78,41.16c1.54,12.65,1.12,25.43,1.029,38.149
	c0.07,11.521-4.219,22.65-10.31,32.271c-3.95,5.96-7.88,11.99-12.97,17.06c0.01-3.479,0.561-6.92,1.029-10.35
	c0.58-4.76-0.479-9.75,1.361-14.31c2.129-5.64,4.819-11.04,7.699-16.341c3.42-6.279,4.16-13.939,1.91-20.739
	c-1.49-4.63-2.189-9.45-2.84-14.26c-0.48-3.91-2.99-7.1-4.52-10.63c2.829,1.91,5.489,4.18,7.27,7.12
	c3.119,5.23,3.939,11.49,7.109,16.7c0.211-2.37,0.641-4.79,0.15-7.14c-1.58-2.72-3.83-5.02-5.18-7.88
	c-1.561-3.02-2.15-6.68-4.83-9.01c-3.01-2.76-6.49-5.03-10.2-6.73c-1.59-0.84-3.19,0.39-4.71,0.79c-2.7,1.27-5.721,0.84-8.59,0.83
	c-4.87-0.12-9.75,0.02-14.62-0.18c4.819,7.87,3.12,17.63,5.38,26.23c2.859,6.02,6.77,11.62,8.63,18.08
	c0.94,4.351-1.7,8.39-2.021,12.67c-1.52,6.67,0.15,13.399,1.111,20.011c0.649,9.809-0.051,19.639-0.091,29.459
	c-6.75,5.25-14.68,9-22.899,11.28c-2.851-8.931,0.819-18.25,5.799-25.66c9.291-14.13,12.131-31.79,9.591-48.36
	c-1.25-6.79-3.33-13.629-7.67-19.129c-4.479-5.9-4.78-13.54-4.681-20.63c-0.229-4.03-4.77-4.52-7.59-6.05
	c-4.38-2.66-8.01-6.59-10.289-11.18c4.109-1.35,8.67-2.2,12.84-0.54c4.72,1.46,8.029,5.29,11.549,8.51
	c3.98,3.53,9.691,2.76,14.591,2.6c3.08-0.04,5.819-1.61,7.63-4.06c-4.24-0.28-8.391,0.68-12.561,1.24
	c2.301-4.71,5.101-9.36,9.17-12.76c3.781-2.63,9.021-0.9,12.07,2.09c1.51,1.19,2.801,3.45,5.041,2.48
	C272.34,113.19,271.33,104.41,271.8,96.72 M269.95,128.87c1.93,3.63,4.19,7.1,5.25,11.12c3.489-5.65-1.771-10.94-4.46-15.6
	C270.391,125.82,269.02,127.4,269.95,128.87z"/>
<path fill="#0ACAF6" d="M85.19,113.1c14.31,10.9,32.92,18.04,51.03,14.63c0.69,1,1.38,2.01,2.07,3.03
	c-2.74,7.34,1.05,14.77,0.3,22.23c-0.12,9.66-4.84,18.44-5.85,27.96c-0.59,6.56-2.52,13.079-6.12,18.64
	c-5.39,7.98-6.84,18.03-6.01,27.471c0.97,5.049,4.45,9.539,3.76,14.899c-3.3-0.79-6.93-1.431-9.52-3.8
	c-2.33-3.53-2.86-7.891-3.64-11.96c-1.82-9.64-0.35-19.61,2.96-28.771c3.23-10.99,7.56-21.619,12.17-32.1
	c2.84-6.95,4.32-14.9,1.77-22.17c-1.2-3.53-2.02-8.45-6.32-9.34c-0.5,1.52-0.93,3.07-1.62,4.51c-1.42,0.17-3.02,0.75-4.39,0.11
	c-0.78-0.98-1.53-1.99-2.25-3.01c-2.74,8.57,1.61,17.35-0.39,25.98c-3.44-5.03-4.17-11.19-5.33-17.02
	c-0.72-3.82-0.36-7.72,0.53-11.47c-2.91,1.6-6.19,3.74-9.61,2.27c-2.17-1.74-3.36-4.35-5.1-6.46c-0.48,3,0.12,6.01,0,9.01
	c-0.96,3.64-3.21,6.79-4.45,10.34c-2.8,7.6-5.09,15.76-3.88,23.92c-0.81,11.05-2.3,22.09-4.54,32.96c-1.38-1.31-2.8-2.59-4.01-4.069
	c-0.44-2.641,0.22-5.281,0.49-7.9c0.65-11.34,1.55-22.65,2.2-33.99c0.2-4.17-0.36-8.31-0.85-12.43c-0.56-5.34,2.47-10.08,4.25-14.9
	c-2.35-2.74-6.05-3.08-9.1-4.63c-1.87-0.62-1.31-2.85-1.18-4.34c1.86-0.24,3.73-0.2,5.61-0.21c0.87-1.53,1.64-3.14,2.76-4.52
	c2.05-0.4,4.15-0.28,6.23-0.43C86.53,116.04,85.87,114.57,85.19,113.1z"/>
<path fill="#080808" d="M269.95,128.87c-0.931-1.47,0.44-3.05,0.79-4.48c2.689,4.66,7.949,9.95,4.46,15.6
	C274.141,135.97,271.88,132.5,269.95,128.87z"/>
<path fill="#080808" d="M76.43,134.97c-3.79,0.24-9.85-0.42-9.48-5.53C69.93,131.6,73.54,132.68,76.43,134.97z"/>
<path fill="#080808" d="M206.96,140.74c-2.229-0.6-5.33-2.56-4.64-5.27c5.439,2.57,11.27,4.15,17,5.95c0.07,1.01,0.17,2.02,0.3,3.03
	c-0.28-0.34-0.851-1.04-1.14-1.38c-1.4-0.49-2.82-0.93-4.24-1.33c0.41,1.74,0.83,3.48,1.24,5.23c-1.16-1.69-2.221-3.43-3.26-5.19
	C210.46,141.46,208.7,141.13,206.96,140.74z"/>
<path fill="#080808" d="M70.22,136.97c2.46-1.32,3.02,2.79,0.26,1.91C70.41,138.4,70.29,137.45,70.22,136.97z"/>
<path fill="#080808" d="M240.641,139.71c5.02,0.57,10.01,0.83,15.029-0.06C251.82,144.26,244.689,143.73,240.641,139.71z"/>
<path fill="#080808" d="M251.359,144.29c1.48,0.03,2.951,0.19,4.41,0.5c-1.49,0.8-3.029,1.48-4.6,2.11
	C251.221,146.25,251.32,144.94,251.359,144.29z"/>
<path fill="#080808" d="M121.42,260.52c1.53-0.149,3.07-0.279,4.61-0.399c0.13,0.51,0.39,1.54,0.52,2.05
	c0.06,0.25,0.18,0.74,0.24,0.98c-1.66,0.029-3.32,0.08-4.97,0.109C121.69,262.34,121.55,261.43,121.42,260.52z"/>
<path fill="#080808" d="M206.18,260.971c1.62-0.541,2.18,0,1.67,1.629C206.23,263.109,205.67,262.57,206.18,260.971z"/>
<path fill="#080808" d="M225.13,263.57c-0.58-1.381,0.7-3.791,2.341-2.801c0.85,1.291-0.75,2.451-1.74,3L225.13,263.57z"/>
</svg>
