<?xml version="1.0" encoding="utf-8"?>
<!-- Generator: Adobe Illustrator 16.0.0, SVG Export Plug-In . SVG Version: 6.00 Build 0)  -->
<!DOCTYPE svg PUBLIC "-//W3C//DTD SVG 1.1//EN" "http://www.w3.org/Graphics/SVG/1.1/DTD/svg11.dtd">
<svg version="1.1" id="Layer_1" xmlns="http://www.w3.org/2000/svg" xmlns:xlink="http://www.w3.org/1999/xlink" x="0px" y="0px"
	 width="171px" height="170px" viewBox="0 0 171 170" enable-background="new 0 0 171 170" xml:space="preserve">
<g id="_x23_000000ff">
	<path d="M0,0h0.53C0.4,0.16,0.13,0.47,0,0.63V0z"/>
	<path d="M50.25,4.65c4.44-0.12,8.89-0.54,13.33,0.04c4.82,1.09,8.98,3.87,13.37,5.99c1.92-0.09,2.99-2.03,4.43-3.08
		c5.601-0.28,11.36,0.33,16.591,2.41c6.52,4.29,13.399,8.01,19.68,12.66c2.279,1.75,4.399,4.14,7.52,4.12
		c1.1-2.31,2.92-4.12,5.04-5.51c0.84,4.66,1.681,9.35,1.41,14.11c3.979,4.68,8.92,8.4,12.89,13.09c1.67,1.74,3.79,2.95,5.65,4.47
		c2.859,2.17,5.41,4.76,8.58,6.5c2.5,1.39,5.35,2.96,8.31,2.18c0.88-0.59,1.75-1.2,2.601-1.84c-0.07,1.73-0.041,3.47-0.09,5.2
		c-1.471,2.49-3.09,4.9-4.431,7.48c-1.81,3.43-5.601,5.1-7.771,8.26c0.74,3.13,0.601,6.56,2.391,9.36
		c1.279,2.01,0.811,4.53,0.609,6.77c-1.069,3.67-0.879,7.511-1.209,11.271c-0.09,1.7-0.43,3.46,0.35,5.08
		c-0.55,1.181-1.62,2.09-1.91,3.41c-1.199,3.851-3.939,7.01-4.869,10.979c-1.261,0.041-2.521,0.051-3.781,0.021
		c-1.17,3.06-2.939,6.09-2.689,9.489c-0.09,2.761,0.98,5.66,3.34,7.25c1.87,0.811,3.92,1.041,5.93,1.271
		c0.07,0.511,0.201,1.54,0.26,2.05c-6.719-0.729-11.939,4.23-17.899,6.19c-0.63,2.229-1.34,4.51-2.83,6.33
		c-1.04,0.34-2.11,0.55-3.21,0.659c1.48-1.869,2.76-3.889,4-5.92c-1.619-1.39-3.24-2.779-4.85-4.189c-1.94,2.109-3.85,4.24-5.83,6.3
		c0.05,0.8,0.15,2.4,0.199,3.2c0.44,0.359,1.33,1.07,1.771,1.42c-1.659-0.16-3.319-0.449-4.909-1c0.239-1.51,0.209-3.38,2.25-3.29
		c0.02-2.69,1.93-4.64,3.59-6.521c1.25-1.33,1.51-3.209,2.219-4.83c1.781-4.52,3.66-9.119,6.801-12.889
		c0.779-1.08,1.811-2.011,2.35-3.25c0.051-1.861-0.56-3.65-0.85-5.471c-2.23-9.01-0.95-18.37-1.16-27.54
		c-0.71-2.351-2.75-4.06-3.6-6.37c-1.34-6.26-1.28-12.84-3.66-18.85c-0.73-0.95-1.551-1.84-2.33-2.74c-0.46-2.26-0.43-4.88-2.2-6.61
		c-0.71-1.17-2.33-0.71-3.43-1.08c0.53,2.67,2.12,4.92,3.35,7.29c1.65,2.89,2.89,5.98,4.24,9.01c-0.5,0.08-1.511,0.25-2.011,0.34
		c-0.09-0.49-0.26-1.46-0.35-1.95c-2.16-3.76-3.67-7.93-6.38-11.36l-1.5-0.72c-0.04,1.83-0.079,3.67-0.13,5.5
		c-3.87-0.46-8.141-0.26-11.6-2.27c-1.09-2.57-0.15-5.51-0.2-8.21c-3.011-0.44-5.16-3.75-8.2-3.4c-3.859,2.3-7.01,5.64-9.811,9.12
		c-1.899,3-3.35,6.7-3.02,10.28c2.09,4.16,4.78,8.07,8.15,11.291c2.76,2.779,6.55,4.14,10.23,5.199
		c5.35,0.541,10.779,0.601,16.129,0.11c5.48-1.67,7.4-7.79,8.76-12.73c1.121,2.49-0.25,5.07-0.51,7.59
		c-2.39,2.75-4.81,5.939-8.449,7.01c-7.34,0.47-15.09,0.859-21.891-2.49c-5.13-2.01-8.689-6.45-11.51-11
		c-1.16-2.05-3.33-4.01-2.83-6.59c0.76-3.29,2.03-6.42,3.23-9.56c1.16-2.54-0.461-5.2-0.74-7.74c2.42,0.05,2.43,2.79,3.71,4.2
		c2.05-2.28,5.58-3.72,6.101-7.01c-1.171-1.58-3.24-2.21-4.701-3.51c-2.27,0.04-4.609,0.24-6.439-1.28
		c-0.5,0.43-1.48,1.29-1.98,1.72c-0.23-0.5-0.7-1.5-0.94-2c-0.15,0.42-0.44,1.26-0.59,1.68c-1.75-1.7-4.43-0.79-6.5-1.81
		c-5.06-1.98-10.1-4.04-15.28-5.68c-2.29-0.72-4.74-0.71-6.97-1.59c-1.98-0.41-2.91-2.97-4.91-3.12c-3.41,2.7-6.28,5.99-9.28,9.12
		c-3.07,3.56-6.36,7.14-7.94,11.66c-1.33,3.56-3.44,6.76-4.87,10.28c-1.59,3.1-2.61,6.6-5.14,9.12c0.3,5.2-0.96,10.299-1.32,15.47
		c-1.45,6.5,1.32,12.87,1.7,19.319c1.38,2.08,0.78,4.681,1.11,7.021c1.3,1.67,1.95,3.7,2.73,5.64c1.66,4.11,5.18,7.09,6.83,11.2
		c1.03,2.49,2.12,5.021,4.08,6.94c2.13,2.52,5.4,3.479,8.07,5.26c-0.02,0.74-0.08,2.22-0.1,2.96c-0.7,0.11-2.1,0.351-2.81,0.46
		c-0.44-1.221-0.88-2.439-1.32-3.66c-0.41,0.051-1.22,0.15-1.63,0.2c0.07,1.81,0.07,3.62,0.21,5.431
		c0.62,0.199,1.86,0.609,2.49,0.809c-0.09-0.639-0.26-1.909-0.35-2.549c0.73,0.06,2.18,0.16,2.91,0.209
		c-0.39,0.291-1.16,0.891-1.55,1.19c-1.2,3.57-3.17,6.8-5.9,9.41c0-1.59,0.39-3.13,0.85-4.64c1.19-3.961-1.4-7.76-0.86-11.75
		c-4.56,0.35-8.83-1.4-13.26-2.08c-3.09-0.35-5.7-2.17-8.27-3.75c-2.23-1.51-4.84-2.801-6.09-5.33c-0.56-0.04-1.7-0.11-2.27-0.15
		c-0.83-2.8-1.61-5.64-3.02-8.21c-0.6-5.38-0.23-10.81-0.08-16.2c0.19-2.82,3.17-5.22,1.9-8.119c-0.52-0.121-1.55-0.36-2.07-0.48
		c0.21-1.391,0.39-2.78,0.59-4.17c3.17-2.811,5.76-6.29,7.41-10.189c0.91-5.25,1.03-10.601,0.81-15.921
		c-0.28-2.64-1.8-4.9-2.54-7.41c-0.44-2.48-0.52-5.04-0.25-7.54c1.14-2.37,2.04-4.84,3.27-7.15c1.99-3.16,4.53-5.93,6.4-9.17
		c1.34-2.17,2.5-4.51,4.34-6.31c1.83-1.97,4.11-3.82,4.6-6.63c-1.24-0.22-2.47-0.45-3.7-0.67c1.76-2.25,3.67-4.43,6.03-6.08
		c2.31-1.64,4.1-3.97,6.67-5.25c3.69-1.82,7.01-4.31,10.76-6.02c1.74-0.92,4.44-1.57,3.86-4.13C51.31,5.43,50.6,4.91,50.25,4.65
		 M50.4,10.1c-7.68,4.34-14.6,9.82-21.31,15.5c0.87,0.7,1.73,1.4,2.6,2.11c-4.58,5.57-9.99,10.54-13.48,16.93
		c-2.61,3.92-5.18,7.96-6.32,12.6c-1.15,2.91,0.23,5.88,0.54,8.8c0.28,6.37,2.58,13.05-0.04,19.22c-1.23,2.811-0.3,6.04-1.59,8.83
		c-1.31,2.83-1.08,5.96-1.18,8.98c-0.09-2.32-0.12-4.65-0.33-6.971c-1.09,3.32-0.96,6.9-2,10.23c-1.13,3.18-3.32,6.12-2.96,9.67
		c-0.31,5.35,2.02,10.27,3.72,15.2c1.46-0.31,2.93-0.62,4.4-0.931c-0.17,2.561-0.05,5.311,1.92,7.221
		c4.88,5.279,12.74,4.84,18.77,8.07c0.46-0.301,1.37-0.91,1.83-1.211c-1.87-3.08-3.57-6.26-4.98-9.58
		c-0.98,0.16-1.95,0.33-2.93,0.51c-0.11-0.209-0.33-0.639-0.45-0.85c0.43-0.359,1.3-1.09,1.73-1.449
		c-2.08-3.33-4.23-6.66-5.55-10.391c-2.1-5.29-2.1-11.061-3.19-16.59c-1.3-6.6-1.21-13.4-0.24-20.04
		c0.65-5.66,1.35-11.51,4.15-16.57c1.51-2.64,2.71-5.44,3.87-8.24c5.11-11.01,13.5-20.13,22.87-27.67
		c7.92-4.72,16.15-10.16,25.72-10.22c7.37-1.4,15.29-1.5,22.25,1.65c5.659,1.94,10.279,5.81,14.739,9.65
		c1.8,0.05,3.601,0.08,5.399,0.12c1.24-1.95,2.461-3.91,3.66-5.88c-6.41-5.81-13.92-10.16-21.129-14.86
		C95.48,10.59,89.27,7.91,82.78,8.21c-0.71,0.81-1.43,1.61-2.15,2.42c-0.19,1.21-0.38,2.43-0.58,3.65
		c-4.31-1.05-7.36-4.46-11.26-6.32c-2.35-0.63-4.84-1.04-6.72-2.72C57.72,5.53,53.9,7.67,50.4,10.1 M68.8,26.58
		c-6.65,1.6-12.05,6.05-17.84,9.45c1.39,2.29,3.87,3.73,6.48,4.17c8.09,0.27,15.34,4.35,22.83,6.95c3.98,1.13,8.15,0.11,12.169,0.92
		c4.201,0.88,8.5,0.59,12.761,0.65c0.03,0.86,0.079,1.71,0.12,2.57c-2.051-0.54-4.221-0.99-6.041,0.37
		c4.781,2.74,9.351,6.08,14.74,7.55c3.541,0.64,7.16,0.25,10.73,0.27c-0.55-5.72-4.54-10.27-7.779-14.74
		c-1.73,2.15-2.781,4.71-3.711,7.28c-1.08-0.52-2.33-0.92-2.59-2.26c-1.93-5.1-6.13-8.71-9.91-12.43c-0.05-0.49-0.16-1.46-0.21-1.95
		c4.021,1.16,7.91,2.81,12.091,3.33c-0.781-1.29-1.48-2.68-2.66-3.67c-4.59-4.01-9.73-7.62-15.681-9.27
		c-4.569-1.73-9.54-1.52-14.35-1.43C76.12,24.36,72.46,25.62,68.8,26.58 M132.3,45.51c-3.771-1.4-7.649-2.46-11.51-3.57
		c-0.601,0.67-1.21,1.34-1.819,2c3.719,3.86,6.059,8.72,8.01,13.65c1.189,0.1,2.379,0.21,3.58,0.32
		c-0.061,1.73-0.311,3.45-0.771,5.12c0.41,0.41,1.22,1.23,1.62,1.64c0.029,1.76-0.04,3.53,0.189,5.28
		c0.521,2.35,1.811,4.54,1.76,6.99c0.011,3.66,0.861,7.24,1.67,10.781c0.761,2.979,2.921,5.299,4.871,7.579
		c2.5,0.44,4.99,1.13,7,2.74c-2.36,2.101-5.621-0.33-8.391,0.29c-0.369,10.939,0.26,22.01,2.69,32.68
		c-3.95,3.98-6.32,9.09-9.04,13.891c0.21,2.97,2.09,5.399,3.699,7.77c4.881-0.779,8.771-4.1,12.98-6.449
		c-1.47-1.541-3.08-3-4.14-4.861c-0.66-2.659-0.25-5.459,0.021-8.149c1.129-4.91,4.439-9.229,4.1-14.479
		c0.9-0.061,1.8-0.131,2.709-0.201c-0.059,1.871-0.209,3.721-0.399,5.58c2.95-2.229,3.649-6.109,6.181-8.719
		c2.1-3.851,1.02-8.451,1.529-12.641c0.73-4.471,1.18-9.38-1-13.52c-0.66-2.03-0.1-4.221-0.17-6.311
		c-1.359-1.48-2.71-2.97-4.07-4.45c-0.07-0.53-0.209-1.6-0.289-2.13c1.689,0.5,3.649,2.03,5.319,0.67c3.54-3,5.46-7.36,7.71-11.32
		c-3.89-1.52-7.63-3.51-10.8-6.27c-4.03-3.64-8.479-6.78-12.36-10.6c-3.16-2.62-5.75-5.92-9.33-8.02
		C133.35,42.38,132.83,43.94,132.3,45.51z"/>
	<path d="M48.4,70.99c0.08-3.13-0.26-6.89,2.82-8.76c-0.95,1.91-0.75,4.06-0.9,6.13c4.03,2.88,9.11,4.27,12.5,8
		c0.3,1.62-1.68,1.79-2.63,2.55c0.8,1.18,1.58,2.38,2.38,3.56c-0.43-0.06-1.3-0.18-1.74-0.23c-1.25-2.26-2.16-4.85-4.22-6.53
		C54.16,73.7,51.4,72.03,48.4,70.99z"/>
	<path d="M32.42,70.34c0.06-1.54,0.18-3.09,0.34-4.62c0.69,1.53,1.26,3.14,2.24,4.53c4.3,1.43,8.5-1.6,12.9-0.84
		c-0.01,0.28-0.02,0.84-0.03,1.11c-7.11-0.78-13.05,4.11-17.85,8.74c2.07,0.97,4.17,1.92,6.41,2.44c1.36,1.74,2.21,3.75,2.18,5.979
		c-2.28,2.26-5.24,3.74-8.48,3.94c0.17,3.58,0.13,7.19,0.73,10.72c3.37,5.03,9.71,6.83,15.49,6.2
		c7.56-5.601,14.17-12.72,17.99-21.39c0.63-2.78,0.31-5.65,0.33-8.47c0.45,0,1.35,0,1.8,0c0.06,2.21,0.29,4.45-0.09,6.64
		c-1.6,5.22-4.75,9.76-8.31,13.831c-3.34,3.979-6.65,8.84-12.09,9.939c-4.9,0.62-10.76,0.26-14.09-3.91
		c-2.72-2.24-2.89-5.97-3.43-9.18c-0.29-2.609-1.79-4.93-2.08-7.52c0.24-2.53,1.42-4.891,1.42-7.46c-1.86-0.36-3.41-1.37-4.49-2.92
		c1.75,0.11,3.49,0.59,5.25,0.47c2.07-1.82,4.04-3.74,6.15-5.52C33.95,72.14,33.19,71.24,32.42,70.34z"/>
	<path d="M104.7,121.79c0.39,0.04,1.159,0.11,1.55,0.14c0.54,4.971,0.37,9.99,0.21,14.98c-0.11,4.17-3.271,7.699-6.97,9.29
		c-5.6,1.46-11.6,1.649-17.23,0.25c-6.07-1.81-10.25-7.11-12.37-12.87c0.34,0.02,1.02,0.05,1.36,0.07
		c0.17-0.28,0.51-0.84,0.69-1.121c1.48,5.25,6.01,9.051,10.99,10.881c5.03,0.64,10.21,0.73,15.24,0.09
		c2.88-1.561,5.48-4.1,6.07-7.45C104.6,131.3,104.16,126.529,104.7,121.79z"/>
</g>
<g id="_x23_d19815ff">
	<path fill="#D19815" d="M50.4,10.1c3.5-2.43,7.32-4.57,11.67-4.86c1.88,1.68,4.37,2.09,6.72,2.72c3.9,1.86,6.95,5.27,11.26,6.32
		c0.2-1.22,0.39-2.44,0.58-3.65c0.72-0.81,1.44-1.61,2.15-2.42c6.49-0.3,12.701,2.38,18.111,5.73
		c7.209,4.7,14.719,9.05,21.129,14.86c-1.199,1.97-2.42,3.93-3.66,5.88c-1.799-0.04-3.6-0.07-5.399-0.12
		c-4.46-3.84-9.08-7.71-14.739-9.65c-6.961-3.15-14.881-3.05-22.25-1.65c-9.57,0.06-17.8,5.5-25.72,10.22
		c-9.37,7.54-17.76,16.66-22.87,27.67c-1.16,2.8-2.36,5.6-3.87,8.24c-2.8,5.06-3.5,10.91-4.15,16.57C18.39,92.6,18.3,99.4,19.6,106
		c1.09,5.529,1.09,11.3,3.19,16.59c1.32,3.73,3.47,7.061,5.55,10.391c-0.43,0.359-1.3,1.09-1.73,1.449
		c0.12,0.211,0.34,0.641,0.45,0.85c0.98-0.18,1.95-0.35,2.93-0.51c1.41,3.32,3.11,6.5,4.98,9.58c-0.46,0.301-1.37,0.91-1.83,1.211
		c-6.03-3.23-13.89-2.791-18.77-8.07c-1.97-1.91-2.09-4.66-1.92-7.221c-1.47,0.311-2.94,0.621-4.4,0.931
		c-1.7-4.931-4.03-9.851-3.72-15.2c-0.36-3.55,1.83-6.49,2.96-9.67c1.04-3.33,0.91-6.91,2-10.23c0.21,2.32,0.24,4.65,0.33,6.971
		c0.1-3.021-0.13-6.15,1.18-8.98c1.29-2.79,0.36-6.02,1.59-8.83c2.62-6.17,0.32-12.85,0.04-19.22c-0.31-2.92-1.69-5.89-0.54-8.8
		c1.14-4.64,3.71-8.68,6.32-12.6c3.49-6.39,8.9-11.36,13.48-16.93c-0.87-0.71-1.73-1.41-2.6-2.11C35.8,19.92,42.72,14.44,50.4,10.1z
		"/>
	<path fill="#D19815" d="M68.8,26.58c3.66-0.96,7.32-2.22,11.15-2.24c4.81-0.09,9.78-0.3,14.35,1.43
		c5.95,1.65,11.091,5.26,15.681,9.27c1.18,0.99,1.879,2.38,2.66,3.67c-4.181-0.52-8.07-2.17-12.091-3.33
		c0.05,0.49,0.16,1.46,0.21,1.95c3.78,3.72,7.98,7.33,9.91,12.43c0.26,1.34,1.51,1.74,2.59,2.26c0.93-2.57,1.98-5.13,3.711-7.28
		c3.239,4.47,7.229,9.02,7.779,14.74c-3.57-0.02-7.189,0.37-10.73-0.27c-5.39-1.47-9.959-4.81-14.74-7.55
		c1.82-1.36,3.99-0.91,6.041-0.37c-0.041-0.86-0.09-1.71-0.12-2.57c-4.261-0.06-8.56,0.23-12.761-0.65
		c-4.02-0.81-8.189,0.21-12.169-0.92c-7.49-2.6-14.74-6.68-22.83-6.95c-2.61-0.44-5.09-1.88-6.48-4.17
		C56.75,32.63,62.15,28.18,68.8,26.58z"/>
	<path fill="#D19815" d="M132.3,45.51c0.53-1.57,1.05-3.13,1.55-4.71c3.58,2.1,6.17,5.4,9.33,8.02c3.881,3.82,8.33,6.96,12.36,10.6
		c3.17,2.76,6.91,4.75,10.8,6.27c-2.25,3.96-4.17,8.32-7.71,11.32c-1.67,1.36-3.63-0.17-5.319-0.67c0.08,0.53,0.219,1.6,0.289,2.13
		c1.36,1.48,2.711,2.97,4.07,4.45c0.07,2.09-0.49,4.28,0.17,6.311c2.18,4.14,1.73,9.049,1,13.52c-0.51,4.189,0.57,8.79-1.529,12.641
		c-2.531,2.609-3.23,6.489-6.181,8.719c0.19-1.859,0.341-3.709,0.399-5.58c-0.909,0.07-1.809,0.141-2.709,0.201
		c0.34,5.25-2.971,9.569-4.1,14.479c-0.271,2.69-0.681,5.49-0.021,8.149c1.06,1.861,2.67,3.32,4.14,4.861
		c-4.21,2.35-8.1,5.67-12.98,6.449c-1.609-2.37-3.489-4.8-3.699-7.77c2.72-4.801,5.09-9.91,9.04-13.891
		c-2.431-10.67-3.06-21.74-2.69-32.68c2.77-0.62,6.03,1.811,8.391-0.29c-2.01-1.61-4.5-2.3-7-2.74c-1.95-2.28-4.11-4.6-4.871-7.579
		c-0.809-3.541-1.659-7.121-1.67-10.781c0.051-2.45-1.239-4.64-1.76-6.99c-0.229-1.75-0.16-3.52-0.189-5.28
		c-0.4-0.41-1.21-1.23-1.62-1.64c0.46-1.67,0.71-3.39,0.771-5.12c-1.201-0.11-2.391-0.22-3.58-0.32
		c-1.951-4.93-4.291-9.79-8.01-13.65c0.609-0.66,1.219-1.33,1.819-2C124.65,43.05,128.529,44.11,132.3,45.51z"/>
	<path fill="#D19815" d="M125.16,157.05c1.98-2.06,3.89-4.19,5.83-6.3c1.609,1.41,3.23,2.8,4.85,4.189
		c-1.24,2.031-2.52,4.051-4,5.92c-1.449,0.73-3.119,0.73-4.71,0.811c-0.44-0.35-1.33-1.061-1.771-1.42
		C125.311,159.45,125.21,157.85,125.16,157.05z"/>
</g>
</svg>
