<?xml version="1.0" encoding="utf-8"?>
<!-- Generator: Adobe Illustrator 16.0.0, SVG Export Plug-In . SVG Version: 6.00 Build 0)  -->
<!DOCTYPE svg PUBLIC "-//W3C//DTD SVG 1.1//EN" "http://www.w3.org/Graphics/SVG/1.1/DTD/svg11.dtd">
<svg version="1.1" id="Layer_1" xmlns="http://www.w3.org/2000/svg" xmlns:xlink="http://www.w3.org/1999/xlink" x="0px" y="0px"
	 width="1120px" height="977px" viewBox="0 0 1120 977" enable-background="new 0 0 1120 977" xml:space="preserve">
<path fill="#030303" d="M659.247,20.278c24.423-6.305,50.048-8.229,75.087-4.848c37.777,4.933,72.833,22.168,103.71,43.912
	c38.786,27.006,71.886,61.009,108.504,90.695c-0.148-4.912-1.254-10.111-4.869-13.705c-6.806-7.167-17.768-8.548-24.072-16.321
	c-3.104-3.679-3.796-8.634-3.859-13.291c19.202,5.082,36.129,17.107,48.366,32.631c28.454,35.949,37.607,82.998,65.763,119.148
	c-0.904,33.578,9.708,66.028,20.84,97.288c17.075,46.315,36.885,91.737,49.92,139.455c7.156,25.784,12.461,52.132,15.023,78.788
	c2.009,22.594,2.956,45.273,2.967,67.951c0.637,72.748-6.497,145.251-13.036,217.627c-3.114,2.116-6.4,4.466-10.313,4.593
	c-4.009,0.244-7.612-1.818-10.76-4.051c4.486,8.899,6.698,18.755,7.857,28.602c1.658,15.97,0.713,32.344-3.732,47.824
	c-3.594,12.271-9.867,24.785-21.286,31.462c-0.488-10.973,0.605-22.041,3.902-32.546c4.848-15.971,12.345-31.589,12.301-48.623
	c-5.825,4.742-9.271,11.696-11.642,18.682c-5.358,15.513-6.198,32.45-13.737,47.22c-3.572,7.177-9.984,12.918-17.756,15.108
	c-0.426-21.223,13.386-38.969,16.161-59.531c-5.285,3.487-9.474,8.378-12.663,13.812c-7.709,12.887-11.068,27.964-19.649,40.382
	c-5.295-4.284-8.41-10.462-11.09-16.565c-11.089,2.595-9.771,17.555-19.426,21.861c-4.156,1.839-8.718,0.86-12.96-0.043
	c10.09-48.304,26.771-94.842,40.701-142.104c12.897-43.657,23.114-88.952,20.754-134.768c-0.201-7.112-1.286-14.161-1.723-21.243
	c2.956-3.265,7.656-5.784,12.09-4.041c4.912,1.734,9.739,3.967,15.045,4.157c-0.16-6.518-1.339-13.938-6.943-18.096
	c-7.453-5.466-17.277-4.423-25.9-3.37c1.233-6.773,3.859-13.217,7.464-19.065c2.839-4.965,6.751-10.079,6.104-16.129
	c-0.649-5.485-4.636-9.59-7.922-13.685c0.34-14.279,11.504-24.635,15.992-37.489c-4.296-48.229-12.366-96.192-24.062-143.199
	c-11.888-47.027-28.027-93.098-49.664-136.553c1.583-12.036-1.861-24.178-7.646-34.672c-7.741-14.067-19.299-26.061-33.206-34.12
	c-21.754-30.399-46.612-58.702-74.862-83.242c-47.146-41.371-102.849-72.45-161.88-93.311c-3.413-1.095-7.635-1.159-10.389,1.446
	c-3.265,2.797-4.689,7.624-8.984,9.187c-2.573,1.095-5.359,0.521-7.995,0.138c-0.245-5.167-1.883-10.261-4.998-14.417
	C667.307,28.582,662.916,24.744,659.247,20.278 M859.605,101.426c5.125,1.584,9.378,5.369,14.802,6.039
	c2.435,0.457,4.891-0.063,7.325-0.319c1.244-8.314-6.582-16.587-14.991-14.864C862.317,92.898,859.926,97.342,859.605,101.426
	 M1048.429,585.503c-4.434,3.029-5.348,8.931-4.656,13.907c5.932,0.945,9.876,7.431,16.426,5.815
	c-1.35-8.197,6.316-14.046,5.774-22.127C1060.093,582.918,1053.628,582.153,1048.429,585.503 M1087.1,674.879
	c3.88,18.554-1.138,37.182-4.424,55.406c-2.158,12.45-2.785,26.411,4.572,37.384c6.646-21.828,13.609-44.231,12.566-67.314
	C1099.315,690.668,1095.935,680.047,1087.1,674.879 M1038.316,788.807c-2.179,3.519-6.538,8.271-3.466,12.408
	c5.136,2.658,12.791-0.235,14.811-5.742C1047.822,790.911,1042.581,789.838,1038.316,788.807 M1022.262,842.915
	c0,3.722-0.01,7.442,0.011,11.164c3.615,0,7.252,0,10.888,0c-0.01-3.711-0.01-7.422,0.032-11.122
	C1029.534,842.895,1025.898,842.904,1022.262,842.915z"/>
<path fill="#030303" d="M562.693,100.756c27.751-14.758,57.022-26.422,86.442-37.374c-12.961,14.524-30.196,24.264-47.326,33.036
	c-19.169,9.707-39.074,18.128-57.117,29.919c-10.718,7.06-20.818,15.396-28.442,25.816c-1.01,1.084-1.627,2.966-3.413,2.871
	c-2.147-9.846,3.254-19.213,9.846-26.071C534.082,117.108,548.393,108.634,562.693,100.756z"/>
<path fill="#030303" d="M530.722,88.964c16.746-7.985,35.013-12.823,53.461-14.609c-5.614,6.932-13.854,11.015-22.063,14.035
	c-14.323,5.072-29.495,7.442-43.541,13.365C518.771,95.057,525.692,91.878,530.722,88.964z"/>
<path fill="#030303" d="M615.293,98.236c19.574-7.411,40.286-11.781,61.168-13.078c-33.407,22.807-71.206,37.809-106.739,56.82
	c-20.234,10.803-40.244,22.637-57.001,38.458c-11.78,11.153-21.456,24.837-26.336,40.425c-3.53-1.074-8.581-2.074-9.293-6.443
	c0.479-6.05,5.444-10.292,8.975-14.79c5.241-6.401,11.844-13.28,11.27-22.201c-6.624-1.329-13.578-0.691-19.776,2.01
	c-7.422,3.381-15.747,5.358-23.849,3.37c20.925-6.443,41.18-15.332,59.744-26.996c15.099-8.368,29.24-18.352,43.902-27.464
	C575.771,116.715,594.825,105.859,615.293,98.236z"/>
<path fill="#030303" d="M480.802,106.88c3.722,0,7.433,0,11.164,0c0,3.636,0,7.262,0,10.898c-3.731,0-7.442,0-11.164,0
	C480.802,114.142,480.802,110.516,480.802,106.88z"/>
<path fill="#030303" d="M430.626,148.262c2.404-7.655,6.582-14.832,12.643-20.159c2.498,8.017,2.382,16.513,2.052,24.816
	c-1.01,19.139-3.902,38.192-3.604,57.405c-0.203,18.341,2.413,37.49,12.217,53.364c12.705-2.126,25.433,0.861,38.075,2.105
	c16.172,1.946,32.663,1.446,48.611-2.01c0.096,7.4-0.287,14.811,0.245,22.201c6.911-3.69,1.775-15.067,10.101-17.108
	c-3.977-6.783-10.685-12.939-19.085-12.354c-11.6,0.957-23.413,6.582-34.992,2.116c6.029-12.503,14.322-23.892,24.285-33.556
	c25.784-24.721,60.01-38.564,94.449-46.198c46.57-9.995,95.161-9.666,141.858-0.649c22.265,4.562,44.381,10.856,64.858,20.861
	c-14.259,8.102-30.823,10.75-46.996,11.461c-25.932,1.351-51.992-2.381-77.818,1.096c-14.354,1.839-29.091,7.687-37.756,19.819
	c-5.115-6.433-13.779-8.134-21.542-8.432c-12.728-0.425-26.283,2.318-36.267,10.633c-5.753,4.753-8.358,12.419-7.284,19.755
	c-4.827,0.064-9.729-0.553-14.109-2.69c-7.442-3.253-13.461-9.197-21.222-11.749c-4.679-1.595-9.729,0.266-13.195,3.52
	c9.612,3.052,20.021,3.753,29.069,8.527c2.743,1.542,5.72,3.838,5.795,7.293c-0.224,1.797-1.043,3.445-1.713,5.104
	c17.268-7.188,35.917-10.43,54.503-11.568c17.735-1.276,35.513-0.181,53.259-0.915c21.604,0.16,43.231-0.925,64.698-3.424
	c2.105,7.497,4.338,15.045,8.102,21.914c3.902,7.762,10.898,13.78,19.245,16.289c-24.933,6.454-50.93,4.306-76.352,6.645
	c-3.232,0.415-6.476,0.883-9.602,1.818c-2.127,0.669-4.211,1.424-6.295,2.18c0.777,1.648,1.563,3.296,2.255,4.997
	c0.659,3.541,2.817,6.412,5.815,8.347c5.242,5.072,11.313,9.569,18.564,11.186c7.582,1.924,15.566,1.531,23.232,0.33
	c0.425-0.096,1.297-0.298,1.723-0.394c28.134-6.146,52.727-21.807,78.445-33.992c6.911-3.158,13.993-6.348,21.67-6.964
	c0.372,3.562,0.755,7.911-2.318,10.483c-5.051,4.009-12.397,2.924-17.405,6.997c-2.935,2.339-2.679,6.369-2.339,9.718
	c18.192,9.962,39.585,11.015,59.872,10.813c8.026,9.676,6.772,24.21,16.31,32.929c-3.626,3.402-8.634,6.071-13.705,4.412
	c-12.43-3.679-21.425-16.044-35.236-15.651c2.446,9.388,7.943,17.756,15.258,24.072c15.545,13.609,36.374,20.095,50.249,35.8
	c1.255-1.457,3.127-3.02,2.35-5.188c-2.116-8.783-8.176-15.949-14.12-22.478c8.167,0.787,15.545,5.104,21.191,10.909
	c10.972,11.154,18.574,24.976,26.697,38.203c7.986,12.972,15.79,26.433,27.178,36.777c2.466,2.074,1.967,6.125,0.213,8.506
	c-2.51,2.276-6.051,3.009-8.506,5.349c-0.819,1.106-2.139,3.03-0.617,4.168c6.805,7.092,16.002,11.738,21.689,19.946
	c5.806,7.996,6.625,18.639,4.52,28.049c-1.681,3.073-4.126,6.039-7.326,7.57c-4.837,0.543-9.824,0.744-14.141,3.286
	c5.221,14.619,5.625,30.355,5.783,45.708c-0.021,18.895-1.487,37.799-0.425,56.683c5.518-10.888,5.997-23.392,6.018-35.354
	c-0.096-20.712-2.987-41.436-0.903-62.126c9.707,17.417,13.652,37.384,15.768,57.023c2.563,28.42,0.968,57.361-6.05,85.08
	c-4.529,17.469-11.207,34.801-22.444,49.112c-7.677,9.846-18.246,17.713-30.506,20.68c-0.371-39.553,9.985-78.383,9.007-117.957
	c-0.415-15.13-3.116-30.271-8.889-44.306c-12.037,45.497-20.149,92.142-36.204,136.5c-8.91,24.285-20.521,48.07-37.873,67.495
	c-17.395,19.798-41.243,33.535-66.889,39.415c-0.011,7.783,7.038,13.546,5.89,21.53c-70.025,19.033-138.828,43.168-210.438,55.896
	c-37.118,6.508-75.192,10.218-112.747,5.412c-30.059-3.828-59.883-14.173-83.699-33.312c-15.258-12.058-27.699-27.4-37.437-44.178
	c-16.417,0.723-33.705-2.542-46.943-12.792c-15.151-11.462-23.987-28.867-31.887-45.677c-8.687-18.171-16.48-37.564-31.132-51.896
	c-1.319-1.617-4.179-2.743-3.53-5.211c4.923-47.07,11.037-94.533,26.932-139.349c8.038-1.426,13.854,5.975,21.467,6.646
	c3.445-0.373,4.593-3.987,5.965-6.614c1.893,5.476,2.307,11.409,0.883,17.055c-2.892,11.94-9.389,22.541-13.557,34.023
	c-5.061,12.962-6.826,27.315-3.807,40.988c30.366-27.517,62.232-53.396,95.682-77.063c70.217-49.963,147.409-90.068,228.599-118.936
	c88.952-31.823,182.358-50.143,276.371-58.308c-4.891-10.931-11.729-20.989-20.149-29.516
	c-13.258-13.812-29.398-24.317-44.985-35.258c0.021-3.498-0.298-7.336,1.796-10.367c2.894-4.243,7.826-6.337,11.377-9.92
	c1.775-1.797,2.553-4.264,3.445-6.561c-15.269-2.956-28.569-11.472-43.222-16.278c-7.177,7.347-16.362,12.515-26.08,15.662
	c-18.83,6.05-39.458,5.943-58.426,0.553c-13.206-3.871-26.125-10.654-34.779-21.616c-10.281-1.914-20.861-2.668-31.26-1.339
	c-12.313,1.403-24.071,6.273-34.088,13.503c-16.491,11.674-29.548,28.166-48.271,36.629c-3.094-9.846-8.453-18.756-11.759-28.506
	c-2.808-8.432-1.86-17.544,0.733-25.891c-4.008-1.839-8.304-4.019-12.844-3.125c-4.104,0.946-6.741,4.487-9.665,7.219
	c-2.786,2.807-6.082,5.04-9.526,6.954c4.752,12.918,15.64,23.477,16.214,37.873c-5.05,2.616-10.473,4.625-16.14,5.316
	c-14.62,1.925-28.963-2.435-43.062-5.635c-10.898-2.531-22.754-4.38-33.364,0.298c-4.604-6.209-5.529-14.109-5.2-21.616
	c-12.631,0-25.273-0.01-37.904,0.011c0.128,3.53,0.765,7.581,4.168,9.474c8.825,4.699,19.755,1.095,28.527,6.114
	c0.574,8.984,4.647,17.097,7.975,25.294c3.104,7.581,3.965,15.906,3.04,24.019c-4.465-3.562-9.994-5.507-15.683-5.752
	c-11.355-0.585-22.509,2.414-33.269,5.731c-0.936,3.328-1.989,8.431,2.158,10.026c6.412,2.063,13.216-0.266,19.798,0.404
	c-9.729,13.578-24.168,23.147-39.595,29.154c-20.446,7.974-42.328,10.92-63.828,14.694c-1.084-1.957-2.189-4.136-4.316-5.125
	c-3.413-1.808-7.23-0.021-10.58,1.032c-7.603,2.881-15.226,6.167-23.487,6.496c-4.625-0.085-7.347,4.423-7.379,8.613
	c-8.963,3.88-18.521,6.368-27.166,10.982c10.43-15.353,28.144-22.934,44.667-29.824c17.853-7.442,37.288-14.417,49.771-30.058
	c-31.579,8.506-62.742,20.117-90.068,38.373c-2.222-0.659-4.593-1.266-6.869-0.521c-16.927,4.614-32.153,14.79-43.423,28.176
	c-11.398,13.408-18.947,29.686-23.902,46.464c0.149-12.43,0.106-25.04-3.285-37.097c25.007-34.046,59.372-60.467,97.202-78.851
	c44.029-21.446,92.121-33.322,140.434-40.169c-41.361-6.879-83.699-10.037-125.453-4.934c-32.057,3.956-64.114,13.493-90.695,32.345
	c0.096-5.837,2.477-11.175,4.742-16.427c2.244-5.072,2.063-10.76,1.01-16.098c-17.809,13.897-33.364,30.367-49.144,46.464
	c-20.053,20.84-40.881,41.457-65.73,56.576c-16.363,9.974-34.375,17.182-53.056,21.404c-1.318-8.283-1.542-16.778-0.085-25.061
	c1.903-12.164,7.751-23.168,10.909-34.981c6.401-1.552,10.431,4.456,16.119,5.774c4.125-9.411,9.218-18.395,15.279-26.688
	c19.203-26.591,47.166-45.315,76.331-59.467c2.381-0.361,5.018-0.256,6.028-2.924c29.782-13.981,61.063-24.327,91.897-35.651
	c-3.488-6.634-10.42-11.249-18.001-11.207c-19.563-0.489-38.288,9.803-57.979,6.093c2.637-9.144,11.153-14.928,20.01-17.097
	c18.522-4.891,38.097-2.563,56.661-7.305c5.794-1.414,11.345-4.094,15.619-8.336c4.381,9.75,15.385,13.472,25.061,15.577
	c14.864,2.892,30.324,3.275,45.274,0.744c-1.138-9.909-5.03-20.329-13.578-26.156c-8.74-6.22-19.926-6.677-30.25-6.284
	c6.635-2.765,13.716-4.37,20.159-7.602c3.445-1.766,6.88-4.583,7.455-8.655c0.775-6.061-2.68-11.483-5.604-16.491
	c17.979,4.731,37.384,3.115,54.609,10.802c3.243-6.273-0.373-12.993-4.243-18c-8.517-11.451-20.989-21.276-23.359-36.15
	c14.843,7.283,28.335,17.341,39.521,29.516c20.042,21.732,31.408,50.058,36.788,78.808c9.155-7.485,13.684-18.979,15.864-30.303
	c4.029-21.042,3.019-42.583,3.743-63.88C425.492,176.746,426.247,162.105,430.626,148.262 M565.744,268.728
	c-3.997,4.455-2.029,11.696-6.379,15.949c-2.243,2.042-5.455,1.254-8.133,0.861c0.51,4.53-0.128,9.282,1.52,13.631
	c0.638,1.69,2.478,2.275,3.913,3.115c0.223-4.114,0.606-8.474,3.083-11.919c5.529-7.814,16.863-10.898,18.979-21.18
	C574.645,267.888,569.551,265.581,565.744,268.728 M657.407,275.203c-6.113,1.807-12.323,3.381-18.191,5.88
	c3.997,0.436,7.879-0.851,11.738-1.701c4.264-1.117,8.75-1.872,12.524-4.306C661.459,274.47,659.375,274.501,657.407,275.203
	 M464.577,307.037c0.021,5.539-0.022,11.068,0.031,16.608c5.328,0.542,11.026,0.819,15.949-1.627
	c3.478-1.85,5.509-5.497,6.072-9.304c-5.009-1.456-9.102-5.199-14.343-5.912C469.723,306.239,467.118,306.729,464.577,307.037
	 M848.91,453.213c2.254,9.813,4.816,19.553,7.41,29.281c8.166,29.729,17.789,59.893,36.193,85.05
	c0.085-34.461-0.011-68.909,0.053-103.359c-6.305-4.455-12.259-9.718-19.605-12.386C865.082,449.194,856.671,451.128,848.91,453.213
	 M762.202,474.913c14.545,20.67,23.168,44.625,34.353,67.123c8.092,16.449,17.704,32.737,31.867,44.71
	c11.864,10.207,26.889,16.278,42.316,18.395c-0.17-20.212-2.552-40.426-6.943-60.148c-7.337-33.089-21.573-64.635-41.765-91.864
	C803.308,463.239,783.414,471.883,762.202,474.913 M702.958,462.856c-40.787,6.178-80.457,18.682-118.096,35.47
	c-41.531,18.521-80.807,41.573-120.562,63.529c49.143-16.193,98.308-32.376,147.036-49.803
	c44.179-15.96,88.026-33.045,130.333-53.535C728.72,459.561,715.791,460.825,702.958,462.856 M670.209,507.46
	c18.405,26.103,30.558,56.352,51.675,80.583c11.068,12.813,25.688,23.53,42.721,26.326c17.853,3.222,35.938-1.924,52.142-9.219
	c-7.856-15.938-15.598-31.93-23.699-47.75c-8.262-15.651-17.311-31.132-29.42-44.146c-10.378-11.048-24.009-19.884-39.394-21.361
	C704.988,489.82,686.317,497.646,670.209,507.46 M578.164,556.188c14.023,11.706,25.114,26.443,34.789,41.828
	c12.578,20.021,23.02,41.296,35.736,61.232c15.098-3.157,30.291-6.272,44.826-11.558c14.311-5.179,28.176-13.407,36.725-26.358
	c-22.158-22.742-34.321-52.684-53.077-77.936c-9.081-12.291-20.213-23.296-33.694-30.685
	C623.788,530.319,595.006,535.041,578.164,556.188 M537.154,566.97c-14.63,4.082-25.699,15.459-34.747,27.112
	c25.9,29.527,47.538,62.637,65.209,97.691c24.209-4.273,48.26-14.332,65.177-32.673c-9.103-16.917-18.16-33.896-28.984-49.792
	c-9.122-13.195-19.256-26.167-32.632-35.301C561.386,567.3,548.85,563.631,537.154,566.97 M434.508,597.676
	c-31.068,17.661-59.148,41.616-78.224,72.11c25.53,33.024,41.85,72.556,70.59,103.178c14.959-12.877,34.938-18.416,48.983-32.524
	c-9.038-24.955-24.806-46.518-38.011-69.303c-10.026-17.14-17.979-35.673-21.647-55.269c32.068-9.409,64.347-23.646,86.888-49.143
	C479.494,575.273,456.305,585.162,434.508,597.676 M449.298,613.731c-7.507,3.966-14.672,10.196-17.044,18.564
	c5.008,19.394,17.543,35.491,29.516,51.1c10.739,13.844,20.436,29.016,24.551,46.251c17.532-1.073,31.439-13.662,48.559-16.288
	c-7.029,10.366-18.725,15.799-27.879,23.912c-4.231,3.87-8.335,8.548-9.781,14.185c7.645,15.501,18.064,29.43,26.315,44.603
	c7.272,13.546,14.577,27.975,14.651,43.71c-0.021,9.931-5.464,19.287-13.694,24.721c-2.031-16.087-6.134-31.865-11.887-47.006
	c-8.305-22.36-19.309-43.689-26.103-66.602c-13.302,3.986-27.263,7.208-38.883,15.193c-7.879,5.241-13.439,13.598-15.577,22.796
	c13.313,31.674,25.752,63.955,32.621,97.724c19.776,3.881,40.169,1.658,59.616-2.914c34.322-8.017,67.463-22.126,102.987-24.179
	c-32.131-92.746-80.521-178.997-135.299-260.134C477.814,604.333,462.727,606.811,449.298,613.731 M838.086,610.276
	c4.327,30.473,17.31,59.243,19.34,90.131c0.755,11.813-0.669,24.646-8.303,34.194c-12.685-36.725-8.07-77.054-21.542-113.577
	c-7.772-0.828-15.619-1.243-23.413-0.488c-16.31,1.17-31.76,6.825-47.314,11.43c4.636,24.625,12.631,48.41,20.202,72.248
	c9.378,29.282,16.841,59.489,17.724,90.366c2.892-0.063,5.901,0.127,8.677-0.915c5.805-1.892,9.771-7.092,15.555-9.048
	c2.669-1.053,5.582-0.999,8.411-0.958c-0.16,5.168-4.945,7.625-8.581,10.293c-3.637,2.669-3.413,7.613-2.478,11.547
	c11.026-4.997,20.776-12.451,29.219-21.063c19.542-20.479,32.089-46.954,38.191-74.428c7.39-32.981,5.242-68.251-7.422-99.68
	C863.604,610.297,850.845,610.403,838.086,610.276 M342.346,635.336c-6.869,3.946-10.622,11.367-13.248,18.554
	c5.816,0.256,12.015,0.277,17.14-2.901c7.208-4.466,11.11-12.323,15.747-19.118C355.317,631.168,348.194,631.807,342.346,635.336
	 M659.364,664.406c10.898,32.057,28.856,61.381,37.533,94.257c6.007,22.18,7.909,45.423,5.848,68.303
	c13.015,0.329,26.135-1.488,38.447-5.763c15.32-5.061,29.079-13.642,43.136-21.37c-5.954-26.476-10.26-53.302-16.896-79.617
	c-7.113-27.868-16.991-56.278-37.118-77.585C708.943,655.879,683.744,660.238,659.364,664.406 M301.719,690.307
	c-9.9,6.815-18.48,16.385-21.255,28.368c16.906,17.192,29.803,37.713,44.742,56.532c10.558,13.45,22.444,26.061,36.672,35.704
	c12.1-12.652,30.738-15.332,43.539-27.07c-2.753-6.539-5.921-12.897-8.888-19.33c-16.863-35.47-35.363-70.822-61.69-100.317
	C326.354,675.762,313.095,682.088,301.719,690.307 M962.763,669.605c3.157,12.61-5.104,23.859-6.422,36.012
	c-0.84,5.412,2.274,10.314,6.422,13.482c0.606-8.007,5.04-14.896,7.942-22.19c2.371-5.858,5.178-12.228,3.721-18.67
	C973.15,672.933,967.568,670.615,962.763,669.605 M598.216,693.518c-7.187,4.327-12.407,11.504-14.587,19.585
	c18.489,45.806,40.935,89.877,59.627,135.597c6.433,0.51,12.93,0.521,19.33-0.436c12.961-1.775,24.72-8.177,35.108-15.864
	c-6.04-33.28-10.526-67.154-22.36-99.01c-7.634-20.352-19.213-40.127-37.288-52.844
	C624.489,683.746,610.221,685.979,598.216,693.518 M405.492,796.228c-8.123,3.02-14.471,9.421-22.647,12.323
	c-3.297,1.255-6.836,1.659-10.313,2.063c4.2,10.898,10.866,20.829,19.383,28.813c13.003,12.026,29.25,20.032,45.986,25.455
	c0.351-6.294,0.414-12.631-0.596-18.873c-2.551-18.021-13.439-33.609-15.736-51.695
	C416.157,793.622,410.595,794.346,405.492,796.228 M793.43,805.818c-32.632,17.459-66.942,31.535-101.689,44.178
	c-59.085,21.36-119.541,38.606-179.232,58.16c52.291-3.402,104.251-12.813,154.277-28.453
	c48.825-15.311,95.661-36.831,139.233-63.635c-0.511-3.286-0.649-6.954-2.903-9.602C800.542,804.054,796.374,804.181,793.43,805.818
	z"/>
<path fill="#030303" d="M563.82,165.752c12.834-12.121,28.932-20.042,41.924-31.961c1.563,5.433-1.382,10.792-5.136,14.524
	c-13.195,13.45-31.577,20.595-44.071,34.832C554.634,176.353,559.217,170.186,563.82,165.752z"/>
<path fill="#00C3DF" d="M859.69,176.236c-0.414-4.742,4.924-7.815,9.155-6.646c3.859,0.585,7.113,3.774,7.4,7.74
	c1.531,11.824,5.465,23.201,10.835,33.812c2.242-1.478,4.996-2.297,7.591-1.148c9.059,3.487,18.937,3.211,28.463,2.499
	c2.658-0.266,4.658-2.701,7.442-2.53c3.382,0.095,6.392,1.914,9.304,3.456c13.907,8.059,25.465,20.053,33.206,34.12
	c5.784,10.494,9.229,22.636,7.646,34.672c-1.309,9.123-6.156,17.64-13.291,23.477c-2.478,1.893-4.445,4.317-6.349,6.762
	c5.349,16.045,6.327,33.333,4.296,50.047c-0.999,6.646-10.568,9.112-14.959,4.327c-2.106-2.478-1.287-5.901-1.128-8.835
	c1.786-18.894-4.359-37.639-13.599-53.907c-18.586-32.599-47.336-58.202-64.656-91.621
	C865.305,201.148,860.903,188.931,859.69,176.236 M899.999,231.78C900.552,232.354,900.552,232.354,899.999,231.78z"/>
<path fill="#030303" d="M784.646,248.324c8.337-4.157,17.789-5.04,26.89-6.241c-2.53,2.785-5.497,5.678-5.964,9.601
	c0.255,1.744,1.572,3.126,3.072,3.966c7.73,4.179,17.416,3.232,24.688,8.453c-2.913,2.329-6.315,4.062-9.962,4.87
	c-9.06,2.094-18.48,1.967-27.677,1.084c-7.751-0.851-15.62-2.169-22.616-5.806C773.918,257.383,778.502,251.375,784.646,248.324z"/>
<path fill="#00C3DF" d="M702.756,292.375c25.422-2.339,51.419-0.191,76.352-6.645c2.328-0.276,4.977-0.606,6.965,0.957
	c3.752,2.786,4.316,8.729,1.414,12.324c-1.372,1.658-3.456,2.424-5.349,3.264c-14.747,5.774-28.24,14.588-43.688,18.564
	c-0.426,0.096-1.298,0.297-1.723,0.394c-8.305,0.446-17.268,1.201-24.858-2.871c-4.063-2.03-7.146-5.433-10.176-8.708
	c-2.255,0.138-4.52,0.191-6.763,0.064c-2.998-1.935-5.156-4.806-5.815-8.347c0.17-2.924,1.499-5.604,4.04-7.177
	C696.28,293.257,699.523,292.79,702.756,292.375z"/>
<path fill="#030303" d="M790.123,350.215c-9.251,10.919-23.828,14.535-37.204,17.501c-13.12,2.881-26.624,4.689-39.042,10.027
	c1.647,3.168,4.571,5.784,8.272,6.05c10.409,0.851,19.553-5.487,29.706-6.433c-0.69,5.763-4.21,10.994-9.366,13.684
	c-15.736,8.112-35.448,3.445-50.346,13.684c4.18,11.111,16.683,14.705,27.337,16.119c-9.293,12.727-24.731,18.83-39.404,22.902
	c-27.805,7.082-57.097,7.591-85.347,2.999c-17.448-3.254-35.854-8.007-49.122-20.5c4.965-1.01,10.101-1.287,15.129-0.553
	c7.604,1.085,14.524,4.87,22.138,5.912c3.955,0.638,7.984,0.361,11.972,0.075c1.595-4.934-1.626-9.485-3.892-13.621
	c-3.21-5.838-7.708-11.759-7.262-18.755c2.743-4.21,8.07-6.199,12.961-5.572c8.485,0.903,16.226,4.955,24.636,6.327
	c5.454,0.968,11.153,0.818,16.47-0.851c-4.795-3.733-10.526-5.987-16.395-7.337c-18.522-4.306-37.927-2.605-56.353-7.475
	c-5.051-1.36-9.953-3.487-14.003-6.847c23.943-9.207,49.908-10.877,75.31-11.887c18.106-0.808,36.236-0.042,54.354-0.691
	c21.339,0.106,42.742-0.394,63.954-2.956C760.214,360.104,775.736,356.68,790.123,350.215 M626.86,382.889
	c16.396,0.818,32.025,8.963,48.622,6.656c6.199-0.745,10.697-5.997,11.569-12.026c-13.781,2.01-27.561-1.191-41.361-0.861
	C639.056,376.68,631.412,377.424,626.86,382.889 M630.221,409.758c-2.627,0.574-3.189,3.371-3.509,5.625
	c7.91-1.499,15.789,1.935,23.688,0.595c2.946-0.394,4.063-3.243,4.19-5.858C646.445,411.671,638.291,408.014,630.221,409.758
	 M635.516,428.152c0.755,3.466,4.88,4.529,7.974,4.391c4.572,0.117,8.476-2.829,11.154-6.284c-4.764-0.83-9.645-1.627-14.472-0.999
	C638.301,425.504,636.132,426.11,635.516,428.152z"/>
<path fill="#030303" d="M275.063,366.579c5.592,0,11.196-0.011,16.789,0c1.467,6.709-4.784,10.866-6.125,16.874
	c-3.519-2.095-6.369-5.529-10.664-5.986C275.063,373.83,275.063,370.205,275.063,366.579z"/>
<path fill="#030303" d="M410.553,415.297c5.859-2.01,11.866-4.104,18.14-4.094c6.9-0.287,13.599,1.818,19.999,4.147
	c5.2,17.213,7.305,35.672,3.551,53.396c-3.88,19.256-14.545,36.619-28.24,50.484c-15.928,16.565-35.353,29.217-55.171,40.604
	c-14.769,8.336-29.835,16.141-45.029,23.646c-2.573-6.89-0.745-14.662,3.902-20.212c10.728-13.142,26.465-20.861,37.714-33.472
	c2.881-3.274,5.348-6.932,6.985-10.983c-13.938,8.305-23.828,21.904-37.916,30.006c-11.313,6.794-24.944,8.814-37.926,7.485
	c27.825-27.421,65.167-43.009,91.951-71.653c12.014-12.792,20.935-29.037,22.657-46.698
	C412.159,430.417,411.478,422.803,410.553,415.297 M409.554,478.018c-0.691,4.158,3.328,6.625,6.496,8.22
	c-0.382-2.308-1.233-4.838-0.043-7.06c2.126-5.604,8.114-8.219,11.111-13.174c1.638-3.859-2.764-5.879-5.327-7.538
	C418.188,465.28,411.074,470.161,409.554,478.018z"/>
<path fill="#00C3DF" d="M292.617,444.175c3.35-1.053,7.167-2.84,10.58-1.032c2.126,0.99,3.232,3.169,4.316,5.125
	c1.191,4.476-1.126,8.857-5.316,10.632c-0.181,2.275,0.202,4.742-0.829,6.869c-1.074,1.68-2.711,2.881-4.052,4.328l-0.181,0.68
	c-0.563,3.445-1.403,7.603-5.071,9.048c-4.477,1.234-9.271,1.159-13.567,3.094c-15.811,5.806-28.271,17.767-40.042,29.388
	c-4.869,5.062-10.175,9.708-14.662,15.12c-13.088,12.313-25.04,26.06-33.833,41.796c-2.69,4.859-9.92,4.125-12.972,0.032
	c-0.372-0.446-1.116-1.34-1.489-1.786c-2.084,2.339-4.529,4.54-7.783,4.976c-1.967-0.021-3.934-0.064-5.901-0.202
	c-2.892-1.701-5.625-4.349-5.837-7.899c-0.489-2.765,1.5-4.923,3.062-6.911c0.712-11.686,2.69-23.254,5.72-34.556
	c4.955-16.778,12.504-33.057,23.902-46.464c11.27-13.386,26.496-23.562,43.423-28.176c2.275-0.745,4.646-0.138,6.869,0.521
	c3.253,2.744,5.731,7.784,2.892,11.674c-3.572,3.945-7.602,7.497-10.579,11.973c1.095-0.734,2.212-1.414,3.318-2.138
	c8.644-4.614,18.202-7.102,27.166-10.982c0.032-4.19,2.754-8.698,7.379-8.613C277.392,450.342,285.015,447.057,292.617,444.175
	 M207.865,479.612C208.418,480.134,208.418,480.134,207.865,479.612z"/>
<path fill="#030303" d="M297.136,470.777c7.018-4.444,14.28-8.496,21.669-12.28c0.138,5.996-2.53,11.398-4.795,16.778
	c-2.159,5.114-1.829,10.792-0.765,16.13c-14.439,2.731-27.06,10.643-40.808,15.417c-4.678,1.658-8.038,5.518-11.834,8.526
	c-21.18,18.427-40.361,40.266-66.485,51.919c-7.273,16.991-2.254,36.373-8.633,53.588c-2.074,5.783-7.113,10.132-13.089,11.516
	c-10.686-18.065-10.887-39.776-10.579-60.128c1.967,0.138,3.934,0.181,5.901,0.202c-0.17,1.658-0.351,3.339-0.521,5.019
	c3.317-2.679,6.55-5.454,9.792-8.208c3.051,4.093,10.282,4.827,12.972-0.032c8.793-15.736,20.744-29.483,33.833-41.796
	c17.607-15.577,35.577-30.803,54.704-44.508c4.296-1.935,9.091-1.86,13.567-3.094C295.733,478.38,296.573,474.223,297.136,470.777z"
	/>
<path fill="#030303" d="M63.912,507.46c20.01,0.021,40.031-0.021,60.042,0.021c-4.912,14.29-14.322,27.283-27.527,34.938
	c-6.699,4.04-14.109,6.869-21.723,8.581c3.02-13.44,15.523-21.106,21.807-32.685c-9.675-1.914-19.542,2.658-29.112-0.011
	C62.807,516.838,63.104,511.256,63.912,507.46z"/>
<path fill="#030303" d="M115.522,539.282c4.997-4.891,12.408-6.422,19.139-5.039c1.095,5.124-0.319,10.962-4.7,14.172
	c-4.731,3.648-10.823,6.88-11.706,13.483c-3.221-0.702-6.73-2.084-8.081-5.369C107.495,550.415,111.035,543.524,115.522,539.282z"/>
<path fill="#030303" d="M124.879,668.766c5.273-4.254,11.419-7.337,17.916-9.198c3.052-1.212,6.57,0.012,9.016,1.979
	c2.275,1.893,0.872,5.125-0.797,6.911c-7.347,8.293-17.427,13.727-24.348,22.445c-1.584,2.137-3.073,4.657-2.722,7.432
	c0.67,20.213-0.745,40.415-0.351,60.627c0.5,11.717,1.255,23.731,5.54,34.769c3.104,5.879,7.124,11.237,11.122,16.544
	c22.647,29.389,53.663,50.515,79.34,76.969c11.037,11.11,21,23.412,28.825,37.001c17.969,7.496,37.543,9.686,56.767,11.515
	c24.071,2.286,48.473,3.01,72.045,8.857c14.822,3.785,29.941,10.42,39.192,23.168c-35.927,1.297-71.982,1.095-107.771-2.775
	c-39.383-4.253-78.787-12.727-114.746-29.771c-2.637,1.35-6.89,3.519-5.167,7.177c3.508,6.454,11.047,9.336,15.035,15.417
	c0.957,2.478-1.67,3.955-3.7,4.349c-5.795,0.585-12.089-0.84-16.342-5.008c-4.094-4.051-5.986-9.718-7.134-15.227
	c-2.542-12.131-1.989-24.709-4.849-36.788c-1.467-6.038-4.168-12.407-9.75-15.704c-3.253-2.147-7.198-2.594-10.962-3.104
	c-5.572,8.591-4.498,19.437-2.658,29.006c2.722,14.13,8.347,27.464,12.227,41.286c1.042,3.625,1.754,7.399,1.393,11.206
	c-28.453-0.01-56.916,0-85.368-0.01c-2.19,0.394-3.286-1.841-4.604-3.116c-8.698-10.802-11.781-24.709-14.854-37.915
	c-3.487-14.843-5.891-30.558-14.513-43.487c-3.892-6.071-9.909-10.409-16.48-13.185c5.88-22.264-3.71-44.337-5.369-66.464
	c-0.894-9.462,1.893-20.329,10.569-25.465c5.815-0.191,11.387,3.563,14.439,8.433c8.187,13.715,4.954,31.271,13.099,44.933
	c7.847-14.705,10.898-31.77,9.229-48.314c-1.978-22.296-10.516-43.253-14.907-65.07c12.939,9.909,19.595,25.528,23.731,40.828
	c6.092,22.393,8.134,45.656,14.226,68.048c2.51,9.208,5.859,18.246,10.792,26.443c3.104-6.252,4.136-13.291,4.519-20.191
	c0.701-20.829-4.073-41.265-7.294-61.711c-5.157-29.973-8.58-60.924-2.69-91.057c4.614,0.414,9.368-0.117,13.727-1.755
	C115.863,676.665,120.18,672.326,124.879,668.766z"/>
<path fill="#030303" d="M161.306,675.39c2.36-2.775,5.083-6.029,8.963-6.358c5.614-0.384,6.146,9.378,1.137,10.611
	C167.473,680.566,164.188,677.579,161.306,675.39z"/>
<path fill="#030303" d="M212.214,700.79c2.732-4.614,3.498-10.048,3.328-15.321c1.711,12.355,4.593,24.561,9.218,36.172
	c7.454,19.702,17.958,38.128,24.763,58.096c3.296,9.984,5.422,20.574,4.253,31.133c-12.61-2.201-23.743-9.899-31.1-20.256
	c-13.014-17.521-18.426-39.968-34.109-55.618c0.362-4.848,2.01-9.59,4.881-13.524C198.881,713.836,207.568,709.052,212.214,700.79z"
	/>
<path fill="#030303" d="M875.938,848.38c22.732,2.041,45.306,10.664,62.2,26.272c12.143,11.219,20.766,26.284,23.795,42.573
	c3.317,16.916,1,34.545-4.571,50.738C929.642,928.496,906.771,885.647,875.938,848.38z"/>
<path fill="#030303" d="M444.087,958.087c8.485-2.839,17.565-1.309,26.327-1.384c0.329,2.309,0.936,4.701,0.223,7.019
	c-0.617,2.52-3.179,3.977-5.593,4.381c-9.239,1.414-18.512-2.361-27.73-0.384C437.666,963.562,439.93,959.437,444.087,958.087z"/>
</svg>
