<?xml version="1.0" encoding="utf-8"?>
<!-- Generator: Adobe Illustrator 16.0.0, SVG Export Plug-In . SVG Version: 6.00 Build 0)  -->
<!DOCTYPE svg PUBLIC "-//W3C//DTD SVG 1.1//EN" "http://www.w3.org/Graphics/SVG/1.1/DTD/svg11.dtd">
<svg version="1.1" id="Layer_1" xmlns="http://www.w3.org/2000/svg" xmlns:xlink="http://www.w3.org/1999/xlink" x="0px" y="0px"
	 width="500px" height="418px" viewBox="0 0 500 418" enable-background="new 0 0 500 418" xml:space="preserve">
<g id="_x23_000000ff">
	<path d="M159.99,16.78c7.57-1.69,15.3-2.37,22.97-3.34c8.69,0.03,17.4-0.11,26.09,0.07c4.26,0.9,8.63,0.68,12.9,1.52
		c12.9,2.34,25.9,4.92,38.05,9.98c18.12,7.06,35.5,16.82,49.55,30.4c2.29,1.68,4.51,3.53,6.15,5.88c1.92,2.8,4.729,4.82,6.689,7.58
		c7.62,9.97,14.57,20.6,19.24,32.29c4.84,11.08,8.771,22.61,11.01,34.52c2.101,7.6,2.311,15.51,3.551,23.26
		c0.22,2.69-0.141,5.4,0.21,8.08c1.08,5.57,1.04,11.38-0.021,16.96c-0.43,3.61,0.3,7.3-0.52,10.87c-0.54,2.36-0.33,4.79-0.5,7.18
		c-1.08,8.02-2.351,16.01-4.021,23.92c-5.01,22.28-13.359,44.43-28.3,62.03c-3.38,3.64-6.15,7.91-10.4,10.66
		c-3.6,3.52-7.7,6.459-11.93,9.17c-13.351,9.319-29.229,13.92-44.899,17.56c-8.241,1.12-16.48,2.68-24.82,2.521
		c-2.68,0.129-5.28,0.979-7.98,0.84c-6.19,0.449-12.23-1.601-18.42-0.76c-0.18,2.029,0.47,3.989,0.71,5.989
		c0.18,2.5-0.1,5.04,0.44,7.511c0.98,4.229-0.06,8.619,0.85,12.869c0.79,4.439-0.24,9,0.68,13.43c0.44,2.03,0.47,4.101,0.61,6.17
		c3.98-4.08,8.35-7.77,13.06-10.979c5.78-3.63,11.48-7.479,17.78-10.181c10.35-4.109,21.09-7.67,32.28-8.43
		c5.6-1.119,11.33-0.459,17-0.66c10.221,0.201,20.1,3.19,29.92,5.74c1.93,0.5,0.271,2.41-0.8,2.93
		c-5.47-0.92-10.63-3.109-16.11-3.989c-4.97-0.8-9.96-1.771-15.01-1.54c-4.99,0.1-10.02-0.34-14.95,0.67
		c-19.819,1.62-38.66,10.08-54.13,22.391c-3.13,2.969-6.99,5.299-9.03,9.26c-0.43,4.31-0.29,8.68,0.56,12.93
		c0.2,8.64,0.01,17.28,0.08,25.92h-3.17c0.04-7.67-0.01-15.33,0.04-23c0.07-2.8-0.53-5.55-1.01-8.29
		c-0.83-0.59-1.66-1.181-2.48-1.771c-0.72-1.39-0.36-3.149-1.29-4.459c-2-3.49-3.93-7.041-5.21-10.86
		c-4.56-13.341-7.95-27.03-11.27-40.72c-0.36-1.09-0.49-2.48-1.49-3.17c-3.9-0.951-7.91-1.34-11.84-2.131
		c-21.92-4.39-43.26-11.789-62.96-22.379c-15.2-8.621-29.97-18.361-42.45-30.66c-4.01-2.931-7.53-6.49-10.48-10.471
		c-7.87-8.1-14.04-17.66-19.48-27.52c-7.67-14.34-12.12-30.34-13.29-46.57c0.01-4.68-0.04-9.36,0.03-14.04
		c1.41-12.79,3.2-25.68,7.76-37.79c4.12-13.11,9.99-25.67,17.15-37.39c5.53-15.63,15.78-29.34,28.15-40.26
		c5.85-4.31,11.57-8.81,17.65-12.8c6.07-3.58,12.09-7.26,17.98-11.13c10.99-6.99,23.11-12.44,35.98-14.72
		C151.17,16.8,155.69,18.02,159.99,16.78 M172.93,17.4c0.36,1.71,3.3,1.35,2.84,3.34c-2.22,1.28-5.29,0.61-7.69-0.08
		c-4.03-0.23-8.09-0.15-12.13-0.05c-15.34,3.7-30.31,8.99-44.43,16.05c-7.83,3.69-14.43,9.39-21.41,14.41
		c-1.77,1.57-3.46,3.23-5.45,4.52c-3.99,4.21-9.17,7.22-12.41,12.15c-6.43,6.77-12.02,14.31-17.29,22.02
		c-3.98,6.75-8.39,13.28-11.67,20.42c-9.3,17.95-15.78,37.59-17.37,57.8c-1.15,3.56-0.46,7.35-0.63,11.02
		c0.17,3.97-0.53,8.06,0.64,11.93c0.27,5.84,1.81,11.5,2.94,17.2c1.51,3.96,2.66,8.06,4.14,12.03c2.35,3.869,3.23,8.439,5.92,12.13
		c4.79,9.101,10.84,17.47,17.51,25.26c4.37,4.31,8.67,8.69,13.03,13.011c5.23,4.08,9.97,8.83,15.6,12.42
		c28.41,21.08,62.39,34.459,97.32,39.369l0.05-1.32c-1.61-4.93-2.39-10.059-3.7-15.069c-1.64-7.31-3.86-14.5-5.26-21.87
		c-3.04-12.33-6.18-24.619-9.67-36.83c-0.52-1.359,1.51-1.689,2.48-1.63c0.77,1.36,1.22,2.88,1.61,4.39
		c3.12,12.51,6.73,24.891,9.44,37.5c2.99,11.84,5.86,23.721,8.58,35.631c4.11-0.18,8.08,0.97,12.19,0.84
		c4.51,1.35,9.26,0.539,13.89,0.75c2.04-0.08,3.91,1.08,5.97,0.83c3.64-0.16,7.38,0.449,10.91-0.711
		c3.71-0.469,7.54,0.44,11.19-0.639c7.08-0.701,14.209-1.41,21.1-3.33c9.24-2.24,18.49-4.931,26.9-9.461
		c3.58-1.689,7.16-3.43,10.359-5.779c17.28-10.73,29.95-27.601,38.54-45.811c6.37-13.561,10.45-28.109,12.931-42.84
		c1.189-4.93,1.25-10.03,2.38-14.97c0.109-1.99-0.141-4,0.149-5.98c1.721-4.8-0.279-10.08,1.33-14.94
		c-0.029-4.65,0.58-9.42-0.52-13.99c-0.44-3.55,0.399-7.21-0.59-10.69c-0.54-1.79-0.21-3.68-0.551-5.5
		c-1.029-2.54-0.189-5.35-1.14-7.91c-2.38-14.19-6.51-28.09-12.44-41.21c-5.489-13.33-13.72-25.37-23.01-36.31
		c-3.029-2.99-6.029-5.99-9-9.01c-21.93-19.18-49.33-32.02-78.01-37.07c-3.76-1.11-7.68-1.05-11.45-2
		c-3.78,0.44-7.3-1.11-11.05-0.84c-8.36,0.13-16.74-0.19-25.09,0.15C178.37,17.78,175.6,17.26,172.93,17.4 M186.46,326.311
		c3.61,12.91,6.39,26.039,10.63,38.77c1.35,5.18,4.16,9.79,6.56,14.529c0.4-0.799,1.04-1.56,0.92-2.51
		c-0.07-3.34,0.46-6.81-0.65-10.029c-0.64-4.68,0.59-9.521-0.76-14.1c-0.87-3.98,0.61-8.16-0.68-12.07
		c-0.63-2.61,0.08-5.33-0.41-7.961c-0.47-1.42-0.67-2.91-0.68-4.39c-2.15-2.43-5.66-0.85-8.4-1.569
		C190.89,326.24,188.65,326.24,186.46,326.311z"/>
	<path d="M261.6,47.72c3.74-0.7,7.601-0.12,11.391-0.33c3.52-0.33,6.8,1.11,10.109,2.06c5.791,1.32,10.99,4.87,14.601,9.55
		c1.329,2.84,1.899,6.07,1.68,9.21c-2.989,4.63-9.229,4.71-14.13,4.42c-4.529-1.87-8.77-4.4-13.37-6.13
		c-2.8-0.25-5.63-0.19-8.43-0.03c-3.15,1.75-5.9,4.24-9.351,5.45c-4.25,1.38-8.75,1.87-13.209,1.54c-4.33-1.23-6.92-6.32-5.04-10.46
		c1.04-2,1.99-4.04,3.12-5.99c1.37-2.18,3.92-2.92,6-4.19c2.84-1.82,5.82-3.5,9.08-4.42C256.54,47.94,259.16,48.6,261.6,47.72
		 M261.96,50.84c-2.569,0.93-5.319,0.27-7.95,0.66c-4.13,2.2-8.68,3.88-12.12,7.14c-1.26,1.64-2.09,3.56-2.99,5.4
		c-1.24,2.42,0.07,5.84,2.92,6.28c4.31,0.39,8.65-0.4,12.651-2.02c2.869-1.24,5.239-3.33,7.949-4.85
		c2.859-0.47,5.801-0.19,8.689-0.19c5.25,0.92,9.431,4.56,14.44,6.11c3.511,0.55,7.25,0.26,10.351-1.63
		c1.06-2.04-0.121-4.54-0.771-6.6c-1.29-1.42-2.55-2.87-3.601-4.48c-4.549-3.35-10.17-4.43-15.469-6.04
		C271.37,50.65,266.6,50.25,261.96,50.84z"/>
	<path d="M113.98,50.1c6.11-2.32,12.85-1.13,18.95,0.63c2.61,1.11,5.1,2.51,7.63,3.81c5.42,3.33,8.23,10.19,6.96,16.39
		c-2.9,3.62-8.09,4.84-12.48,3.96c-4.08-1.95-8.64-2.25-13.01-3.05c-6.11-0.69-10.45,4.95-16.13,5.93
		c-4.86,1.5-10.08,1.56-14.97,0.13c-2.57-1.86-4.21-4.75-4.1-7.97c1-3.63,3.9-6.13,6.03-9.08c3.33-2.85,6.72-5.77,10.75-7.61
		C106.83,51.48,110.51,51.09,113.98,50.1 M114.68,53.03c-2.75,1.41-6.43,0.68-8.74,2.82c2.15,0.42,4.63,0.04,6.41,1.54
		c1.21,1.56,1.88,3.64,1.21,5.57c-0.95,1.18-2.05,2.25-3.21,3.22c-2.76,1.06-5.32-0.48-7.36-2.22c-0.45-1.3-0.84-2.62-1.14-3.97
		c-0.24-1.41,1.31-2.01,1.97-3.01c-2.07,0.69-3.22,2.71-4.9,3.97c-3.33,2.16-5.94,5.21-8.67,8.04c-0.87,2.79,0.66,6.36,3.77,6.77
		c4.27,0.15,8.7,0.5,12.68-1.37c5.41-2.57,10.95-6.89,17.29-5.42c3.61,1.09,7.87,0.37,10.99,2.81c3.32,0.29,7.49,0.59,9.54-2.65
		c0.88-4.11-1.39-7.78-3.86-10.83c-4.79-2.87-10-5.5-15.62-6.11C121.59,52.31,117.95,51.62,114.68,53.03z"/>
	<path d="M273.33,53.23c1.22-1.8,3.77-0.89,5.59-0.96c2.48-0.1,3.221,2.49,3.63,4.42c-1.05,2.14-2.899,4.85-5.67,4.14
		c-1.521,0.05-2.271-1.58-3.31-2.42C271.98,57.28,272,54.5,273.33,53.23z"/>
	<path d="M196.21,94.1c2.25,1.81,2.12,5.29,2.1,7.94c0.13,2.39-1.48,4.41-3.27,5.8c0.18-1.42,0.85-2.69,1.41-3.98
		c0.76-3,0.01-6.07-0.62-9.01L196.21,94.1z"/>
	<path d="M411.65,188.51l0.21-0.4c0.479-0.01,1.439-0.02,1.92-0.02c0.46,3.91,0.239,8.15-2.69,11.12
		c-2.25,0.36-2.37-2.95-1.109-4.08C411.24,193.12,410.27,190.51,411.65,188.51z"/>
</g>
<g id="_x23_010101ff">
	<path fill="#010101" d="M220.5,67.33c1.88-0.72,3.67,0.18,4.25,2.07c2.44,2.18,6.47,4.01,6.07,7.92c3.62,0.06,7.36,0.73,10.57,2.42
		c0.16,0.45,0.47,1.35,0.62,1.8c-3.57-1.39-7.44-2.93-11.33-2.29c-0.09,1.8-0.19,3.6-0.26,5.39c3.28,3.33,6.02,7.53,6.3,12.32
		c-2.71-0.05-1.73-3.28-2.67-4.89c-1.33-2.44-2.59-5.18-4.9-6.82c-2.61,2-5.88,1.65-8.98,1.63c0.89,2.9,2.56,5.79,1.51,8.92
		c-0.3-0.04-0.89-0.13-1.19-0.18c0.14-2.9-1.07-5.59-0.89-8.49c-1.27-0.59-2.56-1.16-3.85-1.7c0.45,3.3-2.6,6.21-5.73,6.5
		c1.14,3.83,3.21,7.51,3.32,11.57c-0.37,0-1.12,0-1.5-0.01c-0.46-4.04-2.1-7.87-3.64-11.6c-1.9-0.82-3.83-1.57-5.69-2.49
		c-1.29,3.16-5.44,4.16-8.58,3.9c-1.85,0.14-3.21-1.4-4.78-2.1c-2.22,2.46-4.05,5.38-4.31,8.76c-0.25,2.46,0.26,4.9,0.41,7.35
		c-2.79-0.91-1.89-4.14-2.03-6.33c-0.19-2.17,0.85-4.13,1.42-6.15c-3.3,0.74-5.89-1.33-8.82-2.22c-0.88,4.08-1.98,8.12-3.39,12.05
		c-0.36-0.53-0.69-1.08-0.99-1.64c1.04-5.19,3.85-10.13,3.23-15.56c-3.22,2.45-7.87,0.72-10.5-1.9c-0.7-0.81-1.94-1.58-2.97-0.76
		c-2.82,2.66-4.66,6.13-5.75,9.82c-0.34,0.11-1.02,0.34-1.36,0.45c0.4-4.89,3.89-8.55,7.05-11.95c0-0.59,0-1.77,0-2.37
		c-3.04-0.82-5.04,2.4-7.1,4.11c0.22-3.66,4.32-5.43,7.36-6.44c1.03-2.43,2.08-5.28,4.54-6.6c3.32-0.21,5.26,2.9,7.57,4.74
		c5.16,2.78,11.08,3.33,16.7,4.62c7.21,1.26,14.33-1.28,20.69-4.49c3.03-1,5.56-2.96,8.22-4.67
		C219.9,70.61,219.53,68.74,220.5,67.33 M222.64,72.33c-1.55,3.4-5.36,4.57-8.47,6.08c1.39,2.19,2.85,4.89,5.68,5.31
		c2.49,0,5.21,0.47,7.45-0.9c0.38-2.18,0.28-4.46,0.03-6.66C225.78,74.99,224.71,72.35,222.64,72.33 M166.35,75.91
		c-1.37,1.71-2.79,3.71-1.9,6.03c1.93,2.83,5.57,3.74,8.82,3.41c0.95-1.48,1.77-3.02,2.64-4.55c-3.64-0.58-6.34-3.34-8.94-5.73
		L166.35,75.91 M211.8,79.73c-2.56,1.5-5.47,2.09-8.17,3.21l-0.33,0.66c0.87,1.36,1.09,3.46,2.78,4.12
		c1.75,1.21,4.03,0.94,5.97,0.43c0.43-1.37,0.84-2.75,1.16-4.15C212.53,82.68,212.58,80.88,211.8,79.73 M177.74,81.56
		c-0.04,2.73-0.14,5.48,0.07,8.2c2.25,1.46,4.83,2.4,7.54,1.84c1.57-2.37,1.01-5.3,1.25-7.98
		C183.65,82.91,180.66,82.37,177.74,81.56 M199.79,83.76c-3.19,1.67-6.99,0.32-10.44,0.89c0.69,1.79,1.47,3.58,2.58,5.15
		c2.94,0.99,6.56,0.23,8.56-2.25C200.89,86.29,200.71,84.64,199.79,83.76z"/>
	<path fill="#010101" d="M416.26,105.39c1.36-0.77,2.95-0.05,3.28,1.46c1.3,2.55,2.08,5.33,3.44,7.85
		c1.489,0.07,3.119-0.36,4.479,0.51c-0.64,1.03-1.52,1.87-2.27,2.8c0.89,1.58,2.05,2.99,2.96,4.56c0.109,1.34,0.25,3.11-1.15,3.86
		c-1.53-0.81-1.9-2.56-2.64-3.97c-0.88-1.15-1.69-2.33-2.44-3.55c-1.81-0.93-3.97-0.25-5.82,0.21c-2.71,0.22-5.319,1.1-8.04,1.08
		c-0.119,2.76,1.631,4.79,3.381,6.67c-0.271,1.52-1.561,2.59-3.061,1.67c-2.06-2.06-3.05-4.91-3.649-7.69
		c-0.82-3.35-2.12-6.55-3.471-9.71c0-0.51,0-1.52,0-2.03c0.63,0.07,1.88,0.2,2.5,0.27c1.37,2.19,1.79,4.8,2.811,7.15
		c4.27,0.61,8.819-0.22,12.97-1.47c-0.82-3.23-2.58-6.06-4.03-9.02L416.26,105.39z"/>
	<path fill="#010101" d="M373.57,107.82c0.59-0.21,1.79-0.63,2.38-0.85c0.31,0.48,0.93,1.42,1.25,1.89
		c2.58,0.47,5.27,0.05,7.84,0.77c4.72,0.29,8.2,4.04,10.94,7.52c2.819,7.05-3.131,16.26-10.98,15.61
		c-5.13,0.5-10.89-0.77-14.25-4.95c-1.04-2.36-2.59-5.02-1.48-7.63C370.01,115.91,370.22,111.02,373.57,107.82 M376.31,112.3
		c-1.06,1.02-2.54,2-2.659,3.61c-0.301,2.49-1.851,4.72-1.601,7.3c1,3.22,4,5.24,7.04,6.31c3.07,0.1,6.16,0.22,9.23-0.07
		c4.989-2.02,7.189-9.91,2.79-13.59C387.11,112.35,381.4,111.85,376.31,112.3z"/>
	<path fill="#010101" d="M458.41,127.49c1.79-0.36,3.729-1.54,5.56-0.71c2.44,0.53,3.931,2.68,5.54,4.4
		c1.851,2.85,3.311,7.11,0.521,9.9c-3.48,2.99-8.48,2.72-12.79,2.76c0.569,3.21,2.49,6.25,2.35,9.5c-0.68-0.03-2.06-0.09-2.75-0.12
		c-1.76-5.36-5.54-10.27-5.57-16.02C453.31,133.83,454.26,128.96,458.41,127.49 M459.35,130.58c-2.819,1.99-4.729,5.61-4.489,9.09
		c0.79-0.14,2.39-0.43,3.18-0.57c2.94,2.77,7.02,1.27,10.22-0.22c0.8-3.74-1.63-7.9-5.16-9.34
		C461.8,129.69,460.55,130.03,459.35,130.58z"/>
	<path fill="#010101" d="M420.37,134.64c0.56-0.09,1.67-0.27,2.22-0.36c-0.09,1.18,0.65,3.5-1.38,3.33
		c-2.51,0.75-5.16,1.07-7.6,1.99c-1.21,1.78-0.24,4.04,0.64,5.77c1.84,3.66,1.58,7.87,2.86,11.68l-0.32,0.83
		c-0.521,0.19-1.55,0.58-2.07,0.78c-1.529-1.85-1.35-4.45-1.76-6.69c-0.95-3.93-2.97-7.6-3.14-11.7c-3.03,0.19-7.24,1.66-9.19-1.45
		l0.09-0.91c2.96-1.03,6.24,0.18,9.21-0.96C413.5,136.63,416.92,135.54,420.37,134.64z"/>
	<path fill="#010101" d="M433.31,135.34c3.551-0.66,7.29-0.11,10.45,1.66c3.271,2.79,6.86,6.33,6.54,11
		c0.44,4.03-2.18,7.61-5.25,9.92c-2.67,0.55-5.359,0.06-7.96-0.54c-3.89-0.26-7.979-0.9-11.149-3.36
		c-3.011-3.59-1.33-8.54,0.829-12.1c1.4-1.69,2.57-3.54,3.57-5.49C431.29,135.97,432.28,135.61,433.31,135.34 M435.49,138.53
		c-2.42,1.06-4.99,2.41-6.07,4.99c-1.01,2.22-2.42,4.57-2.04,7.1c1.62,2.02,4.2,2.74,6.601,3.37c3.59,0.09,7.18,1.5,10.77,0.6
		c2.05-3.09,3.72-7.45,1.32-10.8C444.07,140.19,439.68,137.3,435.49,138.53z"/>
	<path fill="#010101" d="M387,136.07c4.44-0.76,9.3,1.82,11.37,5.84l-0.44,0.95c-3.439,0.96-5.37-4.15-8.88-3.78
		c-1.42-0.13-2.8,0.14-3.92,1.02c-1.88,1.39-4.28,2.07-5.82,3.88c-0.17,1.71-0.6,3.77,0.61,5.22c5.23,0.43,10.51-0.1,15.76,0.23
		c1.69,0.42,3.37,1.01,4.86,1.93c1.95,2.6,3.06,5.98,1.97,9.16c-1.729,1.52-4.13,1.36-6.25,1.79c-5.06,1.33-11.29-0.34-14.029-5.08
		c0.039-0.61,0.13-1.82,0.17-2.43c0.699,0.02,2.109,0.07,2.81,0.09c-0.22,3.06,3.05,3.74,5.32,4.54c3.08,0.8,6.09-0.6,9.149-0.8
		c0.061-1.12,0.051-2.24-0.04-3.36c-1.17-1.33-2.659-2.83-4.56-2.76c-5.061-0.09-10.12,0.08-15.18-0.03
		c-1.53-0.63-3.351-1.41-3.91-3.11c-0.24-2.43-0.36-5.14,1.25-7.16C379.74,139.22,383.2,137.01,387,136.07z"/>
	<path fill="#010101" d="M479.4,166.23c1.149-0.66,2.14-0.47,2.979,0.58c0.44,2.78,1.271,5.46,1.9,8.19c-0.36,1.67-1,3.28-0.87,5.02
		c0.04,2.98-1.5,5.93-3.601,7.95c-4.55,2.33-10.649-0.42-13.01-4.72c-0.01-4.15-0.05-8.31,0.04-12.47c0.67,0.01,1.99,0.03,2.66,0.03
		c0.44,3.4,0.28,6.82,0.28,10.23c-0.101,0.98,0.2,1.92,0.739,2.72c2.24,1.02,4.521,2.5,7.101,1.85c3.51-2.5,2.16-7.01,3.51-10.52
		C480.63,172.12,479.15,169.31,479.4,166.23z"/>
	<path fill="#010101" d="M443,166.4c1.13,0.49,2.32,1.85,1.54,3.12c-1.31,3.42-4.18,5.88-5.85,9.08
		c1.199,3.67-0.171,7.29-0.41,10.98c-1.09,0.89-2.21-0.04-2.931-0.89c-0.569-2.34,1.23-4.48,0.74-6.84
		c-0.939-2.75-4.42-2.74-6.08-4.84c-2.12-1.76-3.31-4.51-2.55-7.25c2.1-0.82,2.4,1.59,3.23,2.74c1.25,1.87,2.979,3.74,5.25,4.28
		C438.52,173.47,440.58,169.79,443,166.4z"/>
	<path fill="#010101" d="M405.48,172.53c1.34-0.64,2.8-0.22,3.859,0.73c-0.33,0.49-0.979,1.48-1.31,1.97
		c-3.351,0.48-6.521,1.86-9.931,2.01c-0.109,4.55,3.2,8.54,2.341,13.17c-1.011,0.06-2.021,0.07-3.021,0.03
		c0.12-4.48-1.89-8.6-2.77-12.92c-1.561,1.17-4.33,3.13-5.5,0.38c0.5-0.56,1.51-1.66,2.01-2.22
		C395.79,173.99,400.82,174.09,405.48,172.53z"/>
	<path fill="#010101" d="M447.34,173.14c3.7,0.08,7.86-0.76,11.12,1.43c1.21,1.24,3.23,2.34,2.87,4.39
		c-0.12,1.64,0.34,3.42-0.32,4.97c-1.729,1.81-3.38,4.01-5.859,4.81c-3.511,0.23-8.021,0.55-10.37-2.63
		c-0.16-2.04-0.221-4.12,0.04-6.16C445.9,177.77,447.11,175.62,447.34,173.14 M450.35,176.4c-2.199,2.34-4,6.61-1.409,9.22
		c2.579,0.03,5.54,0.67,7.689-1.19c2.22-1.4,1.58-4.33,1.4-6.52C455.94,175.97,452.99,175.92,450.35,176.4z"/>
</g>
<g id="_x23_ffc0b6ff">
	<path fill="#FFC0B6" d="M260.67,73.47c3.48-2.38,7.9-2.47,11.92-1.91c3.131,0.91,6.311,3.91,5.51,7.45
		c-0.289,2.43-3.14,3.09-5.14,3.59c-4,0.26-8.03,0.08-12.01,0.67c-2.72-0.65-4.55-3.1-6.03-5.3c-0.189-2.13,1.92-3.97,4-3.84
		c0.12,0.65,0.359,1.95,0.48,2.6c2.43,2.7,5.82,4.97,9.609,4.75c2.52-0.07,5.721,0.15,7.34-2.2c1.32-2.33-0.629-4.94-2.709-5.96
		C269.439,71.73,264.96,73.04,260.67,73.47z"/>
</g>
<g id="_x23_ff907fff">
	<path fill="#FF907F" d="M258.92,74.13c0.439-0.16,1.311-0.5,1.75-0.66c4.29-0.43,8.77-1.74,12.971-0.15
		c2.08,1.02,4.029,3.63,2.709,5.96c-1.619,2.35-4.82,2.13-7.34,2.2c-3.789,0.22-7.18-2.05-9.609-4.75
		C259.279,76.08,259.04,74.78,258.92,74.13z"/>
</g>
<g id="_x23_ffb5a9ff">
	<path fill="#FFB5A9" d="M121.51,77.53c4.4-0.53,8.95,0.08,12.92,2.1c1.07,1.15,1.79,2.63,2.19,4.14c-0.77,2.69-3.63,3.81-6.04,4.6
		c-4.61,1.12-9.56,1.48-14.13,0.04c-1.51-1.41-3.25-3.2-2.88-5.45c0.71-0.76,1.68-2.83,2.95-2.01c0.87,2.12,1.13,4.98,3.45,6.1
		c2.98,1.48,6.51,1.07,9.66,0.41c2.57-0.6,4.11-3.06,4.98-5.37c-3.03-4.38-9.19-3.28-13.8-3.51
		C120.98,78.32,121.34,77.79,121.51,77.53z"/>
</g>
<g id="_x23_898989ff">
	<path fill="#898989" d="M90.93,77.9c4.89,1.43,10.11,1.37,14.97-0.13c-0.8,1.28-2.69,1.16-4.03,1.43
		C98.22,79.08,94.16,80.09,90.93,77.9z"/>
</g>
<g id="_x23_ff9786ff">
	<path fill="#FF9786" d="M116.52,80.95c1.25-1.01,2.55-2.4,4.29-2.37c4.61,0.23,10.77-0.87,13.8,3.51
		c-0.87,2.31-2.41,4.77-4.98,5.37c-3.15,0.66-6.68,1.07-9.66-0.41C117.65,85.93,117.39,83.07,116.52,80.95z"/>
</g>
<g id="_x23_808080ff">
	<path fill="#808080" d="M469.5,170.81c1.73,4.06-0.13,8.71,1.02,12.95c-0.539-0.8-0.84-1.74-0.739-2.72
		C469.78,177.63,469.94,174.21,469.5,170.81z"/>
</g>
<g id="_x23_060606ff">
	<path fill="#060606" d="M383.9,174.73c0.529,0.01,1.59,0.04,2.119,0.05c1.66,3.88,0.95,8.13,1.091,12.22
		c-0.07,1.95,0.93,3.78,0.75,5.75c-0.761-0.01-2.261-0.03-3.011-0.03C383.32,186.84,383.9,180.74,383.9,174.73z"/>
</g>
<g id="_x23_606060ff">
	<path fill="#606060" d="M491.17,183.18c2.061-0.93,3.59,0.56,2.65,2.64C491.73,186.75,490.24,185.27,491.17,183.18z"/>
</g>
</svg>
