<?xml version="1.0" encoding="utf-8"?>
<!-- Generator: Adobe Illustrator 18.0.0, SVG Export Plug-In . SVG Version: 6.00 Build 0)  -->
<!DOCTYPE svg PUBLIC "-//W3C//DTD SVG 1.1//EN" "http://www.w3.org/Graphics/SVG/1.1/DTD/svg11.dtd">
<svg version="1.1" id="Layer_1" xmlns="http://www.w3.org/2000/svg" xmlns:xlink="http://www.w3.org/1999/xlink" x="0px" y="0px"
	 viewBox="0 0 784 1018" enable-background="new 0 0 784 1018" xml:space="preserve">
<g id="_x23_5c5c5cff">
	<path fill="#5C5C5C" d="M449.3,51.4c-0.1-3,0-6.2,1.7-8.8c1.2,2,2.3,4,3.4,6.1c1.1-0.7,2.2-1.4,3.4-2.1c1.3,1.2,2.6,2.4,3.9,3.5
		c1.1-1.5,2.3-3,3.5-4.5c3.9,5.6,10.8,8.2,14.3,14.2c5.1-1.7,10.6-2,15.9-1.2c0.1,0.6,0.2,1.9,0.2,2.5c0.1,0.3,0.2,0.9,0.2,1.2
		c4.2,1.9,7.1-2.8,9.9-5.1c1.6,4.5,4.7,8,8.1,11.2c-3.7-1.6-7-4.2-8.1-8.3c-2.3,1.4-4.6,3.2-7.4,3.1c-3.3,0.6-5.9-1.8-9-2.4
		c-3.5-0.9-7.1-0.3-10.6,0.1c-3.7-4.2-8.9-7-12.1-11.7c-3.9,1.9-8.2,1.9-12.4,2.1c-0.6-1.3-1.2-2.7-1.8-4
		C451.3,48.6,450.3,50,449.3,51.4z"/>
	<path fill="#5C5C5C" d="M313.7,52.3c1.7-1.9,3.4-3.9,5.1-5.9c2,4.4,5.9,7.3,10.5,8.5c-0.3-2.4-0.7-4.7-1.1-7.1
		c5.4,1.3,10.8,2.7,16,5c0.6-1.6,1.1-3.2,1.7-4.7c2.9,1.9,6.3,1.9,9.6,1.5c1.6,2.6,3.8,5,7,5.5c0.3-2.2,0.5-4.4,0.8-6.6
		c3.4,1.3,6.2,3.5,8.7,6c0.9-1.2,1.7-2.4,2.7-3.5c2.7,0.1,5.3,1.1,7.9,1.8c-0.1-1-0.3-1.9-0.4-2.9l-0.1-1.1
		c5.2-1.7,10.2,1.3,14.8,3.3c-1.6,0.7-3.3,1.8-5.1,1.6c-2.3-1-4.1-3-5.9-4.6c-0.9,2.2-1.9,4.4-2.8,6.6c-2.5-1.2-5-2.4-7.5-3.6
		c-0.4,1.6-0.8,3.2-1.2,4.8c-4-0.6-6.6-3.7-9.2-6.5c-0.7,2.4-1.3,4.8-1.9,7.2c-4.9-2.5-10-4.7-15-6.7c-1.1,1.2-2.2,2.4-3.3,3.6
		c-4.8-1.3-9.6-2.9-14.6-3.6c0,2,0.1,4,0.1,6c-9-4.7-19.5-2.9-29-5.6c-0.3,1.4-0.6,2.8-0.9,4.2c-6.8,0.9-13.7,1.5-20.5,2.3
		c4.7-5.3,12.5-3.7,18.6-5.8c0.6-0.4,1.2-0.8,1.8-1.3c1.3-0.8,2.5-2.3,4.2-2C307.9,49,310.8,50.8,313.7,52.3z"/>
	<path fill="#5C5C5C" d="M404.6,47.5c1.7-0.8,3.5-1,5.3-0.7c4.9,0.5,9.9,1,14.6,2.3c-1,0.9-1.8,2.5-3.3,2.4
		C415.6,50.9,410.5,47,404.6,47.5z"/>
	<path fill="#5C5C5C" d="M442,52.9c0.5-1.6,0.3-3.6,1.4-5c1.8,0.9,2.7,2.9,4,4.4c0.4,0,1.1-0.2,1.5-0.2c-0.2,0.6-0.4,1.3-0.7,1.9
		c-3.4-0.1-7,0.8-10.3-0.4c-4.3-1.4-9.9-0.1-12.8-4.4c0.7,0,2.2-0.1,2.9-0.1l0.9,0C433.4,49.9,437.7,51.4,442,52.9z"/>
	<path fill="#5C5C5C" d="M262.2,54.9c2.6,2.9,6,4.5,9.9,4.9l0.7,0.2c1.1,0.4,2.2,0.8,3.3,1.1c1-0.9,2-1.8,2.9-2.7
		c-0.1,1.7-0.1,3.4-0.2,5.1c-5.3,0.2-10.5-0.7-15.5-2.5c-0.6,2.2-1.1,4.5-2.3,6.5c-3.2,1.7-7.6-1-10.4,1.9c-6.2,6-15.2,6.2-23,8.8
		c-4.2,1.2-7.7,4-11.2,6.6c-4.2-0.9-8.1,1.4-12.2,1.5c0.2,1.6,0.4,3.2,0.5,4.9c-2.1,0.7-4.2,1.7-6.5,1.6c-2.5-0.3-4.8-1.6-7-2.6
		c-3.3,3.6-5.2,8.2-5.2,13.1c-4.6,2.1-8.7,5.1-12.2,8.8c-3.5,4.3-9.9,4.4-12.9,9.2c-0.3-3-0.8-6-1.3-9c1.4-0.1,2.7-0.2,4.1-0.2
		c1.6,0.6,3.1,1.3,4.7,1.8l0.7-0.5c3.2-2,5.4-5.1,7.8-8c1.9-2.3,4.7-3.3,7.2-4.5c0.9-5.8,3.6-11.1,7.2-15.6c0.5,0.2,1.5,0.7,2,0.9
		c2.7,1.9,5.8,3.2,9.2,2.4c0-1.7-0.1-3.4-0.1-5.1c1.7,0,3.5,0,5.2,0.1c0.6-1.1,1.2-2.2,1.8-3.2c4.6-0.5,9-2.2,13.1-4.4
		c3.8-2.1,8.6-0.6,12.2-3.2c1.9-1.4,4.3-1.4,6.6-1.4c-0.7-1.5-1.3-3.1-1.9-4.6c0.2-0.2,0.8-0.7,1-1c2.1,1.7,4.1,3.4,6.2,5.1
		c-0.4-2.6-0.9-5.2-1.3-7.8c1.7,1.5,3.4,3,5,4.5c0.6-0.8,1.3-1.6,1.9-2.5c2.4,0.7,4.8,1.4,7.2,2C259.9,63.1,260.7,58.9,262.2,54.9z"
		/>
	<path fill="#5C5C5C" d="M520.4,66.8c6.4,2.5,7.9,10.1,11.6,15.2c1.6-4.4,2-9.9,6.6-12.4c-0.1,3.1-0.4,6.2-0.6,9.4
		c1.8-1.1,3.7-2.2,5.4-3.4c-0.4,1.4-0.7,2.8-1.2,4.1c-1.3,0.9-2.7,1.5-4.1,2.2c-0.7-1.7-1.5-3.4-2.2-5.1c-1.6,2.5-2.7,5.3-3.6,8.2
		c-0.6,0.3-1.9,0.9-2.6,1.3c-1.1-3.6-1.6-7.3-3-10.8c-0.7-1.9-3-2.3-4.5-3.2c-0.7,3.6-1,7.2-1.4,10.8c-1.2-0.9-2.5-1.8-3.4-3
		c-0.5-1.7-0.6-3.5-0.8-5.3c1.2,1.8,2.5,3.6,3.9,5.3C520.2,75.6,520,71.2,520.4,66.8z"/>
	<path fill="#5C5C5C" d="M543.8,74.8c0.6-1,1.3-2,2-3c1.2,1.9,2.4,3.7,3.6,5.6c0.6-1.7,1.2-3.4,1.8-5c1,0,2.1,0,3.1,0
		c0.1,0.6,0.4,1.7,0.6,2.2c-0.1,5.9,2.1,11.5,5.6,16.3c2.3-3.5,4.9-6.8,7.7-9.8c0.5,1.9,0.9,3.8,1.8,5.6c1.1,0,2.1-0.1,3.2-0.2
		c0.1,1.6,0.1,3.1,0.2,4.7c1.2,0.4,2.5,0.8,3.7,1.3c2.2-2.3,4.7-4.3,7.6-5.5c-0.9,2.9-1.8,5.8-2.4,8.8c1.8-1,3.6-2,5.4-3
		c0.2,0.3,0.5,1,0.7,1.4c1.2,3.8,4.4,6.1,7.6,8.2c2.8,1.7,4.4,4.6,5.8,7.5c1.1-0.5,2.3-1,3.5-1.5c0.3,0.5,1,1.7,1.3,2.2
		c-0.3,1.3-0.6,2.7-0.9,4c1.1-1,2.2-2.1,3.3-3.1c2.3-0.9,4.7-1.6,7.1-2.3c-0.4,4.2-1.9,8.2-3.9,11.9c0.5-2.9,0.9-5.9,1-8.9
		c-3.1,1.9-6.1,3.8-9.2,5.7c-1.1-2.2-2.7-4-4.6-5.4c-0.4-1.9-0.5-3.9-1.3-5.6c-1.4-2.2-3.4-3.8-5.2-5.6c-1.5,0.5-3.1,1-4.6,1.4
		c-1.2-1.4-2.3-2.8-3.5-4.2c-1.5,0.1-2.9,0.2-4.4,0.3c-0.5-1.3-1.1-2.7-1.6-4c-1.2,0.8-2.4,1.5-3.6,2.3c-1.6-2.5-2.7-5.2-3.4-8
		c-2.2-0.5-4.5-1.1-6.7-1.7c-1.9,2.6-3.7,6-7.4,6c-1.3-5.5-2.7-11-4.5-16.4c-1.7,0.9-3.5,1.8-5.2,2.7c-0.8-1.7-1.6-3.5-2.5-5.2
		C544.8,74.6,544.1,74.8,543.8,74.8z"/>
	<path fill="#5C5C5C" d="M150.1,120c0.3-0.5,1-1.6,1.3-2.1c0.7,0,2.2,0,2.9,0c0.4,0,1.3,0.1,1.7,0.1c0.7,1.1,1.4,2.2,2.1,3.3
		C155.4,121,152.7,120.4,150.1,120z"/>
	<path fill="#5C5C5C" d="M143.9,120.1c1.8,0.4,3.6,0.8,5.4,1.2c-1.7,2.9-3.3,5.9-4.9,8.8c-2.6-0.9-5.2-1.8-7.9-2.5
		c1.1,4.9,3.2,9.6,3.1,14.7c-2.3-0.5-4.6-1-6.8-1.6c2.8,2.6,6,5.6,5.4,9.8c-2-0.2-4.1-0.6-6.2-0.4c-2.1,0.5-3.8,1.9-5.6,3
		c-2.9-2-6-3.7-9.2-5c1.1,2.9,2.7,5.6,3.5,8.5c0.4,1.2-0.8,2.2-1.5,2.9c-4.7,0.5-8-5.1-12.8-3.6c1.8,3,3.3,6,4.4,9.3
		c-2.1-0.3-4.3-0.7-6.4-1.1c0.8,2.4,1.8,4.7,2.8,7c-0.4,0.5-1.2,1.5-1.5,1.9c-3-1.4-5.9-3-8.7-4.7c1.4,2.9,3.4,5.8,2.6,9.2
		c-3.2-0.7-6.2-1.9-9.1-3.4c0.7,2.2,1.3,4.3,2,6.5c-2.9,0.4-5.8,1-8.7,1.8c4,3.1,8.7,5.1,12.2,8.9c-2.1,2.5-4.4,5.3-7.7,6.2
		c-4.9,1.4-10.1,0.7-15.2,0.8c1.1,1.6,2.2,3.2,3.4,4.8c-3.5,2.5-7.1,4.8-10.9,7c0.6,1.2,1.2,2.3,1.7,3.5c-2.2,0.6-4.5,2.1-6.7,0.8
		c-4.2-2.2-9-2.4-13.6-2.8c3.3,3.5,7.4,6.2,10.1,10.2c2.6,3.9,0.1,8.7-1.3,12.6c2.5,0.9,5.2,1.7,7.4,3.4c1.6,1.4,2.2,3.6,3.1,5.4
		c-3.2,2.2-6.7,3.8-10.4,5c0,0.7,0,2,0,2.7c4.9,1.4,10.1,0.2,15,1.9c-2.5,4.7-8.1,6.2-11.9,9.6c1.3,2.6,3.6,5.4,2.7,8.6
		c-0.7,3.9-2.8,7.5-2.8,11.5c0.3,3.1,4.5,4.1,6.7,2.3c3.2-2.1,6.8-4,10.8-3.1c-0.5,6.5-6.5,9.8-10.8,13.9
		c6.9,3.7,13.7,7.8,19.4,13.1c-0.9,0.9-1.8,1.8-2.7,2.7c-0.5-0.1-1.6-0.3-2.2-0.4c-2.4,2.8-4.9,5.7-8.6,6.6c0.4-2.1,0.9-4.1,1.5-6.1
		c1-1,1.9-2,2.8-3c1.2-1.5,2.2-3.1,3.2-4.8c-2.6,1-5.1,2-7.7,3.2c-2.1-1.5-4.1-3-6.2-4.4c0.3-1.1,0.5-2.2,0.8-3.3
		c-3,1.1-6,2.1-9.1,2.9c0.8-2,1.7-4.1,2.7-6c1.7-1.2,3.5-2.2,5.3-3.3c3.6-1.9,7.3-4.1,8.6-8.2c-6.4-0.3-11.5,4-17.6,5.2
		c-0.8-4.4,0.7-8.5,2.7-12.3c-0.8-1.1-2.3-2-2.5-3.5c0.2-2.2,1-4.3,1.7-6.5c-2.2,0.5-4.3,1.1-6.5,1.6c-0.7-0.7-1.3-1.5-2-2.2
		c6.2-3.5,12.5-7.2,17.3-12.6c-3.9-0.2-8,0.3-11.6-1.3c-2.1-0.9-2.3-3.5-3.1-5.4c4.3-1.8,8.6-3.4,12.8-5.4c-1.8-1.4-3.7-2.7-5.8-3.7
		c-0.5-0.2-1.6-0.6-2.1-0.8c-4.4-1.7-8.6-3.8-12.6-6.3c3.2,0,6.3,0,9.5,0c-0.3-1.7-0.6-3.3-0.9-5c1.4-0.6,2.7-1.2,4.1-1.8
		c-1.8-3.6-5.2-5.8-8.9-7.1c-1.9-1.7-3.6-3.6-5-5.7c0.4-0.6,1.1-1.8,1.4-2.4c4.3,0.7,8.5,1.4,12.8,2.4l0.9,0.3
		c2.1,0.8,4.4,1.3,6.6,1.8c-1.3-2.3-2.8-4.4-4.3-6.5c4.5-1,8.6-3,12.6-5c-1.2-1.9-2.3-3.9-3.3-6c8.1-0.9,16.6,0.4,24.3-3
		c-1.7-2.7-4.1-4.9-7.3-5.8c-0.5-0.2-1.6-0.6-2.1-0.8c-2.7-2-4.5-4.8-6-7.8c3.8,0.6,7.5,1.1,11.3,1.2c-1.8-2.9-3.6-5.8-4.6-9.1
		c4.2,0.7,8,2.7,11.9,4.3c-1.5-3.7-3.8-7.1-6-10.4c1-0.5,2-1,3-1.5c1,0.8,1.9,1.7,2.8,2.6c2.1,2.2,4.6,4,7.7,4.7
		c-1.5-2.7-3-5.3-4.2-8.2c2.1,0.2,4.3,0.5,6.4,0.8c0.2-0.4,0.5-1.2,0.7-1.6c-2.2-2.9-4.8-6.3-2.9-10.1c4.5,1.8,8.6,5.6,13.7,4.4
		c-0.8-1.2-1.6-2.3-2.5-3.5c-0.5-0.5-1.4-1.7-1.8-2.2c-0.1-1.7-0.1-3.5-0.2-5.2c6.4,4.1,14.1,2.5,21.2,3.5c-0.6-1.9-1.4-3.8-2.9-5.2
		c-0.9-0.9-1.8-1.8-2.6-2.8c-0.2-1.2-0.4-2.4-0.6-3.6c2.9,1,5.8,2.2,8.6,3.4c-0.6-5-2.6-9.7-4-14.5c3.4,0.2,6.7,0.5,10.1,0.9
		C143.9,124.5,143.9,122.3,143.9,120.1z"/>
	<path fill="#5C5C5C" d="M609.5,126.2c0.6-1.3,1.3-2.5,1.9-3.8c2.5,2.7,5,5.5,6.9,8.7c-0.1,2.2-2,3.8-3.4,5.2
		C613.7,132.6,611.6,129.4,609.5,126.2z"/>
	<path fill="#5C5C5C" d="M623.9,136.3c3.3-1,6.8-0.6,10.2-0.5c-1.3,1.7-2.6,3.4-3.9,5.1c1.4,0.4,2.7,0.7,4.1,1
		c1.3,2.9,2.4,5.7,3.4,8.7c-2.4,1.8-4.7,3.6-7,5.5c2.8,0,5.6,0,8.3,0.2c0.1,1.7-1.2,3.1-2,4.5c2.5,0.7,5,1.5,7.5,2.4l0,0.9
		c-1,0.8-2,1.6-2.9,2.5c2.3,2.5,4.6,5,6.5,7.9c1,1.8,1.9,3.6,2.9,5.4c0.3,1.3,0.6,2.7,1,4.1c-2.6-3.2-5.4-6.3-7.5-9.9
		c-2.3-3.8-3.6-8.3-7-11.3c-2.2-2.3-5.5-3.1-8.4-4c0.5-4.3,4.3-6.6,7.6-8.8c-4.4-3.2-7.7-7.7-11.7-11.3c-5.9-0.5-9.7,5.6-15.5,6
		c-0.1-3.1,1.9-5.5,4.2-7.2c-0.2,1.1-0.4,2.1-0.6,3.2C616.6,139.1,620.1,137.4,623.9,136.3z"/>
	<path fill="#5C5C5C" d="M655.1,188.4c1.4,1.5,2.8,3,4.2,4.4l-1,0.1c-2,0.2-3.9,0.4-5.9,0.6c-0.3,0.4-0.8,1.1-1.1,1.5
		c1,0.7,2,1.4,3,2.1c2.2,1.5,4.3,3.1,6.5,4.7c2.4,2.1,4.6,4.5,6.8,6.9c-7.4-3.1-13.4-8.6-18.7-14.4c0.8-2.8,4.6-1.8,6.8-2.5
		C655.5,190.6,655.3,189.5,655.1,188.4z"/>
	<path fill="#5C5C5C" d="M378,207.8c0.5-0.4,1.6-1.2,2.1-1.6c7.8,3.3,15.1,7.5,22.3,11.7c8,4.7,15.2,10.6,22.7,16.1
		c2.5-3.3,4.1-8,8.1-9.7c3.7-1.4,5.1,3.2,6.9,5.5c0.6-2.8,1.3-5.5,2.5-8.1c4.6,3.8,5.8,9.9,8.6,14.8c-3.5-3.1-5.9-7-7.5-11.4
		c-0.5,0.5-1.1,0.9-1.6,1.4c0,2.2-0.1,4.3-0.2,6.5c-3.4-1.4-4.9-4.7-6.6-7.7c-4.9,2.3-7.6,7.1-10.6,11.3c-4.2-3.4-8-7.3-12.5-10.3
		c-5.2-3.5-10.6-6.8-16.1-9.9c-4.6-2.6-8.9-5.9-14-7.3c0.3,2,0.6,4,0.9,6c-4.2-0.5-7.7-2.9-11.4-4.7c-4,3.2-8.5,5.7-13.3,7.2
		c-4,1.3-7.3,3.8-10.2,6.7c-5.4-4.7-12.8-6.7-19.8-5c-5.8,0.7-10.3,4.8-15.6,6.8c-6.8-1.4-13-5.1-19.8-6.5c-0.6,1.7-1.1,3.3-1.7,5
		c-5.4-0.9-10.9-1.8-16.1-3.5c-0.8,2.2-1.6,4.3-2.4,6.5c-7.9,0.7-16.2-0.4-23.7,2.6c-12.3,4.1-20.6,14.6-29.9,23
		c-3.8,3.5-8.8,5.6-14,5.8c-12.8,0.6-25.7-0.5-38.5,0.1c-5.2,0.2-7.4,5.7-11,8.5c-3.8-0.1-5.8-4.4-9.2-5.5
		c-5.9,0.4-11.2,3.8-15.5,7.7c-4.4,4-7.6,9-11.7,13.3c-2.3,2.6-5.1,5.2-5.7,8.8c-1,4.9-2,9.8-3.6,14.6c1-8.3,2.1-17,6.4-24.3
		c6.2-10.9,17.1-19.1,29.5-21.3c2.9-0.5,5.4,1.1,7.9,2.3c8.6-5.8,19.3-6,29.3-6.2c7.1-0.2,14.2,0.9,21.2,0.6c3.8,0,6.5-3.1,9.1-5.4
		c10.3-9.5,21.1-19.5,34.7-24c7.1-2.5,14.7-2.9,22.2-3.3c-1-2.1-1.9-4.2-2.8-6.3c6.1-2.2,12.2,1.8,18.4,1.5c0.8-1.9,1.7-3.8,2.7-5.6
		c4.4,2.5,8.8,5.7,14,6c11.1,0.9,21.3-5.2,32.4-4.7c4.8,0.2,9,2.7,13.1,4.9c1.2-0.8,2.4-1.7,3.6-2.5c4.5-2.9,10.6-2.5,14.2-6.8
		c3.6-4.8,9.8-1,14.1,0.7C379.3,210.9,378.6,209.4,378,207.8z"/>
	<path fill="#5C5C5C" d="M664.3,214.5c0.5-0.2,1.3-0.5,1.8-0.7c2.7,2.8,4.7,6.2,7.2,9.2c2,5.7,3.7,11.4,4.8,17.3
		c1.4,6.9,2.2,14,5.5,20.4c1.5,3.6,3.6,6.8,4.8,10.5c2.4,8.2,4,16.5,6.1,24.7c-0.2,2.4-0.5,4.7-0.8,7.1c-1.1,0.1-2.3,0.3-3.4,0.4
		c1,2.1,1.9,4.2,2.8,6.3c0.2,3.3-0.1,6.6-0.7,9.8c-0.9-3.9-1.2-7.9-2-11.8c-0.7-3.6-3.3-6.4-4.8-9.7c1.5-3,5,0.2,7.1,0.9
		c-0.2-13.8-5.7-26.6-11.1-39.1c-3.1-7.5-6.6-15.1-6.9-23.3c-0.3-3.1,0.3-6.6-1.9-9.2C669.8,223.1,666.4,219.3,664.3,214.5z"/>
	<path fill="#5C5C5C" d="M458,229.4c1.5,1.5,3.8,2.8,3.8,5.2c0.3,5.4-3.5,9.8-5.5,14.5c-0.8-4-2.2-7.9-4.3-11.4
		c0.5,0.1,1.5,0.2,2.1,0.3C455.2,235.1,456.5,232.2,458,229.4z"/>
	<path fill="#5C5C5C" d="M452.4,292.6c-1-10.1-1.3-20.4,1.4-30.3c0,9.2,1.2,18.5-0.4,27.6c-0.4,2.6-1.9,4.9-3.2,7.2
		c-1.1-1.4-2.2-2.9-3.3-4.4C448.7,292.6,450.5,292.6,452.4,292.6z"/>
	<path fill="#5C5C5C" d="M451,298.1c2,2.2,4.5,4.4,5.2,7.4c0.4,2.1,0,4.2-0.2,6.2c-2.1-1.9-3.8-4.1-5.3-6.5c1.1,0.4,2.2,0.7,3.3,1.1
		C452.9,303.6,451.9,300.8,451,298.1z"/>
	<path fill="#5C5C5C" d="M199.8,313.1c5.9-1.1,11.9-2.1,17.9-1.8c-0.1,1.3-0.1,2.6-0.2,3.9c-0.7,0.1-2,0.3-2.7,0.4
		c-14-0.3-27.9,2.8-40.8,8.2c-12.3,4.9-23.3,12.5-35.4,17.7c3.2-3.9,6.9-7.4,11-10.3C164.3,320.7,182.2,316,199.8,313.1z"/>
	<path fill="#5C5C5C" d="M77.6,317.8c1.1-2.1,2.7-4,4.3-5.8c-1.4,6.2-3.9,12-6.4,17.7c1.6,2.8,3.7,5.5,4.5,8.6
		c-0.3,4.9-0.9,9.9-0.9,14.9c1.5,0,3-0.1,4.5,0.1c2,0.5,1.3,2.9,1.4,4.4c-0.3,5-1,10-0.4,15c1.3-0.4,2.5-0.8,3.8-1.2
		c2,11.1,4.2,23.1-0.8,33.8c1.4-0.1,2.8-0.2,4.2-0.2c-0.7-27,4.8-53.7,13.3-79.2c-1.2,8.1-3.5,16-5,24.1c-3.1,15.9-5.7,32-5.4,48.2
		c0.2,9.7,0.4,19.5,2.1,29.1c2.2-0.9,4.3-1.8,6.4-2.9c-2.8,6.1-6.9,11.5-11.5,16.3c1-6.3,3.2-12.6,2.2-19c-0.7-4.8-2.6-9.2-4.8-13.5
		c-2,0.6-3.9,1.3-5.9,1.8c-0.2-0.3-0.7-0.8-0.9-1c0.6-1.4,1.2-2.7,1.8-4c1.7-2.7,3.9-5.2,4.8-8.3c-0.4-3.3-2-6.4-1.6-9.8
		c0.3-4,0.4-8.2-1.1-12c-1.7,1.5-3.5,2.9-5.2,4.4c-0.2-0.3-0.5-0.7-0.6-1c2-4.7,1-9.8,0.5-14.7c0.3-0.5,0.9-1.3,1.2-1.8
		c0.4-0.6,1.2-1.9,1.6-2.5c-1.2-1-2.2-2.2-3.6-2.7c-2.6,0.3-5,1.2-7.5,1.8c-0.1-0.4-0.3-1.1-0.4-1.4c0.3-0.5,0.8-1.4,1.1-1.9
		c1.8-2,3.6-3.9,5.3-5.9c-1.3-1.1-2.5-2.2-3.8-3.3c1-2.3,2-4.6,3.1-6.9c-3-1.3-6-3.5-5.9-7.1c1.7-4,4.8-7.5,5.2-12.1
		C77.2,319.3,77.5,318.3,77.6,317.8z"/>
	<path fill="#5C5C5C" d="M458.8,314.3c6,3.6,11.7,7.6,17.8,11.1c7.5,4.7,15.4,9.5,20.7,16.9c-1-0.6-2.1-1.2-3.1-1.8
		c-4.3-3.8-8.8-7.3-13.8-10.2C472.9,325.5,464.4,321.6,458.8,314.3z"/>
	<path fill="#5C5C5C" d="M242.6,316.4c1.8-0.5,3.5-1,5.3-1.4c4,0.1,8,0.6,12,0.8c-6,1.3-12.5,1.5-18,4.5c4.8,0.8,9.6,0.2,14.3-0.7
		c5.5-1.1,11.3-1.6,16.5-3.9c3.1-0.4,6.2-0.6,9.3-0.5c0.6,0.1,1.9,0.2,2.6,0.2c1.4,0.5,2.8,1,4.1,1.6c-23.8,3.8-47.7,7.2-71.4,11.8
		c0.2-0.4,0.6-1.2,0.8-1.6c-4.8,0.2-9.7,0.3-14.5,0.4c4.5-1.8,9.2-2.9,13.9-3.5l0.8-0.1C226.8,323.1,235.6,321.5,242.6,316.4z"/>
	<path fill="#5C5C5C" d="M692.6,320.2c0.2,0.3,0.5,0.9,0.7,1.1c0.9,2.9,1.5,5.8,2.1,8.7c-2.2-1.5-4.4-3-6.6-4.5
		c0.1,2.8,0.3,5.5,0.5,8.3c-1.6-3.2-2.2-6.9-2.3-10.5c1.8,0.3,3.7,0.7,5.5,1C692.5,323,692.5,321.6,692.6,320.2z"/>
	<path fill="#5C5C5C" d="M184.6,333.6c6.3-1.3,12.2-4,18.3-5.9c-0.1,0.5-0.3,1.5-0.4,2.1c3.1,0.1,6.2,0.2,9.4,0.1
		c-10.3,2.3-20.6,4.9-30.8,7.7c-7.3,2-14.3,4.9-21.7,6.8c-0.5-4.2,4.5-5.6,7.1-7.8C172.5,335.5,178.9,336.6,184.6,333.6z"/>
	<path fill="#5C5C5C" d="M242.4,333.7c5.9-1.1,12.7-1.4,17.8,2.2c-2.9,0.3-5.8,0.5-8.7,0.4C248.7,334.6,245.6,333.7,242.4,333.7z"/>
	<path fill="#5C5C5C" d="M673,335.4c5.8,0.4,11.2,3.1,15.7,6.7c-2-0.6-4-1.1-5.9-1.7c-2.5-1-5.1-2-7.7-3
		C674.4,336.8,673.7,336.1,673,335.4z"/>
	<path fill="#5C5C5C" d="M628.7,351.6c8.6-5.9,16.8-13,27.3-15.1c-5.5,3.2-11,6.3-16.4,9.7c-6.1,3.7-11.1,8.8-16.4,13.4
		C624.7,356.7,625.8,353.4,628.7,351.6z"/>
	<path fill="#5C5C5C" d="M692.2,338.5c3.3,1.7,6.5,3.8,9.1,6.5c0.2,0.3,0.7,0.8,0.9,1.1c4.1,6.4,7.6,13,11.5,19.5
		c1.1,3.3,1.8,6.7,2.4,10.2c0.9,4.2,3.6,7.8,4.6,12c0.5,4.8,0,9.7,1,14.4c0.7,11.3,0.5,23-2.9,33.9c-1.3,4.1-0.8,8.4-1.4,12.5
		c-2.9,6.5-0.5,13.6-1.3,20.3c-0.1,1.6-1.6,2.6-2.5,3.7c-0.3-3.3-0.7-6.6-1.1-9.9c0.2-7.4,0.5-14.8,0.5-22.2c0-1.6,0.1-3.2,0.2-4.8
		c2.4-8.3,1.2-17.2,4.3-25.4c2.2,8.2-2.1,16.3-0.7,24.5c0.9-6.9,3.7-13.5,3.2-20.5c-0.5-9.4-0.6-18.8-1.1-28.2
		c-0.5-0.3-1.6-0.8-2.1-1.1c-0.4,0.8-0.8,1.6-1.2,2.5l-0.4,0.9c0.1-5.5-2.7-10.3-4.2-15.4c-1.3-8-5.9-14.9-10.5-21.4
		c1.3,0.7,2.6,1.3,3.9,1.9C701.9,347.3,696,343.8,692.2,338.5z"/>
	<path fill="#5C5C5C" d="M206.3,341.6c3.2-1.1,6.5-1.7,9.9-2.1c5.3,2.8,11.3,0.3,16.9,0c-5.9,1.9-11.8,3.7-17.8,5.5
		c-17.4,5.3-35.5,11.2-54,8.7c5.4-1.7,11.1-2.4,16.6-3.8C187.4,347.4,196.9,344.7,206.3,341.6z"/>
	<path fill="#5C5C5C" d="M657.7,350.9c6.6-1,13.5-2.7,20.1-0.7c4.1,1.1,7.6,3.7,10.6,6.6c-7.2-3.2-15.1-5.3-23-4.3
		c-7.2,0.6-13.7,4.1-20.2,7C648.8,355.8,653.3,353.3,657.7,350.9z"/>
	<path fill="#5C5C5C" d="M230.6,352.4c14,4.6,28.8-1.4,43,1.8c2.3,0.8,3.1,3.5,4.4,5.4c-13.7-2.2-27.6-3.1-41.4-4.3
		c-1.8-0.1-3.6-0.2-5.4,0.1c-2.2,2.2-3.5,5.3-5.5,7.7c-2.1,2.7-5.1,4.4-7.4,6.9c-0.6,1.6-0.4,3.4-0.5,5.1c0.1,4.6-0.4,9.2,0.2,13.8
		c0.4,3.4,2.9,5.9,5,8.4c1.2-4.2,2.3-8.4,4.3-12.3c4.1,0.5,7.6-1.7,11.2-3.3c5.5,1.5,11,2.3,16.7,2.3c0.6,1.4,1.1,2.9,1.7,4.4
		c-5.2-3.1-11.6-2.4-17.4-2.5c-3.6,0.3-7.7-0.1-10.7,2.2c-2.2,4.3-2.2,9.5-4,14c-2.1-0.9-4.1-2.2-5.6-4c-0.2-0.3-0.5-0.9-0.7-1.2
		c-3.1-6.1-5-12.8-5.6-19.6c1.3-0.3,2.7-0.6,4-0.9c0-4.1-0.9-9.1,2.5-12.2C223.3,360.6,227.7,357.1,230.6,352.4z"/>
	<path fill="#5C5C5C" d="M610.8,362.6c3.1-3,7.1-4.8,11.1-6.2c-0.9,2-1.8,4.1-2.7,6.1c0.6-0.1,1.8-0.4,2.4-0.5
		c-1.7,2.8-3.4,5.6-4.8,8.6c-1.8,3.9-2.5,8.2-5,11.7c-0.4-4.2-0.3-8.5-0.3-12.7c-5.5,0.7-6.7,6.7-8.7,10.8c-1.5-0.4-2.9-0.9-4.4-0.9
		c-1.9,0.7-3.6,1.9-5.3,3.1c1.6-3.2,3.2-6.4,5.2-9.3c1.5,0.7,2.9,1.4,4.4,2.2C604.8,370.7,607,366,610.8,362.6z"/>
	<path fill="#5C5C5C" d="M304.8,362.5c5-0.1,9.1,3,13.3,5.2c0.5-1.3,1.1-2.6,1.6-3.9c2,0.9,4,2.3,6.3,2.2c3-0.1,5.9-0.8,8.9-0.9
		c4.5,0.5,9,1.6,13.3,3.2c8.7,3.9,17.5,7.9,27.1,8.5c3.2,0.5,6.5,1.1,9.5,2.2c1,0.9,1.9,1.8,2.9,2.7c-19.4-2.2-37.4-11-56.8-13
		c-4.4-0.5-8.7,0.8-13.1,0.4C313,368,309,364.9,304.8,362.5z"/>
	<path fill="#5C5C5C" d="M196.5,378.5c0.8-5.1,2.1-10.3,5.4-14.4c1.9,6-1.1,11.9-0.8,17.9c-0.1,1.7-0.1,3.5-0.2,5.3
		c-0.6,1.5-1.4,2.9-2,4.3c-0.1-4.2,0.2-8.3,0.9-12.5C198.7,378.9,197.6,378.7,196.5,378.5z"/>
	<path fill="#5C5C5C" d="M649.1,367c4.9-1.6,10.2-1.6,15.3-1.1c9.4,1.2,18.8,4.1,26.8,9.3c4.5,2.8,8.2,6.6,11.9,10.3
		c0.1-0.5,0.2-1.6,0.3-2.1c5.8,14.7,5.8,30.9,6.5,46.5c-0.2,3.5-0.3,7.1-0.6,10.6c-1.2,9.1-1.9,18.4-5.3,27
		c0.1-4.1,0.5-8.1,0.6-12.2c-1.6,2.1-2.8,4.6-3.5,7.2c1.4-12.3,0.8-25-4-36.6c-1.8-5.4-3.8-10.7-4.6-16.4c0-0.5,0-1.6,0-2.1
		c1.9,3.2,3.3,6.7,4.7,10.1c-0.4-6.5-2.6-12.6-4.9-18.6c-1.1-2.8-2.8-5.4-4.8-7.7c0.8,5.1,4.1,9.5,4.7,14.7
		c-4.1-5.9-7.8-12.6-6.6-20c2.1,1.3,4.1,2.8,5.2,5c6.3,10.7,6.5,23.7,12.9,34.4c1.2-12.6-1.3-25.2-4.1-37.4c-0.8-3-1.4-6.6-4.5-8
		c-7.8-4-15.5-8.4-24-10.7C664.1,367.2,656.6,366.6,649.1,367 M703.1,436.7c0,3-0.4,6.5,2.2,8.7c0.2-2.9,0.3-5.8,0.3-8.7
		C705,436.7,703.8,436.7,703.1,436.7z"/>
	<path fill="#5C5C5C" d="M144.1,372.2c5.7-3.7,13.6-5.6,19.6-1.5C157.2,370.6,150.7,371.9,144.1,372.2z"/>
	<path fill="#5C5C5C" d="M634.6,376.2c3.4-3.3,7.2-6.4,11.7-8c-4.7,5.6-12.1,9.4-13.8,17c-1.5-1.7-3.1-3.4-4.8-5
		c2-4.1,4.7-8,8.3-10.9C635.5,371.6,635.1,373.9,634.6,376.2z"/>
	<path fill="#5C5C5C" d="M184,380c1-2.9,2.6-5.7,4.3-8.2c1.8,7.9-0.5,15.9-4.3,22.8C183.7,389.7,183.4,384.8,184,380z"/>
	<path fill="#5C5C5C" d="M511.6,374.1c5.3,12.7,8.8,26.1,12.5,39.4c-3-4.5-5.6-9.3-7.7-14.3c-0.3-2.5-0.4-5.1-1-7.6
		C514.5,385.7,512.9,379.9,511.6,374.1z"/>
	<path fill="#5C5C5C" d="M140.4,382.1c2.3-1.3,4.4-3.1,7-3.8c3.7,1,6.7,3.6,10.4,4.6c3.2,1,6.4,0,9.6-0.6c1.5,5.7,3.3,11.3,4.7,17
		c0.4,2.3,1.2,4.9-0.1,7.1c-2.8,5-6.7,9.4-10.4,13.8c2.5,5.8,6.3,10.8,9.7,16c-6-0.4-8-6.9-11.2-11c0.1-2.5-0.1-5.1-0.2-7.6
		c4.3-3.7,6.6-9.3,11.5-12.3c-1.1-6.4-2.7-12.8-4.2-19.1c-6-0.8-11.6-3-17.5-4.1c-5.6-1.1-8.9,4.6-12.8,7.6
		c-4.6,3.5-6.7,9.3-11.5,12.5c-3.6,2.7-7.7,4.7-11.8,6.6c6-5.6,12.9-10.2,18.4-16.3c2.6-2.9,4.4-6.3,6.4-9.6
		C139,382.6,139.9,382.2,140.4,382.1z"/>
	<path fill="#5C5C5C" d="M197.9,410.8c-3.5-10-4.3-21.2-1.6-31.5c0.2,4,0.5,8,0.4,12c0,3.7-0.5,7.5,1.2,10.9c0.4-1.5,0.7-2.9,1-4.4
		C199,402.2,199.5,406.7,197.9,410.8z"/>
	<path fill="#5C5C5C" d="M389.5,382.6c5.9,1.7,11,5.2,16.5,7.8c2,1,3.9,2.3,5.7,3.7c3.2,2.6,6.5,5.2,9.9,7.7
		c-3.2,1.3-6.3,2.9-9.3,4.7c2,1.7,5.8,2.6,5.2,5.8c-0.7,6.3-4.3,12-9.2,15.9c-9.3,6.9-21.1,9.7-29.7,17.6c14.5,1,27.5-6.7,41.7-7.8
		c4.7-0.5,9.3,0.9,13.3,3.3c-4.4,1.5-9,2.5-13.5,3.7c-6.3,1.3-12.5,2.6-18.8,3.9c-23.8,4.2-48.3,8.2-72.4,4.5
		c13.1-2.2,26.4-2,39.6-2.7c4.7-0.2,9.4,0.2,14-0.3c-5.1-1.1-10.4-1.6-15.5-2.9c-12.3-2.7-24.3-7.3-37.1-7.7c0.9,1,1.9,2,2.8,3.1
		c-2.3,1.3-4.7,2.8-7.4,2.6c-5.9-0.3-11.6-2-17.5-1.5c6.2-2.6,13-2.1,19.5-2.1c-8.6-5.5-19.5-5.3-28.9-2.4
		c-6.3,1.7-11.7,5.5-17.8,7.6c3.5-7.7,11.4-12.5,19.6-13.6c17.7-2.4,35,3,51.8,7.7c5.4,1.4,10.6,3.7,16.2,4c4-2,7-5.5,10.7-7.9
		c11-7.4,23.7-13.1,32-23.9c-6.1-0.7-12,0.8-17.8,2.5c-4.2,1.4-8.3-0.6-12.3-1.7c-11.7-3.5-23.9-4.8-36-6.3
		c-16.8-2-33.7-3.4-50.3-6.5c-11.7-2.4-23.8-4.7-34-11.2c9.9,2.3,19.6,5.3,29.6,7.1c19.9,4,40.1,5.2,60,9.2
		c13.6,2.7,27.4,5.8,41.4,5.6c5.9,0.1,11.9-0.7,17.6-2.5c-1.6-1.5-3.1-2.9-4.7-4.3c3.6-0.9,6-3.6,7.7-6.7
		C406.8,390.5,395.8,389.7,389.5,382.6 M399.6,426.4c-6.8,3.8-14.3,7.2-18.9,13.7c7.4-2.4,14.6-5.5,21.2-9.6
		c3.8-2.5,7.4-5.8,8.2-10.5C406.5,422,403.2,424.5,399.6,426.4z"/>
	<path fill="#5C5C5C" d="M582.3,387.8c1.9-2.1,4.9-1.9,7.5-2.1c-9.6,8.5-18.2,18.4-23.7,30c-3.9,8.7-6.8,17.9-7.2,27.5
		c-0.3,1.3-0.6,2.6-1,3.9c-3.2,0.2-7,1.5-9.7-0.9c-4.2-3.7-6.3-9.1-10.2-12.9c-2.3-2.2-5.7-2.2-8.6-2.9c-0.2-1.3-0.5-2.5-0.7-3.8
		c2.9-0.1,6.5-0.9,8.8,1.5c4.8,4.7,5.8,12.2,11.6,16.1c2.6-1.6,5.2-3.1,8-4.3c1.7-6.4,3-12.9,5.3-19.2
		C566.5,408.6,572.9,396.8,582.3,387.8z"/>
	<path fill="#5C5C5C" d="M633.7,386.3c4.6,1.3,10,1.5,13.2,5.6c-7.1,1.1-14.1-1.6-21.1-1.1c-2.4,2.2-3.9,5.1-5.6,7.9
		c-0.6,1-1.2,2-1.7,3c-2.9,2.9-5.5,7.2-10.1,7.3c3.4-6.2,6.1-13,11.2-18.1c0.5,1.1,1.1,2.1,1.7,3.2c0.8-1.5,1.7-3,2.5-4.4
		c4.2-0.3,8.5-0.3,12.7-0.4C635.6,388.4,634.6,387.4,633.7,386.3z"/>
	<path fill="#5C5C5C" d="M176.8,395.3c0.6-1.5,1.2-3,1.9-4.4c1.1,2.4,2.2,4.8,3.3,7.3l0.1,0.8c0.2,4.6-0.2,9.3,0.5,13.9
		c1,7.9,6.5,14.7,5.9,22.9c-4.3-5.1-7-11.4-9.2-17.7c-2.2-6-1.6-12.4-2.1-18.7C177,398,176.9,396.7,176.8,395.3z"/>
	<path fill="#5C5C5C" d="M418.5,426c8.4-7,16.6-14.1,23.9-22.3c-2.5,10.3-9.5,19.3-18.6,24.6c-3.2,1.9-6.8,2.8-10.5,3.3
		C414.7,429.5,416.5,427.6,418.5,426z"/>
	<path fill="#5C5C5C" d="M637.5,440.4c-9.8-7.6-14.1-21.1-11-33.1c1.1,0.7,2.3,1.5,3.4,2.3c7,6.5,15.5,11.2,24.3,14.8
		c-6.4,3.2-13.5,0.8-19.7-1.6c0.3,2.8,0.2,5.8,1.7,8.3c4.7,8,14.9,10.7,19.2,19C648.8,448.3,643,444.5,637.5,440.4 M630.3,429.9
		c0.1-5.2,0.9-10.2,1.7-15.3c-0.6-0.4-1.8-1.2-2.3-1.6C629.4,418.6,628.4,424.5,630.3,429.9z"/>
	<path fill="#5C5C5C" d="M105.2,413.5c1.9-1,3.7-2,5.6-3.1c-2.6,2.5-4.3,5.6-5.6,8.9C105.2,417.4,105.2,415.5,105.2,413.5z"/>
	<path fill="#5C5C5C" d="M155.1,422.1c1.6-1.3,3,0.2,3.9,1.5c-6.4,2.1-11.6,6.6-16.8,10.6c-17.1,13.2-30.7,30.2-41.8,48.6
		c-3.1,5.3-7.4,10.6-6.9,17.2c-0.2,8.8,3.6,17.6,10.7,23c5.7-5.4,10.4-11.8,15.2-18c-1.9,0.2-3.9,0.4-5.8,0.6
		c4.5-13.4,17.5-21.5,30.5-25.2c10-2.4,21.4-3,30.6,2.2c-3.7,0.3-7.3,0.4-11,0.5c6.1,2.4,11.9,5.4,18,7.7c5.5,2.1,11.3,2.4,17,3.2
		c-3,1.9-6.4,3.2-10,3.3c-8.5,0.6-17.1-0.2-25.7,0.5c-8.1,0.7-16.2,1.4-24.1,3.5c-8.2,2-16.1,6.6-20.5,14.1c2,3.3,4.2,6.8,7.5,9
		c4.7,3.4,10.9,3.7,16.5,3.1c16.1-1.6,30.2-11.5,46.4-12c-8.8,7.3-20,10.3-30.4,14.5c4.2,0.4,8.5,0.1,12.4-1.4
		c9.5-3.5,17.7-9.5,26.8-13.6c2.5-1.3,5.6-2.2,6.5-5.2c3.8-9.8,3.6-20.9,0.8-30.9c-0.6-3-3.7-4.1-6-5.6c-2.6-1.5-4.5-3.8-7.1-5.2
		c-3.5-1.5-7.2-2.3-10.6-4c-6.8-3.4-13.2-7.8-20.4-10.4c-4.4-1.6-9.3-1.1-13.7-2.6c-2.3-0.7-3.5-3-4.8-4.9c7.7-1.7,15.4,0.7,22,4.7
		c-0.1-1.6-0.2-3.1-0.2-4.7c12.2,5.5,24.1,12,34.9,20c-0.1-1.6-0.2-3.3-0.3-4.9c4.5,2.4,7.9,6.5,9.5,11.4
		c4.4,12.8,2.9,26.8-0.9,39.6c-4.3,1.5-8.4,4-11,7.9c3.9-1,7.2-3.5,10.6-5.4c0.5,10.8-0.8,21.6-3.9,32c-2.5,8.9-6.5,17.2-8.5,26.2
		c-1.6,4.4-3,8.8-4,13.3c-1.6,5.4-2.1,11.1-2.5,16.7c-4.2-12.3,0.7-25,4.9-36.6c5.7-14.9,11.6-30.5,10.2-46.7
		c-1.6,1.5-3.1,3.1-4.5,4.8c-1.3,1.5-2.5,3-3.8,4.5c-8.3,7.3-17,15.1-28.2,17.4c8.1-7.9,20-11.7,26-21.7c-6,2.7-11.8,6.1-18.4,7.1
		c2.6-1.5,5-3.2,7.3-5c-5.5,1.1-10.8,2.8-16.2,4.5c-5.2,1.6-10.5,2.9-15.1,5.9c0.5,0.1,1.5,0.3,2,0.3c-7,2.4-14.3,4.2-20.6,8.2
		c-4,2.4-7,6-10.4,9.1c2.5-7.9,8.9-14.4,16.7-17.1c2.1-0.7,4.1-1.6,6-2.8c-5.2-1.8-11-1.2-15.8,1.5c-7.3,3.9-13.3,9.9-17.9,16.7
		c-4.4,6.5-5.5,14.5-6.7,22.1c-2.1,13.4-1.6,26.9-1.4,40.4c-2.1-10-0.9-20.1-1.1-30.2c-2.4,13.2-2.7,27-0.2,40.2
		c0.6,3,1.1,6.1,1.5,9.2l-1-0.5c-2-4.8-3.5-9.8-4.9-14.9c0.2-4.7,0.2-9.3,0-14c0.5-4.3,0.7-8.6,1.3-12.9c2.4-11.5,2.1-23.3,2.9-34.9
		c0.2-6.1-0.2-12.3,0.6-18.4c1.2,1.2,2.4,2.4,3.5,3.6c1.2-3.9-0.9-7.4-3.1-10.5c-0.5-3.3-0.2-7.1-2.6-9.8c-3.1-3.7-6.8-6.9-10.5-9.9
		c-0.3-1.9-0.4-3.8-0.5-5.7c0-3.1,0.1-6.3-0.6-9.3c-1.4-6.6-5.7-12.3-6.1-19.1c6,4,4.2,12.6,9.4,17.4c4.2-7,7.7-14.5,12.3-21.3
		C115.9,453.5,133.6,435,155.1,422.1 M170.2,456.1c6,2,11.1,6.7,17.7,6.6C183,459.1,176.8,453,170.2,456.1 M142,484
		c4.9-0.7,9.8-0.6,14.7-0.9c2.3,0,3.8-1.8,5.3-3.3C155.2,479.8,147.7,479.9,142,484 M138.9,489.6c-6.2,2.6-12,7.7-13.2,14.6
		c3.9-1.9,7.5-4.3,11.6-5.6c14.5-4.5,29.9-3.3,44.8-5.7c-3-2.6-6.8-3.7-10.6-4.7C160.8,485.6,149.2,485.4,138.9,489.6 M89.5,502.5
		c-0.6,4.4,0.7,8.8,3.7,12.1C93.5,510.3,93.4,505.2,89.5,502.5 M108.8,522.1c3.6-0.4,7.3-2.6,7-6.8
		C112.2,516,109.5,518.5,108.8,522.1 M106.7,533.8c2.9-1.7,6-3,8.6-5.3c1-1.3,2.5-3.1,1.4-4.7C111.2,521.8,103,527.8,106.7,533.8
		 M112.8,533.6c4.4-1.2,8.7-2.8,12.4-5.6c-1.4-1.2-2.8-2.5-4.2-3.7C118.5,527.5,115.7,530.6,112.8,533.6 M146.6,529.2
		c-5.2,0.8-10.6,0.9-15.8,2c5,1.4,10.2,0.6,15.2-0.1c4.5-0.7,9.2-1.4,13-4C154.8,527.5,150.7,528.6,146.6,529.2 M108,537
		c-0.9,4.7-2.7,9.3-1.9,14.2c2.3-2.3,3.5-5.4,5.8-7.7c3.9-4.1,8.7-7.3,12.2-11.8C118.4,532.5,114,537.1,108,537z"/>
	<path fill="#5C5C5C" d="M686.2,444.2c0.2-4.6-0.2-9.7,2.5-13.8c-0.4,8.5-0.9,17.1,0.4,25.5C686,452.8,686.4,448.2,686.2,444.2z"/>
	<path fill="#5C5C5C" d="M615.4,450.9c-0.3-5.4-3.1-11-0.9-16.2c1.8,3.9,2.2,8.2,2.9,12.3c-0.5-0.1-1.4-0.4-1.9-0.5
		C615.4,448,615.3,449.4,615.4,450.9z"/>
	<path fill="#5C5C5C" d="M426,448.2c12.6-0.3,26.1-5.8,38.1,0.4c-3.4,0.5-6.7,0.9-10.1,1.4c-5,0.8-10.3,0.3-15,2.5
		c-3.5,0.9-7.2,0.9-10.8,1.3c-4.8,0.3-9.7,0.5-14.3-1c1.7-1.4,3.6-2.6,5.7-3.4C421.8,448.8,423.9,448.4,426,448.2 M431.7,450.5
		c6.1,0.9,11.8-1.5,17.7-2C443.6,446.9,437.1,447.5,431.7,450.5z"/>
	<path fill="#5C5C5C" d="M239.5,445.7c2.2,0.6,4.8,1.6,5,4.2c1.8,9.9,3,20,2.3,30.1c-2.3-2.7-3.5-6.2-4.6-9.5
		C239.6,462.5,238.6,454,239.5,445.7z"/>
	<path fill="#5C5C5C" d="M283,462.6c5-5.6,10.2-11.4,17.1-14.7c-4.8,5.6-9,11.7-13.5,17.6c9.6-5,19.9-9,30.8-10
		c-5.5,3.9-11.9,6.3-18,9.1c-6.8,3.1-14.1,5.4-21.6,5.3C279.4,467.4,281.1,464.9,283,462.6z"/>
	<path fill="#5C5C5C" d="M617.5,447.7c0.9,0.5,1.8,1,2.7,1.6c1.8,1.4,3.3,3.3,4.8,5c8.7,10.2,12.1,23.8,12.6,37
		c0.1,5.8-1,11.6-1.7,17.3c1.3,0.1,2.7,0.2,4,0.4c-1.7,1.3-3.7,2.2-5.6,3.2c-1.6-2.4-3.2-4.7-5-6.8c0.5-3.7,0.7-7.5,0.9-11.3
		c0.2-6.8-0.5-13.6-2.9-20c-0.4-1.7-0.6-3.3-1-5c3.8,4.5,5.9,10,9,14.9c-0.1-4.5-0.8-9.2-3.1-13.1
		C627.8,462.7,618.8,457.4,617.5,447.7z"/>
	<path fill="#5C5C5C" d="M83.1,449.4c0.4-0.2,1.2-0.5,1.6-0.7c-1,2.6-2,5.3-2.9,8c-0.1-1.4-0.2-2.8-0.3-4.2
		C82.1,451.5,82.6,450.4,83.1,449.4z"/>
	<path fill="#5C5C5C" d="M80.8,476.6c-2.7-5.4-2-11.5,0.1-16.9C80.1,465.3,82.2,470.9,80.8,476.6z"/>
	<path fill="#5C5C5C" d="M350.3,473.2c9.9-7.6,21.9-14.1,34.8-12.3c-1.2,1.6-2.6,3.2-4.6,4c-8.2,3.9-17.5,5.3-25.1,10.6
		c-9.6,6.8-18,15.5-29.2,19.8c-6.7,2.8-14.1,2.8-21.2,1.8c-12-2.6-22-10.2-31.8-17.2c13.8,2,26.1,10.7,40.4,10.3
		C327.8,490.5,339.6,481.3,350.3,473.2z"/>
	<path fill="#5C5C5C" d="M679.3,478c3.7-1.9,6.6-4.9,9.6-7.7c-4,9.4-13.6,14.4-22.6,18c-4.2,2-9.2,2.9-12.3,6.6
		c-1.2,3-2.1,6.1-3.9,8.7c-4.2,5.7-8.7,11.5-15.2,14.8c3.5-4.2,7.8-7.7,11.2-12c2.4-2.9,3.4-6.6,4.2-10.3c-2.4,3.7-4.5,7.7-7.9,10.6
		c0.2-0.4,0.5-1.1,0.6-1.5c0.5-1.1,0.9-2.3,1.4-3.4c2.4-5.7,6.3-10.7,11.5-14C663.1,483.4,671.9,482.3,679.3,478z"/>
	<path fill="#5C5C5C" d="M373,472.3c10.7-3.7,22-0.4,32.8,0.5c4.7,0.4,9.4-0.3,14.1,0c-7.1,5.3-16.5,5.5-25,5.4
		C387.4,477.8,379.4,476.8,373,472.3 M383.7,473.4c5.8,1.8,13.3,5.9,18.7,1C396.2,473.2,389.9,473.2,383.7,473.4z"/>
	<path fill="#5C5C5C" d="M688.8,485.6c4.4-4.1,6.2-9.9,8.4-15.3l0.6,0.9c1,6.4-5.5,10.4-6.3,16.5c5.7-4.1,9-10.7,12.2-16.8
		c0.1,1.4,0.1,2.7,0.2,4.1c-1.8,4-4,8-6.6,11.5c-6,4.3-11.9,8.9-18.4,12.4C681.4,494,685.5,490.1,688.8,485.6z"/>
	<path fill="#5C5C5C" d="M713.4,475.7c0.6-0.1,1.8-0.3,2.4-0.4c0.1,2.9,0.5,5.8,1.4,8.7c1,5.2-0.1,10.5-1.1,15.6
		c-1.1,5.1-2.1,10.5-5.3,14.8c-3.3,3.8-5.9,8.2-8.6,12.5c-0.3-0.5-0.9-1.4-1.2-1.9c-4.3,7.7-8.1,15.8-14.4,22.1
		c2.1-5.7,4.3-11.3,7.6-16.3c6.5-7.8,12-16.5,15.5-26.1c1.7-3.6,3.2-7.4,3.1-11.4C712.7,487.4,713.4,481.6,713.4,475.7z"/>
	<path fill="#5C5C5C" d="M262.4,495.9c4.1,1.3,8,3.3,11.8,5.2c2.6,1.4,5.4,2.7,7.7,4.7c3.2,2.6,6.6,5.1,9.2,8.3
		c-4.1-1.1-8.1-2.8-11.9-4.7c-3.7-2.2-7.8-3.6-11.7-5.5C265,501.7,263.4,498.9,262.4,495.9z"/>
	<path fill="#5C5C5C" d="M311.5,512.3c8.6-0.1,16.1,4.3,24,7c0-1.1-0.1-2.2-0.1-3.2c1.8,0.5,3.8,0.8,5.1,2.2
		c3.6,3.7,5.9,8.5,7.7,13.3c-7.7-3.4-15.2-7-22.8-10.6C320.6,518.5,315.7,515.9,311.5,512.3z"/>
	<path fill="#5C5C5C" d="M692.3,547.8c2.2-5.9,4-12,7.6-17.1c-0.5,2.6-1,5.3-1.6,7.9c-6.7,9.5-6.9,21.6-11,32.2
		c-2.9,3.7-2.2,8.5-2.4,12.9c-0.9-0.1-2.6-0.2-3.5-0.3C684.6,571.4,687.9,559.4,692.3,547.8z"/>
	<path fill="#5C5C5C" d="M323.1,548.4c3.3-0.9,6.4-2.6,9.6-3.7c3.3,0.9,5.6,3.8,8.3,5.7c14.8,11.3,30.9,20.8,45.4,32.6
		c10.7,8.5,20.5,18.5,27.1,30.6c6.5,11.7,9.2,25.2,8.3,38.5c-4.4-10.3-8.6-20.6-14.8-30c-16.7-27-41.6-47.9-68.5-64.3
		C333.4,554.5,328.2,551.5,323.1,548.4 M337.4,551.1c0.5,0.8,1.1,1.5,1.8,2.2c21.8,14.9,42.5,31.8,59.7,51.9
		c7,8.2,12.8,17.4,18.5,26.5c-4-15.1-12.9-28.6-24.2-39.2c-13.3-13.3-29.5-23.1-44.8-34.1C344.8,555.9,341.4,552.9,337.4,551.1z"/>
	<path fill="#5C5C5C" d="M287.6,555.7c1.6-0.9,3.3-1.6,5-2.4c1.4,1.3,2.7,2.7,4.4,3.7c3.9,2.3,8.8,2.1,12.6,4.6
		c3.2,2.6,5.5,6.2,7.6,9.7c4,6.4,4.7,14.9,0.8,21.5c-3.1,5-7.8,9-12.7,12.3c-15.4,10-33.1,15.6-49.5,23.4c-5.1,2.3-9.6,6.2-15.4,6.9
		c-6.8,0.8-13.8,0.2-20.5-1.6c-1.9-0.5-3.8-1.2-5.8-1.3c-6.8,0.1-13.3,4-20.1,2.2c-15.4-3.6-25.5-22.5-18.3-37
		c0.6,9.6,1.9,20.6,10.1,27c2.4-0.6,4.4-2.1,6.6-3.3c0.1,1.1,0.1,2.2,0.2,3.4c3.8,0.9,7.7,1.4,11.6,1.6c0.7,1.3,1.5,2.7,2.3,4
		c1.9-0.6,3.9-1.1,5.8-1.7c-4.9-4.7-11.9-5.8-18.2-7.3c14-1.3,26,8,39.6,8.7c5.1,0.3,9.9-1.8,14.2-4.5c-3.4-1.6-6.9-2.9-10.4-4.1
		c1-4.3,3.1-8.4,6.7-11.1c7.4-5.7,17.2-6.1,26.1-6.6c-10.8,2.3-23,6.2-28.2,16.8c4.1,0.3,8.2,0.6,12.2,1.6c-2,2.1-4.3,3.8-6.7,5.5
		c11.4-4.4,22.8-9,34.2-13.4c6.1-2.4,12.2-4.7,18-7.9c-8.5-3.3-17.8-3.4-26.8-2.8c7.4-0.8,14.9-0.4,22.3-1.8
		c6.3-1,13.3-2.3,17.8-7.3c4.5-4.5,5.1-11.7,3.2-17.5c-3.7-10.3-14.9-18.6-26.1-15.8c-2.7,0.4-5.3,0.7-8,1
		C284,560.1,285.7,557.8,287.6,555.7 M181.9,624.9c4.6,3.9,9.9,9.5,16.6,7.4c-1.4-0.9-2.9-1.6-4.4-2.2
		C189.9,628.7,186.4,625.7,181.9,624.9 M195,626.9c1.1,3.4,7,2.8,8.5-0.2C200.7,626.5,197.8,626.7,195,626.9 M223.1,633.1
		c6.3,0.2,12.5,0.2,18.8-0.1c0.5-0.8,1-1.6,1.6-2.3C236.6,630.1,229.4,630.4,223.1,633.1z"/>
	<path fill="#5C5C5C" d="M626.2,593.5c0.4-12.7,0.6-25.6,4.2-37.9c1,3.6,2,7.2,3.4,10.7c-0.9-1.1-1.9-2.1-2.8-3.1
		c-1.3,7-2.1,14.1-2.8,21.2c-0.5,6,0.2,12,2.3,17.6c0.7-7.2,2-15,7.4-20.2c8.2-8,20-10.6,30.8-13.4c0.9,16-0.2,32-2.1,47.9
		c-2.1,19.6-3.8,39.3-2.3,59c2.2-5.7,2.6-11.9,2.9-17.9c-0.2,5.3,0,10.7,0.9,16c1.9,10.8-0.4,21.7,1,32.5c0.1,1.1,0.3,2.3,0.4,3.4
		c-0.3,5.2-0.7,10.5-0.5,15.8c-3.2-11-1.6-22.6-1.9-33.9c-2.1,11.5-1.3,23.2-1.4,34.8c-2.3-7.5-2.9-15.4-3.5-23.2
		c-0.6-11.7-1.4-23.5-0.9-35.3c0.6-11,0.7-22,1.6-33c1.1-21,3.8-41.9,4-63c-10.1,0.5-20.6,4.2-27,12.3c-5.8,7.6-7.7,17.2-9.1,26.4
		c-0.6-0.5-1.3-1.1-1.9-1.6C628,603.7,626.8,598.7,626.2,593.5z"/>
	<path fill="#5C5C5C" d="M659.6,565.1c6.2-1.5,12-4.5,17.6-7.3c-10.9,10.3-26.7,12.6-41.1,11.9c-0.3-0.4-0.9-1.2-1.2-1.6
		C643.2,567.9,651.5,567.2,659.6,565.1z"/>
	<path fill="#5C5C5C" d="M451.1,571.1c2.4,2.4,4.7,4.9,6.8,7.6c5.3,6.7,10.7,13.8,12.4,22.4c-3.1-4.9-4.9-11-10.3-14
		c6.7,15.9,12.5,33.1,10.5,50.6c0-3.2-0.7-6.2-1.6-9.2c-0.2-3.8-0.8-7.5-1.6-11.2c-0.5-5.4-0.8-11-3-16.1
		C460.2,591,452.8,582.2,451.1,571.1z"/>
	<path fill="#5C5C5C" d="M670.5,628c3.1-14,6.4-27.9,10.3-41.7c0.1,3.2,0.4,6.4,0,9.6c-0.8,6-3.6,11.5-4.7,17.4
		c-0.4,2.9-0.4,5.8-1.2,8.6C673.6,624.1,672,626,670.5,628z"/>
	<path fill="#5C5C5C" d="M145.3,620.1c2.6-4.3,5.9-8.6,10.7-10.7c-0.6,5.2-4.2,9.2-6.7,13.7c-1.8,3.1-2.9,6.5-4.2,9.8
		C142,629.1,143,624,145.3,620.1z"/>
	<path fill="#5C5C5C" d="M473,609.4c0.9,3.7,1.8,7.4,3,11c0.5,9.5,2.2,19,1.4,28.6c-0.5,4.3-1.4,8.5-2.1,12.7l-1.1-0.1
		c0.2-6.4,2.6-12.7,1.6-19.1C474.3,631.5,474,620.5,473,609.4z"/>
	<path fill="#5C5C5C" d="M426.5,614c4.9,5.1,7.6,11.7,11.2,17.7c2.5,7.7,4.1,15.7,5.1,23.7c0.3,8.5-0.9,17-0.6,25.5
		c-0.3-6.6,0.1-13.4-2.2-19.7c-0.1,19.7-1.1,39.5-3.9,59c-1.6,9.5-2.9,19.1-6.7,28c-0.1-1.7-0.3-3.5-0.4-5.2
		c0.4-2.1,0.8-4.3,1.2-6.4c3.9-12.8,5.5-26.2,6.7-39.5c1-21,0.2-42.4-4.5-62.9C430.7,627.4,428.3,620.8,426.5,614z"/>
	<path fill="#5C5C5C" d="M148,646.9c2.5-8.1,8-15.2,15.5-19.1c-2.2,4.5-4.8,8.8-6.5,13.6c-3.3,9.7-4.3,20.4-1.9,30.4
		c3.2,13.4,10.3,25.5,18.2,36.7c10.5,14.4,22.7,27.3,33.6,41.4c9.7,12.6,16,27.4,22.7,41.7c4.9,11,11,21.8,13.2,33.9
		c1.2,5.9,0.8,12,0.8,18.1v0.9c-0.9,2.5-1.8,5-2.8,7.4c-1.2-9.2-2.4-18.4-4.6-27.4c-7.2-30.6-23.5-58.4-43.9-82.1
		c-5-5.6-9.7-11.5-15.4-16.4c-2.4-3.3-4.8-6.7-7.6-9.7c-8.7-9.6-15.9-20.6-19.8-33C145.9,671.6,144.3,658.8,148,646.9 M148,662.5
		c0.6,15.8,7,30.9,16.3,43.5c3.7,4.6,7.7,9.2,12.9,12.1c-3.9-5.1-8.4-9.7-11.5-15.4c-9-14.9-14-32.4-13.3-49.9
		c0.1-5,1.8-9.7,2.5-14.7C149.8,645.1,148.2,654,148,662.5z"/>
	<path fill="#5C5C5C" d="M632.2,627.7c5.7,18.4,8.7,37.7,10.2,56.9c1.4,11.8,0.5,23.7-1.1,35.4c-2.1,13.8-6.2,28-15.3,38.8
		c-0.5-2-0.8-4.1,0-6c2.5-6.5,7.4-11.9,9.2-18.7c2.5-10.2,3-20.8,3.1-31.3c0.9,1,1.8,2,2.7,3.1c0.1-8.2,1.1-17-2.9-24.6
		c-0.2,2.1-0.4,4.2-0.4,6.3c-0.7-2.9-1-5.9-1.2-8.8C635.2,661.8,632.3,644.8,632.2,627.7z"/>
	<path fill="#5C5C5C" d="M667.2,656.5c0-7.5,0.7-14.9,2-22.2c-0.3,3.8,0.4,7.5,1.3,11.2c0.1,3.7,0.1,7.4,0.1,11.1
		C669.7,656.5,668,656.5,667.2,656.5z"/>
	<path fill="#5C5C5C" d="M486.8,663.5c3.5-7.5,1.1-16.5,5.6-23.6c0.3,6.7-1,13.4-1.4,20c-1,13-2.7,26-4.4,39
		c-5,35-12.5,70.1-27.5,102.3c-4.1,8.2-7.8,16.7-13.7,23.8c3-15.4,14.9-27.6,16.5-43.4c0.6-2.5,1.1-5,1.7-7.5
		c2.3-3.9,3.4-8.3,3.8-12.8c1.6-3.5,2.7-7.2,4.1-10.7c-0.3,3.9-1.1,7.7-1.4,11.5c3.3-4.8,4.4-10.7,5.7-16.3c1.3-6,2.7-12.1,3.4-18.2
		c-1,0.7-2,1.3-3,2c0.5-4.5,1.4-9,1.9-13.5c0.3-1.5,0.7-3,1.1-4.6c3.7-11.6,5.2-23.8,5.5-35.9C485.4,671.6,486,667.5,486.8,663.5z"
		/>
	<path fill="#5C5C5C" d="M304.4,642.8c14.4-2.7,29.1-2.2,43.6-1.2c13.6,1,26.5,5.9,39,11.1c0.1,2.2,0.3,4.5,0.5,6.7
		c-9.9-0.5-19.7-2.4-29.7-2.2c-10.3,0-21.1,1.9-29.5,8.2c2,0.4,4.1,1.2,6.2,0.8c3.3-0.9,6-3.2,9.3-4.3c2.1-0.6,4.2-0.5,6.4-0.6
		c-2.6,2.2-5.4,4.2-7.5,6.9c-0.8,1.2-1.5,2.5-2.1,3.8c-1.3,2-2.7,4-4,6c-1.2-3.2-2.5-6.4-4.4-9.2c-2.7-1.7-6.2-1.8-9.1-0.7
		c-3.4,1.7-4.9,5.4-6.4,8.7c-1.1,2-2.4,3.9-3.6,5.8c-1.8-3.4-3.9-6.7-6.8-9.3c-4,0-8,1.4-10.2,5c-2.8,4.3-2.3,9.6-3,14.5
		c-3.7-3.4-3.6-8.8-5.4-13.2c-3.5-0.2-7.2-0.4-10.6,0.8c-1.1,0.6-2.1,1.3-3.1,2c-4.7,4.4-3.8,11.3-4.7,17.1c-1.7-3.5-2.6-7.2-3.3-11
		c2.5-2,4.4-4.4,5.9-7.2c-13.5-0.7-26.5,3.9-39.9,4.9c-3.7,0.2-7.5,0.6-11.1,1.8c0.9,2.3,1.8,4.5,2.7,6.8
		c12.3-0.1,22.6-8.2,34.6-9.7c-2.7,1.6-5.8,2.7-8,5c-0.8,2.9-0.7,6-0.9,9c-2.1-2.6-4.1-5.3-6.1-8c-1.9,1.1-4.1,2.1-5.2,4.1
		c-1.3,2.3-1.8,5-2.5,7.5c-1.3-2.3-2.6-4.5-3.9-6.8c-1.6,0.7-3.9,0.8-4.5,2.7c-0.8,2.3-0.9,4.7-1.1,7.1c-2.5-7.3-4.7-14.8-8.1-21.8
		c-5.4-0.6-11.8,0.1-14.9,5.1c-4,6.7-5.2,14.7-8.9,21.7c6.7,1.9,13.8,2.1,20.4,4.6c3.2,1,3.9,4.7,5.2,7.4c4.1,10.4,11.6,19,20,26.1
		c-10.6-3.9-19.4-12.8-22.4-23.7c-1.1-2.6-1.2-6.2-4.2-7.4c-7.2-3-16.5-0.3-22.4-6.5c3.6-8.8,6.4-18.3,12.6-25.7
		c2.4-2.8,5.5-5.8,9.5-5.6c5.1,0.1,10.2,1,15.4,1c21.2,0.3,41.8-5.9,61.7-12.6c18.3-6.3,36.7-12.5,56-15.1c8-1.1,16-1.2,24-1.8
		c-10.3-2.2-20.5-5.2-31.1-5.5c-21.7-0.9-43.7,1.1-64.5,7.7c-7,2-12.2,7.3-18.6,10.4c-10.2,4.3-21.3-0.9-31.8,1.9
		c-6,1.5-11.3,4.9-15.5,9.4c-6.6,6.7-10.1,16-17.4,22.1c1.9-9.7,6.4-19.1,13.4-26.1c8.6-8.9,21.3-12.7,33.4-12.4
		c4.1,0,8.2,0.1,12.3-0.4c6-0.1,12.8-0.5,16.7-5.7C278.8,648.1,291.6,645.1,304.4,642.8 M306.3,669.2c1.7,1.2,3.3,2.6,5.4,3
		c3.7-1.1,7.3-3.7,8.1-7.7C315.3,666.1,310.5,667,306.3,669.2 M283.8,676.3c2,1.5,4.2,2.7,6.6,3.6c1.3-2.1,2.4-4.2,3.2-6.5
		C290.3,674.2,287,675.2,283.8,676.3z"/>
	<path fill="#5C5C5C" d="M398.2,644.3c10.3,5.1,19.6,12.9,24.5,23.5c4.2,8.7,4.5,19,2.2,28.3c-2.1-5.5-3.3-11.3-6.3-16.5
		C412.7,667.4,403.1,657.1,398.2,644.3 M403,651.9c2.8,2.7,5.9,5.1,8.2,8.2c5.7,7.6,8.7,16.7,11.8,25.5c1.6-3.3,0.4-7-0.1-10.3
		C420.6,665,413.3,655.1,403,651.9z"/>
	<path fill="#5C5C5C" d="M110.9,652.7c1.9,2.9,3.9,5.7,6.2,8.4c-0.1-1.5-0.2-3-0.5-4.5c7.2,11.2,12.2,23.6,18.4,35.4
		c15.7,30.3,31.9,60.6,53,87.5c6,7.5,12.3,15.1,20.2,20.6c-0.8-1.9-1.6-3.9-2.5-5.7c-9.6-17.7-21.6-33.9-33.4-50.2
		c-4.1-6-8.9-11.7-12.5-18c1.6-0.1,3.2-0.3,4.9-0.4c-2.5-5.9-5.2-12.5-11.3-15.6c1.5,3.6,2.8,7.2,3.7,10.9
		c-4.7-4.6-7.6-10.6-11-16.1c-1.9-3.1-3.5-6.4-4.8-9.8c8.6,7.1,15.8,15.7,23.2,24.1c7.9,9.4,15.4,19.3,21.5,30
		c-5.6-4.6-9-11.4-15.5-15c4.1,6.7,9,12.9,13.3,19.5c4.6,6.3,8.6,13,13.1,19.3c1.4,1.9,2.8,3.7,4.1,5.7c2,4.6,4.5,8.9,7,13.2
		c16.3,28.6,29,59.4,36.5,91.5c0.7,2.5,1.8,5,3.6,6.9c5.6,6.4,13,10.9,20.9,13.7c16.1,6.1,33.7,6.7,50.7,6.4
		c2.6,2.9,6.4,1.5,9.5,0.3c-2.2-0.3-4.3-0.5-6.5-0.5c14.5-1.9,29.4-3.5,42.6-10.3c16-8.2,29.5-20.3,42.3-32.7
		c3.8-3.7,7.3-8,11.9-10.9c-0.8,2.2-1.7,4.4-2.9,6.4c-9.2,15.6-22.8,28.5-38.7,37.2c-15.1,8.1-31.8,13.2-48.9,14.8
		c-14.2,1.5-28.6,0.5-42.8-0.9c8.8,6.4,20,8,28.8,14.3c2.9,1.9,4.2,5.2,5.1,8.3c-13.2-6.4-26.5-12.7-39.6-19.5
		c5.3,12.3,13.6,23,19.2,35.1c-2.5-3.3-5-6.6-7.5-9.9c2,6.1,5.2,11.7,7.7,17.5c-11.6-15.6-19.5-33.7-31.5-49.1
		c-4.6,9.7-8.6,20-14.9,28.8c1.9-6.7,4.8-13.2,6.7-19.9c-0.5,0.1-1.4,0.4-1.9,0.5c1.5-3.9,2.8-7.9,3.8-12c-0.8-0.4-1.6-0.9-2.4-1.3
		c-5.7-2.8-10.6-6.9-14.8-11.6c-4.8-8.2-10.2-16.7-10.2-26.5c1.2-2.9,1.9-6.2,0.5-9.2c-1.7-3.9-1.9-8.5-4.9-11.7
		c-0.4,6.7,3.8,12.4,4.2,18.9c-0.6-0.4-1.7-1.1-2.3-1.4c-0.4-2.2-0.9-4.4-1.6-6.6c-0.4-4.5-1.4-8.9-3.8-12.7
		c-2.9-10.8-7.4-21.2-13.5-30.6c-4.5-8.6-11.1-15.7-17.4-23c-7-7.5-13.8-15.1-21.2-22.2c-6.6-8.3-13.8-16.5-17.5-26.6
		c-1.3-3-3.4-5.5-5.4-8c-1.5-4.1-3.8-7.7-6.9-10.7c-1-1.8-1.9-3.7-2.9-5.6c-2.2-6.9-5.1-13.7-9.6-19.4c-3.9-10.3-9.1-20-14.4-29.6
		C116.3,664.3,113,658.7,110.9,652.7 M352.1,908.4c9.2-2.4,18.2-5.9,26.1-11.2c1.8-1.1,3-3,4-4.8
		C372.9,899.1,361.6,902.1,352.1,908.4 M272.3,909.4c2,5.9,5,11.5,8.4,16.7c2.7,4,5.2,8.2,8.9,11.4c-3.3-9.1-11.7-15.5-13.6-25.2
		c1.8,0.3,3.7,0.5,5.5,0.8c0.4-0.6,0.9-1.2,1.3-1.8C279.4,910.6,275.9,909.7,272.3,909.4z"/>
	<path fill="#5C5C5C" d="M390.7,657.5c9.7,0.7,19.2,6.5,22.9,15.7c1.8,3.9-2,7.3-3.6,10.6c0.5-4.3,1.1-9-1-13
		c-1.3-2.6-4-4.2-6.4-5.6c2.1,4.1,5,7.9,6.3,12.4c-10.6,4.1-21,9-32.3,11c-5.2,1.1-10.4-0.2-15-2.8c-3.8,2.9-7.8,6-12.7,6.6
		c0.8-0.6,1.7-1.1,2.5-1.7c3.3-2,6-4.9,6.5-8.9c3,1.2,5.9,2.8,8.9,4.2c3.9,1.7,8.2,1,12.2,0.2c9-2.6,17.2-7.2,26.2-9.8
		c-0.9-2.8-2.4-5.3-4.5-7.5c-0.9,3.7-2,7.5-5.1,10c-1.5-5.9-3.7-11.6-7.2-16.6C389.2,660.8,390,659.1,390.7,657.5z"/>
	<path fill="#5C5C5C" d="M468.9,660l0.2-0.9c0.3,5.1-0.1,10.1-0.5,15.2c-0.5,4.9-0.2,10-2.6,14.4c-0.7-7,2.2-13.8,1.5-20.8
		C467.8,665.3,468.2,662.6,468.9,660z"/>
	<path fill="#5C5C5C" d="M352.4,662.9c6.8,0.9,13.3-3.7,20-1.7c-2.8,3-6.6,4.5-10,6.7c-2.4,1.2-1.9,4.2-2,6.5c0,0.4,0,1.2,0,1.5
		c-1.2-0.6-2.5-1.2-3.8-1.8c-0.7-2.1-1.6-4.1-2.4-6.2C353.5,666.2,352.9,664.5,352.4,662.9z"/>
	<path fill="#5C5C5C" d="M373.3,663.6c4.1-2.2,8.7-2.4,13.2-2.8c-2,5.5-3.2,12.6-9.2,15.1C376.6,671.6,375.6,667.4,373.3,663.6z"/>
	<path fill="#5C5C5C" d="M337,686.1c3.5,1.6,6.4,4,9.5,6.3c-3.2-1-6.4-2.2-9.8-1.3C336.8,689.4,336.9,687.7,337,686.1z"/>
	<path fill="#5C5C5C" d="M461.8,708.7c0.9-6.2,1.6-12.5,3.8-18.5C466.1,696.7,464.1,702.9,461.8,708.7z"/>
	<path fill="#5C5C5C" d="M395.2,703.6c2.8-3.3,5.8-6.5,8.9-9.5c-1.8,3.8-3.8,7.6-6.3,11c-7.2,10-15.9,19.6-27.4,24.7
		c1.8-1.8,3.7-3.5,5.7-5.1c0.8-0.6,1.5-1.2,2.2-1.9c0.5-1,1-2,1.5-3c-11-4-22.5,0.3-33.1,3.4c-10,3.3-20.6,3.2-30.7,5.8
		c-7.7,2-15.4,4.1-22.6,7.3c-5,2-10.2,3.8-15.2,5.9c-1.4-0.1-2.8-0.2-4.2-0.3c6.3-5.9,11.7-12.8,19.2-17.4c-1.8,2.5-2.9,5.3-3.9,8.1
		c9.8-0.3,19.3-3,28.7-5.4c17.7-4.5,35-11.1,53.4-12c4-0.4,7.8,1.1,11.4,2.6c0.9-0.9,1.9-1.9,2.8-2.8c-3-2.3-6.1-4.4-9.6-6
		c4.2-0.1,8.5-0.1,12.6-0.9C391.4,708.1,393.3,705.6,395.2,703.6z"/>
	<path fill="#5C5C5C" d="M304.1,703.9c4-2,7.3-5.1,10.3-8.4c1.3,0.6,2.6,1.2,3.9,1.8c2.3,1,4.6,1.8,7.1,2.2
		c-3.6,2.3-7.4-0.4-10.8-1.8c-13.2,12-30.5,19.1-48.2,20.6c5.8-3.7,12.7-4.9,19.1-6.9c0.5-0.3,1.5-0.7,2-1
		C293.3,709.1,299.1,707.3,304.1,703.9z"/>
	<path fill="#5C5C5C" d="M437.8,730c2.2-10,2.5-20.2,4.3-30.3c2.4,13.1-1.4,26.1-3.4,39c-3,9.8-6.6,19.5-12.3,28
		c-2.6,3.7-4,8-6,12.1c-4.3,4.9-7.7,10.5-10.6,16.4c-2.1,4.1-4.9,7.8-7.6,11.6c-4,3.7-7.1,8.8-12.8,10c6.6-11.3,17.3-20,22.2-32.3
		c3-5.5,6-11.1,7.5-17.2c1.2-1.8,2.5-3.4,3.8-5.1c-0.4,2-0.8,4-1.2,6c0.3,0.3,1,0.8,1.4,1.1C431.1,757.5,435,743.7,437.8,730z"/>
	<path fill="#5C5C5C" d="M337.6,716.2c4.5-1.5,6.8-6.9,11.8-7.4c7.7-1.1,15.5-0.1,23.2,0.3c-13.6-1-25.5,6.5-37.8,10.9
		c-12.3,4.9-25.8,1.6-38.6,2.7C308.4,714,324.2,721.2,337.6,716.2z"/>
	<path fill="#5C5C5C" d="M458,735.7c2.8-8.8,5.5-17.6,8.3-26.4c-0.3,7.9-2.4,15.6-3.6,23.4c-0.8,3.2-1.7,6.4-2.8,9.5
		c-3.2,6.7-5.2,13.9-5.9,21.3c-1.5,4.7-3.3,9.2-5.3,13.7c0.2-3.4,0.7-6.8,1.2-10.2c-1.7,2.7-3,5.5-4.1,8.5
		c-5.7,15.3-10.2,31-16,46.3c-2.2,6-5.2,11.7-7.5,17.7c4.9-5.1,8.1-11.5,10.9-17.9c3.9-9.6,7-19.5,10.2-29.3c1-3.1,2.4-6,3.8-8.9
		c-0.4,5-1.2,9.9-2.7,14.7c-5.6,13.8-10,28.2-17.7,40.9c-7.7,12.8-17.9,24.7-31.6,31.3c5.5-6.7,11.9-12.8,16.7-20.1
		c17.8-26.2,27-57,35.9-87.2c1.8-6.3,4.2-12.5,5.1-19.1c-0.1,2.7,0,5.4,0.2,8.2C455.2,746.8,456.3,741.2,458,735.7z"/>
	<path fill="#5C5C5C" d="M453.8,727.1c2-5.3,3.4-11,6.9-15.6c-2.1,9.8-5.2,19.3-7.4,29c-0.2-2.1-0.5-4.2-0.6-6.2
		C453.1,731.9,453.5,729.5,453.8,727.1z"/>
	<path fill="#5C5C5C" d="M670.2,729.5c0.5,0.2,1.4,0.5,1.9,0.6c1,6,2.7,11.8,4.2,17.7c0.7,8.8,3.3,17.4,4.7,26.1
		c1,5.5,1.5,11.1,1.9,16.6c-1-3.4-2-6.7-2.8-10.2C676.4,763.5,672.8,746.6,670.2,729.5z"/>
	<path fill="#5C5C5C" d="M357.1,732.9c0.5-0.7,1-1.4,1.5-2.1c2.8,0.4,5.6,0.7,8.5,0.8c-2.8,2.6-5.9,5.1-9.4,6.6
		c-8.1,3.7-16.7,6.2-25.4,7.9c0.2-0.5,0.5-1.5,0.7-1.9c0.7-0.6,1.5-1.2,2.2-1.8c2.2-1.8,4.4-3.8,6.8-5.5c0.2,0.4,0.5,1.3,0.7,1.8
		c0.6,0.9,1.3,1.8,1.9,2.7C349,739.2,354,737.1,357.1,732.9z"/>
	<path fill="#5C5C5C" d="M216.4,736.4c4.9,3.7,7.4,9.5,10.5,14.6c4.9,9.3,9.5,20.2,19.7,24.8c15.1,6.7,32.4,6,48.3,2.4
		c23-4.8,44-15.5,65.3-25c-6.5,6.7-15.2,10.7-23.4,14.9c-19.7,9-40.8,15.4-62.4,16.7c-12.2,0-25.8-0.8-35.6-8.9
		c-8.2-7.6-12.7-18.1-16.7-28.4C220.4,743.7,218.1,740.2,216.4,736.4z"/>
	<path fill="#5C5C5C" d="M322,736.9c1.9,4.4,5.1,8,8.9,10.8c-10.3,2.9-20.7,5.2-31.3,6.5c-16.4,2.2-33.4,2.8-49.6-1.3
		c5.9,0.8,11.9-0.8,17-3.6c1.9,0.9,3.9,1.8,6,1.7c3.1,0,6.1-0.1,9.2,0.2c0.7,0.1,2,0.2,2.7,0.3c3.2,0.3,6.4,0.2,9.6-0.2
		c2.9-0.4,5.9-0.6,8.8-1.1c0.2-0.3,0.6-0.9,0.8-1.2c0.8-1.3,1.6-2.6,2.4-3.8c0.9,1.9,1.8,3.8,2.8,5.7c4-0.5,8-1.5,11.4-3.6
		C321.6,743.9,321.5,740.3,322,736.9z"/>
	<path fill="#5C5C5C" d="M365.6,749.1c3.8-2.1,7.6-4.1,11.5-5.8c-0.6,1.5-1.1,3.3-2.8,4c-3.9,2.1-7.9,3.9-12,5.7
		C363.2,751.5,364.1,749.9,365.6,749.1z"/>
	<path fill="#5C5C5C" d="M423.4,760.6c0.2-3.1,1.5-5.9,3.8-7.9C426.2,755.5,424.9,758.1,423.4,760.6z"/>
	<path fill="#5C5C5C" d="M581.4,797.6c6.9-8.1,13.3-18.4,24.4-20.8c-7.1,9.5-14.7,18.6-21.9,28.1c-17.4,22.5-34.6,45.3-55,65.2
		c-14.1,14.1-29.7,27-47.2,36.5c-0.5-3.6,2-6.1,4.9-7.7c3.6-2.4,8.1-4,10.2-8c1.1-2.1,2.4-4.1,4.6-5.1c7.3-4.3,13.4-10.3,19.2-16.4
		C542.4,846.8,560.9,821.3,581.4,797.6z"/>
	<path fill="#5C5C5C" d="M350,784.4c1.4-0.2,2.8-0.1,4.2,0c-5.1,5.1-11.7,8.1-18.2,11c-23.2,9.2-49.6,9.5-73.4,2.3
		c0.8-1.4,2-3.1,3.9-2.7c4.5,0.5,8.9,1.4,13.4,1.3c-0.6,0.8-1.2,1.6-1.8,2.4c2.4,1.3,4.9,2.4,7.7,2.5c8.3,0.7,16.7,0.3,24.7-1.6
		c9.5-2.2,19-4.9,27.3-10.1c-18.8,1.5-37.1,8.1-56.2,6.9c0.5-2.4,3.2-1.7,5-2C308.1,793.6,328.8,787,350,784.4z"/>
	<path fill="#5C5C5C" d="M684.5,802.8c1,1.1,2.2,2.2,2.4,3.8c1,6,2.3,11.9,3,17.9c0.4,2.9,0.2,6.2,2.4,8.5c0.3,3.7,0.2,7.6,2,10.9
		c-0.3,0.6-1,1.8-1.3,2.5c-4.4-8.2-2.2-17.8-5.3-26.4C685.7,814.5,685.5,808.6,684.5,802.8z"/>
	<path fill="#5C5C5C" d="M683.9,822c5.2,18.4,9.5,37.2,16.9,54.9c-0.3-2.3-0.6-4.6-0.9-6.9c1.1,0.9,2.1,1.9,3.2,2.8l0.2,0.8
		c0.1,4.3,1.3,8.4,3.3,12.2c0.9,2.8,2,5.5,3.1,8.2c0.6,5.5,2.5,10.7,5,15.5c0.8,3.2,1.5,6.4,2.4,9.5c0.3,1.2,0.6,2.3,0.9,3.5
		c1.7,0.2,3.4,0.4,5.1,0.5c0.8,1.2,1.5,2.3,2.1,3.6c3.6,15.6,2.2,31.7-0.1,47.4c-0.8,2.7-1.6,5.4-2.3,8.1
		c-2.3,4.9-1.8,10.9-5.2,15.3c-0.2-1.5-0.4-3-0.5-4.5c0.1-2.1,0.1-4.2,0.1-6.3c2.8-15.4,8.5-30.6,6.3-46.5c-0.3-3.4-4.4-4.2-5.6-7.1
		c-7.3-14.6-13-29.9-18-45.5c-2.8-7.7-4.5-15.8-7.5-23.4c-0.4-1.2-0.7-2.5-1-3.7C689.4,847.6,685.6,835,683.9,822z"/>
	<path fill="#5C5C5C" d="M695.2,850.9c5.1,3.5,9.5,7.7,13.8,12.1c-0.5,0.2-1.4,0.7-1.8,0.9c1.4,2.2,2.7,4.4,4.4,6.4
		c-4.2-3.2-8.4-6.2-12.8-9c0.4,2.3,0.7,4.7,1,7C696.8,863,696.5,856.8,695.2,850.9z"/>
	<path fill="#5C5C5C" d="M709,863.1c0.4,0,1.2,0.1,1.5,0.2c0.4,0.5,1.1,1.4,1.4,1.8C710.6,866,708.3,864.7,709,863.1z"/>
	<path fill="#5C5C5C" d="M712.6,871.3c2.1,0.3,4.3,0.2,6.4-0.1c6.1,4.8,12,9.9,17.7,15.1c6.2,7.6,14,13.7,19.9,21.6
		c2.8,3.9,6.9,7.5,7.2,12.6c-4.6-4-8.9-8.2-13.7-12c-3.7-4.4-7.9-8.3-11.4-12.8c3.3,2.8,6.9,5.4,11.2,6.3c-4.2-3.8-8.1-8.1-12.2-12
		c-2.2-2.2-5.2-3.1-8.2-3.1C723.7,882.1,718.3,876.5,712.6,871.3z"/>
	<path fill="#5C5C5C" d="M411.9,877.1c1.2,0,2.4,0,3.6,0c-6.4,12-14.8,23.8-27.1,30.3c-6.5,3.4-13.7,5.4-21,5.8
		c5.5-4.5,12-7.8,17.7-11.9c6.1-4.4,12.5-8.5,17.8-13.9C406.2,884.2,409.1,880.6,411.9,877.1 M399.3,892.4c-2.2,1.5-5,3.5-4.3,6.6
		c3.4-2.8,6.9-5.5,10.2-8.4c1.5-1.3,2-3.2,2.5-5C405,887.9,402.4,890.4,399.3,892.4z"/>
	<path fill="#5C5C5C" d="M252.8,928.6c1.4-1.6,3-3.1,4.5-4.6c-2,7.3-5.9,13.9-9.7,20.4c-3.3,5.6-6.8,11.1-10.7,16.2
		c1.5-3.6,2.9-7.3,4.6-10.8C245.3,942.8,250.4,936.4,252.8,928.6z"/>
	<path fill="#5C5C5C" d="M311.6,969.2c5.7,7,10.6,14.5,15.7,21.9c3.3,4.9,7.1,9.6,10.2,14.7c-5.7-4.2-10.4-9.4-15.1-14.6
		c-4.8-5.9-9.9-11.6-13.4-18.4c3.5,3.6,6.3,7.9,10,11.3C316.8,979,313.9,974.2,311.6,969.2z"/>
	<path fill="#5C5C5C" d="M219.5,992.3c4.2-5.4,7.9-11.3,12.4-16.5c-3.3,7.6-7.9,14.6-11.8,21.9c-2.7,4.7-4.6,9.9-8.1,14.1
		c-0.3-3.4-0.3-6.8-0.3-10.2c-4.2,0.9-8.5,1.5-12.8,2c3.4-1.5,7-2.9,10.7-2.5c2-0.1,4.3,0.7,6.1-0.1c1.3-1.8,1.9-4,2.7-6
		c-3,1-6,2-9.1,2.3c0.2-0.5,0.5-1.5,0.6-2c4.2-2.7,7.5-6.5,10.1-10.7c1-0.7,2.1-1.3,3.1-1.9C222,985.8,220.7,989,219.5,992.3z"/>
	<path fill="#5C5C5C" d="M199.2,998c1.5-0.5,3-0.9,4.5-1.3c1.7,0.2,3.3,0.5,5,0.7c-4.6,2-9.5,3.6-14.6,3.4
		C195.9,999.9,197.5,998.9,199.2,998z"/>
	<path fill="#5C5C5C" d="M157.8,1014.2c8.9-5.8,19.4-8.6,29.5-11.5c-0.1,0.9-0.2,1.8-0.2,2.7c1.8,0.1,3.5,0.1,5.3,0.2
		C181.1,1009.4,169.5,1012.2,157.8,1014.2z"/>
</g>
<g id="_x23_000000ff">
	<path d="M404.6,47.5c5.9-0.5,10.9,3.4,16.7,3.9c1.6,0.2,2.3-1.5,3.3-2.4l0.6,0.2c2.9,4.3,8.5,3,12.8,4.4c3.4,1.2,6.9,0.2,10.3,0.4
		c0.2-0.6,0.4-1.3,0.7-1.9l0.3-0.8c1-1.4,2-2.7,3.1-4c0.6,1.3,1.2,2.7,1.8,4c4.2-0.2,8.5-0.2,12.4-2.1c3.2,4.7,8.3,7.5,12.1,11.7
		c3.5-0.4,7.1-1,10.6-0.1c3.1,0.6,5.7,3,9,2.4c2.8,0.1,5.1-1.7,7.4-3.1c1.1,4.1,4.4,6.6,8.1,8.3c1.6,1.7,2.3,4.1,2.9,6.3
		c0.2,1.8,0.3,3.6,0.8,5.3c1,1.2,2.2,2,3.4,3c0.4-3.6,0.7-7.2,1.4-10.8c1.6,0.9,3.8,1.3,4.5,3.2c1.4,3.5,1.9,7.2,3,10.8
		c0.6-0.3,1.9-0.9,2.6-1.3c0.9-2.8,2.1-5.6,3.6-8.2c0.7,1.7,1.5,3.4,2.2,5.1c1.4-0.7,2.8-1.3,4.1-2.2c0.6-1.3,0.8-2.7,1.2-4.1
		l0.4-0.7c0.3-0.1,1-0.2,1.3-0.2c0.8,1.7,1.6,3.5,2.5,5.2c1.7-0.9,3.5-1.8,5.2-2.7c1.8,5.4,3.2,10.9,4.5,16.4c3.7,0,5.5-3.4,7.4-6
		c2.2,0.6,4.5,1.1,6.7,1.7c0.7,2.8,1.9,5.5,3.4,8c1.2-0.8,2.4-1.5,3.6-2.3c0.5,1.3,1.1,2.7,1.6,4c1.5-0.1,2.9-0.2,4.4-0.3
		c1.2,1.4,2.3,2.8,3.5,4.2c1.5-0.5,3.1-0.9,4.6-1.4c1.8,1.8,3.8,3.4,5.2,5.6c0.9,1.7,1,3.7,1.3,5.6c2,1.4,3.5,3.2,4.6,5.4
		c3.1-1.8,6.1-3.8,9.2-5.7c-0.2,3-0.5,5.9-1,8.9c-0.1,0.3-0.4,0.9-0.6,1.2c-0.6,1.3-1.3,2.5-1.9,3.8c2.1,3.2,4.1,6.5,5.4,10.1
		c-0.3,0.3-1,0.8-1.3,1.1c-2.4,1.7-4.3,4.1-4.2,7.2c5.8-0.4,9.6-6.6,15.5-6c4,3.6,7.3,8.1,11.7,11.3c-3.3,2.2-7.1,4.5-7.6,8.8
		c3,0.9,6.2,1.6,8.4,4c3.4,3,4.7,7.5,7,11.3c2.1,3.6,4.8,6.7,7.5,9.9c1,1.5,2.1,3,3.1,4.5c0.2,1.1,0.4,2.2,0.6,3.3
		c-2.2,0.7-6-0.3-6.8,2.5c5.4,5.8,11.3,11.3,18.7,14.4c0.6,0.5,1.2,1,1.8,1.6c-2.3,0-4.6,0.1-6.9,0.1c0.6,1.4,1.2,2.8,1.8,4.2
		c2.1,4.7,5.5,8.6,8.6,12.7c2.2,2.6,1.6,6.1,1.9,9.2c0.3,8.2,3.8,15.9,6.9,23.3c5.4,12.5,10.9,25.3,11.1,39.1
		c-2.1-0.7-5.5-3.9-7.1-0.9c1.5,3.3,4.2,6,4.8,9.7c0.8,3.9,1.1,7.9,2,11.8l0.1,0.7c0,1.4-0.1,2.8-0.1,4.3c-1.8-0.4-3.7-0.7-5.5-1
		c0.1,3.6,0.7,7.2,2.3,10.5c0.6,1.7,1.7,3.2,2.9,4.6c3.8,5.3,9.8,8.8,12.1,15.1c-1.3-0.6-2.7-1.2-3.9-1.9c-3.6-3.5-7.5-6.7-11.6-9.5
		c-4.5-3.6-9.9-6.3-15.7-6.7c-2.6-0.3-5.2-0.6-7.7-1.1c-3.3-0.8-6.3,1-9.3,2.1c-10.5,2.1-18.7,9.3-27.3,15.1c-2.9,1.8-4,5.1-5.5,8
		c-0.5,0.8-1,1.5-1.5,2.3c-0.6,0.1-1.8,0.4-2.4,0.5c0.9-2,1.9-4.1,2.7-6.1c-4,1.4-8,3.2-11.1,6.2c-3.8,3.4-6.1,8.2-8,12.8
		c-1.5-0.7-2.9-1.5-4.4-2.2c-2,3-3.6,6.2-5.2,9.3c-1.2,1.1-2.3,2.1-3.5,3.2c-2.6,0.2-5.5,0-7.5,2.1c-9.4,9-15.8,20.7-20,32.9
		c-2.3,6.2-3.5,12.8-5.3,19.2c-2.8,1.2-5.5,2.7-8,4.3c-5.8-3.9-6.8-11.4-11.6-16.1c-2.3-2.4-5.8-1.6-8.8-1.5
		c-1-4.5-2.9-8.8-4.5-13.1c-3.7-13.3-7.2-26.7-12.5-39.4c-2.1-6-4.4-12-6.1-18.1c-1.2-4.1-3.6-7.8-6.2-11.1c-0.7-0.9-1.3-1.8-2-2.6
		c-5.3-7.3-13.2-12.1-20.7-16.9c-6.1-3.5-11.8-7.5-17.8-11.1c-1-0.9-1.9-1.7-2.8-2.6c0.2-2.1,0.6-4.2,0.2-6.2
		c-0.7-3.1-3.2-5.2-5.2-7.4c-0.2-0.3-0.6-0.8-0.8-1c1.3-2.3,2.8-4.6,3.2-7.2c1.6-9.1,0.4-18.4,0.4-27.6c0.9-4.3,1.9-8.7,2.5-13.1
		c2.1-4.7,5.8-9.1,5.5-14.5c0-2.4-2.3-3.7-3.8-5.2c-1.5,2.8-2.8,5.7-4,8.6c-0.5-0.1-1.5-0.2-2.1-0.3c-0.2-0.3-0.5-0.9-0.7-1.2
		c-2.8-5-4-11.1-8.6-14.8c-1.1,2.6-1.9,5.3-2.5,8.1c-1.8-2.2-3.2-6.8-6.9-5.5c-4.1,1.7-5.6,6.4-8.1,9.7
		c-7.5-5.5-14.7-11.5-22.7-16.1c-7.3-4.2-14.6-8.4-22.3-11.7c-0.5,0.4-1.6,1.2-2.1,1.6c0.6,1.6,1.3,3.2,1.9,4.8
		c-4.3-1.7-10.5-5.6-14.1-0.7c-3.6,4.4-9.7,4-14.2,6.8c-1.2,0.8-2.4,1.6-3.6,2.5c-4.1-2.2-8.3-4.7-13.1-4.9
		c-11.1-0.5-21.3,5.6-32.4,4.7c-5.2-0.3-9.6-3.5-14-6c-1,1.8-1.9,3.7-2.7,5.6c-6.2,0.3-12.3-3.7-18.4-1.5c0.9,2.1,1.9,4.2,2.8,6.3
		c-7.5,0.4-15.1,0.7-22.2,3.3c-13.6,4.4-24.4,14.4-34.7,24c-2.7,2.3-5.3,5.5-9.1,5.4c-7.1,0.3-14.2-0.8-21.2-0.6
		c-10,0.1-20.7,0.3-29.3,6.2c-2.4-1.2-5-2.9-7.9-2.3c-12.4,2.2-23.3,10.4-29.5,21.3c-4.3,7.4-5.4,16-6.4,24.3
		c-1.5,6.4-3.1,12.7-4.8,19C96.6,351.2,91,378,91.8,405c-1.4,0.1-2.8,0.2-4.2,0.2c4.9-10.7,2.8-22.7,0.8-33.8
		c-1.3,0.4-2.5,0.8-3.8,1.2c-0.6-5,0.1-10,0.4-15c-0.1-1.5,0.5-3.8-1.4-4.4c-1.5-0.2-3-0.1-4.5-0.1c0-5,0.6-9.9,0.9-14.9
		c-0.7-3.2-2.9-5.8-4.5-8.6c2.6-5.7,5.1-11.6,6.4-17.7l0.5-0.6c0.9-0.9,1.8-1.8,2.7-2.7c-5.7-5.4-12.5-9.5-19.4-13.1
		c4.2-4,10.3-7.4,10.8-13.9c-4-0.9-7.5,1-10.8,3.1c-2.2,1.8-6.4,0.8-6.7-2.3c0-4,2.1-7.6,2.8-11.5c0.9-3.2-1.3-5.9-2.7-8.6
		c3.8-3.4,9.4-4.8,11.9-9.6c-4.8-1.7-10.1-0.5-15-1.9c0-0.7,0-2,0-2.7c3.7-1.2,7.2-2.8,10.4-5c-1-1.8-1.6-4-3.1-5.4
		c-2.2-1.7-4.8-2.4-7.4-3.4c1.4-3.9,3.9-8.7,1.3-12.6c-2.7-4-6.8-6.7-10.1-10.2c4.6,0.4,9.4,0.6,13.6,2.8c2.2,1.3,4.5-0.2,6.7-0.8
		c-0.6-1.2-1.2-2.3-1.7-3.5c3.7-2.1,7.4-4.5,10.9-7c-1.1-1.6-2.2-3.2-3.4-4.8c5-0.1,10.2,0.6,15.2-0.8c3.3-0.9,5.6-3.7,7.7-6.2
		c-3.5-3.8-8.2-5.8-12.2-8.9c2.8-0.8,5.7-1.4,8.7-1.8c-0.7-2.2-1.3-4.4-2-6.5c2.9,1.5,5.9,2.7,9.1,3.4c0.7-3.4-1.2-6.3-2.6-9.2
		c2.8,1.7,5.7,3.3,8.7,4.7c0.4-0.5,1.2-1.5,1.5-1.9c-1.1-2.3-2-4.6-2.8-7c2.1,0.4,4.3,0.7,6.4,1.1c-1-3.3-2.6-6.4-4.4-9.3
		c4.8-1.5,8.1,4.1,12.8,3.6c0.7-0.8,1.9-1.7,1.5-2.9c-0.9-3-2.4-5.7-3.5-8.5c3.3,1.3,6.3,3,9.2,5c1.8-1.1,3.5-2.5,5.6-3
		c2.1-0.1,4.1,0.2,6.2,0.4c0.5-4.2-2.7-7.2-5.4-9.8c2.3,0.6,4.5,1.1,6.8,1.6c0.1-5.1-1.9-9.8-3.1-14.7c2.6,0.8,5.2,1.6,7.9,2.5
		c1.7-2.9,3.2-5.9,4.9-8.8c0.2-0.3,0.6-1,0.8-1.3c2.6,0.5,5.3,1,8,1.3c0.7,0,2.2,0.1,2.9,0.1c3-4.9,9.4-5,12.9-9.2
		c3.4-3.7,7.5-6.7,12.2-8.8c0.1-4.9,2-9.5,5.2-13.1c2.3,1,4.5,2.4,7,2.6c2.3,0.1,4.4-0.9,6.5-1.6c-0.2-1.6-0.4-3.2-0.5-4.9
		c4.2-0.1,8-2.4,12.2-1.5c3.5-2.6,7-5.3,11.2-6.6c7.8-2.5,16.7-2.8,23-8.8c2.8-3,7.2-0.2,10.4-1.9c1.2-2,1.7-4.3,2.3-6.5
		c5,1.8,10.2,2.7,15.5,2.5c0.1-1.7,0.1-3.4,0.2-5.1c0.3-0.2,0.8-0.7,1-1c6.8-0.7,13.7-1.4,20.5-2.3c0.3-1.4,0.6-2.8,0.9-4.2
		c9.5,2.7,20,0.9,29,5.6c-0.1-2-0.1-4-0.1-6c5,0.7,9.7,2.4,14.6,3.6c1.1-1.2,2.2-2.4,3.3-3.6c5.1,2.1,10.1,4.3,15,6.7
		c0.6-2.4,1.2-4.8,1.9-7.2c2.6,2.8,5.2,5.9,9.2,6.5c0.4-1.6,0.8-3.2,1.2-4.8c2.5,1.2,5,2.4,7.5,3.6c1-2.2,1.9-4.4,2.8-6.6
		c1.8,1.7,3.6,3.6,5.9,4.6c1.8,0.2,3.5-0.9,5.1-1.6c1.1-0.6,2.1-1.2,3.2-1.8c1.1-0.7,2.1-1.4,3.2-2.1
		C403.6,48,404.3,47.7,404.6,47.5z"/>
	<path d="M260,315.7c4.3-0.2,8.5-0.1,12.8-0.1c-5.2,2.3-11,2.8-16.5,3.9c-4.7,0.9-9.5,1.5-14.3,0.7C247.5,317.3,253.9,317,260,315.7
		z"/>
	<path d="M203.7,327.5c4.8-0.1,9.7-0.2,14.5-0.4c-0.2,0.4-0.6,1.2-0.8,1.6c-1.9,0.4-3.7,0.7-5.6,1.1c-3.1,0.2-6.2,0-9.4-0.1
		c0.1-0.5,0.3-1.5,0.4-2.1L203.7,327.5z"/>
	<path d="M224.1,336.8c6.2,0.2,12.2-1.8,18.2-3.1c3.2,0.1,6.4,0.9,9.2,2.6c-6.2,0.6-12.5,1.6-18.5,3.2c-5.6,0.3-11.6,2.8-16.9,0
		c2.5-0.4,4.9-1.4,7.2-2.6L224.1,336.8z"/>
	<path d="M645.3,359.6c6.5-2.9,13-6.5,20.2-7c7.9-1,15.8,1,23,4.3c3.8,3.6,7.6,7.3,10.1,12c2.3,4.6,3.4,9.7,4.8,14.6
		c-0.1,0.5-0.2,1.6-0.3,2.1c-3.7-3.7-7.4-7.5-11.9-10.3c-8-5.2-17.4-8.1-26.8-9.3c-5.1-0.5-10.4-0.5-15.3,1.1
		c-1,0.3-1.9,0.7-2.8,1.1c-4.6,1.6-8.3,4.7-11.7,8c0.5-2.3,1-4.6,1.5-6.9C639,366,642,362.6,645.3,359.6z"/>
	<path d="M231.3,355.4c1.8-0.3,3.6-0.2,5.4-0.1c13.8,1.2,27.7,2.1,41.4,4.3c8.9,0.7,17.7,2.5,26.7,2.9c4.2,2.4,8.2,5.5,13,6.6
		c4.4,0.3,8.7-0.9,13.1-0.4c19.4,2,37.5,10.8,56.8,13c0.4,0.3,1.3,0.8,1.7,1c6.3,7.1,17.3,7.9,22.6,16.2c-1.7,3.1-4.1,5.8-7.7,6.7
		c1.6,1.4,3.2,2.8,4.7,4.3c-5.7,1.8-11.6,2.5-17.6,2.5c-14,0.3-27.7-2.8-41.4-5.6c-19.9-3.9-40.2-5.1-60-9.2
		c-10-1.8-19.7-4.7-29.6-7.1c-1.2-0.7-2.4-1.3-3.6-2c-0.6-1.5-1.1-2.9-1.7-4.4c-5.7,0-11.3-0.8-16.7-2.3c-3.6,1.6-7.1,3.8-11.2,3.3
		c-2,3.9-3.1,8.1-4.3,12.3c-2.1-2.4-4.6-5-5-8.4c-0.6-4.6,0-9.2-0.2-13.8c0.1-1.7-0.2-3.5,0.5-5.1c2.3-2.5,5.3-4.2,7.4-6.9
		C227.8,360.7,229.1,357.7,231.3,355.4z"/>
	<path d="M196.5,378.5c1.1,0.2,2.2,0.4,3.3,0.6c-0.7,4.1-1,8.3-0.9,12.5c0,2.1,0,4.2,0,6.3c-0.3,1.5-0.6,3-1,4.4
		c-1.7-3.4-1.2-7.3-1.2-10.9c0.1-4-0.1-8-0.4-12L196.5,378.5z"/>
	<path d="M627.8,380.1c1.7,1.6,3.2,3.3,4.8,5c0.3,0.3,0.9,0.9,1.1,1.2c1,1,1.9,2,2.9,3.1c-4.2,0.1-8.5,0.1-12.7,0.4
		c-0.9,1.5-1.7,2.9-2.5,4.4c-0.6-1.1-1.1-2.1-1.7-3.2C622.6,387.6,625.5,384.1,627.8,380.1z"/>
	<path d="M137,389.7c3.8-3,7.2-8.7,12.8-7.6c5.9,1.1,11.5,3.3,17.5,4.1c1.5,6.3,3.1,12.7,4.2,19.1c-4.9,3-7.2,8.6-11.5,12.3
		c0.1,2.5,0.2,5.1,0.2,7.6c-0.3-0.4-0.8-1.2-1.1-1.6c-0.9-1.3-2.3-2.8-3.9-1.5c-21.4,12.8-39.2,31.3-52.4,52.4
		c-4.5,6.9-8,14.3-12.3,21.3c-5.2-4.8-3.3-13.4-9.4-17.4c-0.1-0.5-0.2-1.5-0.2-2c1.4-5.6-0.7-11.3,0.1-16.9c0.3-1,0.6-2,1-2.9
		c0.9-2.7,1.9-5.3,2.9-8c2.6-2.5,4.7-5.3,6.8-8.2c4.7-4.8,8.7-10.2,11.5-16.3c0.7-1.6,1.4-3.3,2-4.9c1.3-3.3,3.1-6.4,5.6-8.9
		c1-0.6,2-1.2,3-1.7c4.1-1.9,8.1-3.9,11.8-6.6C130.3,399,132.4,393.2,137,389.7z"/>
	<path d="M715.4,387.6c0.4-0.8,0.8-1.6,1.2-2.5c0.5,0.3,1.6,0.8,2.1,1.1c0.5,9.4,0.7,18.8,1.1,28.2c0.5,7-2.3,13.6-3.2,20.5
		c-1.5-8.2,2.8-16.3,0.7-24.5C717.2,402.7,718,394.9,715.4,387.6z"/>
	<path d="M687.7,391.2c2,2.3,3.7,4.9,4.8,7.7c2.4,6,4.5,12.1,4.9,18.6c-1.4-3.4-2.9-6.9-4.7-10.1c-0.1-0.4-0.2-1.2-0.3-1.6
		C691.8,400.7,688.5,396.4,687.7,391.2z"/>
	<path d="M630.3,429.9c-2-5.5-0.9-11.3-0.7-16.9c0.6,0.4,1.8,1.2,2.3,1.6C631.2,419.7,630.4,424.8,630.3,429.9z"/>
	<path d="M399.6,426.4c3.6-2,6.8-4.5,10.5-6.4c-0.8,4.7-4.4,8-8.2,10.5c-6.6,4.1-13.8,7.3-21.2,9.6
		C385.3,433.7,392.9,430.3,399.6,426.4z"/>
	<path d="M703.1,436.7c0.6,0,1.8,0,2.5,0c0,2.9,0,5.8-0.3,8.7C702.8,443.2,703.1,439.7,703.1,436.7z"/>
	<path d="M329.9,440c12.7,0.3,24.8,5,37.1,7.7c5.1,1.3,10.3,1.8,15.5,2.9c-4.7,0.5-9.4,0-14,0.3c-13.2,0.7-26.5,0.5-39.6,2.7
		c-3.8,0.3-7.6,1.1-11.3,2c-10.9,1-21.2,5-30.8,10c4.4-5.9,8.7-12,13.5-17.6c2.5-1.5,5-2.8,7.7-3.8c5.9-0.5,11.6,1.3,17.5,1.5
		c2.7,0.2,5.1-1.3,7.4-2.6C331.8,442,330.9,441,329.9,440z"/>
	<path d="M615.5,446.5c0.5,0.1,1.4,0.4,1.9,0.5l0.1,0.7c1.3,9.6,10.3,15,14.7,23.1c2.3,4,3,8.6,3.1,13.1c-3.1-4.9-5.3-10.4-9-14.9
		c-2.6-4.1-5.5-7.9-8.4-11.8c-1.4-1.8-2.1-4.1-2.5-6.3C615.3,449.4,615.4,448,615.5,446.5z"/>
	<path d="M431.7,450.5c5.3-2.9,11.9-3.6,17.7-2C443.5,448.9,437.8,451.4,431.7,450.5z"/>
	<path d="M170.2,456.1c6.6-3.1,12.7,3,17.7,6.6C181.3,462.8,176.2,458.1,170.2,456.1z"/>
	<path d="M701.2,462.5c0.7-2.6,1.8-5,3.5-7.2c-0.1,4.1-0.5,8.1-0.6,12.2c-0.1,1.1-0.2,2.3-0.2,3.5c-3.2,6.1-6.5,12.7-12.2,16.8
		c0.7-6.1,7.2-10.1,6.3-16.5C699,468.4,700.4,465.5,701.2,462.5z"/>
	<path d="M383.7,473.4c6.2-0.2,12.5-0.2,18.7,1C397,479.4,389.5,475.3,383.7,473.4z"/>
	<path d="M142,484c5.7-4.1,13.2-4.1,20-4.2c-1.4,1.5-3,3.4-5.3,3.3C151.8,483.3,146.9,483.2,142,484z"/>
	<path d="M138.9,489.6c10.3-4.2,21.9-4,32.6-1.4c3.7,1,7.6,2.1,10.6,4.7c-14.8,2.4-30.3,1.2-44.8,5.7c-4.2,1.2-7.8,3.7-11.6,5.6
		C126.9,497.3,132.7,492.3,138.9,489.6z"/>
	<path d="M642.3,506.7c3.4-2.9,5.5-6.9,7.9-10.6c-0.8,3.6-1.8,7.3-4.2,10.3c-3.4,4.3-7.7,7.8-11.2,12c-2,0.9-4.2,4.3-6.2,2.3
		c-1.7-5,0.1-10.3,0.6-15.3c1.9,2.1,3.5,4.5,5,6.8c1.9-0.9,3.9-1.9,5.6-3.2C640.7,508.3,641.5,507.5,642.3,506.7z"/>
	<path d="M89.5,502.5c3.9,2.7,3.9,7.8,3.7,12.1C90.2,511.3,88.9,506.9,89.5,502.5z"/>
	<path d="M196.2,520.2c2.6-3.9,6.7-6.4,11-7.9c-0.1,0.6-0.3,1.9-0.4,2.5C203.4,516.7,200.1,519.2,196.2,520.2z"/>
	<path d="M108.8,522.1c0.7-3.6,3.4-6.1,7-6.8C116.1,519.5,112.5,521.7,108.8,522.1z"/>
	<path d="M112.8,533.6c2.9-3,5.6-6,8.2-9.3c1.4,1.3,2.8,2.5,4.2,3.7C121.5,530.7,117.2,532.4,112.8,533.6z"/>
	<path d="M686.7,547.1c6.3-6.3,10.1-14.4,14.4-22.1c0.3,0.5,0.9,1.4,1.2,1.9c-0.8,1.2-1.6,2.5-2.3,3.7c-3.6,5.2-5.5,11.3-7.6,17.1
		c-4.5,11.6-7.7,23.6-10.8,35.6c-0.2,1-0.5,2-0.7,2.9c-3.9,13.8-7.2,27.7-10.3,41.7c-0.5,2.1-0.9,4.2-1.3,6.3
		c-1.4,7.3-2,14.8-2,22.2l0,0.9c-0.4,6-0.7,12.2-2.9,17.9c-1.5-19.7,0.2-39.4,2.3-59c1.8-15.9,3-31.9,2.1-47.9
		c-10.8,2.8-22.5,5.4-30.8,13.4c-5.4,5.3-6.7,13-7.4,20.2c-2.1-5.6-2.9-11.6-2.3-17.6c0.6-7.1,1.4-14.2,2.8-21.2c1,1,1.9,2,2.8,3.1
		c0.3,0.4,0.9,1.2,1.2,1.7c0.3,0.4,0.9,1.2,1.2,1.6c14.4,0.7,30.2-1.6,41.1-11.9c1.8-1.5,3.3-3.2,4.7-5
		C683.6,551,685.1,549,686.7,547.1z"/>
	<path d="M146.6,529.2c4.2-0.6,8.2-1.7,12.4-2c-3.8,2.6-8.5,3.3-13,4c-5,0.6-10.2,1.4-15.2,0.1C136,530.1,141.3,530,146.6,529.2z"/>
	<path d="M165.2,531.2c5.4-1.6,10.7-3.3,16.2-4.5c-2.3,1.8-4.7,3.5-7.3,5c-7.3,2.2-14.6,4.1-22,5.7c-0.5-0.1-1.5-0.3-2-0.3
		C154.7,534.2,160,532.8,165.2,531.2z"/>
	<path d="M101.4,532.4c2.2,3.1,4.3,6.5,3.1,10.5c-1.2-1.2-2.4-2.4-3.5-3.6C101.1,537,101.3,534.7,101.4,532.4z"/>
	<path d="M337.4,551.1c4.1,1.8,7.4,4.8,11,7.4c15.2,10.9,31.4,20.7,44.8,34.1c11.3,10.6,20.1,24.2,24.2,39.2
		c-5.7-9.2-11.5-18.3-18.5-26.5c-17.1-20.2-37.8-37.1-59.7-51.9C338.5,552.6,337.9,551.9,337.4,551.1z"/>
	<path d="M100.8,585.4c0.2,10.1-1,20.2,1.1,30.2c1.9,14.5,7.8,28.2,14.6,41c0.2,1.5,0.3,3,0.5,4.5c-2.2-2.7-4.2-5.5-6.2-8.4
		c-3.5-5.7-6.4-11.7-8.8-17.9c-0.4-3.1-0.9-6.1-1.5-9.2C98.1,612.4,98.4,598.7,100.8,585.4z"/>
	<path d="M460.1,587.1c5.3,3,7.1,9.1,10.3,14c1.1,2.7,2.1,5.5,2.7,8.3c1,11,1.3,22.1,2.8,33.1c0.9,6.4-1.4,12.7-1.6,19.1
		c-0.1,3.2-1.3,6.2-2.1,9.2c-1.1,5,0.6,10.3-1.2,15.2c-0.7,1.7-1.5,3.4-1.8,5.3c-0.8,6-2,12-2.8,18c-2.8,8.8-5.5,17.6-8.3,26.4
		c-1.7,5.4-2.9,11.1-5,16.4c-0.2-2.7-0.3-5.4-0.2-8.2c0.1-1.2,0.3-2.3,0.4-3.5c2.2-9.7,5.3-19.2,7.4-29c0.4-0.9,0.7-1.8,1.1-2.7
		c2.3-5.9,4.3-12.1,3.8-18.5c0.1-0.4,0.3-1.1,0.4-1.5c2.4-4.4,2.2-9.6,2.6-14.4c0.4-5.1,0.8-10.1,0.5-15.2c1-7.1,0.7-14.3,1.5-21.5
		C472.6,620.2,466.8,603,460.1,587.1z"/>
	<path d="M270.5,604c0.6-0.1,1.9-0.2,2.6-0.3c9-0.6,18.3-0.5,26.8,2.8c-5.7,3.2-11.9,5.5-18,7.9c-11.4,4.4-22.8,9-34.2,13.4
		c2.4-1.6,4.7-3.4,6.7-5.5c-4-1-8.1-1.3-12.2-1.6C247.5,610.1,259.7,606.2,270.5,604z"/>
	<path d="M192.5,621.5c0.4,0,1.2,0,1.6-0.1c6.3,1.6,13.3,2.6,18.2,7.3c-1.9,0.6-3.9,1.1-5.8,1.7c-0.8-1.3-1.5-2.7-2.3-4
		c-3.9-0.2-7.8-0.7-11.6-1.6C192.6,623.7,192.6,622.6,192.5,621.5z"/>
	<path d="M181.9,624.9c4.4,0.8,7.9,3.8,12.1,5.2c1.6,0.5,3.1,1.2,4.4,2.2C191.8,634.4,186.6,628.8,181.9,624.9z"/>
	<path d="M223.1,633.1c6.4-2.7,13.5-3,20.3-2.4c-0.5,0.8-1,1.5-1.6,2.3C235.6,633.3,229.3,633.3,223.1,633.1z"/>
	<path d="M148,662.5c0.2-8.5,1.8-17.4,6.9-24.3c-0.8,4.9-2.4,9.7-2.5,14.7c-0.7,17.5,4.3,35,13.3,49.9c3.2,5.6,7.7,10.3,11.5,15.4
		c-5.2-3-9.2-7.5-12.9-12.1C155,693.4,148.6,678.2,148,662.5z"/>
	<path d="M403,651.9c10.3,3.2,17.6,13.1,19.8,23.4c0.5,3.4,1.7,7.1,0.1,10.3c-3.1-8.8-6.1-17.9-11.8-25.5
		C408.8,657,405.7,654.6,403,651.9z"/>
	<path d="M439.9,661.2c2.4,6.3,1.9,13.1,2.2,19.7c0.3,6.2,0.1,12.5,0,18.7c-1.8,10-2.2,20.3-4.3,30.3c-2.8,13.7-6.7,27.5-14.6,39.3
		c-0.3-0.3-1-0.8-1.4-1.1c0.4-2,0.8-4,1.2-6c0.1-0.4,0.3-1.1,0.4-1.5c1.5-2.5,2.7-5.2,3.8-7.9c0.7-1.5,1.4-3,2-4.5
		c3.8-8.9,5.2-18.5,6.7-28C438.7,700.7,439.8,681,439.9,661.2z"/>
	<path d="M402.7,665.2c2.4,1.4,5.1,3,6.4,5.6c2.1,4,1.4,8.7,1,13c-1.9,3.5-3.9,7-6,10.4c-3.1,3-6.1,6.2-8.9,9.5
		c-1.8,2-3.7,4.4-6.6,4.8c-4.2,0.8-8.4,0.8-12.6,0.9c-1.1-0.1-2.3-0.1-3.4-0.2c-7.7-0.4-15.5-1.4-23.2-0.3c-5,0.5-7.2,5.9-11.8,7.4
		c-13.3,5-29.2-2.2-41.5,6.6c-1,0.6-2,1.2-3,1.9c-7.4,4.6-12.8,11.6-19.2,17.4c-1.8,1.4-3.7,2.7-3.9,5.2c-1,0.7-1.9,1.4-2.9,2
		c-5.2,2.8-11.1,4.4-17,3.6c-3.6-0.9-7-2.4-10.4-3.9c-8.4-7.2-15.9-15.7-20-26.1c-1.3-2.7-1.9-6.4-5.2-7.4
		c-6.6-2.5-13.7-2.7-20.4-4.6c3.7-6.9,4.8-15,8.9-21.7c3.1-5,9.5-5.7,14.9-5.1c3.4,7,5.6,14.4,8.1,21.8c0.9,2.7,2.3,5.3,3.7,7.8
		l0.2,0.7c0.9,3,1.8,6.2,3.8,8.7c4.2,0.7,8.6,0.6,12.8-0.1c2.8-0.3,4.3-3.5,7.2-3.3c4.3,0,8.7,0.3,12.8-1.2
		c17.7-1.6,35-8.6,48.2-20.6c3.4,1.4,7.2,4.1,10.8,1.8c4.5-1.6,8.4-4.6,11.2-8.5c3.3-1,6.6,0.3,9.8,1.3c0.6,0,1.9,0.1,2.5,0.2
		c4.9-0.6,8.9-3.7,12.7-6.6c4.5,2.5,9.8,3.8,15,2.8c11.2-2,21.7-7,32.3-11C407.7,673.1,404.8,669.4,402.7,665.2z"/>
	<path d="M638.1,681.4c4,7.6,3,16.3,2.9,24.6c-0.9-1-1.8-2-2.7-3.1c0-5.1-0.5-10.2-0.7-15.2C637.8,685.5,637.9,683.4,638.1,681.4z"
		/>
	<path d="M665.7,726c0.1-11.6-0.7-23.3,1.4-34.8c0.3,11.3-1.3,22.9,1.9,33.9c0.4,1.5,0.8,2.9,1.2,4.4c2.5,17.1,6.1,34,9.9,50.9
		c0.7,3.4,1.8,6.8,2.8,10.2c0.7,4-0.1,8.4,1.6,12.2c1,5.8,1.2,11.7,3.2,17.3c3.2,8.5,0.9,18.2,5.3,26.4c0.7,1.5,1.4,3,2.2,4.4
		c1.3,5.9,1.6,12.1,4.4,17.5c0.1,0.4,0.2,1.2,0.2,1.6c0.3,2.3,0.6,4.6,0.9,6.9c-7.4-17.7-11.7-36.5-16.9-54.9
		c-3.7-16.1-6.8-32.3-9.9-48.6C671.2,757.6,667.8,741.9,665.7,726z"/>
	<path d="M153.4,710.2c6.1,3,8.8,9.7,11.3,15.6c-1.6,0.1-3.3,0.3-4.9,0.4c-0.9-1.7-1.8-3.4-2.7-5
		C156.2,717.4,154.8,713.8,153.4,710.2z"/>
	<path d="M476.2,729.7c1-0.7,2-1.4,3-2c-0.7,6.1-2.1,12.2-3.4,18.2c-1.3,5.6-2.4,11.4-5.7,16.3c0.4-3.9,1.1-7.7,1.4-11.5
		c1.6-3.7,3.2-7.5,3.2-11.6C475.7,736,476,732.8,476.2,729.7z"/>
	<path d="M445.8,775.5c1-3,2.4-5.8,4.1-8.5c-0.5,3.4-1,6.8-1.2,10.2c-0.3,2.1-0.8,4.2-1.5,6.2c-1.4,2.9-2.8,5.8-3.8,8.9
		c-3.1,9.8-6.3,19.7-10.2,29.3c-2.8,6.4-6,12.8-10.9,17.9c2.3-6,5.3-11.7,7.5-17.7C435.6,806.5,440.1,790.8,445.8,775.5z"/>
	<path d="M281.6,796.3c19.1,1.3,37.4-5.3,56.2-6.9c-8.3,5.2-17.9,7.9-27.3,10.1c-8.1,1.9-16.5,2.3-24.7,1.6
		c-2.7-0.2-5.3-1.3-7.7-2.5c0.6-0.8,1.2-1.6,1.8-2.4C280.3,796.3,281.2,796.3,281.6,796.3z"/>
	<path d="M230.8,847.7c3,3.2,3.2,7.9,4.9,11.7c1.4,3,0.6,6.2-0.5,9.2c-0.1-0.5-0.2-1.5-0.2-2C234.6,860.1,230.4,854.4,230.8,847.7z"
		/>
	<path d="M707.1,863.9c0.5-0.2,1.4-0.7,1.8-0.9c-0.6,1.7,1.6,3,3,2c2.3,2.1,4.7,4.2,7,6.2c-2.1,0.3-4.3,0.3-6.4,0.1
		c-0.3-0.2-0.8-0.7-1.1-1C709.9,868.3,708.5,866.1,707.1,863.9z"/>
	<path d="M399.3,892.4c3-2,5.7-4.5,8.5-6.9c-0.5,1.8-1,3.8-2.5,5c-3.3,3-6.8,5.6-10.2,8.4C394.3,895.9,397.1,893.9,399.3,892.4z"/>
	<path d="M729.7,887.1c3,0,6,0.9,8.2,3.1c4.1,4,7.9,8.2,12.2,12c-4.3-1-7.9-3.5-11.2-6.3C735.9,892.7,732.9,889.8,729.7,887.1z"/>
	<path d="M352.1,908.4c9.5-6.3,20.8-9.3,30.1-16c-1,1.8-2.2,3.7-4,4.8C370.3,902.5,361.3,906,352.1,908.4z"/>
	<path d="M272.3,909.4c3.6,0.3,7.1,1.2,10.6,1.9c-0.4,0.6-0.9,1.2-1.3,1.8c-1.8-0.3-3.7-0.5-5.5-0.8c1.9,9.7,10.3,16.1,13.6,25.2
		c-3.7-3.2-6.3-7.4-8.9-11.4C277.3,920.9,274.3,915.3,272.3,909.4z"/>
	<path d="M319.9,910.5c0.8,0,2.3-0.1,3.1-0.2c2.2,0,4.3,0.3,6.5,0.5C326.3,911.9,322.5,913.3,319.9,910.5z"/>
	<path d="M258.8,920c0.5-0.1,1.4-0.4,1.9-0.5c-2,6.7-4.8,13.1-6.7,19.9c-6.7,12.5-14,24.7-22,36.4c-4.5,5.2-8.2,11.1-12.4,16.5
		c1.2-3.3,2.5-6.5,3.9-9.7c4.6-7.3,9.1-14.6,13.5-22c3.9-5.2,7.4-10.7,10.7-16.2c3.8-6.5,7.7-13,9.7-20.4
		C257.8,922.7,258.3,921.3,258.8,920z"/>
	<path d="M292.6,942.1c2.5,3.3,5,6.7,7.5,9.9c3.7,5.8,7.7,11.4,11.5,17.2c2.3,5,5.2,9.8,7.4,14.9c-3.7-3.5-6.4-7.7-10-11.3
		c-3.1-4.2-5.9-8.7-8.7-13.1C297.8,953.8,294.6,948.2,292.6,942.1z"/>
	<path d="M209.5,997.3c3.1-0.3,6.1-1.3,9.1-2.3c-0.8,2-1.5,4.2-2.7,6c-1.9,0.9-4.1,0-6.1,0.1c-3.8-0.4-7.3,1-10.7,2.5
		c-2.2,0.7-4.4,1.4-6.6,2c-1.8,0-3.5-0.1-5.3-0.2c0.1-0.9,0.2-1.8,0.2-2.7c2.3-0.6,4.5-1.3,6.8-1.9c5.1,0.2,10-1.4,14.6-3.4
		L209.5,997.3z"/>
</g>
</svg>
