<?xml version="1.0" encoding="utf-8"?>
<!-- Generator: Adobe Illustrator 18.0.0, SVG Export Plug-In . SVG Version: 6.00 Build 0)  -->
<!DOCTYPE svg PUBLIC "-//W3C//DTD SVG 1.1//EN" "http://www.w3.org/Graphics/SVG/1.1/DTD/svg11.dtd">
<svg version="1.1" id="Layer_1" xmlns="http://www.w3.org/2000/svg" xmlns:xlink="http://www.w3.org/1999/xlink" x="0px" y="0px"
	 viewBox="0 0 200 150" enable-background="new 0 0 200 150" xml:space="preserve">
<path fill="#070906" d="M26.5,12.6c6.8-5.5,15.7-8.2,24.4-8c9.7,0.1,19.8-0.6,29.1,2.7c4.4,1.4,8.4,4,13.1,4.3
	c4.1,0.3,7.9,1.6,11.8,2.6c4.2,1.1,6.5,5.1,9.1,8.2c-5.4-0.3-9.6-4.2-14.5-6.2c2.8,3.1,6.8,4.8,10,7.5c2.1,2.4,1.4,5.7,1.8,8.6
	c0.2,2.8,1.9,5.2,2,8c0.3,2.4,0,4.9,0.4,7.3c1.2,2.6,3.7,4.5,4.5,7.3c0.9,3,0.8,6.2,0.8,9.3c0.1,7.2-4.1,13.8-3.9,21
	c-0.2,4.8,2.3,9.1,1.8,13.9c-0.5,7.3,1.3,15-2,21.9c-2,4.3-4.8,8.7-9.3,10.8c-3.8,1.8-7.9,3.2-11.1,6.1c-3.1,2.8-7.6,2.4-10.9,4.8
	c-3.6,2.6-8.3,3.2-12.6,2.6c-4-0.6-7.3-3-11-4.4c-3.7-1.3-7.6-1.8-11.1-3.6c-6.7-3.4-13.7-6.5-19.4-11.5
	c-5.8-4.8-9.8-11.5-12.7-18.4c-5.6-11.4-9.1-23.6-11.5-36C4.7,61.9,4.9,52.3,7,43.1c1.2-5.5,1.6-11.4,5.1-16
	C15.6,21.1,21.2,16.8,26.5,12.6 M45.6,7.7c-0.4,0-1.1,0-1.5,0c-0.2,0.1-0.6,0.4-0.8,0.5c-4.5,0.3-9.1,1.8-12.2,5.3
	c-3.1,0.7-5.2,3.3-7.6,5.1c-5.2,4.3-10.1,9.6-11.8,16.3c-2.4,8.9-3.7,18-4.4,27.2c-0.2,3,0,6,0.6,9c2.5,11.9,6.1,23.7,11.2,34.8
	c2.8,5.9,5.8,11.9,10.6,16.5c5,5,11.7,7.7,18.1,10.7c5.8,2.8,12.3,3.9,17.9,7.3c4.5,2.7,10.4,2.9,15.2,0.9c0.7-1.3,1.2-2.6,1.7-4
	c4,1.1,8.2,0.5,11.5-2.1c-3.4-1.6-7.7-1.4-10.7-4c-1.5-2.2-3.3-4.1-5.2-5.9c-1.5-5.2-5.8-9-9.9-12.2c-4.5-3.7-10.1-5.4-15.7-6.6
	c2.7-1.7,6-0.8,8.7,0.3c5.9,2.4,10.7,6.7,15.2,11.1c0.2-3.5,0.3-7.1,0.7-10.6c0.6-5.9,3.8-11.1,4.2-17c0.4-6,0.4-12.1-1.3-17.9
	c-0.8-2.8-1.4-5.8-0.6-8.6c1.1-3,3-5.7,4.7-8.5c-5,0.9-10,2.5-15.2,2c-3.2-0.3-6.5,0.2-9.3-1.6c5.4-0.9,10.9,0.2,16.2-0.6
	c5.5-1.2,11.5-3.2,14.3-8.5c-3.5-0.9-8.3-0.8-10-4.7C78,37.1,78.5,31.1,81.8,27c2.3-3.8,6.7-5.3,10-8.1c1.9,0,3.7,0,5.6,0
	C93.4,13,85,15.1,79,15.6c-0.1-2.9,3.1-2.8,5.1-3.8C74.8,7.1,64.2,7,54,6.7C51.2,6.6,48.3,7,45.6,7.7 M82.5,31.8
	c-1.7,3.3-1,7.8,1.9,10.2c5.6,2.7,11.7,0.7,17.6,0.2c2.1-0.2,3.5-2.2,4.3-4c2.1-4.4,3.6-10,0.1-14c-0.3,2.4-0.1,5.4-2.4,6.8
	c-2.6,0.6-5.6-0.2-6.7-2.8c0.8-2.7,3.6-4,5.5-5.8c-2.8-0.4-5.7-1.5-8.6-0.8C89.1,23.2,85,27.1,82.5,31.8 M109.9,38
	c-1.2,1.9-2.3,3.8-3.4,5.7c1.3,0.5,2.6,1.1,3.9,1.6C110.4,42.9,110.3,40.4,109.9,38 M96.5,45.8C89.1,50,85.3,58.5,83.3,66.4
	c-1.5,4.3,1.4,8.4,1.3,12.8c0.1,5.5,0.6,11.3-1.2,16.6c-1.6,5.1-3.6,10.1-3.7,15.4c-0.2,5.3,0,11.4,3.6,15.6c4.8,5,12.7,5.6,19,3.5
	c7.8-2.8,11.6-11.4,12-19.2c0.3-6.9,0.6-14-1.6-20.7c-3.2-10.3,4.9-19.9,3.3-30.3C115.9,50.6,105.3,43.3,96.5,45.8z"/>
<path fill="#070906" d="M38.7,16.1c3.5-0.4,6.9-0.8,10.3-1.6c0.7,0.5,1.3,1.1,1.7,1.8c-3.5,1.1-7.1,1.6-10.5,3
	c-6.3,2.2-10.9,7.2-15.7,11.5c-3.4-0.5-6.8,0.1-10.1,1.3c2.9-2.5,5.7-5.2,8.6-7.8C27.5,20.2,33.1,17.8,38.7,16.1z"/>
<path fill="#060805" d="M41.2,22.3c5-1.3,10.1-0.3,14.7,1.6c2.9,1,4.9,3.5,5.7,6.4c2,5.6,2,12.6-2.3,17.2c-2.3,2.2-4.9,4.8-8.3,5
	c-5.6,0.3-11.7-0.9-15.9-4.7c-2.3-1.9-4-5.5-7.5-4.8c2.5-1.5,3.6-4,3.2-6.9c-0.4-3.8,2-6.9,4.5-9.5C37,24.7,38.7,22.7,41.2,22.3
	 M41.3,25.4c-5.6,2.8-9.4,9.3-8.1,15.5c1.3,5.6,7.8,7.5,12.8,8.4c6.3,1.3,13.7-3.4,13.8-10.1c0-4-0.3-8.6-3.2-11.8
	C52.3,24.4,46.3,23.7,41.3,25.4z"/>
<path fill="#070906" d="M38.2,36.6c3.2-1.2,8-1,9.4,2.6c-0.8,3.9-5.5,6.8-9.4,5.6C36.1,42.5,37,39.1,38.2,36.6z"/>
<path fill="#060805" d="M97.2,51.2c3.5-1.3,7.6-0.1,10.6,2c3,3.3,3.5,8.1,4.6,12.3c1.7,6.6-2.7,12.6-4.2,18.8
	c-0.6,4.3-0.8,8.8,0.6,13c2.9,7.4,0.7,15.8-3.1,22.5c-3.3,6.8-14,6.4-18.1,0.6c-2.3-2.8-2.6-6.6-2.6-10.1c-0.3-7.4,1.6-14.7,2.8-22
	c0.8-7.7-0.3-15.5,0.6-23.1C89.6,59.7,92.2,53.9,97.2,51.2 M95.5,58.1c4.1-0.2,8.2,0.6,12.1,1.9c0.4-5.1-5.3-7.3-9.5-6.1
	C96.9,55,96.3,56.7,95.5,58.1 M96.1,65c1.6,0.3,3.3,0.6,4.9,0.8c-0.3-2.3-0.7-4.5-1.3-6.8C98.4,60.9,97.2,62.9,96.1,65 M91.4,65.7
	c1.2,0,2.4,0,3.7,0c0-2,0-3.9-0.1-5.9C93,61.2,91.5,63.1,91.4,65.7 M102,65.6c0.8,0,2.3,0,3.1,0c-0.5-2-0.9-3.9-1.4-5.8
	C103,61.7,102.5,63.7,102,65.6 M106.7,65.8c1.1-0.1,2.2-0.3,3.3-0.4c-0.7-1.4-1.3-2.8-2-4.2C107.6,62.8,107.1,64.3,106.7,65.8
	 M91,67.5c0,9.6,0.7,19.4-1.7,28.8c3.2,0.3,6.6,0.4,9.5,2c3.8,2,5.9,5.9,8.4,9.2c0.9-6.7-3.3-12.7-2.6-19.3
	c0.2-7.3,5.4-13.3,5.2-20.6C103.6,67.4,97.3,67.3,91,67.5 M89,98.2c-0.8,3.1-1.1,6.4-1.3,9.6c5.7,0,11.3,0.1,17-0.4
	c-1.7-2.8-3.5-5.8-6.5-7.4C95.5,98.2,92.1,98.3,89,98.2 M87.2,110c0.8,2.2,2.1,4.1,3.7,5.9c0.4-2,0.8-4,1-6
	C90.4,109.9,88.8,110,87.2,110 M93.5,109.9c0.2,1.4,0.3,2.8,0.5,4.2c0.7,0.1,2,0.2,2.6,0.2c0-1.5-0.1-2.9-0.1-4.4
	C95.5,109.9,94.5,109.9,93.5,109.9 M98.5,109.8c-0.1,2.7,0,5.7,2.1,7.7c0.2-2.5,0.3-5,0.3-7.5C100,110,99.2,109.9,98.5,109.8
	 M102.4,109.6c0.2,2.3,0.5,4.7,2,6.6c0.9-2.2,1.7-4.4,2.4-6.7C105.3,109.5,103.8,109.5,102.4,109.6 M89.4,117.5
	c2.7,5.4,10.8,5.4,14.6,1.1c-2.8-0.1-5.6-0.7-8.2-1.9C93.6,115.3,91.4,117,89.4,117.5z"/>
<path fill="#C00205" d="M158.5,70.7c4-0.5,8.8,0.2,11.4,3.5c3.5,3.8,3.5,9.3,2.9,14.1c-0.7,4.2-3.4,8.7-7.9,9.5
	c-3.7,0.5-7.9,0.8-11.1-1.4c-3.4-2.2-5.1-6.3-5.7-10.2C148.2,79.7,150.7,71,158.5,70.7 M158.5,75.6c-3.3,0.9-4.6,4.4-4.7,7.6
	c-0.2,3.1,0.1,6.7,2.6,8.8c2.6,1.3,5.9,1.5,8.5,0.2c3.3-2.6,2.5-7.3,2.4-11C167.5,76.8,162.3,74.3,158.5,75.6z"/>
<path fill="#C00205" d="M127.8,71c1.4-0.1,2.8-0.2,4.2-0.3c0.3,7.4,0.2,14.8,0,22.1c4.6,0,9.2,0.1,13.8,0.3c0,1.6,0,3.2,0,4.8
	c-6,0-12,0-18,0C127.3,89,127.3,80,127.8,71z"/>
<path fill="#C00205" d="M177.5,98c-0.5-9.1-0.7-18.2,0.4-27.2c1.4,0.1,2.9,0.2,4.4,0.3c0.9,7.2,0.4,14.6,0.4,21.8
	c4.1,0,8.3,0,12.4,0.2c0,1.6,0,3.3,0,4.9C189.2,98,183.3,98,177.5,98z"/>
</svg>
