<?xml version="1.0" encoding="utf-8"?>
<!-- Generator: Adobe Illustrator 18.0.0, SVG Export Plug-In . SVG Version: 6.00 Build 0)  -->
<!DOCTYPE svg PUBLIC "-//W3C//DTD SVG 1.1//EN" "http://www.w3.org/Graphics/SVG/1.1/DTD/svg11.dtd">
<svg version="1.1" id="Layer_1" xmlns="http://www.w3.org/2000/svg" xmlns:xlink="http://www.w3.org/1999/xlink" x="0px" y="0px"
	 viewBox="0 0 118 145" enable-background="new 0 0 118 145" xml:space="preserve">
<path fill="#050605" d="M28.4,5.6C34.6,2.8,41.3,1.3,48,1.2c7.1,0.1,14.2-0.4,21.2,1.1c5.2-0.2,9.7,2.4,14.3,4.4
	c3.9,2.8,8.9,2.6,13,5c4.8,3,11.3,2.3,15.2,6.8c0.3,1.9-0.3,3-2.4,1.9c1,4.8-0.1,9.8,0.3,14.6c0.8,2.7,1.1,5.5,1.4,8.2
	c0.4,3.5,3.9,5.5,4.5,8.9c3.1,9.4-1.3,18.8-3.5,27.9c-1.2,4.1,1.9,7.8,1.6,11.9c-0.1,8.9,0.2,17.8-1.3,26.6
	c-2.3,8.5-10.5,13.7-18.5,16.1c-2.8,1.7-5.5,3.6-8.7,4.3c-2.1,0.4-3.8,1.8-5.2,3.4c-4.7,0.5-9.3,1.6-14,0.7
	c-2.8-0.6-5.1-2.3-7.8-3.4c-5.8-0.9-10.8-4.6-16.3-6.5c-5.2-1.7-9.6-4.9-14-8.1c-4.7-3.2-8.6-7.6-11.2-12.6
	c-2.9-6.1-4.6-12.6-7.7-18.6c-1.7-5.6-3.8-11.2-5.5-16.8c0-5.2-2.5-10-2.1-15.2c0.1-3.7,0.4-7.3,0.3-10.9c-0.1-4.1,2-7.9,2-12
	c0.1-6.7,2.9-13.2,6.9-18.5C16.5,15.5,21.6,9.5,28.4,5.6 M43.3,5.3L43.3,5c-0.7,0.3-2.1,1-2.7,1.3C36,6.1,31.1,8,28.1,11.5
	c-1.4,0.2-2.6,1-3.7,1.9c-6.5,5.3-13.4,11.1-15.6,19.5C6,43.7,4.3,54.8,4.6,66c2.6,15.2,7.5,30,14.6,43.7
	c3.4,6.7,8.5,12.6,15.2,16.1c6.9,3.6,14.1,6.9,21.6,9.2c3.8,1.2,7.1,3.7,11,4.9c3.7,0.6,7.6,0.5,11.1-0.8c0.5-1.3,0.9-2.7,1.4-4
	c3.6,0.9,7.2,0.5,10.5-1.2c0.2-0.4,0.6-1.3,0.8-1.7c-3.8,0-7.3-1.3-10.6-3c-1.1-2.5-3.1-4.3-5.1-6.2c-2.1-6.6-8-11.1-13.7-14.7
	c-3.8-2.6-8.4-2.8-12.6-4.3c2-0.5,4.2-1.2,6.2-0.5c7.3,1.7,13.1,6.9,18.3,12c0.2-3.2,0.4-6.4,0.6-9.6c0.3-6.3,3.9-11.8,4.3-18
	c0.4-6,0.5-12.1-1.3-17.9c-0.9-2.8-1.4-5.8-0.6-8.6c1.1-3,3-5.7,4.7-8.4c-5,1-10.1,2.5-15.2,2c-3.1-0.3-6.6,0.3-9.3-1.6
	c5.4-0.9,10.9,0.2,16.3-0.6c5.4-1.2,11.6-3.1,14.3-8.4c-3.5-0.8-8.3-0.7-9.9-4.7c-2.3-4.7-1.7-10.7,1.6-14.8
	c2.4-3.9,6.8-5.4,10.1-8.1c1.8,0.1,3.6,0.1,5.4,0C90.4,10.9,82,13,76.1,13.5c-0.6-3.1,2.9-2.9,4.9-3.7c-8.6-4.5-18.5-4.8-28-5.1
	C49.8,4.7,46.5,4.5,43.3,5.3 M90.5,19.7c-4.9,1.9-9,5.8-11.2,10.5c-1.5,3.7-0.3,9.7,4.3,10.4c4.8,1.5,9.7-0.1,14.5-0.5
	c2.8,0.1,4.6-2.4,5.5-4.7c1.8-4.2,3.3-9.6-0.3-13.3c-0.1,2.3,0,4.8-1.9,6.5c-2.8,1.5-5.9-0.2-7.5-2.6c1.4-2.4,3.6-4.1,5.7-5.7
	C96.6,19.8,93.5,18.6,90.5,19.7 M106.9,36c-1.2,1.8-2.3,3.7-3.3,5.7c1.3,0.5,2.5,1,3.8,1.5C107.3,40.8,107.2,38.4,106.9,36
	 M93.6,43.7c-7.6,4.2-11.4,13-13.4,21.1c-1.3,4.2,1.6,8,1.5,12.2c0,5.5,0.6,11.1-1.2,16.4c-1.5,5.1-3.7,10.2-3.8,15.7
	c-0.2,5.6-0.1,12,4.1,16.2c5.6,5,14.6,5.3,21,1.6c4.4-2.4,6.8-7.1,8.3-11.6c1.7-5.9,0.7-12.2,0.9-18.2c0.2-5.5-2.9-10.5-2.1-16
	c1-7.7,5.1-15,4.1-23C112.9,48.5,102.4,41.2,93.6,43.7z"/>
<path fill="#080A07" d="M47.1,12.1c0.3,0.1,1,0.4,1.3,0.5L48,14c-3.6,1.4-7.4,1.8-10.9,3.2c-6.2,2.2-10.8,7.2-15.6,11.5
	c-3.4-0.6-6.8,0-10,1.3c4.4-3.7,8-8.6,13.4-10.8c2.7-3.1,7.1-3.8,10.8-5.2C39.5,13.5,43.4,13.3,47.1,12.1z"/>
<path fill="#070806" d="M34.3,22.3c3-3,7.5-3.2,11.5-2.8c1.6,0.5,3.2,1.1,4.7,1.7c1-0.2,2-0.5,3.1-0.7c0.1,2.8,3.4,3.2,4.3,5.6
	c1.8,4.2,2.8,9,1.6,13.5C58.3,44.4,54.3,48,50,50c-6.2,1.1-13.1-0.2-18-4.4c-1.7-1.7-3.4-3.4-5-5.2c-1,0.2-2,0.4-2.9,0.7
	c2.7-1.6,4.3-4.2,3.7-7.4C27.4,28.9,31.1,25.3,34.3,22.3 M39.1,23.1c-5.8,2.3-9.7,8.8-9,15c0.9,6,7.7,8.2,12.9,9.1
	c6.3,1.3,13.7-3.3,13.7-10.1c0-4-0.3-8.5-3-11.7C49.5,22.4,43.9,21.8,39.1,23.1z"/>
<path fill="#080A07" d="M34.9,34.3c3.6-0.8,8.2-1,10.1,2.9c-1.6,3.6-5.6,6.8-9.8,5.5C33,40.4,34.3,37,34.9,34.3z"/>
<path fill="#080907" d="M93.4,49.5c4.9-2.5,12.4-0.1,13.8,5.6c1.6,5.1,3.8,10.7,1.9,16c-1.6,5.6-4.9,10.8-4.3,16.9
	c-0.6,5.2,2.9,9.8,2.4,15c-0.4,6.3-2.4,12.7-6.6,17.5c-6,4.8-16.2,1.4-18-6.2c-1.8-8.7,0.1-17.7,1.8-26.3c2-10.2-1.7-21.2,2.7-30.9
	C88.6,54.1,90.6,51.3,93.4,49.5 M92.6,56c4-0.2,8,0.5,11.8,1.8c0.6-5.1-5.4-7.1-9.4-6C93.9,53,93.3,54.6,92.6,56 M93.2,62.9
	c1.6,0.2,3.1,0.5,4.7,0.7c-0.2-2.2-0.6-4.4-1.1-6.6C95.4,58.8,94.2,60.8,93.2,62.9 M88.5,63.5c1.2-0.1,2.4-0.1,3.6-0.2
	c-0.1-1.9-0.1-3.8-0.2-5.6C90,59.1,88.5,61,88.5,63.5 M99.1,63.4c0.7,0,2.1,0,2.9,0c-0.4-1.9-0.8-3.8-1.3-5.7
	C100,59.6,99.5,61.5,99.1,63.4 M103.7,63.6c1.1-0.1,2.2-0.2,3.2-0.3c-0.6-1.3-1.2-2.6-1.8-3.9C104.7,60.8,104.2,62.2,103.7,63.6
	 M88,65.4c0,9.6,0.7,19.3-1.6,28.7c3.4,0.3,7.1,0.5,10.1,2.3c3.4,2.1,5.3,5.7,7.7,8.8c0.9-6.6-3.3-12.6-2.6-19.2
	c0.2-7.2,5.4-13.3,5.2-20.6C100.5,65.3,94.3,65.2,88,65.4 M86.1,96.1c-0.8,3.1-1.1,6.3-1.3,9.5c5.6,0.1,11.2,0.2,16.8-0.4
	c-1.7-2.8-3.5-5.7-6.5-7.3C92.4,96.1,89.1,96.3,86.1,96.1 M84.4,107.9c0.7,2.1,1.9,4.1,3.4,5.7c0.5-1.9,0.9-3.9,1-5.8
	C87.3,107.8,85.9,107.9,84.4,107.9 M90.6,107.8c0.1,1.4,0.3,2.8,0.4,4.1c0.6,0.1,1.9,0.2,2.5,0.2c0-1.4-0.1-2.9-0.1-4.3
	C92.5,107.8,91.6,107.8,90.6,107.8 M99.5,107.5c0.1,2.2,0.3,4.6,1.9,6.4c0.9-2.1,1.7-4.3,2.3-6.5
	C102.2,107.4,100.9,107.4,99.5,107.5 M95.4,108.1c0.1,1.9,0.3,3.8,0.6,5.7c0.4,0.3,1.2,1,1.6,1.4c0.1-2.4,0.1-4.9,0.1-7.3
	C97.2,107.9,96,108,95.4,108.1 M86.5,115.3c2.4,5.5,10.7,5.4,14.2,1.1c-2.8,0-5.6-0.6-8.1-1.9C90.6,113.3,88.5,114.8,86.5,115.3z"/>
</svg>
