<?xml version="1.0" encoding="utf-8"?>
<!-- Generator: Adobe Illustrator 18.0.0, SVG Export Plug-In . SVG Version: 6.00 Build 0)  -->
<!DOCTYPE svg PUBLIC "-//W3C//DTD SVG 1.1//EN" "http://www.w3.org/Graphics/SVG/1.1/DTD/svg11.dtd">
<svg version="1.1" id="Layer_1" xmlns="http://www.w3.org/2000/svg" xmlns:xlink="http://www.w3.org/1999/xlink" x="0px" y="0px"
	 viewBox="0 0 369 374" enable-background="new 0 0 369 374" xml:space="preserve">
<path fill="#090909" d="M202.8,0H222c4.9,1.2,9.9,0.3,14.8,1.3c6.3,1.5,12.5,3.6,18.8,5.2c3.6,1.6,7.2,2.9,11,3.9
	c8.5,3.6,16.4,8.4,24.8,12.2c3.8,1.7,6.9,4.6,10.8,6.3c7.8,3.5,14,9.4,21,13.9c5.3,3.3,9.2,8.1,13.3,12.7
	c9.8,12.6,18,26.6,23.3,41.7c2.4,8.5,5.2,16.9,6.6,25.6c3,11.1,1.2,22.8,1.7,34.2c-0.9,12.8-3.9,25.4-6,38.1
	c-1.8,9.4-3.1,19.1-6.9,28c-1.9,6.2-5.6,11.4-9.7,16.3c-4.9,7.1-11.8,12.2-18,18.1c-3.3,2.8-6.6,5.9-10.7,7.4
	c-6.1,2.4-12.1,5.1-18,8c-8.1,4.7-16.9,8.5-26,10.8c-6.6,1-13.1,2.8-19.9,2.7c-4.8,0.3-9.8-1-14.4,1.1c-2.3,1.4-5,4-3.4,6.9
	c4.2,3.9,9.3,6.7,13.3,10.9c4.6,3.9,9.4,8,15,10.4c-0.1-3.7-0.8-7.3-1.2-11c-0.2-1.3,0.9-2.3,1.4-3.4c3.9,4.1,3,10.2,5.8,14.9
	c2.4-0.2,4.6-1.3,6.5-2.6c0.5-4.2-0.3-8.3-2.3-12c2.6,0,4.9,1.5,6.3,3.7c0.8,4-0.3,7.9-0.8,11.9c3-0.2,5.9-0.8,8.8-1.5
	c0.8-2.8,0.9-5.8,1.5-8.6c1.1-0.9,2.2-0.9,3.4-0.2c0.3,2.6,0.3,5.2,0,7.8c-1.4,4-7.2,4.8-7.1,9.4c2,0.1,4.1,0.4,6.1-0.1
	c2.1-1.2,3.9-3.1,6.5-3.2c-0.3,3.4-2.4,7.5-6.2,7.6c-3,0-6.5,0.8-8.8-1.5c-3-2.2-5.9-4.7-9.4-5.8c-1.8-0.2-4.8-0.5-4.9,2
	c1.9,3.4,5.2,5.5,7.9,8.3c2.6,2.2,5,5,8.3,6.3c4.5-1.4,8.1-4.4,12.4-6.2c5.8-2.1,9.8-7.1,15.4-9.5c8.3-5.5,17.5-10.9,22.6-19.8
	c-2.8-2.5-5.7-4.9-7.8-8c0.8-1.1,1.6-2.1,2.4-3.2c2.4,2.7,4.5,5.8,7.6,7.7c3.1,0.8,6.3,1.1,9.4,1.7c1.4-3.6,2-7.4,2.5-11.1
	c0.5-0.1,1.4-0.4,1.9-0.6c2.8,3.8,0.1,8.2,0.6,12.4c0.7,1.1,1.7,1.5,3,1.2c2-2,3.1-5.5,6.6-5.2c-0.4,6-5.7,10.4-11.5,10.7
	c-3.6,0-6.5-2.8-9.9-3.6c-2.4,0.7-3.5,3.3-5.1,5.1c-3,4.4-7.7,7-11.8,10.2c-6.3,4.9-13.8,8.1-19.7,13.4c-6.4,2.9-12.6,6.4-18.8,9.7
	c-8.8-5.8-16.1-13.5-23.1-21.3c-4.4-0.9-8.8,1-12.7,2.8c-12,5.1-25.1,5-37.9,6.2c-3.5,0.2-6.9,2.2-8.6,5.4
	c-2.6,4.5-4.3,9.5-6.7,14.1c-2.8,7.8-7.9,14.5-11.7,21.8c-0.9,2.2-3.2-0.1-4.6-0.3c3.4-10.3,11.4-18.3,14.8-28.6
	c1.1-3.1,2.5-6.1,3.7-9.1c-9.3-0.6-18.3,2.6-26.9,6c-8.5-12.6-21.8-20.6-31.4-32.2c-5.6-5.3-11.4-10.5-16.2-16.5
	c-2.4-3.9-6-6.8-9-10.2c-2.5-2.8-4.2-6.6-7.7-8.4c-1.4-1-3.9-1.6-3.6-3.8c-0.2-1.6,1.7-2.2,2.5-3.2c2.3,1.1,4.7,1.9,6.7,3.5
	c2,1.8,3.4,4.1,4.9,6.2c3,4.3,7.4,7.3,10.3,11.6c6.5,8.2,14.7,14.6,21.4,22.6c7.9,7.8,17,14.5,24,23.2c7.9-1.9,15.7-5.3,23.9-4.7
	c2.1-0.1,4.5,0.3,6.4-1.1c8.3-8.5,12.4-19.9,20.1-28.9c2.8-3.5,5.8-6.8,7.8-10.8c-16.5-0.1-32.8-3-49.1-5.9
	c-5.8-1.3-11-4.2-16.7-5.9c-5.6-1.8-11.4-3.5-16.4-6.8c-12.4-6.3-24-13.9-35.3-21.8c-4.6,2.4-8.8,5.4-12.4,9.1
	c-6.1,6.3-13.2,11.5-19.5,17.5c-4.8,4.6-10.7,7.9-15.4,12.5c-7.3,7-16.6,11.8-22.9,19.9c-3.8,5.5-7.5,11.2-11.6,16.5
	c-3.6,4.5-4.7,11-9.6,14.5c-4.6,3.3-8.3,7.7-12.4,11.7c-3.8,3.7-5.1,8.9-8.2,13c-0.9-3.2-2.2-7.2,0-10.2c3.2-5.4,8.2-9.2,12.3-13.8
	c1.8-2,4-3.4,6.1-5c2.1-1.7,3-4.4,4.2-6.7c2.4-5.3,6.5-9.5,9.7-14.4c3.8-5.2,6.7-11.2,12-15c7.5-5.8,14.8-11.8,22-17.9
	c11.4-8.8,22.1-18.5,32.7-28.4c2.8-2.4,6.1-4.4,7.9-7.7c-2.7-2.5-5.5-4.9-7.4-8.1c-5.2-8.3-10.2-17.2-12-27
	c-3.6-10.9-3.6-22.6-6.4-33.7c-3-12.5-1.3-25.5-1.8-38.2c-0.3-5.3,0.6-10.5,2.6-15.3c3.5-12.8,5.6-26.1,10.7-38.3
	c5.3-12.2,8.6-25.3,15.1-36.9c2.3-3.3,5.8-5.5,8.7-8.2c6.2-5.6,12.7-10.9,19.8-15.3c5.3-4.8,11.6-8,18-10.9
	c3.4-1.6,7.2,0.9,10.6-0.5c3.7-0.9,6.6-3.4,10.2-4.6C185.3,2.5,194.1,1.4,202.8,0 M187.2,7.5c-3.5,1-7.3,0.7-10.7,2.3
	c-8.4,4.6-17.6,8.1-27.2,8.8c-2.3,0.6-4.2,2.3-5.9,3.8c-3.4,3.4-8,5.2-11.6,8.4c-5.3,4-10.2,8.5-15.3,12.7c-4.3,3.4-5.9,9-8,13.8
	c-3.3,7.5-5.4,15.6-8.8,23.1C94.6,92.3,92,105,89.1,117.6c-1.1,3.8-2.8,7.4-2.7,11.4c0,12-0.2,24,0.1,36c1.2,10.7,4,21.2,5,32
	c2.4,13.5,7.5,26.7,16,37.5c3.1,3.2,7.1,5.3,11.3,6.4c3,4.8,8.1,7.4,12.7,10.4c8.1,5.4,16.8,9.8,25.3,14.5
	c6.1,2.5,12.5,3.9,18.5,6.7c4.3,2.3,9.1-0.1,13.7,0c-1.5-1.2-4-2.1-3.3-4.5c1.6,0.4,3.2,0.9,4.8,1.7c0-0.8,0.1-2.3,0.1-3
	c1.3-0.1,2.5-0.3,3.8-0.4c0.1-1,0.2-2,0.3-2.9c4.5,0.3,6.4-3.9,9.2-6.5c4.6-3.6,6.3-9.5,10.4-13.7c-1.4,5.2-3.7,10.2-6.4,14.9
	c-1.9,3-5.3,4.5-7.8,7c-3.6,3.7-7.3,7.3-11,11c8.2,2,16.7,2.7,25.1,3.8c6.5,1.5,13.3,0.3,19.9,1.3c7.3,0.6,14.7,0.4,22,0.3
	c14-0.7,27.5-5.2,39.6-12c-0.4-6.4-3.4-12.2-4.8-18.3c-2.8,1.9-4.9,4.8-8,6c-8.9,1.6-17.8-0.6-26-4c-2.7-1.3-5.8-0.3-8.5-1.5
	c-3.7-1.5-8.1-2-11.8-0.3c-2.1,1.1-4-0.8-6-1.3c0,1.8,0.1,3.6-0.2,5.4c-5.2,3.5-8.3,9.1-11.8,14.2c-0.3,0-0.8,0-1.1,0.1
	c1.8-9.7,4.4-19.7,10.6-27.7c1-1.5,2-3.2,3.8-4c-3.4,6.8-10.1,12.5-9.6,20.7c1.6-0.9,3.9-0.9,4.6-2.8c1.1-2.8,2.6-5.6,2.6-8.7
	c3.5-1.4,7.1-4.1,11.1-2.4c3.9,0.9,6.7,4.8,11,4.1c-3.7-3.4-8-6.2-10.6-10.6c4.3,2.6,7.9,6.1,12.2,8.7c6.5,3.4,13.8,4.9,20.9,6.6
	c3.4,0.2,6.9,0.5,10.3-0.2c3.3-1.8,5.8-4.9,7.1-8.4c0.4-3.9,0.1-7.9-0.3-11.8c-1.3-2.1-3.4-3.4-5.6-4.4c-1-0.3-2.6-0.4-3.1,0.8
	c-3,3.1,2.5,8-1.1,10.9c-2.2,0.5-4.5,0.8-6.8,1.1c-0.1-0.5-0.2-1.4-0.3-1.9c2.3,0,4.6,0,7,0c0.2-0.7,0.5-2.1,0.7-2.7
	c-1.6-1.6-3.2-3.2-5-4.6c-1.8,1.3-3,3.1-4.2,5c-0.5-2.5-1.5-4.7-3.6-6.1c-1.4,0.6-2.8,1.3-4.2,2c-1.6-2-3.6-3.6-6.3-3.9
	c-1,2.3-2.2,4.5-2.5,7c-6.5-3.9-12.4-9.4-20.1-10.8c-1.5,3.1-3.8,5.6-6.6,7.5c5.9-8,8.2-17.8,11.3-27.1c0.8-2.8,2.6-5.9,0.7-8.7
	c-1.1,0.6-2.2,1.2-3.3,1.8c0.1-0.5,0.4-1.5,0.5-2c4.7-0.7,4.5-7.2,2.8-10.6c-0.7,0.4-2.2,1.1-3,1.4c1.4-2,2.6-4.6,5.4-4.9
	c6.4-1.3,12.4-4.9,19-4.3c2.1,0.8,4.1,1.7,6.2,2.3c-2.1,2.1-4.5,3.9-7,5.4c-2.6,1.6-4.3,4.3-6.8,6.1c-4.1,2.9-6.7,7.3-10.4,10.6
	c-2.6,2.3-3,5.7-2.9,8.9c3.3-0.4,6.4-1.8,9.4-3.2c3.8-4.4,8.4-8.1,13.5-11c2.8-1.7,6.3-1.5,9.2-2.9c3.9-1.5,7.8,0.9,11.7,0.6
	c-0.2,1-0.5,2-0.7,3c3.3,1.1,6.7,2.4,9.3,4.8c0,3.5-0.9,7-2.4,10.1c-2.6,3.6-3.3,8.1-6.1,11.5c1.2,1.2,2.4,2.4,3.9,3.2
	c0.9-1.4,1.4-5.2,3.7-3.1c1.7,1.8-0.8,3.4-1.5,5c0.8,1.7,1.6,3.4,2.5,5.1c-3.2,3.5-2.4,8.3-2,12.6c1.9,6.7,5.9,12.4,7.8,19.1
	c4.1-2,8.3-3.9,12.5-5.6c7.4-3,13-9,18.9-14.2c5.9-5.1,10.6-11.4,15-17.7c8.1-13.9,9-30.3,12.1-45.7c0.9-6.8,3.1-13.4,3.3-20.4
	c1.4-10,0.6-20.2,0.7-30.3c-3.3-21.8-9.4-43.7-22-62.1c-5-7.8-10.4-15.5-17.4-21.7c-9-6-17.4-13.2-27.3-17.7
	c-6.1-4.5-13.4-7-19.9-10.9c-5.1-2.7-10.4-5.3-16-6.7c-7-3.3-14.6-4.7-21.9-7c-6.5-1.9-13.3-0.3-19.7-2.2c-5-0.1-10-0.3-14.9,0.1
	C198.6,6.3,192.7,5.9,187.2,7.5 M244.4,195.2c-1.5,0-1.8,2.8-0.2,2.9C245.6,198,246.1,195.2,244.4,195.2 M243.6,199
	c-1.1,0.9,0,3.4,1.4,2.3C246.3,200.5,245,197.8,243.6,199 M267.9,199.7c3.4,3.8,8.7,7.3,14,5.6C279.3,200.2,273.2,198.2,267.9,199.7
	 M262.6,203.6c-0.1,0.7-0.2,2-0.2,2.7c2.5,0.3,5.3-0.5,7.4,1.1c2.7,1.9,6.1,2,9.3,2.2c0-1-0.2-2-0.6-2.9c-3.9-0.4-6.9-3-10.5-4.3
	C266.1,202.2,264.3,202.8,262.6,203.6 M284.2,207.2c2.9,0.4,6.5,1.1,9-1.1c-2-3.1-5.9-3.9-9.4-3.7
	C281.4,203.1,281.9,206.8,284.2,207.2 M255.2,207.3c0.1,2.4,0.8,4.7,1.5,7.1c4.4-0.1,8.5,1.3,12.6,2.6c0.1-3.2,0.4-6.5-0.8-9.5
	c-0.7-0.1-2.1-0.2-2.8-0.3c-0.9,2.1-1.4,4.2-1.5,6.5c-0.3,0.1-0.9,0.2-1.1,0.2c-1.3-2-0.5-4.4-0.6-6.6
	C260.1,206.4,257.6,206.3,255.2,207.3 M280.4,210.7c2.1-0.1,4.4,0.1,5.9-1.8c-1.8-1.3-4-1.6-6.1-1.9
	C280.2,208.3,280.3,209.5,280.4,210.7 M287.7,208.4c1,2.2,2.1,4.3,3.4,6.4C292.3,211.9,291.6,207.8,287.7,208.4 M270.4,210.9
	c0,3-0.5,8.5,4.1,7.8c0-1.5,0-3,0-4.6c0.5,0.1,1.5,0.2,2,0.2c0.6,2.1,1.4,4.2,2.6,6.1c1.4-1.3,2.9-2.6,3.4-4.4
	c-0.4-1.8-1.6-3.2-2.5-4.8c-2.6,0.5-4.9-0.9-7.1-1.8C272.3,209.8,271.1,210.5,270.4,210.9 M250.4,212.1c0,0.8-0.1,2.3-0.2,3.1
	c1.4-0.5,2.8-1,4.3-1.5c0-0.6,0-1.8,0-2.4C253.1,211.5,251.8,211.8,250.4,212.1 M283.3,213.8c0.1,2.1,0.1,4.1,0.3,6.1
	c1.3-0.1,2.5-0.3,3.8-0.5c2.5-2,0.9-5.9-1.3-7.5C285.4,212.4,284,213.3,283.3,213.8 M242.1,215.3c0.5,1.1,0.9,2.2,1.4,3.3
	c1.7,0,3.5,0,5.2-0.1c-0.3-1.3,0-2.8-0.8-4C245.9,214.4,244,214.8,242.1,215.3 M239.7,218.6c-0.9,1.5-1.8,3-2.7,4.5
	c2,0.9,4.1,1.6,6.3,1.8c-0.7-2.2-1.1-4.6-1.9-6.8C241,218.2,240.1,218.5,239.7,218.6 M280.3,221.1c0,1.1,0.1,2.3,0.1,3.4
	c1.4,0,2.9,0.1,4.3,0.1c0-0.6-0.1-1.8-0.2-2.4C283.1,221.8,281.7,221.5,280.3,221.1 M245.5,226.6c2.4,3,5.8,5,8.9,7.3
	c1.2-2.1,3.5-5.3,0.8-7.2c-1.5,0.7-2.9,1.4-4.4,2.1c-0.2-2.6,0.1-5.5-2.8-6.6C246.9,223.4,244.3,224.6,245.5,226.6 M257.4,223.2
	c0,1,0,2.1-0.1,3.1c3.6,0.9,6.8,3.4,10.7,3.3c4.2-0.3,7.9,2.7,12.3,1.6c-2.4-2.5-4-5.7-6.8-7.7c-2.4-1.1-4,1.3-5.6,2.7
	c-0.2-0.8-0.5-2.4-0.7-3.1c-2.1-0.1-3.8,1-5.1,2.6C261.1,223.9,259.4,223.2,257.4,223.2 M229.7,298.5c-4.9,5.7-9.1,12-12.5,18.6
	c-1.5,3-4.1,5.2-5.6,8.2c3.1,0,6.2-0.6,9.4-0.6c11.3-0.1,22.2-3.3,32.6-7.3c1.3-2.7-2.4-3.7-3.9-5.2c-5.8-5-11.2-10.4-17.9-14.2
	C231.3,298.2,230.2,298.4,229.7,298.5z"/>
<path fill="#090909" d="M200.6,29.2c-0.5-4.1,1.5-8.2,4.4-10.9c0.2,0.7,0.6,2.1,0.8,2.9c-1.6,2.1-3,4.4-2.5,7.1
	c1.7,0.1,3.5,0.1,5.2,0.3C206.8,31.8,203.2,30,200.6,29.2z"/>
<path fill="#090909" d="M252.3,21.1c4.8,1.2,8.1,5.9,9.6,10.4c2,6.1,6.1,11.8,5.7,18.5c-0.1,2.7,0.8,5.3,1,8
	c0.1,3.7,3.2,6.5,3.4,10.3c-4.5-3.6-6-9.7-6.6-15.2c-1.2-5-3.9-9.4-5.3-14.4C258.4,32.5,255.1,26.8,252.3,21.1z"/>
<path fill="#090909" d="M273,22.1c3.4,2.8,0.4,7.1-1.2,10C269.1,29.1,272.5,25.4,273,22.1z"/>
<path fill="#090909" d="M275.6,29.4c-0.1-1.8,2-2.1,3.4-2.4c-1,3.1-2,6.3-2.6,9.6C274.8,34.6,275.6,31.8,275.6,29.4z"/>
<path fill="#090909" d="M236.1,38.1c6.7,1.6,12.2,6.2,16,11.8c5.4,6,8.4,14.1,15.2,18.8c3.1,3.4,7.3,6.8,7.4,11.8
	c0.4,0.1,1.3,0.2,1.8,0.2c0.7-3.8,0.6-8.1,3-11.3c3.3-4.6,7.7-8.2,11.5-12.4c3.8-4.2,9.6-7.9,15.3-5.3c-4.4,0.8-8.2,3.1-11.4,6.1
	c-5.3,3.6-10.2,7.9-14.2,12.9c-1.7,4.7-3.7,10.5-0.9,15.2c1.5,1.3,3.3,2.7,5.4,2.9c2.6-0.3,5.2-1.2,7.8-1.4c3.9-0.3,7-3,10.7-4
	c3.4-0.5,4.6-4.1,6.8-6.4c0.5,3.7-1.7,6.9-4.2,9.4c0,0.5,0.1,1.4,0.2,1.9c4.6,0.2,9.5-0.4,13.5,2.2c5.7,2.8,12.2,6.3,13.8,13
	c-4.3-5.4-9.4-11.4-16.8-12c-5.2-1-10.6-1.1-15.9-0.6c-3.4,0.5-5.4,3.2-6.2,6.3c-1.1,0.2-2.2,0.4-3.3,0.6c0,5.2,0,10.4-0.2,15.6
	c-0.4,0.7-1.1,2.1-1.5,2.7c-0.8-3.5,0.2-7.1,0-10.6c-1.1,0.1-2.3,0.2-3.4,0.3c0.8-2.9,1.8-5.7,4.2-7.7c-2.3-3.3-4.8-6.6-8.5-8.3
	c-3.3-1.5-6.3-3.6-9-6c-1.9,1.6-3.8,3.2-6.1,4.2c1.1-3.2,5.6-4.9,4.8-8.8c-1.5-6.9-8.3-10.4-12.5-15.4c-2.7-2.8-3.8-6.7-6.3-9.7
	c-3.3-4-6.2-8.6-10.8-11.2C240,41.5,237.9,40,236.1,38.1z"/>
<path fill="#090909" d="M276.1,49.7c0.7-4,1.2-8.1,2.7-11.9c4,3.6,9,6.6,14.6,5.6c-1.5,0.9-2.9,2.6-4.9,2.1c-3.4-1.2-6.5-3-9.5-4.8
	c0.3,1.7,1.3,3.4,1.1,5.2C278.9,47.2,277.5,48.5,276.1,49.7z"/>
<path fill="#090909" d="M282.5,46.5c2.7,1,6.1,0.4,8.1,2.7c-2.8,0.2-5.6,0-8.5,0c-1.7,2.1-3.1,4.8-5.9,5.7
	C276.4,51,280.3,49.2,282.5,46.5z"/>
<path fill="#090909" d="M230.4,61.8c6.1,4.7,11.4,10.6,18,14.7c4.8,3,9.7,5.7,14.5,8.6c-4.3,2.7-9.7,2-14.3,4.2
	c-1.9-3.9-5-7-7.3-10.7C237.9,72.8,233.4,67.8,230.4,61.8z"/>
<path fill="#090909" d="M204.3,66.8c4.2-0.6,8.5-0.6,12.8-0.3c12.8,3.3,22.8,14.4,25.7,27.2c-0.5-0.1-1.5-0.2-2-0.3
	c-0.2-1.9,0.2-4.1-1.2-5.8c-6-9.1-14.8-16.9-25.7-19.3C210.6,67.7,206.7,69.5,204.3,66.8z"/>
<path fill="#090909" d="M274.1,71.4c1.4,0.2,1.7,0.8,0.8,2C273.5,73.3,273.2,72.6,274.1,71.4z"/>
<path fill="#090909" d="M202.3,80.3c5-3,11.1-3.1,16.7-2.4c0.6,0.4,1.9,1.1,2.5,1.5c-3.7,0.6-7.5-0.2-11.2,0.3
	c-3.6,0.9-6.9,2.7-9.7,5c-2.8,3.7-3.8,8.6-3.2,13.2c2.7,4.9,8.5,8.7,14.3,7.8c1.1,0.7,2.3,1.2,3.6,1.4c0.1-1,0.4-3.1,0.6-4.1
	c0.8,1.2,1.7,2.4,2.5,3.7c1.8,0,3.6,0.1,5.4,0.2c-3,3.1-7.6,3.5-11.6,2.6c-4.2-1.9-8.4-3.8-12.2-6.3c-3.8-2.7-4.7-7.6-4.5-12
	C195.1,86.4,198.4,82.3,202.3,80.3z"/>
<path fill="#090909" d="M206.9,88.2c1.5-1.8,3.5-4.1,6.1-3.8c4-0.6,5.2,4.3,8.6,5.5c1.3,5.6-4.2,11.6-9.9,10.3
	C207.4,98,205,92.7,206.9,88.2z"/>
<path fill="#090909" d="M250.2,90.2c1.8-0.4,3,1.7,4.8,1.5c4.5,0.3,9.1-2.3,13.4-0.1c0.1,0.5,0.3,1.4,0.3,1.8
	c-5,0.4-11.3-1.3-15.3,2.7c2.2,0.7,4.5,1.2,6.7,1.7c0.2,0.4,0.7,1.2,1,1.6c-1.5,0.5-3.1,1-4.6,1.6c5.6,2.2,12,2.9,17,6.5
	c1.7,1.2,3.1,4.6,5.5,2.6c-0.6-1.7-1.3-3.3-2-5c0.6,0.1,1.7,0.4,2.3,0.5c1.4,2.8,2.5,5.8,2.2,8.9c-0.3,0.1-0.8,0.2-1,0.2
	c0-1.1-0.1-3.2-0.1-4.3c-3.5,1.6-1.7,5.7-0.6,8.4c-0.5-0.2-1.5-0.6-2-0.8c-0.5-3-0.3-7.1-3.5-8.6c-4.4-2.1-8.9-4.4-13.8-4.8
	l-0.5,0.5c0.6,3.5,4.6,5.8,4.3,9.8c-2.3-2.7-4.6-5.4-7.8-7c0.8-0.8,1.7-1.7,1.9-3c-0.1-0.4-0.3-1.2-0.4-1.6c-2.9,0-5.8,0-8.4-1.4
	c0.1,1.3,0.1,2.6,0.2,3.9c-3.1,1-6.3,1.9-8.8,4c-3.1,2.4-6.7,4-10.2,5.5c-2.9,1.4-6.3,0.4-9.3,1.4c-3.5,1.2-7.2,0.6-10.8,0.8
	c-5.1,0.4-9.3-3.2-13-6.3c6.5,0,12.7,3.2,19.3,3c4.1-0.3,8.5,0.9,12.4-0.8c8.1-2.5,15.1-8.4,19.5-15.6
	C250.8,95.8,248.2,92.4,250.2,90.2z"/>
<path fill="#090909" d="M277.2,93.8c1.6,0.8,3.1,1.5,4.7,2.3c-1.3,1.4-2.9,1.2-4.5,0.6C277.3,96,277.2,94.6,277.2,93.8z"/>
<path fill="#090909" d="M306.4,97.3c3.5-1.1,7.1-0.8,10.7-0.8c1.5,0,3.3-0.1,4.5,1c4.3,3,8.8,6.7,9.8,12.1c0.2,4,0.5,9-3,11.8
	c-3.3,2.6-6.8,5.8-11.4,5.3c-6.2,0.9-11.5-2.9-16-6.6c-3.6-3.3-7.3-7.8-6.3-13.1C295.8,101.4,301.7,99.1,306.4,97.3 M304.8,103.8
	c-1.6-0.3-3.1-1.7-4.8-1.2c-1.8,1.4-2.6,3.6-3.4,5.7c-0.9,2.1,1.4,3.7,2.8,5c0.2-1.8,0.3-3.5,0.5-5.3c0.3,2.3,1.8,3.9,3.6,5.2
	c-1.7,0.8-3.3,1.6-4.8,2.5c1.7,2.4,3.9,4.2,6.3,5.8c0.5-0.5,1.4-1.6,1.9-2.2c0.4,1.9,1,3.7,1.8,5.4c3-0.3,5.4-2.3,7.9-3.9
	c-0.9,1.6-1.8,3.1-2.6,4.8c2.7,0,5.8,0.6,8.2-1.2c4.1-2.5,9.4-5.8,8.4-11.4c0.6-4.3-1.8-8-4.9-10.6c-4-4.2-10.3-4.3-15.7-3.8
	C307.2,98.9,302.9,100.2,304.8,103.8z"/>
<path fill="#090909" d="M228.3,101.6c1,0,2.9,0,3.9,0.1c-0.2,0.8-0.6,2.3-0.9,3C229,105.3,227.6,103.9,228.3,101.6z"/>
<path fill="#090909" d="M314.5,105.5c5.1-1.7,10.8,1.1,12,6.4c-0.7,1.8-1.4,3.6-2.4,5.2c-3.7,3.6-11.6,3.2-13.2-2.3
	C309.6,111.3,311.6,107.5,314.5,105.5z"/>
<path fill="#090909" d="M193.1,111.2c3.1,1.8,5.9,3.9,8.8,6.1c-0.7,0.2-2.1,0.5-2.8,0.7C196.9,115.9,194.6,113.8,193.1,111.2z"/>
<path fill="#090909" d="M296,131.1c-2.5-5-5.6-10.4-4.3-16.2c2.2,3.8,4,7.8,6.6,11.3c-0.6,5.4,3.5,9.9,3.3,15.3
	C297.6,139.6,297.7,134.6,296,131.1z"/>
<path fill="#090909" d="M230.8,128.5c5.8-3.5,11.8-6.6,17.3-10.5c-1.9,3.6-5.5,5.8-8.6,8.3c-4.6,3.9-10.2,6.9-16.3,7.4
	c-2.9,0.3-5.8,1.3-8.8,1c-2.6-0.4-4.6-2.3-5.7-4.6c1.9,0.3,3.7,1.1,5.5,1.4c2.1,0.5,3.4-1.6,5-2.5c1.8-1.5,4.1-0.2,5.8,0.6
	C226.6,128.1,228.8,128.7,230.8,128.5z"/>
<path fill="#090909" d="M296.4,119.5c1.6-0.5,2.2,0.1,1.7,1.7C296.5,121.8,295.9,121.2,296.4,119.5z"/>
<path fill="#090909" d="M191.9,129.1c-2-1.5-1.8-4.7-0.3-6.5c0.6,1.6,1.1,3.3,2.4,4.6c1.9,0.3,3.7-0.9,5.5-1.3c0,0.7-0.1,2-0.1,2.6
	C197.1,129.5,194.4,130.3,191.9,129.1z"/>
<path fill="#090909" d="M247.9,130.2c2.3,1.2,4.5,2.7,7.2,2.6c1.2,3.4,4.1,5.2,7.4,6.1c0.1-1.4,0.1-2.9,0.2-4.3
	c2.2,1.4,4.4,3,6.5,4.5c-0.7,0.6-1.4,1.3-2.1,1.9c0.2,0.5,0.6,1.6,0.8,2.1c0.7-1.1,1.3-2.1,2-3.2c3.1,3.5,7.8,5.1,10.4,9.1
	c0.3,1.9,0.3,3.8,0.5,5.7c-3.4-0.8-4.7-3.9-5.6-6.9c-2-0.6-3.9-1.3-5.9-1.7c0,0.8,0.1,2.5,0.2,3.3c-1.5-1.4-3-2.8-4.5-4.1
	c-0.9,1.3-1.9,2.6-2.9,4c-1.6-2.4-3.6-4.9-6.6-5c1.2,2.2,2.6,4.2,3.8,6.4c-3.1,0-5.6-1.9-7.9-3.6c0.5,1.4,0.9,2.8,1.4,4.2
	c-0.6,2-2.9,4.9-0.1,6.2c3.7,2.8,8.3-0.8,12.3,0.6c4.5,1.4,8.7,4,11.6,7.6c1.5,1.6,1,4,1.2,6c-0.6-0.1-1.8-0.4-2.4-0.6
	c-1-2.2-2.3-4.3-3.5-6.4c-0.9,0.4-1.9,0.8-2.8,1.2c-3.1-2.2-6.7-3.4-10.1-5c-2.7,0.1-5.5,0.1-8.2-0.1c-3.2,3.4-5,8-5.7,12.6
	c0.7,0.2,2,0.5,2.7,0.7c-0.1,0.8-0.2,2.4-0.3,3.3c-1.4-0.4-2.7-1-4-1.7c-0.1,1.7-0.2,3.3-0.4,5c-2.4-0.8-1.6-3.6-1.3-5.4
	c1.1-5.4,3.7-10.2,5.4-15.4c0.2-3.5,1.1-6.9,0.9-10.4c-0.2-3.8,3.8-6.4,4.3-10C251,136.2,248.9,133.5,247.9,130.2 M256.3,141.7
	c1.8,1.8,4.4,5.5,7,2.7c-0.6-0.7-1.7-2.1-2.3-2.8C259.4,141.6,257.8,141.6,256.3,141.7z"/>
<path fill="#090909" d="M302.4,142.3c3.8,3.3,7.3,7.5,7.9,12.7c0.1,3.6,0.3,7.3,0.1,10.9c-0.5,4.4-4.3,7.3-6.3,10.9
	c-0.8,3.5-1.5,7.1-4,9.8c-1.3-0.6-2.5-1.1-3.7-1.7c0,0.9-0.1,2.8-0.1,3.8c-2.4-2.3-4.9-4.8-8.1-6.1c-2-0.6-4.2-0.2-6.2-0.1
	c-0.9,1.2-1.8,2.4-2.6,3.5c1.6,1.2,3.3,2.4,5,3.4c3.7,0.5,7.6-0.4,11.1,1.3c0.8-0.9,1.6-1.9,2.4-2.8c2.7,2.9,5.9,5.1,9.4,6.9
	c-1.7,3.5-4.5,7-3.7,11.2c0,3.7-0.2,7.4,0.6,11c-0.5,2.5-1,5-0.5,7.6c-1-0.7-1.9-1.4-2.9-2.1c-0.2,2-0.3,3.9-0.5,5.9
	c-1.1-2.6-0.7-5.4-0.9-8.1c-1.6,1.2-2.5,3.8-4.5,4c-1.1-0.5-2-1.2-2.7-2.1c3.4-3.1,5.3-7.4,8.5-10.7c0.3-4.3-1.2-8.6-1.4-12.9
	c-1.9-2.4-4.2-4.5-6.4-6.6c-3-1.2-6.7,0.5-9.7-1.3c-3.5-1.9-7-4.7-11.2-4.2c-3.9-0.6-6.9,2.3-10,4.1c1.6-2.3,3.4-4.8,6-5.9
	c3-0.4,6.1,0,9.1,0.1c0.1-2.3,0.2-4.6,0.3-6.9c-1.8-1.4-3.6-2.8-5.1-4.4c2-0.5,3.7,0.6,5.3,1.6c-1.1-1-1.4-3.4,0.6-3.1
	c5.1,2.8,10.7,5.3,16.7,4.5c4.5,0.6,7.8-3,10.8-5.8c3.3-4.6,4-10.6,3.6-16.2c-0.7-0.1-2.1-0.4-2.9-0.6c-0.5,2.1-0.9,4.2-1.4,6.3
	c-3.1-2.4,0.4-6.1-1.3-9.1C302.6,148.4,302,145.4,302.4,142.3z"/>
<path fill="#090909" d="M284.9,145.4c1.4-0.9,2.7,1.4,1.5,2.3C285.1,148.6,283.7,146.3,284.9,145.4z"/>
<path fill="#090909" d="M287.1,153.8c0.7-3.9,3.6-7.4,7.9-7.1c-0.7,0.4-2.2,1.1-3,1.4c-0.2,1-0.5,3-0.7,4c1-0.4,2-0.8,3-1.3
	c0.5,2.6,1.2,5.2,1.5,7.8c-0.6,0-1.8,0-2.4,0c0-2.2,0-4.5,0-6.7C291.3,152.6,289.3,153.3,287.1,153.8z"/>
<path fill="#090909" d="M281.5,145.9c2.6,1.5,3.1,4.6,3.4,7.3C282,152,281.2,148.8,281.5,145.9z"/>
<path fill="#090909" d="M300.1,151.3c1.1,1.1,2.2,4.5,0.3,5.1C299.3,155.3,299,152.4,300.1,151.3z"/>
<path fill="#090909" d="M170.1,173.5c0.6,0,1.9,0,2.6,0c0,1.1,0,2.1,0,3.2c-0.5-0.2-1.4-0.5-1.9-0.6
	C170.5,175.2,170.3,174.4,170.1,173.5z"/>
<path fill="#090909" d="M140.8,178.3c1.8,1.4,3.8,2.4,6.1,2.3c-0.6,0.9-1.1,1.8-1.7,2.6c-0.9,0-1.7,0.1-2.6,0.1
	C141.9,181.8,141.3,180.1,140.8,178.3z"/>
<path fill="#090909" d="M195.4,183.2c1.1,1.3,2.3,2.6,3.5,3.8c0.6-0.9,1.9-2.7,2.6-3.7c1.9,2.5-0.9,4.7-2.9,5.9
	C197.6,187.1,196.4,185.2,195.4,183.2z"/>
<path fill="#090909" d="M255,196c1.4-0.9,3-1.3,4.6-1.7c-0.1,0.5-0.2,1.6-0.3,2.1c-2.2,1.4-4.4,2.7-6.4,4.2
	C253.5,199,253.9,197.3,255,196z"/>
<path fill="#090909" d="M169.5,213.5c1.6,1.5,3.1,3.3,5.5,3c-0.1,0.5-0.4,1.4-0.5,1.9c-1.4,0-2.8,0.1-4.1,0.1
	C169.8,216.9,169.5,215.2,169.5,213.5z"/>
</svg>
