<?xml version="1.0" encoding="utf-8"?>
<!-- Generator: Adobe Illustrator 18.0.0, SVG Export Plug-In . SVG Version: 6.00 Build 0)  -->
<!DOCTYPE svg PUBLIC "-//W3C//DTD SVG 1.1//EN" "http://www.w3.org/Graphics/SVG/1.1/DTD/svg11.dtd">
<svg version="1.1" id="Layer_1" xmlns="http://www.w3.org/2000/svg" xmlns:xlink="http://www.w3.org/1999/xlink" x="0px" y="0px"
	 viewBox="0 0 286 224" enable-background="new 0 0 286 224" xml:space="preserve">
<path fill="#010101" d="M6.6,8.6c3.2-0.4,6.5-0.4,9.7,0c3.5,2.3,3.5,6.5,3.4,10.2c-2.4,0-4.8,0-7.2,0c0-2,0-4.1,0-6.2
	c-0.5-0.1-1.5-0.3-2-0.4c-0.8,5.9-1.3,12.2,0.4,18c2.6-1.8,1.4-5,1.8-7.6c2.3,0,4.7,0,7.1,0c-0.1,2.8,0.4,6-1.4,8.5
	c-1.3,1.6-3.3,2.3-5,3.3c-2.2-0.1-4.4-0.5-6.5-1c-1-1-2.1-2.1-3-3.2c-0.4-5.4-0.4-10.9-0.2-16.3C3.3,11.7,5.3,10.1,6.6,8.6z"/>
<path fill="#010101" d="M21.7,8.3c2.3,0,4.5-0.1,6.8-0.1c0,3.1,0,6.2,0,9.4l2.1,0c0-3.1,0-6.2,0-9.4c2.4,0,4.8,0,7.1,0
	c-0.2,8.5,0.3,17-0.3,25.5c0.3,0.1,0.8,0.2,1,0.3c1.2-3.2,1.1-6.6,1.8-9.9c0.3-2.3,0.4-4.7,1-7c0.3-2.9,0.6-5.8,0.7-8.7
	c3.4-0.3,6.8-0.3,10.2,0c0.2,4.3,1.1,8.5,1.7,12.7c0.8,4.4,1.5,8.8,2,13.2c-2.3,0-4.6,0-6.9-0.2c-0.2-1.6-0.2-3.3-0.2-4.9
	c-3.9-0.9-2.8,2.9-3.1,5c-5,0-10,0.3-15,0c0-3.7,0-7.4,0-11.1l-2.1,0c0,3.7,0,7.4,0,11.1c-2.3,0-4.5,0-6.8,0
	C21.7,25.6,21.7,16.9,21.7,8.3 M45.9,24.3c0.2,0.3,0.5,0.9,0.7,1.2c0.5,0,1.5-0.1,2-0.2c-0.5-3.8-1-7.6-1.5-11.4
	C46.5,17.3,46.5,20.8,45.9,24.3z"/>
<path fill="#010101" d="M56.8,8.3c2.5-0.1,5-0.1,7.5-0.1c0,6.8,0,13.6,0,20.5c0.9,0,2.6,0,3.5,0c0,1.9,0,3.7,0,5.6
	c-3.7,0-7.4,0-11.2,0c0.1-0.8,0.3-2.4,0.3-3.3C56.7,23.5,56.9,15.9,56.8,8.3z"/>
<path fill="#010101" d="M69.2,8.2c2.4,0,4.8,0,7.2,0.1c-0.1,6.8,0,13.6,0,20.4c1.4,0,2.8,0,4.2,0c0,1.9,0,3.7,0,5.6
	c-3.9-0.1-7.9,0.4-11.8-0.5C69.3,25.3,69.2,16.7,69.2,8.2z"/>
<path fill="#010101" d="M82.4,8.2c3.8,0,7.5,0,11.3,0c0,1.7,0,3.4-0.1,5.1c-1.5,0-3,0-4.5,0c0,1.4,0.1,2.9,0.1,4.3
	c1.4,0,2.8,0,4.3-0.1c0,1.7,0,3.5,0,5.2c-1.4,0-2.8,0-4.2,0c-0.1,2-0.1,3.9-0.2,5.9c1.7,0.3,3.9-0.6,5.1,0.8
	c-0.3,1.5,0.8,3.8-0.7,4.9c-3.7,0.2-7.4,0-11.2,0.1C82.4,25.6,82.4,16.9,82.4,8.2z"/>
<path fill="#010101" d="M96.2,8.2c2,0,4,0,6.1,0c0.9,3.5,1.4,7.1,3.1,10.4c0.3-3.4,0.1-6.9,0.1-10.4c2,0,3.9,0,5.9-0.1
	c0,8.7,0,17.5,0,26.2c-2.1,0-4.2,0-6.2-0.2c-0.8-2.4-1.4-4.8-2-7.3c-0.5-1.4-0.9-2.7-1.4-4.1c0,3.8,0.1,7.7,0,11.5
	c-1.8,0-3.7,0-5.6,0C96.2,25.6,96.2,16.9,96.2,8.2z"/>
<path fill="#010101" d="M117.5,8.5c3.7-0.1,8.5-1.4,11.2,1.9c1.8,1.9,1.6,4.7,1.8,7.1c-2.4,0-4.9,0-7.3,0c0-1.3,0.1-2.6,0.1-3.9
	c-0.4-0.5-1.2-1.4-1.5-1.9c-0.7,5.9-0.3,11.8-0.2,17.7c0.4-0.1,1.3-0.2,1.8-0.3c0.4-3.3-1.1-6.3-1.3-9.6c2.8,0,5.6,0,8.4,0
	c0,4.9,0,9.7,0,14.6c-1.6,0-3.1,0-4.7,0c-0.1-0.4-0.3-1.3-0.4-1.8c-1.6,1.2-3.4,1.9-5.4,2c-2.1-1.4-5.2-2.5-5.3-5.5
	c-0.4-5.3-0.3-10.7,0-16C114.5,11.1,116.4,9.9,117.5,8.5z"/>
<path fill="#010101" d="M168.5,15c-0.2-3.1,2.1-6.6,5.4-6.7c2.5-0.4,5,0,7.5,0.2c3.7,2.3,3.4,6.8,3.3,10.7c-2.1,0-4.2,0-6.2,0
	c-0.1-2.3-0.2-4.6-0.7-6.9c-0.5,0.1-1.6,0.2-2.1,0.3c-0.1,5.6-0.1,11.1,0,16.7c0.5,0.1,1.5,0.4,2,0.5c0.7-2.1,0.7-4.4,0.8-6.6
	c2.1,0,4.3,0,6.5,0.1c-0.1,2-0.2,4-0.5,6c-1.9,6.8-14,7-15.5-0.1C168.2,24.4,168.5,19.7,168.5,15z"/>
<path fill="#010101" d="M187.6,12.7c1.3-1.8,2.7-4.3,5.2-4.3c3.6-0.4,8.4-0.7,10.4,3.1c0.6,2.4,0.4,4.8,0.6,7.2
	c-2.1,0.2-4.3,0.5-6.4,0.7c-0.1-2.4-0.1-4.7-0.2-7.1c-0.6,0.1-1.8,0.4-2.3,0.6c-0.2,5.6-0.5,11.3,0.2,16.8c0.5-0.1,1.6-0.3,2.1-0.4
	c0.1-2.2,0.1-4.3,0.2-6.5c2.1,0,4.2,0,6.3,0c0,2.5-0.1,5-0.3,7.6c-1.1,1.1-2.1,2.1-3.2,3.1c-2.1,0.5-4.2,0.9-6.3,1
	c-2.5-1.2-5.7-2.3-6-5.6C187.1,23.5,187.8,18.1,187.6,12.7z"/>
<path fill="#010101" d="M206.2,8.2c3.8,0,7.5,0,11.3,0c0,1.7,0,3.4,0,5.1c-1.4,0-2.8,0-4.2,0c0,1.4,0,2.8,0,4.3c1.3,0,2.7,0,4,0
	c0,1.7,0,3.4,0,5.1c-1.3,0-2.6,0-3.9,0c-0.1,2-0.1,4-0.1,5.9c1.5,0,3,0,4.5,0c0,1.9,0,3.8,0,5.6c-3.8,0-7.7,0-11.5,0
	C206.2,25.6,206.3,16.9,206.2,8.2z"/>
<path fill="#010101" d="M219.7,8.3c4.9,0.2,10.3-1.1,14.8,1.4c0.4,4.1,0.4,8.2-0.1,12.3c-0.6,0.4-1.7,1.1-2.3,1.5
	c-1.7,0.1-3.3,0.2-5,0.2c-0.3,3.5-0.3,7.1-0.3,10.7c-2.2-0.5-5.5,1-7.1-0.8C219.6,25.1,219.8,16.7,219.7,8.3 M226.8,12.4
	c0,1.9,0,3.8,0,5.8c0.3,0.4,0.8,1,1.1,1.4c0.5-0.7,0.9-1.4,1.4-2.1c-0.1-1.6-0.1-3.1-0.2-4.7C228.4,12.6,227.6,12.5,226.8,12.4z"/>
<path fill="#010101" d="M252.3,8.2c3.8,0,7.5,0,11.3,0c0,1.7,0,3.4,0,5.1c-1.5,0-2.9,0-4.4,0c0,1.1,0,3.2,0,4.3c1.4,0,2.8,0,4.3,0
	c0,1.9-0.1,3.7-0.1,5.6c-1.4,0-2.8,0-4.1,0c0,1.8,0,3.7,0,5.5c1.6,0,3.2,0,4.8,0c-0.1,1.8,1.1,4.2-0.5,5.6c-3.7,0.2-7.5,0-11.2,0.1
	C252.3,25.6,252.3,16.9,252.3,8.2z"/>
<path fill="#010101" d="M265.8,8.2c4.5-0.1,9-0.1,13.5,0.3c3.3,2.5,2.4,6.8,2.6,10.4c-0.2,4.3,0.4,8.7-0.5,13
	c-1.1,1.2-2.6,1.7-4,2.4c-3.8-0.1-7.7,0-11.5-0.1C265.8,25.6,265.8,16.9,265.8,8.2 M272.9,13.8c-0.1,5.4-0.1,10.9,0.1,16.3
	c2.5-2,2.1-5.4,2.1-8.2c-0.1-3.5,0.4-7.1-1.2-10.4C273.7,12.2,273.2,13.3,272.9,13.8z"/>
<path fill="#010101" d="M132.7,8.2c3.7,0,7.5,0,11.2,0c0,1.7-0.1,3.4-0.1,5.1c-1.4,0-2.8,0.1-4.1,0.1c0,1.4,0,2.7,0,4.1
	c1.3,0,2.7,0.1,4,0.1c0,1.7,0,3.4,0,5.1c-1.3,0-2.6,0-4,0c0,1.9,0,3.9-0.1,5.8c1.6,0.1,3.3,0.1,4.9,0.1c0,1.9,0,3.7,0,5.6
	c-4,0-7.9,0-11.9,0C132.7,25.6,132.7,16.9,132.7,8.2z"/>
<path fill="#010101" d="M153.8,8.3c3.2-0.1,6.4-0.1,9.6-0.1c1.5,8.7,2.8,17.4,4.3,26.1c-2.4,0-4.7,0-7.1,0c0-1.6,0-3.2,0-4.8
	c-1.1,0-2.1,0-3.2,0c0,1.6,0,3.2,0,4.8c-2.4,0-4.8,0-7.2,0c0.7-5.9,1.8-11.7,2.5-17.6C153.4,13.9,153.6,11.1,153.8,8.3 M157.5,25.3
	c1,0,1.9,0,2.9,0c-0.1-3.9-0.6-7.8-1.2-11.6C158.5,17.6,158.1,21.4,157.5,25.3z"/>
<path fill="#010101" d="M235.4,8.2c5.1,0,10.3,0,15.4,0c0,1.7-0.1,3.4-0.1,5.1c-1.4,0-2.7,0.1-4.1,0.1c0,7,0,14,0,21
	c-2.4,0-4.7,0-7.1,0c0-7-0.1-14,0-21c-1.4,0-2.8,0-4.1,0C235.5,11.6,235.4,9.9,235.4,8.2z"/>
<path fill="#010101" d="M104.6,54.8c8.7-4,17.8-7,27.4-8c11.9-0.8,24,1.3,34.9,6.3c7,2.3,12.5,7.3,18.3,11.7
	c6.4,6.1,12.5,12.8,15.6,21.2c4.4,9.1,6.2,19.1,6.4,29.1c-0.8,4.9-0.9,9.9-2.3,14.7c-0.9,3.5-2.3,7-3.7,10.3
	c-2.9,5.4-5.3,11.1-9.7,15.4c-3.6,5.1-9,8.4-13.6,12.4c-1.7,1.4-3.7,2.5-5.7,3.4c-6.9,3.3-14,6.8-21.8,7.7
	c6.1,1.3,12.4,1.9,18.4,3.9c2.8,0.8,5.5,1.8,8.2,2.6c0.9,0.5,1.8,1,2.7,1.5c3.3,1.5,6.8,3,9.3,5.7c0.5,1.1,0.9,2.1,1.4,3.2
	c0.9,0.8,1.9,1.7,2.8,2.5c0.3,0.3,0.8,1,1.1,1.3c-0.4,0.5-0.9,1.1-1.3,1.6c-1.1-2.1-3.1-3.3-5.2-4.1c1,2.8,2.1,5.7,1.3,8.6
	c-1.1-1.3-1.9-2.8-2-4.5c-0.6-1.3-1.6-2.3-3-2.9c0.6,3.1,1.5,6.4-0.3,9.4c-0.9-2.6-1.3-5.3-1.6-8c-1.5,0.3-2.9,0.5-4.4,0.9
	c-4.9,1.4-9.9,2.2-14.9,3.2c-2,0.3-4,0.7-6,1.3c0.3,2.5,0.5,5,1,7.5c0.3,2.7,0.4,5.4,0.6,8c-0.5,0-1.6-0.1-2.1-0.1
	c-0.2-4.9-0.7-9.9-1.7-14.7c-2.7,0.2-5.3,1.1-7.9,1.7c-1.3,0.4-2.6,0.7-3.9,1.1c-1,0.4-2,0.8-3,1.1c-3,0.9-6,1.9-9,2.8
	c0.7,1.7,1.5,3.4,2.3,5.1c-0.1,0.5-0.2,1.5-0.3,2c-0.5-0.6-1-1.2-1.4-1.8c-1.4-1.4-2.8-2.8-4-4.4c-1.5,0.5-2.3,1.7-3,3.1
	c-0.1,0.9-0.3,2.8-0.4,3.8c-1.7-1.8-0.8-4.4-1-6.6c-2.4,1.5-3,4.1-2.9,6.8c-0.5,0.1-1.5,0.1-2,0.2c0.2-1,0.3-2.1,0.5-3.1
	c0.3-0.8,0.6-1.6,0.8-2.4c-0.6-0.3-1.7-0.8-2.2-1c-0.8-1.7-1.3-3.6-0.4-5.4c3.2-7,8.1-13.1,13.6-18.3c4.4-3.4,8.4-7.5,13.3-10.3
	c-6-0.2-12,0.3-17.8-0.9c-7.7-1.4-15.2-4-22-7.6c-14.6-7.6-25.9-20.9-31.8-36.2c-3-8.6-5.4-17.5-4.5-26.7
	c2.4-17,10.4-33.3,23.3-44.8C95.5,60.8,99.8,57.5,104.6,54.8 M122.9,49.9c-4.4,1.3-8.8,2.8-13.2,4.1c-5.6,2.3-10.3,6.2-15.3,9.4
	c-5.2,3.8-9.4,8.8-12.9,14.2c-6.3,8.8-10.3,19.2-11.3,30l-0.7,0c0,4.2-0.5,8.4,0.4,12.5c1.5,8.5,3.8,17,8.3,24.5
	c4.5,7.4,9.5,14.7,16.8,19.5c5.2,4.1,10.8,7.6,17.1,9.8c4.8,1.8,9.8,3.1,14.8,4.3c6.1,0.7,12.2,0.7,18.3,0.3
	c-1.3-2.7-2.8-5.3-4.6-7.7c0.4-0.4,0.9-0.9,1.3-1.3c2.2,2.5,3.7,5.4,5.4,8.2c4.6,0.3,9.1-1.4,13.4-2.9c4.8-2.1,9.9-3.7,14.3-6.6
	c8.7-6.2,16.9-13.6,22.1-23c2.2-4.9,4.5-9.8,6.1-14.9c3.5-12.9,2.8-26.8-2-39.3c-0.5-1-0.9-2.1-1.3-3.1c-4,5.6-11.2,8.2-17.9,7.5
	c-6.9-2.2-14.7-4.1-19.2-10.2c-2.6-3.4-4.4-8.3-1.5-12c4.1-4.6,10.6-6.6,16.6-6.4c1.1,0.4,2.1,0.8,3.2,1.2c2.4,0.5,4.7,1.3,7,1.9
	c-7.4-7.6-16.4-14.2-26.7-17.3C149.2,48,135.7,47.3,122.9,49.9 M162.7,73.2c10.5,0.1,20.8,2.6,31.2,3.7c-3-5.2-9.2-6.3-14.5-7.6
	C173.6,67.7,167.5,69.9,162.7,73.2 M161.8,75.4c-0.1,1.1-0.2,2.1-0.4,3.2c2.2,0.8,4.7,1,6.4,2.8c-1.5-0.2-4.5-0.5-5.9-0.7
	c2.6,5.4,7.6,9.4,13.4,10.8c7.2,3.2,15.7,2.5,22-2.3c0.1-0.8,0.4-2.6,0.6-3.4c-8-0.3-16-1.1-23.8-2.9c-2.1-0.5-4.6-0.4-6.2-2.1
	c3.1-0.1,6.2,0.6,9.3,1.1c1-1.9,2.2-3.7,3.8-5.1C174.6,76,168.2,74.9,161.8,75.4 M183.4,77.2c1.3,1.2,2.6,2.5,3.9,3.8
	c0,0.6-0.1,1.7-0.1,2.3c3.7,0.3,7.3,0.6,11,1.1c-0.3-0.6-0.8-1.7-1-2.3C194.9,76.8,187.8,78.5,183.4,77.2 M145.1,181.8
	c-8.1,6.2-16.3,12.7-22.3,21c-1.7,3.1-3.8,6.1-3.8,9.8c0.6,0,1.7,0.1,2.2,0.1c0.5-2.2,1.6-4.1,3.5-5.3c1.8-0.1,3.5-0.2,5.3-0.3
	c0.6,0.6,1.2,1.1,1.8,1.7l-2.7,1.2c3.8,1,7.4-1.4,11.2-1.8c-2.3,0.1-4.6,0.1-6.9,0.3c-0.8-0.6-1.6-1.1-2.4-1.7
	c4.4-0.4,8.7-1.3,13.1-1.9c2-0.4,4-0.6,6-0.8c1.3-0.3,2.7-0.6,4-0.9c-0.4-2.9-1.1-5.6-1.9-8.4l-0.5-0.6c-0.1-0.6-0.3-1.9-0.4-2.5
	c-1.8-4-3.1-8.2-5.2-12C145.8,180.2,145.3,181.3,145.1,181.8 M149.1,181.2c3.2,6.9,5.4,14.3,7.4,21.6c1.6-0.5,3.1-1,4.6-1.6
	c3.8-1.4,7.8-2.4,11.7-3.4c1.7-0.6,3.4-1.2,5.1-1.8c1.3-0.4,2.6-0.8,3.9-1.1c1.9-0.1,3.8-0.3,5.7-0.5c-2.7-2.6-6-4.3-9.5-5.7
	c-1.4-0.5-2.8-1.1-4.2-1.6c-1-0.3-2-0.7-3-1c-2.6-0.8-5.2-1.4-7.9-2.1c-1.3-0.4-2.7-0.7-4-1.1C155.8,182.2,152.5,181.5,149.1,181.2
	 M126.3,210.4c-0.7,1.6-0.1,2.1,1.6,1.5C128.6,210.4,128.1,209.8,126.3,210.4z"/>
<path fill="#010101" d="M117,64c7.2-2,15.1-1.7,22,1.2c3.4,1.5,6,4.4,8.4,7.2c0.3,1.3,0.6,2.5,0.9,3.7c-1.9,7.7-9.4,13.2-17.1,14.1
	c-4.5,0.7-9,1.9-13.6,0.8c-4.9-0.9-10.4-1.5-13.9-5.4c-2-2.9-4.6-6.3-3-10C103.7,69.2,110.4,65.6,117,64 M103.5,72.9
	c13.6-1.8,27.4-1.6,41.1-1.5c-2.1-2-4.3-4.1-7.1-5.1C126.1,62.1,112.6,64.8,103.5,72.9 M104.3,74.7c-2.3,0.4-1.8,3.2-2.2,4.9
	c2.2,0.6,5.5-0.9,6.3,2c-1.8-0.2-3.5-0.5-5.3-0.9c0.1,0.7,0.1,1.9,0.2,2.6c5.1,5.1,12.4,7.1,19.5,6.5c8.4,0.3,16.8-3,22.3-9.4
	c-6.1,0.7-12.4,0.2-18.3,1.7c-0.2,0-0.7,0-0.9-0.1c-5.6-0.7-11.3-0.2-16.9-0.3c0-0.2,0-0.5,0-0.7c4.2-1.3,8.8-0.1,13.2-0.5
	c-0.9-3.3,0.4-6.2,3.1-8.1C118.4,73,111.3,73.4,104.3,74.7 M125.7,72.6c2.6,0.3,4.2,2.4,5.7,4.3c-0.1,0.8-0.3,2.3-0.3,3
	c4.9-0.1,9.9-0.5,14.7-1.5c0-1.8-0.1-3.6-0.2-5.5C139,72.4,132.3,72.2,125.7,72.6z"/>
<path fill="#010101" d="M187.4,103c2.2,1.8,4.1,4.1,5,6.8c-0.4,1.9-0.6,4.4-2.7,5.3c0-2,0.2-4.1,0.1-6.1
	C188.5,107.2,186.8,105.4,187.4,103z"/>
<path fill="#010101" d="M161,110.9c5.8-1,11.9-2.9,17.8-1.4c-0.1,2,0.5,4.5-1.1,6.1c-3.7,3.9-7.6,7.7-12.4,10.3c0-0.5,0-1.6,0-2.1
	c4.5-3.8,10-6.9,12.5-12.5c-11.2-1.4-21.6,3.6-32.2,6.3c-4.4,1.5-8.5,3.6-13,5c-0.1-0.5-0.3-1.4-0.4-1.9
	C141.7,117,151.4,113.9,161,110.9z"/>
<path fill="#010101" d="M121.2,116.9c0.7-0.5,1.3-1.1,2-1.6c0,0.4,0.1,1.2,0.1,1.6c-0.4,1.4-0.9,2.8-1.4,4.2
	C121.6,119.8,121.4,118.4,121.2,116.9z"/>
</svg>
