<?xml version="1.0" encoding="utf-8"?>
<!-- Generator: Adobe Illustrator 18.0.0, SVG Export Plug-In . SVG Version: 6.00 Build 0)  -->
<!DOCTYPE svg PUBLIC "-//W3C//DTD SVG 1.1//EN" "http://www.w3.org/Graphics/SVG/1.1/DTD/svg11.dtd">
<svg version="1.1" id="Layer_1" xmlns="http://www.w3.org/2000/svg" xmlns:xlink="http://www.w3.org/1999/xlink" x="0px" y="0px"
	 viewBox="0 0 111 126" enable-background="new 0 0 111 126" xml:space="preserve">
<path fill="#070A06" d="M49.5,1.6C61.7-2,73.4,5,84,10.2c5.8,2.2,7.2,10.2,13.6,11.2c-0.1,0.4-0.2,1.3-0.3,1.7
	c0.6,0.1,1.9,0.2,2.5,0.3c2,2.7,3,6.1,4.8,8.9c3.2,4.5,3.9,10.1,6.3,15v12.5c-0.9,3.1-1.3,6.2-1.8,9.4c-2.2,12.9-6.7,25.3-12,37.2
	c-1.8,3.9-6,5.5-9.7,7c-0.8-0.4-1.5-0.8-2.3-1.2c4.6-0.8,8.6-4.1,11-8.1c-2.3,0.6-3.5,2.7-5.1,4.1c-2.3,2.2-5.6,4-8.9,3.5
	c2-1.5,5.1-1.6,6.9-3.8c4.2-4.4,8.6-8.9,11.6-14.3c3.2-5.7,3.7-12.3,4.8-18.6c1.6-10,2.7-20.5-0.9-30.2c-1.7-7.6-3.2-16.4-10.2-21.1
	c0.7,5.7,1.9,12.5-2.2,17.3c-3.8,3.7-9.6,1.7-14.4,2.3c3.7,0.9,7.6,0.8,11.4,1.2c-6.6,2.4-13.5-0.6-19.9-2.4
	c3.4,0.1,6.8,0.6,10.2,0.8c-3.2-1.3-7.2-1.3-9.7-4.1c-0.9-2.2-0.1-4.5,0.3-6.7c-4.6,5-12,3.4-18.1,4.1c0,4,0,8.5-2.8,11.8
	c-4.1,5.1-11.4,6-17.5,5.4c1.9-0.7,4-0.9,6-1.1l0-0.8c-4.6-0.5-9.4-0.5-13.8-2.4c-3.6-1.4-5.1-6.3-3.2-9.6c1.2-2.6,4-3.8,6.3-5.2
	c-3.4-0.2-6.9-0.4-10.3-0.9c3.3-2.6,7.8-2.3,11.8-2c4.8,0.6,9.5,1.3,14.3,1.4c-0.5-0.5-1.6-1.4-2.2-1.8c5,0.8,10.7-0.7,15.1,2.5
	c5.2-2.3,10.8-3.8,16-6c3.4-1.8,7.3-0.7,10.9-1.8c3.6-1,7.9-1.4,10.3-4.6c-3.3-4.8-8.6-7.8-13.5-10.7c-7.3-3.9-15.7-5-23.8-4.4
	c3.5,1,6.8,3.2,7.5,7c-2.9-2.6-6.2-4.8-10.1-5.3c-10.2-1.4-21.5-1.3-30.5,4.4C13.1,17.6,6.7,27.3,4.9,37.8
	c-0.7,5.7,0.8,11.6-0.8,17.1C2,61.7,3.5,68.8,5.3,75.5c4,10.7,11.7,19.4,19,28c7.6,2,14.5,5.9,22.1,7.7c10.8,1.8,21.9,1.9,32.8,0.7
	c2.2,0.7,4.6,0.9,6.8,2c-6.4,0.8-12.8,1.1-19.3,0.6c1.8,3.3,2.8,7.2,1.7,11c-2.2-3.2-1.8-7.4-3-11c-2.3,0-4.5,0-6.8,0
	c-3.3,3.6-5.3,8.4-9.7,10.7c1.4-4.3,5-7.1,7.3-10.9c-6,1.5-10,6.3-13.5,11c-0.1-5.6,5.2-8.6,9.4-11.1c-8.5-2.2-17.7-2.5-25.7-6.6
	C20,104.2,16.9,97,12.7,91.4C8.8,85.6,3.1,80.8,0.6,74.1c1-7.9,0-16,1-23.9c0.8-6.1,0.1-12.3,1.1-18.4C3.5,24.8,9.6,20.5,13.2,15
	c2.9-4.6,7.3-8.4,12.8-9.2c13.3-3.2,27,0.7,40.3-1.3C61.2,1.6,55,2.6,49.5,1.6 M16.4,14.2c4.1-2.7,8.9-4.2,12.9-7.1
	C24.3,7.6,18.5,9.2,16.4,14.2 M89.2,28.9c2.2,5.7-10.6,8.1-9,1.5c-2.9,0-5.7,0.7-8.6,1.3c-0.2,2.5-0.4,5.1,0.1,7.6
	c3.6,1.1,7.4,2.2,11.2,2c4.2,0.1,8.7-2.1,10.2-6.3c0.8-3,1.1-6.6-1-9.1C91.2,27,90.2,27.9,89.2,28.9 M4.9,30.1
	c0.7,2.2,3.4-2.4,1.4-2.5C5.9,28.3,5.2,29.5,4.9,30.1 M21.4,42.1c-0.6,3.3,3,5.1,5.6,6.2c5.9,2,12.8,3.3,18.6,0.4
	c3.9-2.4,4.3-7.4,5-11.5c-2.6-1.3-5.5-0.7-8.2-0.7c0,2.1-0.5,4.2-1.8,5.9c-3,0.4-6,0.4-8.9-0.2c-0.9-2.4,0.4-4.4,2.3-5.8
	C29.4,35.5,22.4,36.7,21.4,42.1 M104.2,35.9c2.9,8.9,4,18.2,4.4,27.5c1.1-1.9,1-4.2,1.1-6.4C109.8,49.7,108.4,42,104.2,35.9
	 M2.5,68.3c-0.5,1.5-1,4.2,0.3,5.3C3.6,72.3,4.1,68.9,2.5,68.3z"/>
<path fill="#070A06" d="M57.1,18.3c2.6-0.3,5.6-3.9,7.8-1.2c-2.5,0.9-5.2,1.8-7.9,1.5c-4.4-0.3-8.8,0.3-13.1,1.2
	C47.3,15.8,52.7,18.7,57.1,18.3z"/>
<path fill="#070A06" d="M64.6,20.5c0.8-0.2,1.2,0.1,1,0.9c-2.4,1.9-5.5,3-8.6,3c-5.8,0.1-11.6-0.4-17.3,0.1c4.5-3,10.3-0.8,15.3-0.9
	C58.6,24.3,61.3,21.4,64.6,20.5z"/>
<path fill="#070A06" d="M58.2,38.6c2.2-0.1,4.3-0.2,6.4-0.5c-0.2,1.2-0.4,2.4-0.5,3.6C61.5,42,59.4,40.9,58.2,38.6z"/>
<path fill="#070A06" d="M64.2,45c3,2.8,5.8,6.2,6.8,10.2c-2.6,0.8-5.3,1.3-8,1.4c0.4-2.6,3.9-1.5,5.7-2.2C67.9,50.9,63.7,49,64.2,45
	z"/>
<path fill="#070A06" d="M88.5,61.5c2.3-3,5.4-5.3,8.5-7.4c-1.6,3.5-5.4,5.2-7.6,8.3c-1.4,2-0.8,4.5-1,6.8
	C87.1,66.8,86.7,63.7,88.5,61.5z"/>
<path fill="#070A06" d="M46.9,65.4c0.5-0.7,1.1-1.3,1.6-2c5.3,4.7,13.3,7.5,20.2,5c2.1-0.8,3.3-2.9,5.5-3.4
	c-0.6,1.8,0.9,4.8-1.7,5.3c-6.8,1.6-14.4,3.4-21.1,0.3C49.2,69.7,48,67.4,46.9,65.4z"/>
<path fill="#070A06" d="M21,65.5c0.2-0.2,0.7-0.6,0.9-0.7c4.1,1,7.2,4.2,10.4,6.8c0.7,2.8,0.8,5.7,1.4,8.4c-2.9-1.2-2.2-4.7-2.3-7.1
	C28.5,69.6,25,67.1,21,65.5z"/>
<path fill="#070A06" d="M56,79.7c0.3-1.9,1.9-3.4,3.9-3.3c2.3-0.6,3.7,1.7,5.8,2.1c-0.6,0.3-1.3,0.5-2,0.8
	C61.3,77.3,58.5,78.7,56,79.7z"/>
</svg>
