<?xml version="1.0" encoding="utf-8"?>
<!-- Generator: Adobe Illustrator 18.0.0, SVG Export Plug-In . SVG Version: 6.00 Build 0)  -->
<!DOCTYPE svg PUBLIC "-//W3C//DTD SVG 1.1//EN" "http://www.w3.org/Graphics/SVG/1.1/DTD/svg11.dtd">
<svg version="1.1" id="Layer_1" xmlns="http://www.w3.org/2000/svg" xmlns:xlink="http://www.w3.org/1999/xlink" x="0px" y="0px"
	 viewBox="0 0 196 221" enable-background="new 0 0 196 221" xml:space="preserve">
<path fill="#040404" d="M87,0h21.1l-1.3,0.3c9.4,3,18.5,6.8,27.8,10.2c4.8,2.4,9.8,4.4,14.3,7.4c7.6,4.4,12.2,12.2,18.6,18
	c1.6,0,3.2,0,4.8,0c-0.5,1.3-1,2.7-1.5,4c1.8,0,3.5,0,5.3,0c1.5,4.9,2.2,10.3,5.6,14.4c2.5,3,5.3,5.8,6.7,9.5
	c2.3,5.8,3.6,11.9,5.9,17.7c1.5,3.3,0.9,7.1,0.9,10.6c-0.4,5.4,0,10.7-0.4,16.1c-2.4,9.5-3,19.4-5.8,28.8c-2,4.8-2.1,10.2-4.4,14.9
	c-2,4.1-2.2,8.9-4.8,12.8c-4.8,8.4-5.3,18.9-11.9,26.3c-7.6,7.6-18.6,10-28.9,11c-7.5,0.1-15-0.1-22.6,0.1c3.1,5.6,5.6,12.7,3.3,19
	h-1.4c-1.4-6.2-2.3-12.6-3.9-18.7c-4,0.1-8.2-0.5-12,0.4c-5.9,5.6-8.9,13.7-15.8,18.3h-1.1c2.3-7.6,8.7-12.5,13-18.9
	c-5,1.3-9.7,3.6-13.4,7.1c-4,3.3-6.6,7.8-9.7,11.8h-0.7c0.2-4.8,4.1-8,6.5-11.7c2.4-3.6,6.4-5.7,10.4-6.9c-2-2.5-5.5-2.3-8.3-3.2
	c-10.4-1-20.2-5-30.3-7.4c-5-0.9-9.3-3.7-13.5-6.2c-5.2-3.6-7.1-10.1-11.2-14.7c-2.4-2.7-4.5-5.7-6-9c-1.8-4.3-6.4-6.4-8.7-10.4
	C9.2,144,1.7,138.2,0,129.3V96.1l0.7,3c2.2-11.9,0.7-24.1,2.5-36c0.2-5,0-10.3,1.9-15c4-6.2,8.1-12.5,13.5-17.7
	C22.3,25,26.7,20,30.9,14.9c5.5-4.7,13-5.3,19.8-6.9c7-1.1,14.2-0.2,21.3-0.9c14.8,0,29.6-0.1,44.4,0.1c-0.3-0.6-0.8-1.9-1-2.5
	c-7.7-3.3-16.3-0.2-24.1-2.4C89.8,2.1,88.4,2,87,1.9C87,1.4,87,0.5,87,0 M96.1,9.8c2.8,0.6,5.9,1.1,8.3,2.8
	c3.2,2.4,5.2,6.3,5.1,10.3c-1.7-2.2-3-4.8-5.6-6.1C97.8,13,90.2,12,83,11.4c-9.7-0.4-19.5-0.2-29,2.1C30.4,19.7,11.5,40.8,7.4,64.8
	C5.8,73.5,8.1,82.3,7,91c-0.5,3.8-2.3,7.3-2.6,11.2C1.9,120.5,8.7,139,19,154c7,10.1,15.1,19.5,22.9,29c12.3,2,23.1,9,35.1,12.1
	c11.1,2.9,22.6,3.2,33.9,3.6c12,0.1,24.3-0.1,36-3.1c3.3-0.9,6.6-2.1,8.9-4.6c8.5-9,17.6-18,22.8-29.5c1.9-4.9,3.7-9.9,4.5-15.1
	c2.2-12.7,4.5-25.5,5.1-38.4c0.3-8.1,0-16.3-2.4-24c-3.6-8.7-3.8-18.4-7.6-27.1c-2.5-6.4-6.9-12.3-12.9-15.8
	c2.2,8.6,3,18.2-0.7,26.5c-1.9,4.6-6.7,7.7-11.6,7.8c-7.8,0.5-15.7-0.7-23.2-3.1c-2.9-1.1-6.4-2.4-7.8-5.5c-1.3-3.6,0.2-7.3,0.6-11
	c-2.5,2.4-5.1,4.8-8.6,5.5c-7.7,1.8-15.7,1-23.5,1.5c0.7,8.8-0.7,18.8-8.1,24.6c-8.1,5.8-18.9,7-28.5,5.8c4.3-1.5,9-0.9,13.2-2.6
	c-9.3-1.8-19.4-0.9-28-5.7c-5.8-3.2-6.9-11.5-3.8-17c2.3-3.9,6.5-5.9,10-8.3c-5.9-1-12,0-17.8-1.8c5-2.9,10.8-4,16.5-3.7
	c10.5,0.6,20.7,3.3,31.3,2.6c-1.8-1-3.9-1.7-5.3-3.4c6.3,1.2,12.6,0.8,18.9,1.3c3,0.2,5.8,1.5,7.9,3.8c11.3-4.9,23.2-8,34.3-13.4
	c5,1.1,10,0,14.9-1c5.6-1.3,11.4-2.8,16.4-5.9c-0.4-1.8-0.3-3.9-1.7-5.3c-3.9-4.5-8.9-7.7-13.6-11.1C132.2,11.9,113.9,7.3,96.1,9.8
	 M31.2,19.1c-0.2,0.3-0.7,1-1,1.3c-0.8,1.1-1.6,2.2-2.3,3.3c7.8-4.5,15.8-8.8,24.2-12.1C44.6,11.4,36.5,13.4,31.2,19.1 M7.1,56.3
	c1.2-3.9,4.6-7,4.7-11.2C9.1,48.3,7.2,52.1,7.1,56.3 M157,49.6c0.9,2.9,0.2,6.2-2.4,7.9c-3.8,2.4-8.9,2.6-13,0.7
	c-0.7-1.8-0.4-3.8-0.5-5.6c-3.8-0.4-7.5,0.5-11.1,1.3c0.2,0.4,0.6,1.2,0.8,1.6c-1.1-1.7-3.1-1.2-4.8-1c-0.4,4.5-1.3,9.2,0.2,13.6
	c7.6,2.8,15.8,4.8,23.9,3.3c4.3-0.7,8.5-2.7,11.3-6.1c4.1-4.8,4.4-11.6,3.3-17.5c-0.7-0.1-2-0.4-2.7-0.5c0.6-0.6,1.2-1.2,1.7-1.8
	C160.8,44.9,159.6,48.7,157,49.6 M183.5,62.1c5.6,16.1,7.3,33.3,8,50.2c3.4-11.9,2.4-24.8-1.8-36.4
	C188.2,71.2,186.6,66.2,183.5,62.1 M40,67.1c-3.7,2.8-5.3,9.1-1.7,12.6c4.8,4.5,11.4,6.3,17.7,7.6c7.8,1.4,16.6,1.8,23.7-2.3
	c6.5-4.4,7.7-12.9,8.2-20.1c-4.5-2.7-9.6-0.5-14.4-1.2c0.1,3.5,0,7.5-2.9,9.9c-5.2,2.2-11.4,1.9-16.5-0.6c0-1.6-0.1-3.3,0.2-4.8
	c1-2.3,3.3-3.5,5-5.1C52.8,62.5,45.5,62.9,40,67.1 M1.9,116.6c-0.2,4.5-0.6,9.4,1.7,13.5C3.8,125.6,3.6,120.9,1.9,116.6 M159.1,192
	c-4.7,4.2-11.2,6.1-17.5,5.9c-0.1,0.2-0.4,0.7-0.5,0.9c4,0.4,8.2-0.1,11.8-2c5.6-1.9,10.3-5.5,14.3-9.8c1.2-1.1,0.5-2.8,0.6-4.2
	C164.9,186,162.4,189.4,159.1,192z"/>
<path fill="#040404" d="M100.1,31.2c4.8-0.8,9-6.4,13.9-3c-2.9,2-6.3,3.3-9.8,3.5c-9.4,0.3-19.3-1.1-28.1,3c1.4-2,3.4-3.9,6-4.3
	C88,29.4,94,31.7,100.1,31.2z"/>
<path fill="#040404" d="M102.1,40.1c4.8-1.1,8.5-6.3,13.9-4.6c-3.1,3.3-7.2,5.3-11.6,6.2C103.6,41.2,102.8,40.7,102.1,40.1z"/>
<path fill="#040404" d="M67.8,42.7c7.6-4.9,16.8-2.9,25.2-1.9c3.4,0.7,7.3-1,10.3,1.2c-10.4,1-20.8-1.3-31.1,0.4
	C70.7,42.6,69.2,42.6,67.8,42.7z"/>
<path fill="#040404" d="M101.7,67.6c4.1-0.6,8.2-0.4,12.3-1.2c-0.9,3.3-4.7,2.8-7.3,3.4c2.1,0.7,4.3,0.5,6.4,0.7l-0.6,2.1
	c-2.8,0.4-5.5-0.6-8.2-1.2c0.1-0.5,0.2-1.6,0.3-2.1C103.5,68.8,102.6,68.2,101.7,67.6z"/>
<path fill="#040404" d="M120.9,73.8c2.7-0.8,5.5-0.6,8.2,0.1c9.1,2.1,18.5,3.9,27.9,2.9c-5.3,3.7-12,2.6-17.9,1.5
	C133,76.9,127,75.1,120.9,73.8z"/>
<path fill="#040404" d="M112.8,78.5c4.7,5.4,10.8,10.8,11.2,18.5c-4.6,1.3-9.3,2.2-14,1.9c0.2-0.5,0.7-1.6,0.9-2.1
	c3.3-0.5,6.6-0.8,9.8-1.7C118.8,89.2,111.3,85.6,112.8,78.5z"/>
<path fill="#040404" d="M155.8,107.8c4-5.3,9.5-9.3,14.9-13.2c-2.4,7.6-12,9.8-14.5,17.4c-1.4,3.3-0.2,6.8,0.4,10.1
	C153,118.2,152.5,112,155.8,107.8z"/>
<path fill="#040404" d="M94.9,111.3c11.8-2.7,24,0.2,35.5,3.2c-0.7,3-0.6,6.1-0.2,9.1c-4.2-1.7-6.4-6.5-11.1-7.2
	c-12.4-3.2-25.9,1.5-35.1,10.1c-0.1-1.7-1.1-3-2.2-4.3C83.9,116.6,89,112.5,94.9,111.3z"/>
<path fill="#040404" d="M34.5,115.1c-0.2-0.9,0.6-2,1.6-1.4c8.3,0.9,13.7,8,20.3,12.3c-0.3,4.9,0.4,9.7,2.3,14.2
	c-6.1-0.5-3.9-8-4.8-12C49,122.1,42.3,116.8,34.5,115.1z"/>
<path fill="#040404" d="M98.2,140.1c0-7.7,14.9-8.2,14.6-0.1c-2.2-1-4.3-2.5-6.8-2.4C103.3,138.1,100.8,139.3,98.2,140.1z"/>
</svg>
