<?xml version="1.0" encoding="utf-8"?>
<!-- Generator: Adobe Illustrator 18.0.0, SVG Export Plug-In . SVG Version: 6.00 Build 0)  -->
<!DOCTYPE svg PUBLIC "-//W3C//DTD SVG 1.1//EN" "http://www.w3.org/Graphics/SVG/1.1/DTD/svg11.dtd">
<svg version="1.1" id="Layer_1" xmlns="http://www.w3.org/2000/svg" xmlns:xlink="http://www.w3.org/1999/xlink" x="0px" y="0px"
	 viewBox="0 0 614 623" enable-background="new 0 0 614 623" xml:space="preserve">
<g>
	<path fill="#F00003" d="M114.3,27.7c1.5,0,2.9,0,4.4,0c1.2,3.6,0.5,7.5,0.7,11.3c3.7,0.1,7.5,0.1,11.2-0.1c0-3.1,0-6.2-0.1-9.3
		c0.2-0.5,0.7-1.4,0.9-1.8c1.4,0,2.8,0,4.2-0.1c0.4,9.4,0.2,18.7,0.1,28.1c-1.7,0-3.4,0-5.1,0c-0.2-4.2-0.1-8.5-0.2-12.7
		c-3.7-0.3-7.3-0.2-11-0.3c-0.3,4.3,0.1,8.7-0.5,13c-1.6,0-3.2,0-4.9,0C114.2,46.5,113.9,37.1,114.3,27.7z"/>
	<path fill="#F00003" d="M27.1,28.2c2.4-0.2,4.9-0.5,7.3-0.4c2.7,5.5,3.5,11.6,5.4,17.4l1-0.8c1.8-5.5,2.9-11.2,4.9-16.7
		c2.6,0.3,5.3,0.5,7.9,0.5c0,9.2-0.1,18.4,0,27.6c-1.7,0-3.3,0-5,0c-0.2-6.2-0.2-12.5-0.4-18.7c-0.2,0.1-0.6,0.2-0.8,0.2
		C47.3,38,47,39.3,46.8,40c-1.3,5.2-3.2,10.4-3.7,15.8c-1.8,0.1-3.7,0.1-5.5,0.1c-1.8-6.5-3-13.1-5-19.6c-0.3,6.5-1,13-0.9,19.6
		c-1.6,0-3.1,0-4.7,0C27.1,46.6,27.1,37.4,27.1,28.2z"/>
	<path fill="#F00003" d="M63.7,29.6c3.9-1.8,8.3-1.9,12.4-1c4,1.1,6.9,4.6,8.2,8.5c0.7,3.2,0.3,6.6,0.1,9.8c-1.4,2.9-3,5.8-5.9,7.4
		c-3.4,1.5-7.3,1.8-10.9,1.2c-4.3-0.6-8-3.9-9.2-8c-0.5-2.8-0.4-5.7-0.3-8.6C58.2,35.1,60.6,31.7,63.7,29.6 M65.2,35.1
		c-2.6,4.5-2.4,10.7,0.8,15c1.5,1.1,3.3,1.6,5,2.3c3.3-0.4,5.8-2.3,7.5-5.1c0.3-3.5,0.7-7-0.2-10.4c-1.3-2.5-3.5-4.3-6.2-5.1
		C69.6,32.3,66.6,32.6,65.2,35.1z"/>
	<path fill="#F00003" d="M88.2,28.1c7.4,0.2,14.8-0.2,22.1,0.2c0,1.3-0.1,2.6-0.1,3.9c-2.9,0-5.7,0-8.6,0.1c0.1,7.8,0,15.7,0,23.5
		c-1.8,0-3.6-0.1-5.4-0.2c0.2-7.8-0.1-15.6,0.1-23.4c-2.8-0.1-5.5-0.1-8.3-0.1C88.2,30.8,88.2,29.5,88.2,28.1z"/>
	<path fill="#F00003" d="M142.2,28.2c6.8,0,13.6-0.1,20.3,0c0,1.2,0,2.4,0,3.6c-4.8,0.1-9.7-0.1-14.5,0.1c-0.2,0.5-0.6,1.3-0.7,1.8
		c0.2,1.8,0.3,3.6,0.4,5.5c4.4-0.1,8.9,0,13.4,0c0,1.3,0,2.6,0,3.8c-4.5,0-8.9,0-13.4-0.1c-0.1,3.1-0.1,6.2,0,9.3
		c5.1,0,10.1,0,15.2-0.1c0,1.3,0.1,2.5,0.1,3.7c-6.9,0.1-13.8,0.1-20.7,0C142.1,46.6,142,37.4,142.2,28.2z"/>
	<path fill="#F00003" d="M169.1,28.1c6,0.3,12.1-0.6,18.1,0.6c4.4,1.3,5.1,6.5,4.3,10.4c-1.7,2-3.8,3.8-6.4,4.3
		c3.9,3.4,6.3,8,8.7,12.5c-2.3,0-4.7,0-7-0.2c-2-3.8-4.8-7.1-6.8-10.9c-1.8-0.3-3.6-0.5-5.4-0.6c0,3.9-0.1,7.7,0,11.6
		c-1.8,0.1-3.6,0.1-5.5,0.2C169.1,46.6,169.1,37.4,169.1,28.1 M174.6,40.2c3.6,0.1,7.2-0.2,10.7-1.1c0.5-2.2,0.5-4.3,0-6.5
		c-3.5-0.5-7.1-0.5-10.6-0.9C174.4,34.6,174.4,37.4,174.6,40.2z"/>
	<path fill="#F00003" d="M214.7,28.8c5.6-1.4,12.9-1.1,16.4,4.1c3.2,3.9,2.8,9.4,2.1,14.1c-0.5,3.1-3.2,5.1-5.2,7.3
		c-6.2,2.4-14.9,2.7-18.9-3.5C204.2,44,206.3,32,214.7,28.8 M212.5,42c-0.2,3.8,1.5,8,5.1,9.6c2.5,0.4,5.7,0.7,7.5-1.5
		c3.8-3.3,2.4-8.8,2.3-13.2c-1.2-1.5-2.1-3.4-3.9-4.2c-2.1-0.6-4.4-0.6-6.6-0.1C213.5,34.3,212.4,38.5,212.5,42z"/>
	<path fill="#F00003" d="M239.2,28c6.2,0.2,12.4,0,18.6,0.2c0,1.2,0,2.4,0,3.6c-4.4,0.1-8.9,0-13.3,0c0,2.8,0,5.5,0,8.3
		c3.8,0,7.6,0,11.3,0c0,1.2,0,2.5,0,3.7c-3.8,0-7.5,0-11.3,0c-0.3,3.9-0.2,7.9-0.1,11.8c-1.8,0.1-3.6,0.1-5.4,0.2
		C239.2,46.6,239,37.3,239.2,28z"/>
	<path fill="#F00003" d="M284.2,28.2c4.3-0.4,9.3-0.2,12.3,3.3c1.3,1.2,1.1,3.1,1.5,4.7c-1.6,0.2-3.2,0.4-4.8,0.5
		c-1.3-5.5-8.3-5.6-12.2-2.9c-3.6,4.8-3.3,11.8,0.4,16.5c3.4,2,7.5,1.5,10.9-0.1c0.4-1.6,0.8-3.2,1.2-4.9c-2.1-0.3-4.3-0.5-6.5-0.6
		c0-1.2,0-2.5,0-3.7c3.9,0,7.8,0,11.7,0c-0.3,3.9,0.8,8.2-0.7,11.9c-5.1,2.9-11.3,3.6-16.9,2c-5.8-1.8-8.8-8.3-8.1-14.1
		C272.7,34.8,277.9,28.5,284.2,28.2z"/>
	<path fill="#F00003" d="M303.8,34.9c2.1-2.8,4.5-6,8.2-6.4c4.8-0.8,10.6-0.6,14.2,3.2c3.9,4,4,10.2,3,15.3c-0.5,3.1-3.1,5-5,7.2
		c-6,2.4-14.2,2.7-18.5-2.8C301.8,46.9,302.2,40.3,303.8,34.9 M313,32.4c-4.7,3.1-5.3,9.5-3.8,14.5c0.9,3.1,4,4.6,6.8,5.5
		c3.2-0.4,6-2.3,7.3-5.4c0.6-3.4,0.4-6.8,0.1-10.1c-1.1-1.4-2.2-2.8-3.3-4.2C317.8,32.3,315.4,32.2,313,32.4z"/>
	<path fill="#F00003" d="M335.2,28c3.6,0.1,7.2,0.1,10.8,0.1c2.7,0.1,5.7,0,7.7,2.1c4.7,4,5,10.7,4.4,16.4c-1,2.1-2,4.3-3.2,6.3
		c-5.5,4.6-13,3-19.6,3.3C334.9,46.8,335,37.4,335.2,28 M340.5,51.7c3.2,0.5,6.6,0.8,9.6-0.7c2.9-4,2.8-9.3,1.9-14
		c-0.6-2.9-3.1-4.7-5.8-5.2c-1.8,0-3.7,0-5.5,0C340.3,38.5,340.5,45.1,340.5,51.7z"/>
	<path fill="#F00003" d="M363.2,50.7c1.7,0.1,3.4,0.3,5.1,0.7c0,1.5,0,2.9,0,4.4c-1.7,0.1-3.5,0.1-5.2,0.2
		C363.1,54.2,363.2,52.4,363.2,50.7z"/>
	<path fill="#F00003" d="M374.1,51.1c1.6,0,3.2,0,4.7,0c0,1.6,0,3.2,0,4.7c-1.6,0-3.1,0-4.7,0C374.1,54.3,374.1,52.7,374.1,51.1z"/>
	<path fill="#F00003" d="M385.1,51.1c1.6,0,3.2,0,4.8,0.1c0,1.5,0,3.1-0.1,4.7c-1.6,0-3.2,0-4.7,0C385.1,54.3,385.1,52.7,385.1,51.1
		z"/>
	<path fill="#020202" d="M322,169.1c2.9-1.1,5.7-3,9-2.7c8.5,0.3,17.3-0.9,25.6,1.2c0.4,0.2,1.4,0.5,1.8,0.6c1.3,0.4,2.6,0.7,4,1.1
		c3.5,1.3,7.3,0.4,10.9,0.8c1.3,0.6,2.7,0.9,4.1,1.2c4.4,1.3,9.3,0.2,13.7,1.7c4.3,3.5,10.1,3.9,14.5,7.1c5.2,2.8,11.4,4.1,15.4,8.8
		c3.4,4.4,9.8,4.4,12.9,9.1c2.9,2.2,5.5,4.9,8.9,6.5c4.5,1.8,6.5,6.7,10.4,9.4c4.1,2.6,6,7.2,9.2,10.7c2.1,2.6,3.8,5.5,5.9,8.1
		c4.9,5.3,6.5,12.6,9.2,19.1c1-0.4,2.9-1,3.9-1.4c1.1,0.8,2.2,1.5,3.1,2.4c0.3,2.2-1,4.2-1.8,6.2c0.4,0.2,0.9,0.4,1.3,0.6
		c0.5,3.8,3.3,6.7,4.4,10.3c1.3,3.7,1.9,7.6,3.6,11.2c1.9,3.6,1.7,7.9,3.1,11.7c0.3,5.9,0.5,12.2,3.5,17.4c1.5,3,0.4,6.5,1.4,9.6
		c1.2,4,1.1,8.3,3.1,12c0.9,1.9,2.4,3.7,2.3,6c-0.1,3.5,0.5,7,1.6,10.3c0.1,3.6,0.8,7.2,1.4,10.7c-0.3,6.9,3.4,13.2,3.1,20.1
		c-0.3,3.8,2.1,7.2,1.7,11c-0.3,3.8,1.5,7.3,1.3,11c0,12.3,0,24.7,0,37c0,2-0.2,4.1-0.7,6.1c-0.8,2.9-0.3,6-0.8,8.9
		c-1.6,5.7-2.5,11.6-2.9,17.5c-1,4.7-3.4,8.9-4.7,13.5c-1.1,3.3-1.4,6.9-3.1,10c-1.9,3.6-3.2,7.5-5.2,11c4.8,1.8,8.2,6.1,13,8
		c3.4,1.5,7.2,2.3,9.9,5c2.4,2.3,5.2,4.3,6.6,7.4c2.4,4.9,2.7,10.5,4.6,15.5c0.8,3.4,1.7,7.1-0.5,10.2c-0.2,2,0,4.2-0.6,6.2
		c-3.3,6.4-7.2,12.5-11.7,18.1c-1.4,1.4-3.6,1.6-5.4,2.1c-4.5,0.9-8.8,2.7-13.2,4.1c-3.4,1.1-6.9,0.3-10.4,0.9
		c-2.9,0.7-5.5,2-8.4,2.7c-6.4-1-12.7-2.6-19.1-3.3c-6.2-2.5-12.6-4.7-18.8-7.2c-6.1-3.7-12-7.8-17.2-12.7c-1.4-1.3-2.3-3-3.1-4.7
		c-6.1,0.6-11.1,4.6-17,5.8c-4,1-7.9,2.2-12,2.9c-1,2.2-2.1,4.5-4.3,5.8c-5,4.5-10.7,7.9-16.4,11.4c-5.7,2-11.7,2.9-17.4,5
		c-2.1,0.1-4.3,0.1-6.4,0.3c2.9,3.3,6.2,6.4,8.3,10.3c2.4,4.7,3.9,9.9,3.9,15.3c1.3,2.8,1.6,5.9,2.2,8.9h-10.4
		c-1.7-4.5-0.4-9.6-2.2-14.1c-1.4-6-3.1-12.7-8.9-15.9c-0.1-1.1-0.2-2.3-0.2-3.4c-7.1,0-14.2,0-21.3,0c-3.3,0.1-6.4-1.5-9.6-2
		c-4.6,4.7-6.4,11.1-9.2,16.9c-1.1,2.4-1.7,5.2-3.8,7c-2.9,2.5-5.5,5.4-8.8,7.5c-1.8,1-3.2,2.6-4.7,4.1H277c0.3-0.1,0.7-0.3,1-0.5
		c2.4-3,4.6-6.3,8-8.3c3.7-2.2,6.3-5.6,9.4-8.5c3.1-7.9,6.2-16,11.9-22.5c0.7-2.8,2.4-5.1,4.6-6.9c-2.3-0.2-4.7-0.1-7,0.2
		c-1.8,1.8-3.5,3.8-5,6c-1.5,0.1-3.5,0.8-4.8-0.4c-1.4-2.8-0.8-6.1,0-9c1.3-4,2-8.3,4.5-11.7c0.5-2.4,0.1-4.9-0.6-7.2
		c0.2-0.5,0.5-1.5,0.6-1.9c-1.5,0.5-3.1,0.9-4.5,1.8c-3.7,5-6.4,10.9-11.3,14.9c-2.8,4.2-5.9,8.1-9.4,11.7c-1.2-0.5-2.4-1.1-3.5-1.6
		c-0.8-5.6-1.6-11.8,0.4-17.2c1.5-5.8,2.3-11.7,1.8-17.7c-3,0.5-5.6,2.3-8.2,3.8c-3,1.7-3.9,5.3-6.3,7.7c-1.6,1.6-3.3,3.1-4.3,5.2
		c-5.9,5-9.6,12-14.6,17.8c-1-0.1-1.9-0.3-2.9-0.4c-2.7-6-0.3-12.3,1.5-18.1c-0.2-7.3,2-14.3,4.4-21c1.9-1,2.1-3.1,2.2-5
		c-6.4-1-11.9,2.7-17,5.8c-2,1.3-3.7,2.9-5,4.9c-1.7,2.6-4.7,3.9-7,5.9c-1.1,1.6-3.2,2.2-4.4,3.8c-3.9,6.9-9.3,12.7-14.4,18.7
		c-0.8,1.6-1.3,3.3-1.9,5c-4.6,6.6-6.8,14.6-8.4,22.3c-0.9,4.1-2.7,8.2-2.5,12.5c0,3.3,0,6.7,0,10h-5.9c0.2-5.3-0.5-10.8,0.5-16
		c1.2-4.1,0.8-8.4,0.5-12.6c0.3,0.1,0.8,0.2,1,0.3c2.6-12.8,10.2-23.9,18.9-33.4c4-4,5.9-9.4,9.8-13.3c-3.3-1.3-6.5-2.8-9.9-3.8
		c-5.4-1.8-10.5-4.4-15.9-6c-5-1.4-9.6-3.9-14.5-5.6c-1.4,1.2-2.8,2.4-4.6,2.8c-3.9,1.2-8.1,3.2-12,1c-4.1-1.4-6.8-5.4-7.2-9.6
		c-3.8,0-8.6-0.5-10.3-4.6c-0.8-5.6,5-9.1,5.9-14.2c-3-5.6-7-10.7-8.4-17c-1.2-6.1-5.8-10.8-7-16.9c-1.2-4.4-3.5-8.3-5-12.5
		c-1.2-3.7-5.2-5.6-6.5-9.2c-2.7-6.5-4.3-13.4-7.5-19.7c-2.1-3.7-0.9-8.1-1.9-12c-1.4-5.2-0.3-10.5-0.9-15.8
		c-1.4-4.9-3.3-9.7-2.8-14.9c0.5-4.8-0.8-9.3-1.6-14c0.1-4.4-1.7-8.6-1.4-13c0-6,0-12,0-18c-0.2-3.8,1.4-7.3,1.3-11
		c-0.2-3.5,1.2-6.7,1.8-10c0.5-3.3,2.8-6,3.5-9.3c1.5-5.9,4.8-11.1,6.4-17c0.8-3.2,3.4-5.5,4.6-8.5c1-2.5,2.4-4.8,4.3-6.7
		c1-4.2,3.1-8.1,5.9-11.3c2.2-2.3,3.2-5.4,5.3-7.8c2.8-3.3,5.7-6.6,7.7-10.5c2.3-4.4,5.7-8.1,9.4-11.3c5.6-5.5,11.1-11,16-17.1
		c2.2-2.7,3.3-6.5,6.6-8.3c5.7-3.1,10.9-6.9,16.3-10.4c5.1-1.1,9-5,14-6c1.7-0.4,3.6-0.6,5.2-1.4c9.5-5.2,20.4-6.9,29.8-12.3
		c5.3-3,11.6-3.1,17.1-5.6c5.3-2,11-2.3,16.4-3.9c4.9-1.6,10.1-1,15-2.4c3.7-1,7.6-0.3,11.3-1.4C304.1,170.7,313.1,169.7,322,169.1
		 M323.1,175.3c-3.4,0.2-7-0.6-10.2,0.8c-5.4,1-10.8,1.4-16.2,2.5c-4.3,2.5-9.6,0.9-14.2,2.2c-3.1,1-6.6,0-9.6,1.3
		c-2.7,0.5-5.4,1.1-8,2c-2,0.2-4.1,0-5.9,0.9c-5.4,1.5-10.6,3.7-16.1,4.9c-2.6,0.2-4.9,1.4-7.1,2.7c-0.9,0.5-1.7,1-2.6,1.5
		c-3.1,1.1-6.3,2.2-9.3,3.6c-1.2,0.5-2.5,0.9-3.7,1.3c-2.5,0.8-4.9,1.6-7.4,2.4c-0.9,0.6-1.9,1.2-2.8,1.8c-0.3,0.1-0.8,0.2-1.1,0.2
		c-1.2,0.6-2.5,1.1-3.8,1.7c-2.1,0-4.2,0.5-6.1,1.4c-3.2,1.9-6.6,3.7-10.1,5c-0.8,0.5-1.7,1.1-2.5,1.6c-3.4,1-5.3,4.6-8.7,5.5
		c-0.5,0.3-1.4,0.8-1.9,1c-1.1,0.7-2.2,1.4-3.4,2l-0.1,0.4c-2,2.7-3.5,5.9-5.9,8.3c-3.9,3.6-6.3,8.7-11,11.4l0.2,0.9l-0.9-0.2
		c-1,2.3-3.2,3.7-5.1,5.1c-0.3,0.3-1,0.9-1.3,1.2l0.2,0.9l-0.9-0.2c-0.3,0.3-0.8,1-1.1,1.4c-1.2,1.7-2.4,3.5-3.4,5.4
		c-2,3.6-4.7,6.6-7,9.9c-0.7,0.7-1.4,1.3-2.1,2c-0.6,1.3-1.3,2.6-1.9,4c-1.9,2.4-4,4.8-5.6,7.4c-0.6,3.4-2.1,6.5-4.4,9l-0.6-0.1
		c-0.7,2.1-1.5,4.1-2.3,6.1c-0.9,1.1-1.7,2.2-2.6,3.2c-0.7,1.7-1.3,3.5-1.5,5.3c-2.9,5.8-5.2,11.8-6.9,18c-4,5.4-2.4,12.8-4.2,19
		c-1.3,2.4-0.8,5.3-0.8,8c0.1,6.2-0.2,12.5,0.2,18.7c2.1,4.5,1.2,9.7,2.5,14.4c1.1,5.2-0.8,10.8,1.2,15.8c0.1,0.5,0.3,1.5,0.4,2
		c3.5,6.5,0.1,14.3,2.6,21c0.6,3.5,0.9,7.1,1.3,10.6c2.4,3.4,3.2,7.5,4.7,11.3c0.8,2.4,1.7,4.9,2.5,7.3c1.2,1.6,1.7,3.9,3.8,4.7
		l0.1,0.5c3.6,3.4,3.9,8.8,6.6,12.8c1.6,3.5,2,7.5,3.9,10.8c1.1,2,2,4.1,3.1,6.1c1.9,3.9,2.1,8.5,4.5,12.3c0.8,1.2,1.5,2.5,2.3,3.7
		c0.7,1.3,1.4,2.6,2.1,4c3.9-1.6,7-4.5,10.8-6.2c4.2-0.8,8.8-1,12-4.2c7.7-0.4,15.5-0.1,23.2-0.2c3.7-0.3,7.1,1.6,10.8,1.4
		c6.3,1.9,12.9,3,19.4,2.9c3.4,1.4,7,2.1,10.6,2.8c3.1,0.3,6.2-0.1,9.1,1.1c2.3,1.1,4.7,2.1,7,3.3c2.4,1.6,5.4,1.8,8.1,2.8
		c2.8,1.2,6,0.5,8.9,0.9c3.5,1.1,6.6,3,10,4.1c1.4,0.6,2.8,1.2,4.1,2c4.6,2.2,9.8,3,14.7,3.9c3.3-0.3,6.6-1.2,9.9-1.9
		c3.9-1.3,8.1-1.9,12-2.9c4.6-2.4,9.4-4,14.3-5.6c3.4-1.4,7-3.1,10.8-2.8c4.7,0.2,9.5-0.4,14.1,0.4c3.2,1,6.7,0.8,10,0.9
		c5,1.4,9.9,3,15.1,4c3.1,2.3,6.9,3.7,9.1,7c2.3,5.5,4.4,11,6.4,16.6c0.5,0.3,1.6,0.8,2.1,1.1c5.7,0.2,11.4-0.1,17.2,0.3l1-0.4
		c3.9-4.4,5.8-10.2,10-14.3c0.9-3.1,4-4.6,6-6.9c2.2-2.7,5.3-4.4,8-6.6c5.9-1.7,11.9-3.2,17.9-4.7c7-0.5,14.1-0.1,21.2-0.2
		c4.2-0.4,8.1,1.7,12.2,1.2c1.7-3.5,3.3-7,4.7-10.6c2.4-2.8,2.2-6.7,3.5-10c1.2-5.1,4.6-9.6,4.4-15c1-6.7,3.1-13.2,3-20
		c0-3.1,1.9-5.9,1.8-8.9c0-12.7,0-25.3,0-38c0.1-3.1-1.2-5.9-1.9-8.9c0.5-5.5-1.7-10.7-1.3-16.3c-1.7-5.5-3.1-11.2-3-17
		c-1.6-4.8-1.6-10-2.8-14.9c-0.3-2.6,0.4-5.4-0.8-7.8c-3.2-4.4-3.6-10.1-4.8-15.3c-0.8-2.7-0.3-5.5-0.7-8.3
		c-0.9-1.2-1.9-2.3-2.8-3.5c0.1-2.5,0.1-5-0.9-7.4c-1.4-3.9-0.2-8.1-1.9-11.9c0-2.5-0.3-5-1.8-7c-1-2.2-1.4-4.6-2.2-6.9
		c-0.3-1-0.6-2.1-0.9-3.1c-0.5-4.1-4.3-6.7-4.6-10.8c-3,0-5.4,1.9-8.1,3c-1.2,0.4-2.4,0.9-3.5,1.5c-0.8,0.5-1.6,1-2.4,1.6
		c-1.5,0.1-2.9,0.3-4.2,1c-4.8,1.5-10.2-0.1-14.7,2.4l0.1,0.8c-3.1,2.5-7.1,1.4-10.5,2.8c-2.8,0.6-5.6,1-8.4,1.6
		c-6.7,1.7-14-0.8-20.6,1.4c-4,0.8-8,1.1-12,2.1c-3.3,0.2-6.6,0-9.8,0.4c-1.3,1.1-2.8,1.9-4.2,2.8c-0.5-0.3-1.6-0.9-2.2-1.2
		c-1.9-2.3-3.8-4.6-5.5-7c0.4,0.1,1.1,0.3,1.4,0.4c3.8-3,9.5,0.8,13.6-2.3c2.8-2.1,6.4-1.5,9.7-1.9c2.5-2.1,6-1.5,8.9-1.6
		c3.3,0.1,6.3-1.4,9.6-1.3l-0.1-1c2.7-0.7,5.9-0.3,8.3-1.8c2.6-1.2,5.3-2.2,8.1-2.9c2.4-0.4,4.9,0.1,7.1-1c2.6-1,5.4-1.8,7.9-3.2
		c4.3-1.4,9,0,13.2-1.9c3.4-0.2,6.8,0,10.3-0.4c0.4-0.4,1.1-1.1,1.4-1.4c-0.2-2.9-2.1-5.4-2.4-8.3c-0.6-0.9-1.1-1.7-1.7-2.6
		c-0.6-4.6-4.2-7.7-7.1-11.1c0-0.3,0-1,0-1.3c-4.8-3.8-6.6-10.2-11.7-13.6c-2.1-1.5-4-3.4-5.6-5.4c-0.9-1.5-2.3-2.5-3.8-3.1
		c-3.9-1.2-5.9-5.3-9.9-6.4l0-0.5c-0.3-0.2-1-0.7-1.3-1c-0.3-0.5-0.8-1.5-1.1-2c-1.3-0.4-2.5-0.9-3.7-1.4c-1.6-1.1-3.3-2.1-4.9-3.1
		l0-0.8l-1,0l0-0.8c-2.5-1.5-4.9-3.3-7.2-5c-1.7-0.6-3.4-1.2-5-2c-1.9-0.6-3.4-1.8-4.8-3c-2.8-1-5.9-1.5-8.3-3.3
		c-0.4,0.1-1.2,0.2-1.5,0.2l-0.1-1.2l-0.7,0c-1.3-1.4-3.5-0.9-5.2-1.1c-1.5-0.7-2.9-1.5-4.1-2.6c-2.8-0.9-5.8-1.6-8.4-3.1
		c-13.4-0.5-26.8-0.1-40.2-0.3C328.7,171.9,326.1,174.2,323.1,175.3 M171.8,506.6c-0.6,1.4-1.3,2.8-2,4.2c0,2.6-0.3,5.3,0.7,7.8
		c0.4,0.4,1.3,1.2,1.7,1.6c0.4,2.4,0.4,4.8,0.4,7.2c0.4,0.2,1.1,0.6,1.5,0.8c4,1.6,7.9,3.7,12.2,4.6c6.5,1.9,12.4,5.5,19,7
		c1.6,0.8,3.3,1.5,4.9,2.3c2,0.5,4.1,1.3,6.1,0.6c2.2-1.6,3.6-3.9,5.5-5.7c2.9-2.2,5.8-4.4,9.2-5.8c1.3-0.8,2.6-1.6,4.1-2
		c3.4-1.8,7.2-1.5,10.9-1.4c1.7,0.6,3.3,1.5,4.4,3c0,4.3,1.4,9.6-2.8,12.5c-1.2,2.9-1.3,6-2.4,8.9c-0.4,1-0.7,2-0.9,3
		c0.4,0.3,1.3,1,1.7,1.3c1.8,0.3,3.8,0.4,4.8-1.5c4.2-3.6,6.2-9.2,10.9-12.2c2.5-1.2,5-2.4,7.2-4.1c3.2,0.1,6.7-0.9,9.5,1.1
		c0.2,0.6,0.6,1.7,0.8,2.3c0,4.4,0.3,8.8-0.1,13.2c-0.9,2.4-1.7,4.9-1.8,7.5c0.9,0,2.6,0.1,3.5,0.1c0.1,0.2,0.4,0.7,0.5,0.9
		c1-2.5,2.9-4.6,4.6-6.8c0.5-0.9,0.9-1.8,1.4-2.6c-1.6-1.3-3.2-2.8-4.1-4.7l-0.7,0c-1.5-4.6-0.3-9.5-2.1-14c-3.3-4.2-8.7-7.1-14-6.9
		c0.1-0.2,0.4-0.7,0.5-0.9c-2.9-1.1-5.9-2.4-7.8-5c-3.7-2.6-8.1-3.8-12.1-5.7c-2.7-1.1-5.6-1.7-8.3-2.8c-3.1-1.4-6.6-1-9.7-2.4
		c-5.8-3.3-12.7-0.4-18.8-2.1c-5.1-2.5-10.8-2.7-16.3-2.6c-3.9-2.4-8.5-1.5-12.9-1.7C177.9,505.6,174.6,505.1,171.8,506.6
		 M354.5,516.4l0,0.8c-2.9,1.8-5.3,4.5-7.4,7.2l-0.3,0.1c-0.3,0.3-0.9,1-1.2,1.3l0,0.8l-0.8,0c-0.2,0.3-0.7,1-0.9,1.4
		c-1.5,1.8-3,3.6-4.6,5.3c-1.7,1.3-3.5,2.5-5.4,3.5c-0.4,0.3-1,0.8-1.4,1.1l0.1,0.8l-1.1-0.1l0,0.8c-1.3,0.8-2.5,1.7-3.7,2.6
		c-1.8,1.4-3.9,2.4-6.1,2.9c-0.2,0.3-0.6,0.9-0.8,1.2c-0.4,0.2-1,0.7-1.4,0.9v0.5c-1.7,0.2-3.4,0.6-4.3,2.2l-0.8-0.1l0.2,1.2
		l-0.8-0.2c-0.3,0.3-1,1-1.3,1.4l0,0.4c-1.8,1.4-3.8,2.7-6,3.5c-0.6,3-1.4,6-1.8,9l-1.3-0.1c0.1,0.4,0.3,1.3,0.4,1.7
		c-1.4,1.5-2.6,4.8-1.2,6.5c0.2-0.5,0.6-1.4,0.8-1.9c4.3-0.7,8.9-1.2,12.8,1.1c1.3,1.5,1.5,3.5,1.8,5.5c3.9-0.2,6.9-2.3,10.1-4.1
		c2.1-1.3,3.8-3.2,5.7-4.8c0.3,0,1,0.1,1.3,0.1c1-2.3,3.2-3.7,5.3-4.9c1.2-0.4,2.4-0.9,3.5-1.4c1-1.1,2.1-2.1,3.2-3.1
		c0.7-0.3,1.3-0.6,2-0.9c0.5-0.3,1.5-0.8,1.9-1.1c2.8-3.8,7.7-5,10.5-8.7l-0.2-0.9l0.8,0.1c0.8-1.8,2.4-3.1,3.7-4.7
		c0.2-0.5,0.6-1.6,0.9-2.1c2.7-3.3,5.7-6.2,7.9-9.8c0.6-2.5-0.9-4.7-2.1-6.7l0-0.8l-1.2,0.1l0.3-1.2l-0.8,0.1
		c-0.4-1.2-1.2-1.9-2.3-2.2c0-0.2,0.1-0.5,0.2-0.7c-1.9-0.8-3.8-1.7-5.8-2.4C360.2,516.1,357.3,515.5,354.5,516.4 M481.4,521.5
		c-4.5,3.6-7.7,8.4-10.8,13.2c-2.8,3.8-6.5,7-9.6,10.5c-2.9,5.2-6.2,10.3-10.8,14.2c2.3,2.2,6,1,8.9,1.3c3.8,1,7.5,2.4,10.8,4.6
		c3.7,0.2,7.5,0.1,11.2,0.1c3.9-6,9.4-10.8,13.8-16.4c1.4-3.5,3.4-6.7,4.9-10.1c1.2-3.5,2.2-7.1,3.3-10.7c2.2-2.1,1.2-5,0.1-7.3
		c-2-1.2-4.1-2.2-6.2-3.2c-2.4-0.1-4.9-0.4-7.3,0C487,519,484.3,520.6,481.4,521.5 M394.6,552.5c0,2.5-0.1,4.9,0,7.4
		c4.5-1.5,9.2-2.6,13.9-3.6c1.6-1.6,4.3-1.7,5.3-4C407.3,552.3,401,552.1,394.6,552.5z"/>
	<path fill="#020202" d="M366.9,232.4c2.8-2.1,6.7-1.4,10.1-1.6c2.6,0.3,6.4-0.1,7.4,3.1c-0.4,0.8-0.9,1.6-1.3,2.4
		c-5.2,1.9-11.1-0.3-16.1,1.9c-3.6,0-7.1,0.4-10.5,1.4c-4.4,1.3-9.3-0.4-13.5,1.6c-2.1,0.1-4.2,0-6.3,0.3c-2.9,1.4-5.2,4.1-8.6,4.3
		c-3.5,0.8-7.2,0.3-10.4-1.4c-0.5-0.4-1.5-1.1-2-1.4c0-0.7-0.1-2.1-0.1-2.9c0.6-0.3,1.7-1,2.3-1.3c3.5,1.4,7.5,1.3,11.2,0.8
		c1.9-1.2,3.8-2.6,5.9-3.3c2.9-1.2,6.2-0.1,9-1.4c4.3-1.1,8.6-1,13-1.2C360.2,232.8,363.5,232.6,366.9,232.4z"/>
	<path fill="#020202" d="M397,240.9c5.7-1.1,11.3-2.9,17.2-2.1c0.6,0.3,1.9,0.8,2.5,1c0,0.9,0,2.7,0,3.7c-4,1.7-8.6,0-12.5,1.8
		c-6.5,1.6-13.6,2.7-18.9,7.2c-9.6,2.1-19.5,0.2-29.2,1.2c-0.2,0.2-0.7,0.5-1,0.7c-6.1,1.9-12.7-0.2-18.8,1.8
		c-5.7,0.8-11.5,0-17.3,0.4c-1.7,0.1-3.1,1.2-4.6,1.9c-2.1,0.6-4.2,1.2-6.3,1c-5.6-0.1-11.3,0.1-16.9-0.1c-6.7-2.1-14-0.6-21-1.1
		c-2-0.2-6-0.2-5.5-3.1c-0.5-2.6,2.6-2.7,4.3-3c7.1,0,14.2-0.6,21.2,0.9c2.1,1.3,4.7,0.8,7,0.9c5-0.2,10,0.3,15-0.4
		c1.8-1.1,3.8-1.8,5.7-2.6c6.2-0.1,12.4,0.2,18.5-0.2c5.7-3.4,12.9,0,18.7-2.7c5.7-0.2,11.3,0,17-0.1c3.3-0.1,6.6,0.3,9.9-0.6
		c1.5-0.6,2.9-1.3,4.1-2.4c1.6-0.7,3.3-1.3,5-1.8C393,242.2,395,241.6,397,240.9z"/>
	<path fill="#020202" d="M437.9,243.6c1,0,2.1,0,3.2-0.1c0.3,0.6,1,1.8,1.3,2.4c-0.3,0.6-0.9,1.8-1.2,2.4c-1.2,0.7-2.4,1.4-3.8,1.8
		c-5.2,1-10.2,2.6-15.5,3.1c-1.6,0.2-3.4,0-4.9,0.9c-2.4,0.8-4.9,1.4-7.1,2.8c-4.8,1.8-10.1,0.4-14.9,2.1c-1.7,0.2-3.5,0.3-5.2,0.5
		c-0.5,0.4-1.5,1-1.9,1.4c-2.5,1.2-5.3,1.2-7.8,2.2c-2.4,0.6-4.8,1.2-7.1,2.1c-1.9,0.1-3.8,0.1-5.8,0.1c0,1.7-0.2,3.5-0.9,5.1
		c-0.4,0.2-1.3,0.5-1.7,0.7c1.5,0.2,3,0.4,4.5,0.6c0.5,0.3,1.5,1,2,1.3c0.1,0.7,0.2,2.2,0.2,2.9c-0.6,0.3-1.8,1-2.4,1.3
		c-1.8,0-3.6,0-5.5,0.1c-1.3-0.7-2.6-1.4-3.8-2.2c-0.4-1.1-0.8-2.1-1.2-3.1c0-1.4,0.1-2.9,0.5-4.3c-0.4-0.3-0.7-0.7-1.1-1
		c-2.7,0.4-5.6,0.1-8.1,1.3c-5,0.5-10.1-0.2-15.1,0.4c-3.9,1.2-7.8,2.3-11.9,2.7c-3.3,0.3-6.9-0.7-10,0.9
		c-6.7,1.4-13.8,1.6-20.4-0.7c-4.6-0.6-9.3,0.2-13.9-0.4c-5.3-1.2-10.8-1.1-15.9-3c-4.6-1.4-9.6-0.6-14.4-1.9
		c-0.4-1.5-0.3-3.1,0.1-4.6c5.1-1.5,10.3-0.7,15.3,0.9c4.3,1.5,8.9,0.9,13.2,2.3c5.7,1.8,11.8-0.2,17.5,1.4
		c3.8,0.9,7.6,0.5,11.5,0.6c2.6-0.1,5.5,0.3,7.9-1.1c4.3-0.4,8.9,0.5,13.1-0.9c2.4-0.6,4.8-1.1,7.1-2.1c5-0.3,10.1,0.1,15.1-0.3
		c0.5-0.2,1.3-0.6,1.8-0.9c3.6-1.1,7.5-0.4,11.1-1.6c3.5-1,7.3,0.1,10.9-0.8c4.6-1.8,9.6-2.3,13.9-4.7c2.8-1.7,6.4-0.1,9-2.1
		c4.9-1.6,10.5,0.5,15.1-2.4c1.3-0.5,2.7-0.9,4-1.4c2.8-1.3,5.9-1.1,9-1.4C428.4,245.5,433.5,245.9,437.9,243.6z"/>
	<path fill="#020202" d="M183.7,254.5c1.3-1.6,3.7-2.8,5.6-1.5c1.3,2.2-0.3,4.7-0.1,7.1c-0.2,4.6,0.8,10-2.5,13.7
		c-2.1,3.2-2.8,7.1-4.8,10.3c-0.3,1.1-0.7,2-1.4,2.8c0,0.4,0.1,1.1,0.1,1.5l-1.1-0.1l0.1,1c-0.9,0.4-1.7,0.8-2.5,1.2
		c-0.6-0.4-1.8-1.1-2.4-1.5c-0.4-3.5,2.1-6.4,3.2-9.6c0.1-0.1,0.4-0.2,0.5-0.3c1.1-3.1,1.6-6.7,4.3-8.8
		C183.2,265.1,182.3,259.7,183.7,254.5z"/>
	<path fill="#020202" d="M212.7,266.3c2.7-0.8,4.9,1.2,7.4,2c2.4,0.3,4.9,0.6,7.2,1.4c1.7,0.8,3.4,1.9,5.4,1.8
		c7.4,0.3,14.9-0.2,22.4,0.2c4.3,1.2,8.8,1.2,13.1,2c7,4.1,16.1,0,22.8,4.9c4.4,0.5,9-0.3,13.2,1.3c3.2,1.3,6.7,0.3,10,1.1
		c3.6,1.2,7.3,0.7,11,0.8c1.8,0.4,3.6,1,4.6,2.8l0.7,0c0.3,1.9,0.4,3.8-0.1,5.7c-6.3,1.5-12.9,0.6-19.3,1c-2.5,0.2-5-0.8-7.1-2
		c-2.6-1.7-6-0.6-8.9-0.9c-3.5,0.6-6.7-0.9-10-1.6c-4.7-0.4-9.3,0-14-0.3c-0.5-0.3-1.5-1-2-1.3c-2.2-0.9-4.3-2-6.5-2.7
		c-4.4-0.7-9.4,0.6-13.4-1.9c-2.4-0.1-4.8-0.1-7.2-0.3c-4.4-1.9-9.4-0.3-14-1.9c-3.1-1.7-7-0.2-10.2-1.9c-0.5-1.3-1-2.6-1.4-3.9
		c-0.4,0-1.2,0-1.6,0.1l0-1.1l-1.1,0.1l0.1-1.2l-0.9,0.3c-0.3-0.7-0.5-1.4-0.8-2.1C212,268,212.5,266.9,212.7,266.3z"/>
	<path fill="#020202" d="M424,286c5.5-1.8,11.3-1,17-1.2c3.4,0.1,7-0.5,10.1,1.4c0.6,0.1,1.8,0.4,2.4,0.5l-0.1,0.7
		c1.6-0.2,2.1,1.3,3,2.2c1,1.5,1.9,2.9,2.9,4.3c0.7,2,1.1,4.1,1.3,6.3c1.6,2.9,2.2,7.5-0.8,9.6c-3.6,2.9-8.6,1.8-12.8,3.2
		c-7.5,0.5-14.4,4.2-22,3.5c-4.4-0.4-9.6,1.3-13.2-1.8c-2-1.7-4.4-2.7-6.8-3.6c-1.7-1.7-3.4-3.3-5.1-5c-1-1.6-2.8-2.1-4.3-2.8
		c-1.4-2-0.6-4.3,0.2-6.4c1-1,2.1-2.1,3.1-3.1c0.5-0.3,1.4-0.7,1.9-1c5.8-4.5,13.4-4.8,20.4-5.2C422.1,287,423,286.5,424,286
		 M416,294.3c-5.3-0.4-10.3,2-14.6,4.9c2.8,2.7,5,6.1,8.6,7.9c1,0.3,2,0.5,2.9,0.8c1.3,1.4,3,2.8,5,2.6c5.3-0.1,10.8,0.8,15.7-1.6
		c4.2,0.2,8.2-1.7,12.4-1.5c3-1.6,6.3-1.7,9.6-1.9c-0.5-2.5-1.4-5-1.4-7.6c-1.5-2.9-3.6-6.5-7.3-6.4c-6.3-0.1-12.7-0.1-19,0
		C424,292.2,420.3,294.7,416,294.3z"/>
	<path fill="#020202" d="M268.3,289.5c0.8-0.6,1.6-1.3,2.4-1.9c8,0.4,16.2-1,23.9,1.9c7.2,3.3,16.6,3,21.6,10
		c0.1,1.4-0.7,3.7,1.2,4.3l0.2,0.4c1.4,0.9,3.1,1.8,3.1,3.8c0.8,4.9,1,10.1-0.8,14.9c-1.3,1.5-2.5,3.7-4.8,3.7
		c-4.1,0.5-8.2,1.2-12.3,2.1c-0.7,0.4-2,1.2-2.7,1.6c-6.3-0.1-12.8,0.5-19-0.9c-2.7-0.9-5.2-2.3-7.7-3.6c-4.2-0.5-8.3-1.6-12.5-2.3
		c-2.1-1.4-4.7-0.9-7.1-1c-1.8-1-4-1.7-4.5-3.9l-0.5,0.1c-0.3-0.6-0.8-1.8-1-2.4c0-3.1,0-6.2,0-9.4c0.7-1,1.4-2,2.2-2.9
		c2.4-0.1,2.8-2.5,3.9-4c0.9-0.8,2-1.4,3-2c1.2-0.7,1.9-1.7,1.9-3.1l0.9,0l-0.1-0.9c1.1-0.6,2.2-1.3,3.3-1.9
		c1.7-0.6,3.3-1.4,4.9-2.2L268.3,289.5 M266,297c-1.8,0.5-2.4,2.3-3.5,3.5c-1.3,1.8-3.5,2.5-4.7,4.3c-1.1,1.6-2.6,3-4.2,4.2
		c-0.1,1.8-0.1,3.5-0.1,5.3c0.3,0.5,1,1.5,1.3,2c4.2-0.3,8.1,1.3,12.2,1.8c4,1.2,8.3,1.5,11.9,3.6c1.3,0.7,2.5,1.7,4,1.7
		c5,0.4,10,0.2,14.9,0.2c5.6-0.8,10.8-3.4,16.5-3.2c0.3-3.5,0.4-7.1,0.1-10.6c-2.5-3.1-5.1-5.9-7.6-9c-0.5-0.3-1.4-0.8-1.8-1.1
		c-3.6-1.4-7.5-2.1-11.1-3.7c-5.9-2.9-12.7-1.5-19.1-1.8C271.7,293.9,269,296,266,297z"/>
	<path fill="#020202" d="M365.9,291.6c1,0,2.1-0.1,3.1-0.1c0.3,0.6,0.8,1.7,1.1,2.3c0.9,1.2,1.9,2.3,3.3,3l0,0.7l1.1-0.1l0,0.8
		c1.3,0.4,2.6,0.9,3.9,1.4l-0.1,0.9l0.8,0.1c0.2,0.6,0.7,1.7,0.9,2.3c0.5,0.8,1.1,1.5,1.6,2.3c1,1.4,2.1,2.7,3,4.1
		c4.4,6.1,3.5,13.8,3.6,20.9c-0.9,1.5-1.7,3.1-2.7,4.6c-0.5,2.1-1.1,4.2-1.9,6.2c-0.1,0.5-0.4,1.5-0.5,2.1c-1.2,4-1.5,8.9,0.1,12.8
		c0.7,3.1,0.7,6.3,1.7,9.2c1.1,2.5,1.9,5.1,2.1,7.9c0.3,2.6-0.5,5.7,1.6,7.9c2.1,2.8,2.6,6.7,5.3,9c1.1,2.7,2.2,5.3,3.3,8
		c0.2,3-0.6,6.3,1,9c0,0.5,0,1.6,0.1,2.1c-0.3,0.4-0.8,1.1-1.1,1.5l-0.9,0l0.1,0.9c-2.8,0.3-3.6,3.5-5.9,4.5l-0.1,0.5
		c-1.2,0.5-2.3,1-3.5,1.5c-1,0.4-2,0.7-3,1c-3,1.6-6.1,2.7-9.3,3.9c-3.5,1.8-7.5,2.3-11.1,3.9c-0.8,0.5-1.6,1.1-2.4,1.6
		c-7,1.2-14.5,1.7-21.2-1c-3-1.2-6.4-1.3-9.3-2.9c-3.5-2.7-7.9-3.1-12-4c-1.3-0.7-2.6-1.4-3.9-2.1c-0.5-0.3-1.5-0.9-2-1.2
		c-1.2-3-1-6.2-0.1-9.3c1.6-2.3,0.8-5.2,1.1-7.8c0.7-1.2,0.8-2.6,0.9-3.9c-3,0.3-5.9,1.3-8.9,1.6c-1.6,1.3-4,1.1-5.6,0l-0.4,0
		c-0.4-0.3-1-1-1.4-1.3l0.2-0.5c-1.5-0.9-3-1.9-4.6-2.7c-0.4-0.9-0.8-1.9-1.2-2.8c0-2.2,0-4.4,0-6.6c0.7-1.8,1.9-3.4,3.5-4.6
		c2.3-0.6,4.7-1.2,7.1-1.6c0.8-0.6,1.6-1.2,2.5-1.9c1.1-0.2,2.1-0.4,3.2-0.6c1.2,0.3,2.3,0.6,3.5,0.9c0.4,1.4,0.4,2.9,0,4.3
		c-1.9,0.4-3.8,0.9-5.8,1.4c-2.5,1.8-5.5,2.3-8.4,2.9c0,1.6,0,3.1,0.1,4.7c1.6,0.9,3,2,4.2,3.4c1.9-0.3,3.8-0.8,5.7-1.2
		c2.2-1.8,5.9-0.6,7.5-3c0.9,0,2.7,0,3.6,0.1c1.9,3.5,2.5,8.1,0.3,11.5c-0.4,3,0,6.1-1.1,9.1c-0.6,1.6-0.3,3.4,0,5.1
		c1,0.4,2.1,0.8,3.1,1.3c1.1,0.1,2.3,0.3,3.5,0.4c2.5,0.8,5,1.6,7.3,2.9c5.6,2.2,11.5,4.6,17.7,4.1c3.4,0,6.9,0.1,10.3-0.3
		c3.1-3.1,7.8-3.1,11.7-4.6c0.5-0.3,1.4-0.9,1.9-1.2c1-0.3,2-0.6,2.9-0.9c1.1-0.5,2.3-1,3.4-1.6c1.2-0.5,2.4-1.1,3.5-1.6
		c0.6-0.1,1.8-0.3,2.4-0.4c2-1.5,3.9-3.3,5.5-5.3c0.1-3.3,0.4-6.7-0.6-9.9c-0.9-1.8-2-3.6-2.6-5.6l-0.6-0.1
		c-0.2-0.4-0.7-1.1-0.9-1.5c-1.1-2.5-2.2-5-3.8-7.2c-3.6-5-0.9-11.7-3.7-17c-1.7-2.7-1.1-6-1.9-8.9c-1.2-4.1-0.8-8.5-0.6-12.7
		c1.8-5,2.9-10.4,5.7-15c0.2-3.8,0.2-7.6-0.1-11.3c-0.5-1-0.9-2.1-1.3-3.1c-0.5-1.4-1.2-2.7-2.1-3.8c-1.3-2.1-3.3-3.8-4-6.2
		c-1-0.6-2-1.1-3-1.6c-0.9-0.9-1.8-1.7-3-2.1c-2.2-1.9-4.4-4.2-4.5-7.2C364.9,293.3,365.6,292.2,365.9,291.6z"/>
	<path fill="#020202" d="M428.7,294.4c0.9,0,2.7,0,3.6,0c0.3,0.6,0.9,2,1.2,2.6c-0.3,0.6-0.9,1.9-1.2,2.6c-0.9,0-2.7,0-3.6,0
		c-0.3-0.7-0.9-2-1.2-2.6C427.8,296.4,428.4,295.1,428.7,294.4z"/>
	<path fill="#020202" d="M282.3,308.6c2.2-0.9,4.4-1.5,6.7-2c0.5,0.3,1.5,0.9,2,1.2c0.8,0.8,1.6,1.6,2.4,2.4
		c0.1,1.4,0.1,2.8,0.1,4.2c-1.2,0.3-2.3,0.6-3.5,0.9c-2.5-0.4-5-0.4-7.5-0.7C282.3,312.5,282.2,310.5,282.3,308.6z"/>
	<path fill="#020202" d="M217,312.3c2.6-0.9,5.2-1.5,7.7-2.5c0.9,0.4,1.7,0.8,2.5,1.2c0.7,1.5-0.2,2.9-1,4.2
		c-5.3,1.8-10.7,3.3-16.1,4.9c-2.6,0.4-5.3,0.7-7.9,0.9c0.1,0.5,0.4,1.4,0.5,1.9c-0.3-0.4-0.9-1.3-1.3-1.7
		c-6.7-0.4-13.2,1.7-19.4,3.9c-1.8,0-3.5,0.1-5.3,0.1c-0.5-0.3-1.6-1-2.2-1.3c0-0.8,0-2.3-0.1-3.1c0.5-0.3,1.6-0.9,2.2-1.2
		c5.7,0.3,10.9-2.4,16.2-3.9c7.2-1.6,14.9,0,21.8-3.1C215.4,312.7,216.4,312.4,217,312.3z"/>
	<path fill="#020202" d="M408.5,319.3c1.8-0.7,3.6-1.5,5.6-1.6c14.6-0.2,29.3,0.3,43.9,0.2c2.2,0.1,4.9,0.1,6.4,1.9
		c0.1,1.4-0.2,2.6-1,3.8c-8.5,1.2-17,0.3-25.5,1c2.1,0.5,4.2,0.9,6.4,1.3c1.1,1.5,0.9,3.2,0.3,4.8c-1.5,0.3-3,0.6-4.6,0.8
		c-2-1.4-4.6-1.1-7-1.3c-2.6,0.1-5.5-0.5-7.8,1.2c-1.6,1.1-3.5,1.7-5.4,1.3c-2.3,0.4-2.3-2.5-2.5-4c2-1.8,5.1-1.8,6.5-4.3
		c-5-0.4-10.2,0.3-15-1.3C408.7,321.9,408.6,320.6,408.5,319.3z"/>
	<path fill="#020202" d="M233.7,320.3c1.3-0.1,2.7,0,4,0l-0.3,1.1l1.1,0l-0.1,0.9c1.2,0.4,2.4,0.9,3.6,1.4c0.9,0.5,1.8,1.1,2.7,1.6
		c0.5,0.1,1.6,0.3,2.1,0.4c1,0.5,2.1,0.9,3.2,1.2c2.1,0.4,4.3,0.8,5.7,2.5c3.5,0.3,7,0.9,10.3,2c6.1,0.1,12,1.6,17.9,3.1
		c4.7,0.1,9.7,0.8,14.2-1.1c2.9-1.3,6.1-0.4,9.1,0.1c0.4,0.6,1.1,1.9,1.5,2.5c-0.4,0.6-1.1,1.8-1.5,2.4c-3.7,0.8-7.5,0.6-11.2,1.5
		c-2.7,0.8-5.6,0.4-8.4,0.4c-0.5,1-1,2-1.4,3c-5.7,0.6-11.5,0.6-17-1.4c-1.1-0.2-2.2-0.6-3.1-1.1c-1.3-0.3-2.6-0.5-3.9-0.8
		c-1.1-0.6-2.1-1.2-3.1-1.8c-3.2-3.8-8.3-5-12.7-6.6c-1.4-0.5-2.8-1-4.3-1.5c-2.4-1.8-6.3-1.8-7.8-4.6l-0.5,0
		c-0.4-0.8-0.7-1.6-1.1-2.5C233,322.1,233.3,321.2,233.7,320.3z"/>
	<path fill="#020202" d="M193.4,326.8c1-1.7,2.6-2.8,4.6-2.8c1.6-0.6,3.3-0.8,5-0.8c0.4,0.8,1.1,2.3,1.5,3.1c-1.3,1.5-2.7,3-4.4,4
		c-1.1,0.3-2.2,0.7-3.3,1.2c-0.6-0.3-1.8-0.8-2.4-1C194.1,329.2,193.8,328,193.4,326.8z"/>
	<path fill="#020202" d="M434.7,335.3c5.2,0.6,10.5,0.1,15.6,1.6c0,1.4,0,2.8,0,4.2c-4.6,1.3-9.7,1.7-14.1-0.5l-1,0.2l0.6-1.4
		l-1.3,0.1c-0.2-0.5-0.5-1.5-0.7-2C434.1,337,434.5,335.9,434.7,335.3z"/>
	<path fill="#020202" d="M264.7,344.7c4-2.7,7.2,2.3,11.3,1.8c3.8,0.7,7.3-3,10.9-1.3c2.4,0.2,2.3,3.5,1.1,4.9
		c-2.3,0.8-4.8,1.2-7.1,2.1c-2.7,0.1-5.4,0.2-8.1,0c-3.1-0.5-5.8-2.3-8.3-4C264.6,347.3,264.6,345.6,264.7,344.7z"/>
	<path fill="#020202" d="M348,346.7c3.4-0.3,7.1,0.7,10.2-1.1c3.6,1,2.5,5.2,0,6.7c-3.4,0.6-6.9,0.4-10.3,0.1
		c-0.6-0.4-1.7-1.2-2.3-1.6c0-0.7,0.1-2.2,0.1-2.9C346.3,347.6,347.4,347,348,346.7z"/>
	<path fill="#020202" d="M347.8,352.7c7.2,0.5,14.8,2.5,21.8,0.2c0.4,0.2,1.2,0.7,1.6,0.9c0.3,0.4,1,1.2,1.3,1.5
		c-0.8,2.3-2.9,4.3-5.5,4.5c-6.7,1.1-13.7,0.4-19.9-2.4C347.1,355.8,347.5,354.2,347.8,352.7z"/>
	<path fill="#020202" d="M285.9,360.7c4-1,8.3-0.4,12.1-2c0.7,0.2,2,0.7,2.7,0.9c0,1.2,0,2.5-0.1,3.7c-1.5,0.6-2.9,1.3-4.4,2
		c-2.1,0.3-4.1,0.8-6.3,0.8c-3.9-0.1-7.3,2-11.1,2.5c-3.4,1.6-6.8,3.3-9.7,5.6c-2.5,0.4-4.6,1.9-6.5,3.5c-2.5,1.1-3.9,3.4-5.6,5.4
		c-1.6,2-3.9,3.4-5.9,5c-2.5,1.8-4.8,4-6.1,6.9c-1.7,1.5-2.6,3.7-3.5,5.8c-1,1.6-2.1,3.1-3.1,4.7c-1.4,2.6-1.4,5.7-2.4,8.5
		c-1.2,0.9-3,0.6-4.3,0.1c-0.9-2.3-0.5-4.9-0.3-7.3c0.6-0.9,1.3-1.8,1.9-2.6c0-0.4,0-1.1,0-1.5l0.8-0.1c0.7-1.7,1.9-3.1,2.7-4.7
		c0.5-1.4,0.7-3,1.9-4.1c2.1-2,3.1-4.8,5.1-6.9c4.1-2.8,7.8-6.3,10.8-10.2c3.3-2,6-4.7,9.2-6.9c2.8-1.1,5.4-2.5,8-3.9
		c0.5-0.3,1.4-0.9,1.9-1.2c1.7-0.6,3.3-1.3,5-1.9c1.3-0.3,2.7-0.6,4-0.9C283.9,361.6,284.9,361.1,285.9,360.7z"/>
	<path fill="#020202" d="M149.7,365.6c1-2.4,3.4-2.1,5.6-1.9c1.1,4.1-2.4,7.2-4,10.7c-2.3,4.6-5,9-7.8,13.3l0,0.5
		c-0.7,0.7-1.3,1.4-1.9,2.2c-0.6,0-1.9-0.1-2.5-0.1c-0.5-0.5-1-0.9-1.5-1.3c0.1-4,3.5-6.9,5.2-10.4c1.2-2.2,2.3-4.4,3.8-6.4
		c0-0.3,0.1-0.9,0.1-1.1C147.9,369.4,148.9,367.5,149.7,365.6z"/>
	<path fill="#020202" d="M411,364.7c0.7,0,2.2,0.1,3,0.1c4.1,1,7.9,2.7,11.4,5l0.1,0.6c1.5,0.4,3,1,4.5,1.5c3.9,3.2,8,6.4,11.7,9.8
		c0.5-2.6-1.9-3.9-3.4-5.5c-2.2-2.3-6.2-1.8-7.8-4.8c0.3-0.7,1-2,1.3-2.6c0.5-0.3,1.6-0.8,2.2-1.1c2.3,0.9,4.7,1.4,7,2.5
		c2.1,1.6,3.3,4,4.8,6.2c1.7,2.8,4.4,5.3,3.9,8.9c-0.4,0.5-1.1,1.4-1.4,1.9c1,3.2,2.6,6.2,3.4,9.5l1,0.2c0,0.4-0.1,1.3-0.2,1.8
		l0.8,0.1c0.6,1.8,1.3,3.5,2,5.2c0.6,1.7,1.4,3.4,2.2,5c0.2,2-0.1,3.9-0.9,5.7c-1.4-0.1-3.6,0.7-4.2-1.1l-0.7,0l-0.1-0.7
		c-1.8-1-0.9-3.3-1.2-4.9c-0.2-2.5-1.3-4.8-2.2-7c-2.3-2.9-2.9-6.5-4.4-9.8l0-0.8l-0.9,0.2c-1.3-2.2-3.1-4.1-5.2-5.4l-0.1-0.7
		c-0.4,0-1.1,0-1.5,0c-4.4-3.5-8.4-7.5-13.7-9.6c-2.2-1.7-4.5-3.2-7.2-3.9c-1.4-0.3-2.7-0.5-4.1-0.7c-0.6-0.2-1.7-0.7-2.3-0.9
		c0-0.9,0-2.6,0-3.4C409.3,365.6,410.4,365,411,364.7z"/>
	<path fill="#020202" d="M260.2,380.5c3.6,0.2,4.1-5.4,7.7-5.4c1.8-0.5,3.4,0.4,4.7,1.6c0.4,3-2.5,3.7-4.5,5c-2,1.6-3.8,3.6-5.5,5.6
		c-0.9,2.8-2.7,5.9-6.1,5.3C254.1,388.5,257.4,383.6,260.2,380.5z"/>
	<path fill="#020202" d="M362.4,381.2c-0.7-2.1,0.2-4.1,2.4-4.8c1.7,0.2,3.4,0.6,5,1.1c0.1,1.3,0,2.5-0.1,3.8
		c-1.6,0.5-3.2,0.9-4.9,1C364.2,382.1,363,381.5,362.4,381.2z"/>
	<path fill="#020202" d="M414.7,383.6c2.9-1.5,5.1,0.8,6.9,2.8c1.8,1.9,3.5,3.9,5.5,5.5c1.5,1.5,2.9,3.2,4,5
		c-0.3,0.8-0.6,1.7-0.9,2.6c-1.4-0.1-3.1,0.8-4.1-0.5c-2.4-2.4-5.2-4.5-6.9-7.5l-0.4,0.1c-0.6-0.8-1.2-1.7-1.8-2.5
		c-0.8-0.7-1.7-1.3-2.5-1.9C414.5,386.2,414.6,384.5,414.7,383.6z"/>
	<path fill="#020202" d="M153.8,390c0.7-0.5,1.5-0.9,2.2-1.3c0.8,0.4,1.7,0.8,2.5,1.2c0.1,1.8,0.2,3.5-0.2,5.3
		c-1.6,4.1-1.6,8.7-2.6,13c0.7,1.5,2,2.3,3.6,2.7c0.6,2-0.4,3.5-2,4.6c-2.7-0.4-5.2-1.7-6.7-4c-0.3-1.5-0.5-3-0.8-4.5
		C151.5,401.4,151.6,395.4,153.8,390z"/>
	<path fill="#020202" d="M402.7,414.6c1.9-0.4,3.7-0.4,5.6-0.1c1.5,1.3,3.1,2.5,4.5,3.8l0.4,0.3c2.3,2.5,5.3,4.3,6.7,7.5
		c3.3,6.4,8.8,11.3,12,17.8c1.2,3.4,2.1,6.9,4.3,9.9c0.6,0.8,1.1,1.7,1.7,2.6c1.3,2.4,2.4,5.2,1.6,8c-0.7,0.1-2,0.2-2.7,0.3
		c-0.4-1.4-0.8-2.7-1.2-4c0,0.7,0,2.1,0,2.8l-2,0.4c-0.7-2.4-1.5-4.7-2.3-7c-5.1-7.4-6.7-16.6-12.3-23.7
		c-4.5-5.5-9.9-10.6-16.2-14.1c-0.1-1-0.5-1.7-1.3-2.1C402.3,416.5,402.8,415.7,402.7,414.6z"/>
	<path fill="#020202" d="M211.6,417.6c1.1-0.1,2.3,0,3.5,0.3c0.8,1.9,0.8,4.2-0.3,6c-0.3,0.5-0.8,1.5-1,2c-0.7,0.9-1.4,1.9-2.1,2.8
		c-1.3,1.7-2.5,3.5-3.6,5.4c-0.2,0.5-0.7,1.7-0.9,2.2l-0.6,0.2c-0.1,2.5-2.3,4.8-5,4c-1.7-1.5-1.1-4-0.1-5.7c2-3.7,3.9-7.5,6.9-10.5
		C209.5,422.1,210,419.5,211.6,417.6z"/>
	<path fill="#020202" d="M290,421.7c1.4,0,2.8-0.1,4.2-0.1c0.9,1.5,1.3,3.1,1.3,4.8c-3.7-0.8-7.1,1-9.4,3.9
		c-2.2,1.4-4.3,2.9-6.1,4.8c-1.7,2.3-3.3,4.8-4.7,7.3c-1.7,2-3.5,3.8-5.3,5.8c-1,2.8-2.1,5.8-1.8,8.9c0.3,4.6,0,9.3,0.3,13.9
		c0.8,1.7,1.5,3.4,2.2,5.2c2,2.3,2,5.2,1.8,8.1c-2.3-0.1-4.6-0.1-6.9-0.2c-0.4-2.6-0.6-5.3-0.5-8c-0.4-1.3-0.8-2.7-1.4-3.9
		c-0.3-5.7-0.2-11.4-0.1-17.1c1-4.2,2-8.8,5.1-12.1c3.8-2.1,3.6-6.9,5.8-10.1c2.1-1.2,4.2-2.5,5.9-4.3
		C283.1,425.6,286.7,423.8,290,421.7z"/>
	<path fill="#020202" d="M327.8,443.7c10-0.2,20.1-0.5,30.1,0c8.7,1.4,17.5,2.3,26,4.6c4.1,1,8,3.2,12.3,3.4c1.2,0.5,2.3,1,3.5,1.6
		c1.7,1.3,3.2,2.8,4.5,4.5c0.5,1.1,1,2.2,1.5,3.3c1.2,1.9,2,3.9,2.7,6.1c1.1,3.3,3.3,6.4,3.1,10.1c-1.3,2-3.4,2.7-5.7,2.1
		c-2.8-5.7-4.1-12.1-8.1-17.2c-5.4-2.3-10.7-4.7-16.3-6.4c-3.7-2-8-0.4-11.7-2.3c-4-1.9-8.4-2-12.7-2c-6.2-1.6-12.7-0.6-19-0.9
		c-4.4-0.3-8.3,1.7-12.2,3.2c-2.3,1.8-4.8,3.1-7.1,4.9c-1.5,1.8-2.9,3.8-4.7,5.4c-2.3,1.1-4.7,2.2-6.3,4.4c-0.4,2.8-1.6,5.4-2.4,8.1
		c-1.4,0.6-2.9,0.9-4.3,1c-0.2,0.5-0.5,1.5-0.7,2c-0.9,0-2.7-0.1-3.5-0.1c-1.8-1.7-1.4-4.4-1.2-6.7c2.3-3.2,7-5.4,6.1-10.1
		c3-3.7,6.5-6.9,9.8-10.1c3.8-1.7,6.4-5.2,10.3-6.9c1.1-0.3,2.1-0.6,3.2-0.9C325.7,444.6,327.1,444,327.8,443.7z"/>
	<path fill="#020202" d="M331.6,468c-0.2-1.8,0.1-4.1,2.2-4.4c5.4-0.3,10.9-0.3,16.3,0.1c1.3,0.5,2.6,0.9,3.9,1.3
		c4.2,2,8.8,1.4,13.2,1.7c0.8,1.4,1.2,2.9,1.2,4.5c-3.7,2.4-8.5,1.1-12.6,1.2c-3.8-1.4-7.7-3-11.9-2.8c-3.4,0-6.8,0-10.2-0.1
		C333.3,469.1,332.2,468.4,331.6,468z"/>
</g>
</svg>
