<?xml version="1.0" encoding="utf-8"?>
<!-- Generator: Adobe Illustrator 18.0.0, SVG Export Plug-In . SVG Version: 6.00 Build 0)  -->
<!DOCTYPE svg PUBLIC "-//W3C//DTD SVG 1.1//EN" "http://www.w3.org/Graphics/SVG/1.1/DTD/svg11.dtd">
<svg version="1.1" id="Layer_1" xmlns="http://www.w3.org/2000/svg" xmlns:xlink="http://www.w3.org/1999/xlink" x="0px" y="0px"
	 viewBox="0 0 781 750" enable-background="new 0 0 781 750" xml:space="preserve">
<g id="_x23_ff0000ff">
	<path fill="#FF0000" d="M44.3,17.3c3.9-4.6,9.8-7.1,15.6-7.8C66.3,8.8,73.1,9.2,79,12c6.5,3.1,11.2,9.7,11.8,16.9
		c0.8,8.7,0.4,17.4,0.5,26.1c-0.1,8.4,0.3,16.8-0.5,25.1C90.2,86.5,86.6,92.7,81,96c-6,3.7-13.2,4.4-20.1,3.8
		c-7-0.6-14.1-3.7-18-9.7c-3-4.1-3.7-9.3-3.9-14.3V33.2C39.2,27.5,40.4,21.6,44.3,17.3 M63.4,24.5c-2.2,1.7-1.5,5-1.8,7.4
		c-0.1,15.7-0.2,31.3,0.1,47c0.1,2.3,0,6.3,3.4,6.1c2.8,0.2,3.3-3,3.4-5.1c0.5-14,0.1-28,0.3-41.9c-0.2-4,0.2-8.1-0.7-12
		C67.5,24,64.9,23.6,63.4,24.5z"/>
	<path fill="#FF0000" d="M198.6,9.7c7.2-1,14.9-0.6,21.4,2.8c4.6,2.5,8.8,6.3,10.3,11.4c1.8,6.2,1.7,12.8,1.6,19.2
		c-7.5,0-15.1,0.3-22.6-0.2c-0.1-5.4,0.2-10.8-0.5-16.1c0.1-3.1-5.1-3.8-6-1c-0.7,2.3-0.5,4.8-0.6,7.1c-0.2,13,0,26-0.1,39
		c0.1,3.5-0.1,7.1,0.6,10.6c0.3,2.9,4.6,3.4,6,1.1c1.3-2.3,1-5.1,1.2-7.6c0-3.8,0.3-7.7-0.1-11.4c-1.4,0-2.8,0-4.3,0
		c-0.1-4.3-0.1-8.6-0.1-13c8.8-0.6,17.6-0.1,26.4-0.3c0.2,15.5,0.1,31.1,0.1,46.6c-4.8,0-9.7,0.4-14.5-0.2c-0.8-1.7-1-3.6-1.6-5.3
		c-1.2,0.5-1.8,1.8-2.6,2.7c-2.7,3.2-7,4.8-11.1,4.8c-8.2,0.3-16.6-4.3-20.1-11.9c-2.3-4.6-2.4-10-2.5-15c0-12.3-0.1-24.7,0-37
		c0.3-4.9,0.3-10,2.2-14.5C184.9,15.1,191.6,10.8,198.6,9.7z"/>
	<path fill="#FF0000" d="M259.6,9.7c6.8-1,14.1-0.6,20.4,2.4c6.5,3.1,11.2,9.7,11.8,16.9c0.8,8.7,0.4,17.4,0.5,26.1
		c-0.1,8.4,0.3,16.7-0.5,25.1c-0.4,5-2.7,9.8-6.4,13.3c-3.9,3.6-9.1,5.6-14.3,6.3c-6.1,0.6-12.4,0.3-18.1-2.2
		c-7-2.9-12-9.8-12.6-17.4c-0.8-9.7-0.4-19.4-0.5-29.1c0.1-8.1-0.4-16.3,0.9-24.4C242.4,17.5,250.7,10.9,259.6,9.7 M264.4,24.5
		c-2,1.5-1.5,4.3-1.8,6.5c-0.2,13.3,0,26.7-0.1,40c0.2,4-0.1,8.1,0.6,12c0.5,2.7,5.3,2.7,5.8,0c0.7-2.9,0.5-6,0.7-9
		c0.2-12.4,0-24.7,0.1-37.1c-0.1-3.7,0.2-7.4-0.6-11C268.5,24,265.9,23.6,264.4,24.5z"/>
	<path fill="#FF0000" d="M99.6,11c7.5,0,15-0.1,22.5,0c0.2,10.3-0.1,20.7,0.1,31c2.2,0.2,4.4,0.2,6.7,0c0.2-10.3-0.1-20.7,0.1-31
		c7.5-0.1,15-0.1,22.5,0c0.1,29,0.1,58,0,86.9c-7.5,0-15,0.1-22.5,0c-0.1-12.1,0-24.2,0-36.2c-2.2-0.4-4.5-0.4-6.8,0
		c0,12.1,0.1,24.2-0.1,36.3c-7.5,0.1-15,0.1-22.5,0C99.4,69,99.4,40,99.6,11z"/>
	<path fill="#FF0000" d="M300.6,11c8.5,0,17-0.1,25.5,0c6.3,0.3,12.9,0.2,18.6,3.3c4.9,2.6,7.7,8.1,7.9,13.6
		c0.7,10.7,0.2,21.4,0.3,32.1c-0.2,8.4,0.4,16.8-0.5,25.1c-0.4,3.6-1.9,7.2-4.8,9.3c-4.5,3.3-10.2,3.4-15.5,3.6c-10.5,0-21,0-31.4,0
		C300.4,69,300.5,40,300.6,11 M323.1,26c0,19,0,38,0,56.9c2.2,0,5.3,0,6.2-2.5c1.1-4.1,0.7-8.3,0.9-12.5
		c-0.1-12.7,0.3-25.4-0.3-38.1C329.9,26.4,325.9,25.6,323.1,26z"/>
	<path fill="#FF0000" d="M544.9,582c7.3-0.1,14.7-0.1,22,0c1.6,19.6,3.1,39.1,4.6,58.7c1.3-19.5,3.7-39,6.2-58.3
		c1.3-0.7,2.9-0.3,4.3-0.4c6.4,0.2,12.8-0.2,19.1,0.2l0.3,0.3c1.8,20.1,3.2,40.2,5,60.3c0.8-1,0-3.2,0.3-4.6
		c1.2-18.6,3.2-37.2,5.8-55.6l0.4-0.3c7.2-0.2,14.5,0,21.7,0c0,2.4-0.4,4.7-0.7,7.1c-3.1,26.6-6.2,53.1-9.2,79.7
		c-9.4,0.4-18.9,0.2-28.4,0.1c-2.7-14.5-4.9-29.1-6.6-43.7l-0.3,0.1c-2.1,14.4-4,28.9-6.1,43.3c-1.1,0.8-2.9,0.3-4.2,0.5
		c-8-0.1-16,0.1-24-0.1C551.5,640,548.2,611,544.9,582z"/>
	<path fill="#FF0000" d="M639,582c7.5,0.1,15.1-0.4,22.6,0.2c0,10.3-0.1,20.5,0,30.8c2.2,0.1,4.4,0.1,6.6,0
		c0.2-10.3,0.1-20.5,0.1-30.8c7.5-0.6,15.1-0.2,22.6-0.3c0.1,29,0.1,58,0,86.9c-7.5-0.1-15.2,0.4-22.6-0.2c0-12,0.1-24.1,0-36.1
		c-2.2-0.2-4.4-0.2-6.6,0c-0.1,12,0,24.1,0,36.1c-7.5,0.6-15.1,0.2-22.6,0.2C639,640,639,611,639,582z"/>
	<path fill="#FF0000" d="M695.6,582c6.5,0,13.1-0.1,19.6,0c1.7-0.2,1.2,1.8,1.6,2.8c1.6,10,3.9,19.9,4.7,30.1c1.1-3.2,1.3-6.6,2-9.9
		c1.4-7.7,2.8-15.3,4.6-22.9c6.9,0,13.9-0.3,20.8,0.1c-5.4,17.9-10.7,35.9-16,53.8c-0.3,1-0.5,2-0.5,3c-0.1,10,0.1,20-0.1,30
		c-7,0-14,0.2-21-0.1c0-9.6,0-19.3,0-28.9c0-1.3-0.1-2.6-0.5-3.9c-5.1-17.8-10.2-35.5-15.2-53.3V582z"/>
</g>
<g id="_x23_010101ff">
	<path fill="#010101" d="M286.9,134.6c15.9-6.3,32.9-10.8,50.1-9.9c12.1,0.9,24,2.6,36,4.4c9.9,1.2,19.8,1.8,29.6,3.7
		c15.4,2.6,30.6,6.7,44.4,14.1c21,11.1,43.8,19.6,62.1,35.2c12.8,11.5,24.6,24,36.5,36.4c13,14.5,23.4,31.1,32.1,48.4
		c12.5,28.8,21.1,59,30.3,89c2.5,9.4,4.5,18.9,4.9,28.6c-0.2,5.6-0.3,11.2,0,16.7c-0.2,6.5-1.8,12.9-4.3,18.9
		c-4.6,10.6-11.5,19.9-18.1,29.4c-9,13-19.5,25-30.2,36.6c-4.4,4.9-8.9,9.8-14,14c-9.1,7.7-19.2,14.1-28.2,21.8
		c-0.8,0.7-1.8,1.5-1.9,2.6c-1.8,9-1.6,18.3-1.4,27.4c0.4,26.9,0,53.9,0.1,80.8c-0.7,8.5,0.7,16.8,0.8,25.3
		c2.7,22.7,3.1,45.6,7.2,68.1c1.4,7.9,2.5,15.9,4.4,23.8h-8.1c-1.5-9.3-2.7-18.7-3.9-28c-1.4-19.1-3.8-38-5-57.1
		c-1.2-7.3-0.1-14.8-1.7-22.1c0-9.6,0-19.2,0-28.8c-0.1-15.6,0.6-31.3,0.1-46.9c-0.2-6.5,0-13-0.3-19.5c-1.6-0.9-2.8,1.2-4.1,1.8
		c-13.1,9.3-25.1,20.3-40,26.8c-7.5,4-15.8,6.9-21.7,13.2c-3.4,3.4-5.2,8-5.6,12.8c-1.5,14,1.1,27.9,2.3,41.8
		c0.1,5.2,0.3,10.4,0.7,15.6c-0.3,5.8-0.4,11.7,0.4,17.5c0.5,4-0.1,8,0.4,12c0.3,2.7,0.9,5.3,0.7,8c-0.2,4.1,0.8,8.2,1.1,12.3
		c0.8,6.6,1.1,13.2,2,19.8c0.4,7,1.8,14,2.2,21H205.1c0.7-5.3,0.1-10.7,0.9-16c0.6-3.5,0.4-6.9,0.3-10.4c0.4-5.8,0.9-11.6,1.4-17.4
		c0.3-1.7,0.8-3.4,0.8-5.2c0.6-7.4,1.9-14.8,2.3-22.2c1.9-13.8,5-27.4,8.4-41c4.6-17.1,11.8-33.4,16.6-50.4
		c5.7-18.5,15.4-35.4,22.5-53.4c0.3-1,1.2-2.6-0.2-3.2c-10.4-6.8-22.2-11-33-17.1c-21.4-11.4-41.8-26.5-54.4-47.6
		c-9.4-17.3-18.1-35.2-23-54.4c-2.3-10.4-3.8-21-4.4-31.6c0.7-4.4,0.2-8.8,0.2-13.3c-0.1-3.8,0.4-7.6-0.3-11.4
		c0.2-17.4,2.9-34.7,6.6-51.7c1.7-6.3,2.2-12.8,3.7-19.1c4-20.1,10.2-39.9,17.3-59.1c5.2-13.3,9.8-27,17.5-39.2
		c3.2-5.3,7.4-10.1,12.3-13.9c4.3-3.4,9.6-5.4,14.6-7.6c15.3-6.6,30.9-12.3,46.1-18.9C269.9,142.4,278.2,138,286.9,134.6
		 M347.9,133.8c1.7,3.5,6.3,4.3,8.7,7.3c1.1,1.9-1.2,3.6-0.4,5.5c3.7,8.6,5.6,18,9.8,26.4c1.5,3.1,1.3,6.7,1.6,10
		c0.8,5.3,0.9,10.7,0,16c-0.3,5.3-1.1,10.7-2.9,15.7c-6,4.1-9.3,10.9-13.3,16.8c1.2,0.1,2.4,0.2,3.6,0.3c0.4,3.2-0.4,6.6,0.4,9.7
		c3.3,4,7.1,7.6,10.8,11.2c2-9.7,5-19.2,7.8-28.7c0.7-1.8,0.5-4.8,3-5.1c4.9-0.3,9.5-2,13.9-3.8c-2.6,9.8-3,20-3.4,30.1
		c-0.1,2-0.8,4.1-0.3,6.1c2.3,0.2,4.6-0.2,6.9,0.2c0.2,2.4-0.1,4.7,0.2,7.1c4.6-0.5,8.8-2.6,13.2-3.9l0.2-0.6l0.6-0.4
		c0-2.5-1.2-5-0.9-7.5c-0.2-3,0.7-6.7-1.6-9.1c-2.8-5.5-4.4-11.5-5.4-17.5c1.6-0.3,3.6,0.3,4.9-0.9c3.2-2.3,3.7-6.4,5.4-9.6
		c3.3-0.4,6.6,0.4,9.9,0.5c-0.3,3.2-3.4,5.4-3.6,8.6c0.5,1,2.1,0.9,2.5,2c1.6,6.6,3,13.3,3.6,20.1c1,3.2-0.1,6.7,0.9,9.8
		c5.7,2.5,11.8,4.1,17.9,4.9l0.4,0.7c3.9,0.1,7.7,1,11.6,0.9c8.4,0.6,16.7-0.1,25.1-0.2c6.3-1.1,12.8-0.2,19.1-1.5
		c0,0.6,0,1.6,0,2.2c-2.4,3-3.9,6.6-6.1,9.8c-1.6,0.7-3.4,0.5-5.1,0.5c-14.7-0.1-29.3,1.6-43.7,4.4c-0.2,1.9-0.2,3.7-0.1,5.6
		c8.3,0.4,16.6-0.4,24.9,0.7c4.5,0.1,8.9,0.6,13.3,1.1c5.7,1.3,10,5.6,14.2,9.5c1.3,1.2,3,2.4,2.8,4.5c0,3,0.4,6,0.2,9
		c-0.2,1.6-2.3,1.2-2.9,2.4c-1.7,2.6-2,5.8-3.6,8.4c-1.6,0.5-3.3,0.3-5,0.3c-13.5,0-26.9,0-40.4,0c-1.3,1.6,0.6,2.7,1.9,3.1
		c5.9,2.1,12.2,3.5,18.5,3.5c1.6,0.1,3.4,0,4.9,0.8c1.1,1.1,2.1,2.4,3.2,3.4c2.7,0.4,3.2-3.9,5.9-3.7c7.6-0.1,14.7-3.6,20.8-7.9
		c-0.7,4.6-2,9-2.9,13.6c-1.9,0.7-4-0.1-5.9,0.2c-4.3,0.4-9.7,1.7-11,6.5c-2.7,0.1-5.5,0-8.1-0.3c-5.2-1-10.6-0.6-15.6-2.4
		c-5-1.6-10.1-3.3-15.3-4c-8.5-0.8-10.5-12.2-19-13.2c-0.2-11.7,0.2-23.3,0.4-34.9c2.3-2.3,4.3-4.7,6.2-7.3c0-0.2,0.1-0.6,0.1-0.8
		c-7.6,1.6-15.4,2.1-23,3.8c-1.4,2.4-3.7,4.6-4.4,7.4c6.2,6.9,4.3,17.1,8.4,25c1.4,2.1,3.1,4.1,4.4,6.4c3.7,5.5,9.5,9,14.4,13.2
		c1.7,1.4,3.3,3.1,5.5,3.6c2.8,0.6,5.8,0,8.6,0.4c3.2,0.9,2.9,5.6,6.2,6.2c2.7,1,5.8-0.4,8.3,0.7c5,9,9.5,18.4,14.3,27.6
		c0.9,1.6,1.4,3.3,1.7,5.1c1.3,8.7,4.5,16.8,7.4,25c0.6,1.1,3,0.1,2.8,2c0.1,4.7,0.4,10.1,4,13.6c0.7,1.1,2.8,0.8,2.9,2.3
		c0,3-0.3,6-0.7,9c-0.6,7.4-0.7,15.1-3.5,22.1c-2.6,1.3-5,3.3-7.9,3.8c-4.5-7-4.5-15.7-4.4-23.8c-0.2-4.7,0.7-9.7-1.6-14
		c-4.3-9.6-7.4-19.6-8.8-30c-0.3-1.3-3-0.1-2.6-2c-2.4-9.7-3.9-20.8-12.1-27.5l-1.1-0.1c-0.2,4.9-0.2,9.8-0.4,14.7
		c-2,2.7-4.6,5.1-7.2,7.2c-7.3,0.4-14.7,0.2-21.8,0.7c-0.1,6.7,0.2,13.5,0.2,20.2c-2,0.6-4.1,1-6.2,1.4c-5.5-0.2-11.1-0.1-16.6-0.1
		c-2.3-0.8-4.8-0.8-7.1-1.5c-0.3-2.3,0.9-4.5,1-6.8c0.5-2.8,0.3-6.1,2.7-8.1c1.4-1.8,4.2-3.2,3.5-5.8c-1.4-0.9-3.1-1.4-4.7-1
		c-1.1,2.5-1.1,5.7-2.9,7.9c-6.2,0.2-12.4-0.1-18.6,0.2c-0.2,7.4-1.6,14.8-4.2,21.7c9.8,1.6,19.7,3.7,29.7,3.6l0.4,0.7
		c4.2-0.2,8.8,1,12.9-0.7c9.2-2.1,18.4-4.2,27.8-5.1c2.6-0.1,5.3-1.4,7.8-0.4c4.7,3.2,7.1,8.6,8.5,13.9c1.7,4.1,0.8,9.5,4.2,12.7
		c-1.7,3.5-1.2,7.9-3.8,11.1c-1.3,1.6-3.4,1-5.1,1.4c-0.1,2.6,0.3,5.4-1,7.7c-1.2,2.9-3.5,5.2-5.7,7.4c-7.6,0.6-15.3,0.5-22.9,0.8
		c-0.3,1.5-0.3,3.7,1.7,4c3.7,0.8,7.5-1.4,11.3-0.4c0.1,2.3-0.1,4.5-0.5,6.8c-1.9-0.4-3.7-0.5-5.6-0.6c-4.6-1.2-9.3-1.6-14-2.2
		c-9.4-0.5-19.2-1.2-28.2,2.2c-1.7,4.1-2.7,8.5-4.5,12.6c-3.3,2.7-6.1,6.3-7.2,10.5c-2.2,6.5-0.2,14.4,5.3,18.8
		c5.5,4.7,11,9.5,16.7,14c1.8,1.4,3.7,3,6,3.4c6.1,1.6,11.8,4.4,17.9,6c6.7,1.3,13.5-0.1,20-1.7c1.4-0.3,3-0.3,4.2-1.2
		c1.3-1.6,2.1-3.5,3-5.3c3.3-0.8,7.3,0.3,9.9-2.5c6.2-4.4,8.4-12.1,12-18.4c0.5-1.3,1.9-2.4,1.5-3.8c-2.8-4.9-6-9.8-6.9-15.4
		c2.9,0,5.7,0,8.6,0c2,3.1,4.4,6.4,4.4,10.3c0.5,10.8-0.2,21.8-2.6,32.4c-0.3,1.1-0.5,2.7-2,2.7c-5,1.6-10.7,2.6-14.1,7
		c-0.9,0.9-1.4,2.6-2.9,2.7c-5.4,0.4-12,1.1-14.6,6.6c-8.5,0.3-16.9-0.9-25.4-0.4c-1.1,0.3-2.4-0.5-3.3,0.3
		c-4.2,0.2-8.5-0.1-12.7,0.7c-3.8,0.6-7.8,0.6-11.5,2c2.7,3.6,5.4,7.4,8.4,10.8c0.2,0.2,0.5,0.6,0.6,0.8c4.9,0.5,9.7-1,14.6-0.8
		c5.9-0.8,11.7-2,17.4-3.3l0.4-0.5c9.1-1.8,18-4.6,27.1-6.2c1.3-0.4,1.7-2.1,3-2.6c9.7-4.7,19.4-9.2,29.1-14
		c1.8-0.8,2.7-2.7,4.3-3.8c3.7-2.7,8-4.1,12.2-5.8c1.8-1,2.9-3.1,4.7-4.2c4.5-2.9,9.8-3.9,14.8-5.7c1.7-1,3-2.6,4.5-4
		c3.5-3.5,7.4-6.6,11.3-9.7c2.7-1.9,5.4-3.8,7.3-6.4c8.8-9.9,17.4-20,26.6-29.6c1.3-1.3,2.7-2.6,3.8-4.1c6.4-9.3,11.3-19.8,19.1-28
		c1.2-1.4,2.8-2.5,3.8-4c0.4-2.7,0.8-5.3,1.3-7.9c0.8-2.9,2.3-6,5.4-6.8l0.4-0.3c0-8.9,0-17.8-0.2-26.6c-0.2-2.4-0.1-5-1.5-7.1
		c-4-13.4-8.5-26.7-11.8-40.4c-0.2-1.9-2.8,0-3.1-1.4c-0.8-5.3,0.2-10.7-0.5-15.9c-1.2-1.1-2.7-2-3.6-3.4
		c-4.7-6.6-3.9-15.3-7.3-22.4c-3.7-4.4-5.2-10.2-5.3-15.9c-5.3-3.1-4.5-10.3-8.6-14.4c-5.8-5.7-10.6-12.6-12.5-20.6
		c-5.7-6.2-11.4-12.5-17.4-18.5c-12.6-13.7-25.6-27.1-40.1-38.9c-2.2-1.3-1.4-4.7-3.9-5.7c-2.9-0.6-6.1-0.3-8.9-1.5
		c-1.8-1.1-1.8-3.5-3.1-5.1c-2.9-1.2-6.1,0.3-9.1-0.4c-0.8-0.9-1.1-2.3-2.3-2.8c-13.1-5.7-25.5-13-38.6-18.7
		c-2.2-1.1-5.4-1.4-5.8-4.4c-9.5,0.2-19-1.8-27.9-5.2c-3.1-1.1-6.4-0.7-9.5-1.2c-10-0.7-20-2.4-30-2.9
		C353.3,133.9,350.6,133.5,347.9,133.8 M374,266.7l-0.1,0.8c-1,5.2-3,10.3-3.1,15.5c2.6,1.8,5.5,3,8,4.9
		c-2.2,10.2-1.3,21.8-8.1,30.4c-0.4,0.2-1.3,0.5-1.8,0.7l-0.2,0.7c1,4,1.8,8.1,3,12c3.8-0.1,7.5-1.8,11.3-2.3
		c1.6-0.2,3.1-0.6,4.5-1.1c1.4,4.5,2.8,9.1,3.9,13.7c-4.5-0.9-8.8-2.5-13.2-3.7c-0.8,6.1,0,12.4-0.3,18.6c-0.4,1.4,0.9,2.4,2.2,2.3
		c3,0.1,6.4-0.3,8.7-2.5c1.5-1.2,2.1-3,3.1-4.5c2.9-0.1,5.8,0.4,8.8,0.2c0.1-4.8,0.9-9.5,1.1-14.2c4.5,3,8.8,6.6,14.3,7.6
		c1.3,0.1,2.6,0.3,3.8,0.7c1.2,2.5,4.1,2.8,6.3,4c6.1,2.7,11.6,6.5,17.6,9.2c-0.8-7.9-1.3-15.9-2.6-23.8c-6.5-1.6-13.2-2.6-19.9-3.6
		c-2.1-2.6-3.1-6-5-8.8c-1.1-1-2.9-0.9-4-2c-2.9-2.3-4.1-5.9-6.3-8.7c-1.8-1.9-1.6-4.7-2.5-7c-1.3-4.6-2.7-9.1-4.3-13.6
		c0.5-3.9-1.2-7.5-0.8-11.4c-0.3-4.5-1-9.1-0.9-13.6C389.8,267.1,381.9,266.4,374,266.7 M325.6,280.8c-3.4,4.4-9,6.2-13,9.8
		c-1.6,6.2,2.6,12.1,7.2,15.8c6.3,0.4,12.7,0.1,19.1,0.2c-1.7-5.4-5.7-10-6.7-15.6c4.7-1.5,4.8-7,6.7-10.8c-4.3,0.1-8.7,0.1-13,0.2
		L325.6,280.8 M359.5,282.4c0.6,4.9,1.8,9.6,1.4,14.6c0.5,3.9-1.4,7.3-3.3,10.5c5.3-3,10.3-6.4,15.4-9.6c0-1.3-1.2-2-2-2.9
		C367,291,364.3,285.6,359.5,282.4 M458.9,282.9c-6.3,1.6-13,2.1-19.4,3.6c-1.7,3.9-1.9,8.3-3.9,12.2c2.8,2.6,5.7,5,8.5,7.6
		c3.7,0.6,7.4,0.2,11.1,0.9c0.2-5.2-2.1-10.4-2.3-15.6c2-2.6,4.4-4.8,6.4-7.4C460,283.9,459.8,282,458.9,282.9 M479.8,286.7
		c-1,3.4,0.9,6.8,0.7,10.3c-0.3,3.7,0.6,7.3,0.7,10.9c-0.9,1.6,2.2,1,1.5-0.1c2.3-4.1,5-8.1,7.6-12l0-0.8c-2.7-2.7-5.8-4.8-8.5-7.4
		C481.3,287,480.7,285.9,479.8,286.7 M400.3,377.4c0,4.1,0.9,8.3,1.4,12.4c0.3,0,0.9,0,1.2,0c3.7-2.1,7.2-4.6,10.5-7.3
		c1-0.9,2.3-1.7,2.6-3.1C410.7,378.9,405.5,378,400.3,377.4 M437.4,403.3c-0.9,1.1-0.3,3.5-2.3,3.5c-18.7,4.1-38,4.9-57,3.2
		c-3-0.8-5.9-3.1-9.2-2.4c-2.4,1.3-5.3,2.3-6.7,4.9c-1.1,2.2-1.6,4.7-1.5,7.1c7.4-0.9,14.8-1.5,22.2-2c21.5-0.4,42.9,0.3,64.4-0.3
		l0.3-1.1c-3.1-4.2-6.1-8.5-9.2-12.7C438.3,403.4,437.7,403.3,437.4,403.3 M371.5,424.4c-1.9,4-6.9,3.8-10.2,5.9
		c0.5,2.5,2.6,4.3,4,6.3c5.2,0.6,10.5-0.1,15.6,0.9c6.4,0.1,12.6,2.1,19,2.1c14.8,0.8,29.3-2.5,44-3.5c0-2-1.9-3.5-2.8-5.2
		c-1.7-2.2-2.8-5.1-5-6.9c-21.4-0.1-42.9-0.1-64.3,0L371.5,424.4z"/>
	<path fill="#010101" d="M432.6,215.6c2.4-0.1,4.7-0.2,7.1-0.2c-0.7,7.8,3.4,15.9,10.6,19.3c11.7,0.7,23.4-0.3,34.9-2.6
		c1.4-1-0.2-3.8,1.6-4.5c4.9,1.4,9.8,3.1,14.8,4.2c0.4,1.7,0.3,3.5,0.2,5.3c-2.6,0.6-5.3,1.1-8,1.5c-4,0.2-7.8,1.2-11.7,1.5
		c-4,0.5-8.1,0.6-12.1,1.3c-10.7,0.5-21.4-0.3-31.9-2.5c-1.6,0.2-1.6-1.4-1.9-2.5C434.9,229.4,433.6,222.5,432.6,215.6z"/>
	<path fill="#010101" d="M518.6,319.6c3.1,0.1,6.2-0.2,9.2,0.3c0,18.8,0.3,37.5-0.4,56.3c0.2,1.2-0.9,2-1.4,2.9
		c-2,2.6-3.8,5.5-5.8,8.1c-2.9,0.7-5.9,0.6-8.8,0.5c1.5-4.4,2.3-9.3,5.3-13.1c1.1-1.6,3-2.3,4.6-3.4
		C521.7,354,522.5,336.5,518.6,319.6z"/>
</g>
<g id="_x23_6e6e6eff">
	<path fill="#6E6E6E" d="M442.1,254.7c16.9,2.5,34,1.1,50.9-0.1c2.2-0.1,4.6-1,6.8-0.2c-0.5,0.8-1,1.6-1.6,2.4c0-0.5,0-1.6,0-2.2
		c-6.3,1.3-12.8,0.4-19.1,1.5c-8.4,0.1-16.7,0.8-25.1,0.2c-3.9,0.1-7.7-0.9-11.6-0.9L442.1,254.7z"/>
</g>
<g id="_x23_8e8e8eff">
	<path fill="#8E8E8E" d="M374,266.7c7.9-0.3,15.8,0.4,23.6,0.6c-0.1,4.6,0.6,9.1,0.9,13.6c-0.4,3.9,1.2,7.5,0.8,11.4
		c-1.3-4.2-1-8.6-1.6-12.9c-0.5-3.9-0.1-7.8-0.7-11.7c-3.3-0.4-6.7-0.2-10-0.2c-4.4,0-8.7-0.4-13.1,0L374,266.7z"/>
</g>
<g id="_x23_a1a1a1ff">
	<path fill="#A1A1A1" d="M423.5,281c0.1-1.1-0.1-2.4,0.9-3.2c-0.2,11.6-0.6,23.3-0.4,34.9l-0.6-0.2C423.3,302,423.4,291.5,423.5,281
		z"/>
</g>
<g id="_x23_747474ff">
	<path fill="#747474" d="M479.8,286.7c0.9-0.9,1.6,0.3,2,1l-1.5-0.2c0.4,6.5,0.7,13.1,1.7,19.6l0.7,0.8c0.7,1.1-2.4,1.7-1.5,0.1
		c-0.1-3.7-1-7.3-0.7-10.9C480.6,293.6,478.8,290.2,479.8,286.7z"/>
	<path fill="#747474" d="M439.8,659.6c0.6,13.1,1.3,26.3,2.2,39.4c0.5,3.4,0.6,6.8,0.4,10.3c-0.3-4.1-1.2-8.1-1.1-12.3
		c0.2-2.7-0.4-5.3-0.7-8c-0.5-4,0.1-8-0.4-12C439.4,671.3,439.5,665.4,439.8,659.6z"/>
</g>
<g id="_x23_474747ff">
	<path fill="#474747" d="M143.2,355.6c0.7,3.8,0.3,7.6,0.3,11.4c0,4.4,0.5,8.8-0.2,13.3c-0.9-6-0.6-12.2-0.7-18.2
		C142.6,359.9,142.9,357.7,143.2,355.6z"/>
</g>
<g id="_x23_5f5f5fff">
	<path fill="#5F5F5F" d="M605,373.9c1.4,2.1,1.3,4.7,1.5,7.1c0.2,8.9,0.1,17.8,0.2,26.6l-0.4,0.3C605.8,396.5,606.5,385.1,605,373.9
		z"/>
</g>
<g id="_x23_7d7d7dff">
	<path fill="#7D7D7D" d="M612.8,401.3c-0.2-5.6-0.2-11.1,0-16.7c1,3.4,0.5,7,0.6,10.5C613.5,397.1,613.2,399.2,612.8,401.3z"/>
	<path fill="#7D7D7D" d="M446.8,518.7c3.1-0.2,6.3-0.3,9.2-1.5c-2.6,2.7-6.6,1.7-9.9,2.5C446.3,519.5,446.6,519,446.8,518.7z"/>
	<path fill="#7D7D7D" d="M515.6,658.1c0-8.4-1.5-16.8-0.8-25.3c0.8,8.7,0.7,17.5,1.6,26.2c0.7,7,1.2,14,1.9,21
		c0.7,15.5,3.2,30.8,4.6,46.2C518.6,703.7,518.3,680.8,515.6,658.1z"/>
</g>
<g id="_x23_9b9b9bff">
	<path fill="#9B9B9B" d="M420.1,453.1c7.6-0.2,15.3-0.1,22.9-0.8c-0.3,0.2-0.8,0.6-1,0.8c-7.1,0.7-14.2,0-21.3,0.6l-0.2,1.2l0.5,1.1
		c4,1.5,8.4-0.4,12.6,0.3c0,2.5,0.5,5.3-0.5,7.7c-2.1,0-4.2-0.4-6.1-1.1c1.9,0.1,3.7,0.2,5.6,0.6c0.4-2.2,0.5-4.5,0.5-6.8
		c-3.8-0.9-7.5,1.3-11.3,0.4C419.8,456.9,419.8,454.6,420.1,453.1z"/>
</g>
<g id="_x23_7c7c7cff">
	<path fill="#7C7C7C" d="M394.9,554.5c11.1,0.4,22.1-1.7,33-3.8l-0.4,0.5c-5.8,1.2-11.6,2.4-17.4,3.3c-4.9-0.2-9.6,1.3-14.6,0.8
		C395.4,555.1,395,554.7,394.9,554.5z"/>
</g>
<g id="_x23_808080ff">
	<path fill="#808080" d="M508.4,642.8c1.6,7.3,0.5,14.7,1.7,22.1c1.2,19.1,3.6,38.1,5,57.1c-2.3-13.9-2.9-28-4.4-41.9
		C510.1,667.6,508.2,655.3,508.4,642.8z"/>
</g>
<g id="_x23_787878ff">
	<path fill="#787878" d="M208.6,694c0.4-5.1,1.1-10.1,2.2-15.1c-0.4,7.4-1.8,14.8-2.3,22.2c-0.1,1.7-0.5,3.4-0.8,5.2
		C207.5,702.1,208.2,698,208.6,694z"/>
</g>
<g id="_x23_696969ff">
	<path fill="#696969" d="M204.2,750c1.3-8.8,1-17.6,2.1-26.4c0.1,3.5,0.3,7-0.3,10.4c-0.9,5.3-0.2,10.7-0.9,16H204.2z"/>
</g>
</svg>
