<?xml version="1.0" encoding="utf-8"?>
<!-- Generator: Adobe Illustrator 18.0.0, SVG Export Plug-In . SVG Version: 6.00 Build 0)  -->
<!DOCTYPE svg PUBLIC "-//W3C//DTD SVG 1.1//EN" "http://www.w3.org/Graphics/SVG/1.1/DTD/svg11.dtd">
<svg version="1.1" id="Layer_1" xmlns="http://www.w3.org/2000/svg" xmlns:xlink="http://www.w3.org/1999/xlink" x="0px" y="0px"
	 viewBox="0 0 256 298" enable-background="new 0 0 256 298" xml:space="preserve">
<g>
	<path fill="#010101" d="M76.9,12.2c2.3-1.7,5.2-2,8-2.1c14.4,0,28.7,0,43.1,0c5-0.2,9.9,1.5,15,1.3c4.2,0.1,7.9,2.3,10.9,5
		c3.3,0.2,6.2,1.8,9.2,3.2c9.7-0.6,15.1,8.5,21.5,14.2c1.8,4,3.8,8,6.9,11.2c3,3.2,3.9,7.5,5.4,11.5c3.1,3.5,3.8,8.2,5.5,12.4
		c0.8,2,0.4,4.3,0.6,6.4c0,3.9,2.9,7.3,2.7,11.3c-0.1,3.2,0.3,6.4,0.8,9.6c1.4,2.8,3.4,5.3,4.2,8.3c2.6,9.8,0.5,19.9,0.8,29.8
		c-0.2,3.6,0.7,7.4-1,10.7c-2.1,4.7-5.7,8.6-7.6,13.4c0.5,5.5-1.7,10.7-3.2,15.9c-0.4,3.4,0.3,6.9-0.7,10.3c-0.9,3,0,6.3-1.6,9.1
		c-0.8,2.3-2.7,3.9-4,6c-0.6,5.6,0.8,11,0.8,16.6c0.3,4.3,0.7,8.6,1.7,12.8c1.2,1.9,3.5,2.9,4.3,5.1c4.3,10.4,5.9,21.8,11.2,31.9
		c0.7,1.5,1.6,2.9,2.1,4.5c-0.2,3.9,0.1,7.9-0.2,11.9c-0.9,4.8-1.6,9.8-3,14.5c-0.5,0.1-1.6,0.3-2.1,0.3c2.3-7,4.1-14.3,3.6-21.7
		c-0.7-4.3-4.3-7.4-4.9-11.8c-2-9.9-5.3-19.4-7.7-29.2c-1.1,0.2-2.3,0.4-3.4,0.7c-1.9-7.8-3.3-15.8-3.2-23.9
		c-1.5-9.4-0.6-18.8,0.7-28.2c-0.1-7.3,1.7-14.5,3.8-21.5c-3.2,0.9-6.4,1.8-9.6,2.6c0.1,4.3,0,8.5-0.7,12.8c0.7,2.4,2,4.7,1.9,7.2
		c-0.1,9.9,0.1,19.9-0.1,29.8c-0.9,5.9-6.1,9.8-9.2,14.6c-4.8,4.7-8.2,10.5-11.6,16.2c0-0.8,0-2.4,0-3.2c3.5-7.1,9.5-12.4,14-18.8
		c3.1-3.4,5.8-7.7,5.7-12.4c0-6.4,0-12.8,0-19.1c0.3-2-1.2-3.6-2-5.3c-0.6-7.9,1-15.9-0.2-23.9c6.6,0.1,14.5-1.7,17.9-7.9
		c2.2-4,5-7.6,6.6-11.9c0.5-6.1-0.6-12.3,0.9-18.3c0.3-2.2,0.3-4.4,0-6.6c-1.8-3.6-3.4-7.2-4.3-11.1c-0.6-2.8-3-5.7-6.1-5.7
		c-2.7-0.1-5.4-0.2-8,0.3c-3.8,3-5.5,7.8-9.4,10.7c0.8-4.1,4.3-6.9,6.4-10.4c2.2-3.4,6.6-2.1,10-2.3c2.8-0.3,5.2,1.5,7.3,3.2
		c1.7,2.7,1.7,6.2,3.1,9c1-4.8-1.5-9.3-4.3-13c-3.4-4.3-9.6-4.8-14.6-3.6c-4.9,1.7-6.8,6.8-9.3,10.8c-3.4,3.3-6.9,6.5-10.2,9.9
		c-2.6,3.1-4.2,6.9-5.8,10.6c-3.6-0.5-7.2-0.3-10.8-0.3c-1.1-8.7-0.9-18.6-7.2-25.5C143,93.8,137,88.9,130.5,85
		c-0.1-3.8-0.2-7.6,0-11.4c0.1-2.6,1.2-5.2,0-7.7c-3.7-2-8.3-1.7-11.5-4.6c-3.5-2.7-7.6-7.1-12.5-5.2c-7.5,4.1-16.1,6.1-24.6,5.8
		c-3.2-0.1-6.2,1.1-9,2.4c-3.8,2.6-7.4,5.8-12.1,6.7c-3.3,0.6-6.4,1.6-9.6,2.3c-3.3,0.7-6.8-0.3-9.9,1.3
		c-7.6,3.7-12.7,11.6-13.7,19.9c0.2,3-1.2,5.8-1.3,8.8c-0.1,3.2,0.3,6.5-0.7,9.6c-1.1,3.2,1,6.1,1.8,9.1c2.1-1.9,3.7-4.6,6.5-5.5
		c3.6-1.3,7.5-2.5,11.4-1.5c2.8,1.2,4.9,3.4,7,5.5c-4.3,1.7-8.3,4.1-12,6.8c5.2,0.3,10.2,2.3,14.3,5.4c4.5,2.4,4.6,8.7,2.8,12.9
		c-1,3.6-5.2,4.3-8.1,6c-4.3,2.4-9.8,3.3-14.2,0.7c-2.3-1.1-2.1-3.9-3-5.9c-0.8,2.1-1,4.4-0.8,6.6c1.5,0.1,2.9,0.2,4.4,0.3
		c-1.3,1.2-2.7,2.4-3.9,3.7c2.3-0.4,4.6-1.1,6.9-1.2c-2.3,2.1-5.9,3.2-7,6.4c-2.1,5.8-4.3,11.8-4,18c2.5,6.5,5.6,12.9,9.5,18.8
		c3,4.4,5,9.6,8.8,13.3c5.4,5.7,11.1,11.1,15.1,17.9c1.5,2.7,3.8,4.9,5,7.8c0.5,3.8-0.2,7.6,0.3,11.4c1.6,3.9,2.9,8.4,6.7,10.8
		c3.1,2.8,7.4,3.3,10.9,5.2c2.8,1.8,6.1,0.1,9.1-0.3c7.1-2,14.5-4.1,20.1-9.1c3.4-2.8,5.6-6.7,8.7-9.8c-0.4,4.8-4.6,7.6-7.7,10.8
		c-4.1,4.6-10.3,6.2-15.9,8.1c-3,1.1-6.1,1.9-9.3,2.2c3.5,3.3,7.8,6.2,9.8,10.8c-4.4-2.4-7.5-6.7-11.7-9.4c-3.3-1.3-6.5-3.1-10-3.9
		c3,3.8,5,8.3,6.3,13c1.6,5.2,6.3,8.6,8.6,13.4c-4.1-1.6-6.5-5.8-8.7-9.4c-2.8-4.4-2.2-11.1-7.6-13.7c-2.2,4.8-5.8,8.7-8.2,13.4
		c-2.1,3.3-3.1,7.3-5.9,10.1c1.4-6.4,4.6-12.4,8.6-17.6c2.1-3.4,4.6-6.7,5.2-10.7c-2.4-1.4-5.5-2-6.8-4.6c-1.8-3-3.2-6.3-4.3-9.6
		c-0.4-3.5,0.2-7.1-0.3-10.6c-0.6-2-2.3-3.4-3.3-5.2c-5.1-8.9-13.3-15.5-19.5-23.5c-5.5-9-11.1-17.9-15.1-27.7
		c-0.7-5.7-0.1-11.6,2.3-16.9c1.8-3.6,1.8-7.8,1.4-11.7c-1.3-3.5-5.5-5-6.7-8.4c0.2-4.7-4.1-8-4.2-12.6c0.9-4,3.4-7.4,5.2-11
		c0.2-2.3,0.2-4.6,0.2-6.9c-0.7,0.1-2,0.3-2.7,0.3c-0.7-2.6-0.7-5.5-2.8-7.4c0.6-1.5,1.1-3,1.7-4.5c-0.9-0.8-1.7-1.7-2.6-2.5
		c1.2-1.8,2.3-3.7,3.6-5.4c-0.6-0.2-1.7-0.5-2.3-0.7c0.6-1.4,1.4-2.8,2.2-4.2c-1.2,0.5-2.4,0.9-3.6,1.4c0.6-1.4,1.2-2.7,1.9-4.1
		c-1.2,0.6-2.4,1.2-3.6,1.8c0.1-1.9,0.2-3.9,0.3-5.8c-0.6,0.1-1.9,0.3-2.5,0.5c0.4-8.3-1.2-16.9,1.1-25.1c3.4-2.6,5.6-7.5,10.3-7.8
		c-0.1-0.6-0.3-1.7-0.4-2.2c1.8,0,3.7,0,5.5,0c-0.8-1.6-1.6-3.3-2.4-4.9c2,0,3.9,0,5.9,0c-0.9-1.6-2-3.2-3-4.7
		c1.6-0.1,3.2-0.2,4.9-0.3c-0.7-1.1-1.4-2.2-2-3.3c1.9,0.2,3.8,0.4,5.7,0.6c-0.5-1.1-1.1-2.2-1.6-3.3c1.8-0.4,3.6-0.8,5.4-1.1
		c-0.4-1.3-0.9-2.7-1.3-4c1.2,0.5,2.5,0.9,3.7,1.4c3-2.7,6.7-4.5,9.8-6.9C61.3,16,70.2,16.2,76.9,12.2 M22.5,102c0,1.9,0,3.9,0,5.8
		c0.5,0.1,1.5,0.2,2,0.3c0-2.3,0-4.7,0-7C24,101.4,23,101.8,22.5,102 M25.2,144.2c1.3,1.5,2.5,3,3.8,4.5c2.2-4.7,6.7-7.6,11.1-10.1
		c2.1-1.1,4.3-2.4,6.8-2c2.9-0.2,6.4,1.2,8.8-1.1c-5.2-4-11.7-7.3-18.5-6.8C31.4,131.9,26.7,137.6,25.2,144.2 M41.3,139.1
		c-1.9,2-3.9,3.9-5.7,6c-0.3,1.7-0.3,3.4-0.4,5.1c4.3,3.4,9.8,1.7,14-0.9c-1.4-0.5-2.7-1-4.1-1.6c0.2-2.3,0.8-4.6,1.5-6.8
		c3.5-0.9,7.1-1.1,10.6-1.4C52.6,136,46.5,137.9,41.3,139.1z"/>
	<path fill="#010101" d="M67.7,105.1c3.9-2.7,7-6.7,11.6-8.2c-4.3,5.5-11.1,8.4-14.8,14.4c-1.1,4.2,0.5,7.9,3,11.1
		c-3.7-1.8-6.5-5.8-5.7-10C63.1,109.6,64.9,106.8,67.7,105.1z"/>
	<path fill="#010101" d="M71.4,117.4c-0.6-4.9,1.6-9.5,5.5-12.4c1.4,1.8,2.2,5.4,5.1,4.9c11.4-0.6,22.9-0.6,34.4-0.1
		c-0.4,3,1.1,6.7-1.3,9c-5.4-0.1-10.7,1.4-16.1,1.2c-7.4-0.1-14.7,0.3-22.1,0.1C74.7,120.3,73.1,118.5,71.4,117.4z"/>
	<path fill="#010101" d="M50.7,107.6c1.6,0.3,3.2,0.5,4.5,1.5c1.5,3.6,2.2,7.5,3.7,11.1c-0.5-0.1-1.5-0.2-2.1-0.3
		c-0.9-3.4-2.3-6.7-3.3-10.1c-1,0-1.9-0.1-2.9-0.1C50.6,109.2,50.7,108.1,50.7,107.6z"/>
	<path fill="#010101" d="M183.5,128.9c1-4.1,2.1-8.3,3.2-12.4c2.9,1.8,6.1,3.3,8.6,5.7c-2.8-0.4-5.3-1.6-7.8-2.9
		C186.9,122.8,186.7,126.7,183.5,128.9z"/>
	<path fill="#010101" d="M204.2,117.7c1.4,1.6,3.4,3.2,3.1,5.6c0.1,5.8,0.8,13.3-5.1,16.6c0.6-2.6,2.5-4.6,3.1-7.2
		C206,127.7,205.5,122.6,204.2,117.7z"/>
	<path fill="#010101" d="M201.9,118.3c4.7,6.5,2,15.2-1.7,21.6c-0.6,0-1.8-0.1-2.4-0.2c1.9-2.8,3.9-5.7,4.6-9
		C203.5,126.6,202.2,122.4,201.9,118.3z"/>
	<path fill="#010101" d="M78.8,131.7c2.4-3.4,4.3-8.3,9.2-8.5c6.1-0.4,11.8,2.6,17.8,3.5c-0.8,2.9-0.3,5.8,1,8.4
		c-5.6,4.4-13.2,8.4-20.3,5.6c-3.6-1-4.5-5-5.8-8.1c1.7,1.2,3.2,2.7,4.4,4.4c2.6,4.3,8.6,3.2,12.4,1.5c-2.2-1.3-6.1-2.8-4.9-6
		c1.2-4,5.9-3.6,9.2-4c-1.9-0.7-3.7-1.6-5.7-1.9C90.2,127.8,84.3,129.2,78.8,131.7 M84,126.8c3,0,6.5,0.5,8.8-1.9
		C89.7,123.9,86.6,125,84,126.8z"/>
	<path fill="#010101" d="M55,127.7c0.6,0,1.9,0,2.6,0c1.8,4.4,3.8,8.8,4.6,13.6c0,5.5-2,10.8-3,16.1c-0.9,4.3-2.8,8.1-4.4,12.1
		c-1.1,2.8,0.6,5.6,1,8.4c-1.6-1.6-2.7-3.7-3.6-5.8c-0.5,1.7-1.1,3.4-1.2,5.1c0.4,2.3,2.8,3.3,4.4,4.7c0.1-1,0.3-3,0.3-4
		c2,0.6,3.9,1.4,5.8,2.2c-2.6,1.8-5.9,3.8-9,1.8c-3.4-1.4-3.1-5.6-2.6-8.6c5.1-6.9,8-15.3,9-23.8c-6.1,4.7-9.7,11.6-13.3,18.2
		c-2.7,4.8-2.6,10.5-4.3,15.6c-1.6-4.3,0.5-8.7,1.4-13c1.7-5.1,4.8-9.6,7.7-14.1c2.4-3.9,6.3-6.4,9.4-9.6
		C62.5,140.3,58,133.4,55,127.7z"/>
	<path fill="#010101" d="M69.6,135.7c-1.1-3.1-1.5-6.5,0.8-9.3c0,3.5,0,7,1.3,10.3C71.2,136.4,70.2,135.9,69.6,135.7z"/>
	<path fill="#010101" d="M181.1,129.1c4.3,2.1,7.2,7.5,5.8,12.1c-0.4,1.8-0.6,3.7-0.7,5.5c2.8-2.4,5.5-5.2,9.3-6
		c-2.4,3.8-6.6,6.1-10.2,8.7c-0.6-4.3,0.4-8.7,0-13C184,133.9,182.1,131.8,181.1,129.1z"/>
	<path fill="#010101" d="M108.9,143.4c4.1-1.3,3.4-6.5,5.1-9.7c1.1,3.8,0.5,8.1-2.9,10.5c-5.5,2.9-11.7,4.1-18,3.6
		c0-0.3-0.1-0.9-0.1-1.2C98.5,147.1,103.9,145.7,108.9,143.4z"/>
	<path fill="#010101" d="M93.3,160.4c3.3-3.3,7.8-0.2,11,1.7c5.8,3,9.6,8.4,14.3,12.7c3.7,4.8,6.7,11.1,5.7,17.3
		c-1.6-3.1-2-6.6-3.1-9.8c-2.1-4.7-5.9-8.1-9.3-11.8C107,165.2,100.7,160.5,93.3,160.4z"/>
	<path fill="#010101" d="M82.6,161.9c3.5-1.1,7.9-1.7,10.6,1.3c0.7,2.4,0.6,5.1,0.3,7.6c-1.7,3.1-5.4,5-9,4c-4.5-1.8-9.4,0-13.2,2.6
		c0,1.2,0.1,2.5,0.1,3.7c-0.6-0.1-1.7-0.5-2.3-0.6c0.2-1.6-0.4-3.7,1.3-4.6c4.5-3.6,11.3-4.5,16.5-1.8c1.7-1.3,3.6-2.4,5.2-3.9
		c0.2-2.1,0.6-4.5-0.9-6.2c-2.8-2.4-6.6-1-9.6,0.2C81.9,163.6,82.4,162.5,82.6,161.9z"/>
	<path fill="#010101" d="M42.1,188.4c0.6-3.1,2.4-6.3,5.8-6.8c-2,3.3-5.4,6.4-4.7,10.7c1,4.1,2.3,8.3,5.1,11.5
		c2.6,2.9,5.6,5.4,8.2,8.3c0-1.3,0-3.9,0.1-5.2c-2.9-1.7-3.3-5.2-3.2-8.2c4-3.5,9.1-5.4,14-7.4c7.4-1.7,14.7-4.1,22.2-5.5
		c10-1,21.1-1,29.5,5.4c5.2,4.5,6.1,11.7,7.3,18.2c0,1.5-0.5,2.9-0.9,4.4c-3.3-0.4-6.9,0.5-10-1.1c-3.6-1.9-6.8-4.6-10.4-6.6
		c-5.7-1.6-11.8-1-17.5-0.1c-3.5,2-7.4,3.1-11.4,3.1c-4.4,0.7-5.4,5.5-8.8,7.6c-2.4,0.4-4.9-0.1-7.4-0.3c4.9,7.1,8.8,14.9,10.6,23.4
		c-0.5,0-1.4,0-1.9,0c-2.7-12.1-9.2-23.5-18.7-31.6C44.2,203.5,41.4,195.7,42.1,188.4 M75.9,191c-6.9,1.4-13.9,3.5-19.5,7.9
		c-2.4,1.7-0.7,4.9,0.8,6.6c0.4-2.5,0.8-5.1,1.2-7.6c4-0.3,8.3,0.6,12.1-1.1c4.9-1.8,10-3.1,14.9-4.9c6.3-2.2,12.8-4.6,19.6-3.9
		c0-0.3-0.1-0.9-0.2-1.2C94.9,185.9,85.2,188,75.9,191 M92.4,191.9c-0.7,1.4-0.9,2.8-1.3,4.3c2.2-0.1,4.4-0.3,6.5-0.5
		c0.1-2,0-4.1-0.1-6.1C95.9,190.3,94.1,190.9,92.4,191.9 M98.3,195.2c2.1-0.1,4.1-0.3,6.1-0.3c0-1,0-2.9,0-3.9
		c-1.5-0.4-3-0.9-4.6-1.2C97.6,190.7,98.4,193.2,98.3,195.2 M105.4,190.9c-0.1,1.3-0.2,2.7-0.3,4c1.8,0,3.7-0.1,5.6-0.2
		c-0.2-1.8-0.1-3.8-1.5-5.2C107.9,190,106.7,190.4,105.4,190.9 M111.4,194.9c2.7,0.1,5.4,0.1,8.1,0c-1.8-1.1-3.5-2.4-5.4-3.3
		C112,191,112.1,193.7,111.4,194.9 M85.4,197.9c1.8-0.3,3.5-0.8,5.2-1.4c-0.4-1.5-0.8-3-1.3-4.4C87.6,193.8,84.7,195.1,85.4,197.9
		 M76.9,199.8c2.5-0.3,5-0.8,7.5-1.4c-0.1-0.7-0.2-2.1-0.2-2.9C80.9,194.9,78.7,197.6,76.9,199.8 M72.8,198.8
		c-0.2,0.7-0.5,2.1-0.7,2.8c1.9-0.7,3.7-1.6,5.5-2.6C76,198.8,74.4,198.6,72.8,198.8 M64.2,200.9c0.6,1.2,1.1,2.4,1.7,3.6
		c1.7-1,3.4-1.9,5.1-2.9C69.8,198.5,66.6,200.6,64.2,200.9 M76.9,203.3c-3,1.1-6,2.4-8.7,4.2c-1.9,2.5-3.5,5.4-5.6,7.7
		c1.5-0.2,3.1,0,4.5-0.7c1.6-1.8,2.5-4.2,4.7-5.3c4.2-2.6,9.7-1.4,13.8-4.2c3.1-2.1,7-0.9,10.4-1.4c2.6,0.1,5.3-1.5,7.7-0.2
		c4.9,2,8.8,5.7,13.5,8c2.4,0.8,5.7,1,6.2-2.2c-5.5-1.4-10.7-4-15.7-6.7c-4.6-2.3-9.9-1.8-14.8-1.4C87.6,202.2,82,201.4,76.9,203.3
		 M110,202.1c1.8,1.9,4.5,1.8,6.9,1.8C116.1,200.6,112.5,201.7,110,202.1 M117.5,203.3c0.1,2.8,2.7,3.8,5.1,3.5
		c-0.3-1.4,0.1-3.1-1.1-4.1C120.5,201.2,116.7,200.6,117.5,203.3z"/>
	<path fill="#010101" d="M139.5,205.4c0.5,0.1,1.4,0.2,1.9,0.3c-0.2,4.8,0.1,10.1-3,14.1c-1.3,1.8-3,3.2-4.7,4.5
		c1.4-3.7,4.5-6.5,5.6-10.3C139.6,211.1,139.4,208.3,139.5,205.4z"/>
	<path fill="#010101" d="M130,217.4c1.9-2.9,2.7-6.3,4.2-9.3c0.6,4.7-1.3,10.4-6.1,12.3c-2.5,1.1-5.3,0.6-7.9,0.7
		c-0.1-0.3-0.2-1-0.3-1.3C123.5,220,127.1,219.5,130,217.4z"/>
	<path fill="#010101" d="M79.5,218.1c3.9-7.2,14.3-9.9,20.7-4.2c-4-0.5-8.1-1.8-12.1-0.9C85,214.3,82.6,216.8,79.5,218.1z"/>
	<path fill="#010101" d="M87.8,218.5c2.2-1.4,4.7-1.9,7.2-1.5C93.3,219.5,90.3,218.8,87.8,218.5z"/>
	<path fill="#010101" d="M205.1,248.2c8.1,1.9,8.8,12.5,15.6,16.4c5.7,3.3,11.2,6.9,16.7,10.4c2.7,2.9,3.8,6.9,4.4,10.7
		c-2.4-2.8-3.4-6.5-5.7-9.5c-1.7-1-3.4-1.9-4.9-3.1c-5.5-4.2-12.7-6.3-16.6-12.4C212,256.1,208.5,252.1,205.1,248.2z"/>
</g>
</svg>
