<?xml version="1.0" encoding="utf-8"?>
<!-- Generator: Adobe Illustrator 18.0.0, SVG Export Plug-In . SVG Version: 6.00 Build 0)  -->
<!DOCTYPE svg PUBLIC "-//W3C//DTD SVG 1.1//EN" "http://www.w3.org/Graphics/SVG/1.1/DTD/svg11.dtd">
<svg version="1.1" id="Layer_1" xmlns="http://www.w3.org/2000/svg" xmlns:xlink="http://www.w3.org/1999/xlink" x="0px" y="0px"
	 viewBox="0 0 367 425" enable-background="new 0 0 367 425" xml:space="preserve">
<g>
	<path d="M147.9,2.8c1.4-0.3,2.7-0.9,4.1-0.7c1.3,0.8,2.2,2,3.3,3.1c7.8-0.9,15.7-2.1,23.6-1.3c12.8,0.3,25.3,3.3,37.9,5.3
		c1.8,1.9,3.7,3.9,5.7,5.6c2.2,0.4,4.6,0,6.8,0.9c2.1,0.7,3.7,2.2,5.6,3.2c4.2,0.4,8.6,0.6,12.4,2.8c8.2,4.2,12.5,13.1,20.5,17.6
		c1,5.7,4.1,10.7,8,14.9c4,4.4,7.8,9.7,7.3,16c6.1,5.3,7,13.7,10.2,20.6c1,1.9,0.6,4.1,0.7,6.2c0.1,10.5,6.7,20.5,4,31.1
		c7,9.4,9.1,21.4,9,32.9c0,8.3-0.1,16.6-0.1,25c-0.1,6.5-0.2,13.5-3.7,19.3c-2.8,5.1-7.3,8.9-10.1,14c-0.4,4.2,0.2,8.5-0.7,12.7
		c-2.1,11.6-5.9,23.2-4.6,35.2c-2.2,4.3-3.7,9.5-7.9,12.4c0.1,15,1.3,30,4.1,44.7c0.3,1.5,0.8,3,1.5,4.3c0.5-1.5-0.8-5.6,2.1-4.5
		c7.8,19.9,11.8,41.3,22.2,60.1c-0.5,0.2-1.5,0.7-2.1,0.9c1.9,9.6,1.2,19.6-1.1,29.1c-0.9,3.5-2.4,6.9-4.9,9.5
		c0-10.8,5.7-20.9,5.1-31.8c-0.4-5.5-4.3-9.5-6.7-14.2c-1.8-3.3-0.8-7.3-1.7-10.8c-3.1-13-7.5-25.6-12.1-38
		c-0.8,1.2,0.1,4.6-2.3,3.8c-3.9-11.4-4.9-23.7-5.9-35.8c-0.1-13-0.7-26.1,0.9-39.1c0.9-11,2.9-21.9,5.6-32.6
		c-4.7,0.4-8.8,3.2-13.6,3.2c-0.4,6.2,0.9,12.6-0.8,18.7c1.6,3,2.7,6.3,2.8,9.7c0.2,9-0.1,18,0.1,27c0.5,7.5,1.2,15.4-1.3,22.7
		c-0.7,2.8-3.5,3.9-5.5,5.6c-2.2,2.3-3.4,5.3-5.3,7.8c-2.8,4.1-7.3,6.7-9.8,10.9c-2.7,4.6-4.3,9.9-8.3,13.6c0.4-6.9,4-13.2,8.5-18.3
		c6.9-7.8,16.2-14.5,19.3-24.9c2.3-11.7-0.4-23.6-0.5-35.4c0.3-3.3,0.7-6.6,0.8-9.9h-0.6c0,1.3,0,2.6,0,3.9
		c-0.2,1.3-0.9,2.3-1.8,3.2c-1.4-2.1-0.8-4.8-0.9-7.2c0.4-10.3,1.9-20.6,0.3-30.8c6.8,0.5,14-0.6,19.6-4.9c5.1-3.6,8.5-9,11.6-14.3
		c2.5-4.3,5.3-8.9,5.2-14.1c0.3-10-0.8-20.1,0.2-30.1c-0.9-3.3-2.9-6.2-3.6-9.6c-1.8-5.8-3.2-12.8-9.1-15.8c-4.5-1-9.7-1.2-13.7,1.5
		c-5.4,3.6-7.6,10.3-13.2,13.6c2.1-5.6,5.1-11.3,10.1-14.9c5.2-3.6,12-3.6,18-2.6c2.1,1.9,4.7,3.2,6.8,5c0.8,5.1,2.9,9.9,4.1,14.9
		c0.8-8.8-2.7-18.5-10.1-23.7c-6.1-4.3-14.8-4.9-21.2-1c-5.1,3.6-7,9.8-9.7,15.1c-6.3,5-12.9,10-17.4,16.8c-2.5,3.6-4.1,7.8-5.4,12
		c-5.7-1-11.4-0.2-17.1-0.7c-0.1-8.2-0.4-16.5-3.2-24.2c-3.7-11.1-11.6-20.3-20.6-27.4c-2.9-2.5-6.4-4.4-9.2-7
		c-2.7-8.8,0.3-18-0.2-27c-2.2-3.1-6.4-2.1-9.6-3c-8.4-1.8-12.5-11.6-21.1-12.5c-9.5,0.5-17.4,6.7-26.7,8.3
		c-7.9,2-16.4-0.3-24.1,3.1c-5.4,2.7-9.3,7.8-15,9.8c-5.5,2-11.3,3.3-17,4.3c-4.8,1.2-9.9-0.8-14.7,1.1
		C49.4,102.5,41.8,114.8,41,127c0.3,4.4-2.2,8.2-2.6,12.5c-0.9,7.2-1.1,14.8,1.6,21.7c6.2-3.7,11-9.2,16.5-14
		c4.7-4.1,10.6-6.6,16.8-7.2c-1.7,5.1-3.9,10-3.4,15.5c-5.9,4.8-10.8,10.8-15.6,16.8c8.8,2.7,18.1,5.1,25.2,11.2
		c4.5,3.7,6.7,10,4.9,15.6c-0.9,2.5-1.2,6.1-4.1,7.1c-8.8,4.4-19.4,9.8-29.2,5.3c0,0.9-0.1,1.9-0.2,2.8c-1.3,1-4.1,1.2-3.7,3.4
		c2.8,0.2,5.3-2,8.2-1.9c-1.3,4.1-6.1,4.8-9.2,7.1c-1.1,7.9-4.9,15-6.1,22.9c-0.8,7.4,3,14.3,6.4,20.7c4.7,8.5,9.4,17,15,24.9
		C72,306.4,87.4,317.6,95.8,334c0.8,7.4-1.2,15.2,2.1,22.2c4.4,10.8,15.9,15.7,26,19.8c13.7-2,28.1-5.1,39.2-13.9
		c5.1-4.2,8.3-10.2,13.8-13.9c-3.8,10.3-12.7,17.9-22.5,22.3c-7.7,3.5-16,5.7-24.4,6.8c3.8,5.6,10.9,8.5,13.2,15.2
		c-6.8-3.1-11.5-9.2-17.2-13.8c-5.2,1.3-8.1-4.2-12.9-4.7c5.3,11.1,9.9,22.8,16.7,33.1c0.8,1.5,2.7,2.8,2.7,4.6
		c-2.3-1.4-4.7-2.7-6.4-4.8c-6.9-8.1-7.1-20.2-15.2-27.5c-4.2,5.7-8.4,11.4-11.8,17.6c-2.7,5.1-4.3,11.1-9.4,14.4
		c3.3-8.3,5.4-17.4,11.7-24c3.6-3.9,7.5-8.7,6.5-14.5c0.8,0.2,2.3,0.6,3,0.8c-2.6-4.5-9.2-3.6-11.5-8.3c-5.3-8.9-6.2-19.6-6.5-29.7
		c-8.8-15.6-21.8-28.3-32.7-42.3c-6.5-8.4-11.9-17.5-17-26.9c-3.5-6.6-6-14-5.7-21.6c0.7-8.4,6.3-15.6,6.6-24.1
		c0-3.8,0.3-8-2.3-11.1c-2.3-2.7-5.4-4.7-7.9-7.2c1-6.4-3.8-11.2-5.9-16.8c-1.9-7.8,4.4-13.7,8-19.8c2.7-3.2-0.7-6.9-0.7-10.5
		c-1,0.8-2,1.7-3,2.5c-3.5-2.8,1.3-10.4-4.8-10.4c0.6-2.7,1.5-5.4,2.4-8c-1-0.9-2.1-1.8-3.1-2.6c0.3-3.5,3-6.3,4.8-9.2
		c-0.9,0.2-2.6,0.6-3.5,0.8c0.2-2.9,1.7-5.3,3.3-7.7c-1.7,0.7-3.1,3-5.1,2.4c-0.7-2.2,1.4-3.9,2.3-5.8c-1.7,0.6-3.3,3-5.1,1.8
		c-0.7-2.5,0.8-5,1.3-7.4c-2.6-0.6-5.1-1.5-7.7-2.1c-0.1-4.5,2.8-10.5-1.5-13.8c0.8-6.2,1.8-12.4,1.8-18.6c1.9,0.5,2.7,2.2,3.8,3.7
		c0.9-2.2,0.3-4.5,0-6.8c2.1-0.5,4.1-1.1,6.2-1.8c0-1.4-0.1-2.9-0.1-4.3c4-0.2,6.3-4.7,10.5-3.5c-0.9-1.1-2.2-2.2-1.4-3.8
		c2.7-0.2,5.3-0.1,8-0.1c-1.4-2.3-3-4.4-3.2-7.2c2.3,0.1,4.6,0.5,6.8,1.2c1.9-2.2-0.4-4.1-2-5.6c-0.2-0.6-0.5-1.8-0.7-2.5
		c2.3,0,4.7,0,7,0c-1.5-1.5-3-3-3.3-5.2c2.8,0.3,5.5,1.1,8.2,1.5c-0.9-1.5-1.8-2.9-2.7-4.4c2.3-2.1,5.4-1.9,8.3-1.9
		c-0.7-1.9-1.4-3.9-1.9-5.9c2.6,0.2,5.7,2.3,7.9,0c2.8-2.6,5.7-5.3,9.6-6.2c7.7-11.8,24.4-9.1,33.8-18.5c2.4,0.3,4.4-0.8,6.4-1.8
		C128.4,1.5,138.5,5.8,147.9,2.8 M33.8,137c-2.8,4.7-0.5,9.9,1.9,14.2c0-3.8,0.5-7.5,0.3-11.2C35.9,138.6,34.6,137.9,33.8,137
		 M43.7,184.6c-2.7,4.4-6.1,8.9-6.2,14.2c0,3.4,2.8,5.7,5.2,7.6c2.1-4,4.6-7.9,8.3-10.6c8.4-6.6,19.4-8.1,29.8-8.5
		c-7.3-6.4-17-10.2-26.7-10.8C50.2,178.7,48,183.1,43.7,184.6 M68.5,195.6c-7.5,1.6-13.1,7.1-18.7,12c4.2,2.5,9.2,3.7,14.1,2.8
		c7.8-1.2,16-6,18-14.1C77.5,195.1,72.9,194.6,68.5,195.6 M46.3,213.3c1.5-0.6,3.1-1.3,4.6-2c-4.2-0.6-3.2-4.8-3.5-7.8
		C44.4,206,44.7,210,46.3,213.3z"/>
	<path d="M102.5,119.6c3-0.8,6.8-1.2,8.8,1.8c-8.3,0.2-15.7,4.6-23.9,5C91,121.8,97.1,120.8,102.5,119.6z"/>
	<path d="M83.5,131.5c5.7-2.5,11.5-5.8,18-5.3c-2,3.1-5.8,3.2-9,4.1c-3.8,1.5-7.1,4.5-11.3,5c-3.6,0.6-8.4,1.9-10.7-1.9
		C74.8,133.2,79.4,133.5,83.5,131.5z"/>
	<path d="M45.6,140.3c8.3-5.7,16.7-11.6,26.6-14.1c-4.9,7.3-14.7,7.5-20.9,13.1c-1.6,2.7-2.3,6.3-5.6,7.4
		C45.6,144.6,45.5,142.4,45.6,140.3z"/>
	<path d="M98,135.9c5.8-3.2,12.6-3.2,19-2.7c4.8,1.8,7.9,6.4,12.9,7.8c6.8,1.4,13.8-1.1,20.5,0.7c6.5,1.6,13.1,4.3,18.2,8.7
		c3.3,3.9,1.2,10.1-2.1,13.3c-5.4,0.6-8.9-4.8-14-5.4c-8.7-1.2-17.4,2.1-26.1,0.2c-6-1.4-10.6-5.8-16.5-7.4
		c-7.3-2.4-15,1.4-22.3-1.4C89.3,144,92.7,138.7,98,135.9z"/>
	<path d="M79.2,145.9c0.7-2.2,1.2-5.3,3.7-6c2.7,2.4-1.4,4.7-1.7,7.3c-1,6.4,2.7,12.4,3.9,18.5C78.6,161.5,78.5,152.7,79.2,145.9z"
		/>
	<path d="M70.7,150.9c5,3.2,6.5,9.3,7.4,14.8C73.3,162.3,71.9,156.3,70.7,150.9z"/>
	<path d="M170.6,153.1c4.4,0.7,9.8,1.6,11.8,6.3C178.1,158.3,172.6,157.7,170.6,153.1z"/>
	<path d="M269.7,160.1c4.6,1.6,9.8,3.1,12.5,7.5c-3.9-0.2-7.3-1.8-10.5-3.9c-1.6,4.4-0.1,11.5-5.9,13
		C266.8,171.1,269.1,165.8,269.7,160.1z"/>
	<path d="M155.9,172.9c7.5-3.2,14.1-8.2,21.3-11.8c-3.6,6.6-10.8,9.7-17.2,12.8c-2.9,1.3-5.5,3.2-8.4,4.5c-3.5,0.3-7.1-0.1-10.6,0.4
		c-7.5,0.7-14.4,3.8-21.3,6.7c0.2-4.6,2.6-9.6,7.2-11.3c2.8-1.3,6-1,9-1.3c-2.2-0.9-4.6-1.8-7-1.2c-5.2,1-8.4,5.7-12.3,8.8
		c0.1-4.8,3.3-9.5,8.1-10.3c9.2-1.8,18.2,1.8,27.1,3.9C153.4,174.3,154.6,173.3,155.9,172.9z"/>
	<path d="M295.9,161.9c4.7,4.8,5.2,12.2,4.4,18.5c-0.6,4.8-2.1,10.9-7.6,12.2C298.8,183.6,298.7,172.1,295.9,161.9z"/>
	<path d="M292,163.4c4.7,4.2,4.4,11.1,3.7,16.8c-1.1,5.3-3.3,11.5-9,13.4c3-5.2,5.9-10.6,6.6-16.7C294.1,172.3,293,167.8,292,163.4z
		"/>
	<path d="M175.6,169.3c2.8,0.2,6.3-1.4,8.5,0.8c-0.2,1.1-0.9,1.6-2.1,1.5c-8.3,0.2-15.1,6.8-23.6,5.8
		C162.9,172.1,171.1,174.4,175.6,169.3z"/>
	<path d="M79.7,175.1c0.8,0,2.4-0.1,3.2-0.2c6.8,9.1,7,21.1,5.7,32c-1.6,10.2-4.9,20-9,29.4c-2.1,3.9,1.2,7.5,1.8,11.3
		c-3.9-0.2-4.5-4.1-4.8-7.2c-5,3.9-2.2,13.6,4.6,12.8c-0.4-1.4-3.2-2.9-1.3-4.2c3.3-0.4,7.9,0.3,8.4,4.3c-5,2.7-12.2,2.9-16.2-1.6
		c-1.1-3.3-0.3-7.1-0.4-10.6c9.2-8.5,10.6-21.8,14-33.2c-3.8,1.7-5.5,5.5-8.6,8c-1,0.9-2.3,1.7-2.8,3c-4.7,8.9-9.9,17.9-12,27.9
		c-0.5,3.1-0.4,6.7-3.1,8.8c-0.8-13.1,4.6-25.9,12.3-36.2c3.6-5,7.6-9.7,11.5-14.5c1.3,0,2.7,0,4.1,0c0.4-5,0.9-10.3-0.8-15.1
		C84.5,184.8,81.8,180.1,79.7,175.1z"/>
	<path d="M103.6,189c-5.6-2.4-4.4-9.8-2.7-14.4C103.8,178.9,101.7,184.3,103.6,189z"/>
	<path d="M163,179.1c4.2,0.3,7.8-2.6,12-2.1c1.9-0.4,3.1,1.1,4.2,2.2c-7.8,0.1-15.1,2.9-22.8,3.3C156.7,179.1,160.4,179,163,179.1z"
		/>
	<path d="M262.6,177.9c2.5,1.2,5,2.7,6.2,5.4c3.1,6,2.3,13,1.1,19.3c2.9-1.2,4.7-3.8,7-5.8c1.7-1.5,4.1-1.7,6.3-2
		c-4,5.1-9,10.1-15.6,11.7c-1.5-6.4,3.3-13,0.1-19.1C265.9,184.3,263.1,181.7,262.6,177.9z"/>
	<path d="M131,193.3c9,0.4,16.4-5.5,24.2-9.1c-3.3,6.2-10.3,9.4-16.7,11.2c-6.3,1.8-14.8,0.9-17.7-5.9
		C123.9,191.2,127.1,193.5,131,193.3z"/>
	<path d="M135.5,221.1c8.2-0.5,16.2,2.9,22.5,7.9c12.6,10.1,21.7,24.8,23.8,40.9c0.3,4.5,0.3,9.1,0,13.7c-1.6-1.8-2.7-4.1-2.7-6.5
		c-0.2-7.8-1.1-15.8-4.1-23.1c-5.1-9.2-12.5-16.9-20.5-23.6c-4.3-3.2-8.9-6.9-14.6-6.5C138,224.1,136.4,222.7,135.5,221.1z"/>
	<path d="M118.6,228.3c0.3-1.9,1.4-3.6,3.4-4.1c4-0.7,8.1,0,12.1,0.9c2.7,3.9,1.9,8.8,1.9,13.3c-2.9,2.7-5.9,6-10.2,6.2
		c0.1-3.1,2.9-4.3,5.3-5.5c5.2-2.4,3.4-11.4-2-12.3C125.5,225.7,121.9,227.3,118.6,228.3z"/>
	<path d="M195.8,236.8c1,0.5,2.1,0.9,3.1,1.4c1.8,12.1,5.9,24.1,3.6,36.4c-2.7,11.5-8,22.1-10.7,33.6c-2.4,8.8-4,18.7-10.9,25.3
		c5.3-15,9.6-30.3,14.3-45.5c2.2-7.3,6.3-14.2,5.9-22C200.7,256,196.6,246.7,195.8,236.8z"/>
	<path d="M100.7,246.8c4.9-5.2,12.8-7.1,19.7-6.7c1.9,1.2,5.1,1.4,4.8,4.4c-6.4-2.5-14.2-1.9-19.9,2c-1.9,1.4-2,3.9-1.8,6.1
		C101.6,251.4,98.6,249.3,100.7,246.8z"/>
	<path d="M181.7,250.1c0.8,0,2.3,0,3.1-0.1c2.7,10.4,3.3,21.2,3.6,32c-0.4,14.1-1.7,29-9.2,41.4c-2.6,4.2-6.2,7.8-10.6,10.2
		c0.8-6.7,7.4-9.8,10.6-15.1c4.6-7.3,5.5-16,6.5-24.4C186.6,279.3,186.1,264.3,181.7,250.1z"/>
	<path d="M66,254.1c0.8,0,2.5-0.1,3.3-0.1c-1.5,3.7-4.5,6.5-6,10.1c-1.1,5.3-0.3,11.1,2.7,15.8c5.4,8.5,14.4,13.6,20.3,21.7
		c8.4,10.7,12.7,23.9,15.7,37c-2.1-1.5-3.7-3.7-4.5-6.2c-4.6-13.2-10.3-26.6-20.3-36.7c-4.8-4.5-10.2-8.6-13.5-14.4
		c-3.3-6-4.4-13.4-2.2-19.9C62.7,258.9,64.2,256.4,66,254.1z"/>
	<path d="M102.7,265.8c11.1-2,21.9-5.6,33.1-6.6c7.7-0.2,15.6-0.7,23,1.7c5.1,1.6,10.3,3.4,14.3,7c3.3,3.3,3.2,8.4,2.1,12.7
		c-1.9,7.9-5.3,15.4-9.9,22c-2.9,4.6-8,7.1-12.8,9.3c-10.6,4.6-22.1,7.2-33.6,8c-6.3,0.2-13-0.2-18.5-3.5c-5.3-3.6-6.1-10.8-10.8-15
		c-2.8-2.6-6.2-5.6-5.4-9.9c-3.2-1.3-6.6-3.6-6.7-7.5c-0.8-4.8,3.1-8.2,6.7-10.6C89.9,269.7,96.2,266.9,102.7,265.8 M120,264
		c-12,2.9-24.6,4.9-34.9,12.1c-2,1.6-4.3,3.4-4.8,6.1c-0.1,2.5,2.2,4,3.8,5.5c0.3-2.9-1.3-6.6,0.6-9.1c6.8-0.9,13.6-1.7,20.2-3.7
		c16.7-5,33-12.7,50.8-12.4C143.8,260.3,131.6,261.2,120,264 M132.6,279c0.5,3.1,3.8,3.9,6.4,4.5c3.2-4.2,4.2-11.5-1.1-14.4
		C135.1,271.5,132,274.9,132.6,279 M144.2,271.2c-1.5,1.6-1.4,4-1.6,6c1.9,1.3,3.9,2.5,6,3.5c2.2-2.3,2.7-5.6,2.4-8.7
		C149.8,269.4,145.9,268.9,144.2,271.2 M153.4,270.5c-2.1,2-2.3,6.1-0.1,8.1c4.3,1.8,6.7-4.1,5.4-7.3
		C157.5,269.4,155,268.9,153.4,270.5 M164,277.3c2.9-2,2-6.8-1-8.3C162.1,271.5,159.2,277.1,164,277.3 M124.7,286.5
		c2-0.3,4.4-0.3,5.5-2.3c2.6-3.9,0.9-9.1-2.3-12.1C123.2,275.2,122.4,281.5,124.7,286.5 M114,278.1c-1.8,3.6-0.7,8.8,3,10.8
		c1.9,1,3.9,0.2,5.8-0.4c-0.3-4.6-0.4-9.5-3-13.5C117.7,275.5,115.1,275.9,114,278.1 M105.7,278.2c-1.2,4.4-1.2,9,0,13.4
		c3.5,0.6,7.5-0.2,9.5-3.5c-3.3-1.8-3.4-5.6-4.9-8.6C109.2,277.9,107.2,278.4,105.7,278.2 M99.7,281c-0.8,2.8-0.3,5.7,0.4,8.5
		c-0.3-0.1-0.8-0.5-1.1-0.6c0-2.5-1.7-4.3-3.4-5.8c-1.1,3.9,1.4,7.2,3.8,10c0.3-1.3,0.8-2.5,1.2-3.7c0.6,1.5,1.4,2.9,2.3,4.3
		C104.8,289.3,104.2,283.5,99.7,281 M151.5,299.4c-13.4,6.8-28.7,9.3-43.6,8.8c-8-3-12.4-11.2-19.9-15c4.8,6.5,7.8,14.4,14.1,19.7
		c5.4,4.8,13,5.1,19.8,4.5c11.8-1.3,23.8-4,34.1-10.2c7.5-4.2,11.4-12.5,12.9-20.6C163.6,291.5,158,296.1,151.5,299.4 M154,292.4
		c0,0.6,0,1.8,0,2.3c1,1,2.9-0.3,2.7-1.5C156,292.2,155.1,291.9,154,292.4 M148.3,292.4c-2.3,2.1-5.9,3.4-5.8,7.1
		c3.4-0.4,6.5-1.9,9.2-3.9C150.6,294.5,149.4,293.4,148.3,292.4 M137.1,295.1c-1.4,2.3-1.3,5.3,0.5,7.4c2.5-1.1,5-2.9,4.7-6
		C140.6,296,138.9,295.4,137.1,295.1 M130.4,297.9c-0.7,2.1-0.6,4.3-0.7,6.5c2.1-0.5,4.1-1.1,6-2.1c-0.5-1.7-0.9-3.5-1.2-5.2
		C133.1,297.4,131.4,296.9,130.4,297.9 M124.1,300.2c-0.1,1.9-0.3,3.8-0.3,5.7c1.7-0.5,3.4-0.6,5.1-0.8c-0.5-1.7-1-3.3-1.3-5
		C126.3,300.2,125.2,300.2,124.1,300.2 M115.8,305.7c0.5,1.8,1.6,0.4,2.5-0.2c1.4,0.5,2.9,0.9,4.4,1.1c0-1.8,0-3.6,0-5.5
		c-3.1-0.6-3.8,1.8-4,4.3c-0.4-0.8-1.1-2.5-1.5-3.3C116.6,303.2,115.7,304.4,115.8,305.7z"/>
	<path d="M297.5,350c9.2,2.7,11.9,12.7,17.1,19.6c7.6,9.1,20.1,11.4,29.2,18.6c3.3,4.5,5.6,9.8,6.3,15.4
		c-5.6-3.2-4.4-11.8-10.4-14.4C322.2,380.7,307.2,367,297.5,350z"/>
</g>
</svg>
